%TF.GenerationSoftware,KiCad,Pcbnew,7.0.8*%
%TF.CreationDate,2024-02-20T09:26:03+00:00*%
%TF.ProjectId,CuttleBoard_8Layers,43757474-6c65-4426-9f61-72645f384c61,rev?*%
%TF.SameCoordinates,Original*%
%TF.FileFunction,Copper,L3,Inr*%
%TF.FilePolarity,Positive*%
%FSLAX46Y46*%
G04 Gerber Fmt 4.6, Leading zero omitted, Abs format (unit mm)*
G04 Created by KiCad (PCBNEW 7.0.8) date 2024-02-20 09:26:03*
%MOMM*%
%LPD*%
G01*
G04 APERTURE LIST*
G04 Aperture macros list*
%AMRoundRect*
0 Rectangle with rounded corners*
0 $1 Rounding radius*
0 $2 $3 $4 $5 $6 $7 $8 $9 X,Y pos of 4 corners*
0 Add a 4 corners polygon primitive as box body*
4,1,4,$2,$3,$4,$5,$6,$7,$8,$9,$2,$3,0*
0 Add four circle primitives for the rounded corners*
1,1,$1+$1,$2,$3*
1,1,$1+$1,$4,$5*
1,1,$1+$1,$6,$7*
1,1,$1+$1,$8,$9*
0 Add four rect primitives between the rounded corners*
20,1,$1+$1,$2,$3,$4,$5,0*
20,1,$1+$1,$4,$5,$6,$7,0*
20,1,$1+$1,$6,$7,$8,$9,0*
20,1,$1+$1,$8,$9,$2,$3,0*%
G04 Aperture macros list end*
%TA.AperFunction,CastellatedPad*%
%ADD10RoundRect,0.425000X-0.425000X-1.275000X0.425000X-1.275000X0.425000X1.275000X-0.425000X1.275000X0*%
%TD*%
%TA.AperFunction,CastellatedPad*%
%ADD11RoundRect,0.425000X0.425000X1.275000X-0.425000X1.275000X-0.425000X-1.275000X0.425000X-1.275000X0*%
%TD*%
%TA.AperFunction,ComponentPad*%
%ADD12C,5.600000*%
%TD*%
%TA.AperFunction,CastellatedPad*%
%ADD13RoundRect,0.425000X1.275000X-0.425000X1.275000X0.425000X-1.275000X0.425000X-1.275000X-0.425000X0*%
%TD*%
%TA.AperFunction,CastellatedPad*%
%ADD14RoundRect,0.425000X-1.275000X0.425000X-1.275000X-0.425000X1.275000X-0.425000X1.275000X0.425000X0*%
%TD*%
%TA.AperFunction,ComponentPad*%
%ADD15C,0.500000*%
%TD*%
%TA.AperFunction,ComponentPad*%
%ADD16O,2.000000X3.000000*%
%TD*%
%TA.AperFunction,ComponentPad*%
%ADD17O,2.108200X0.914400*%
%TD*%
%TA.AperFunction,ComponentPad*%
%ADD18O,1.905000X0.914400*%
%TD*%
%TA.AperFunction,ViaPad*%
%ADD19C,0.450000*%
%TD*%
%TA.AperFunction,ViaPad*%
%ADD20C,0.800000*%
%TD*%
%TA.AperFunction,Conductor*%
%ADD21C,0.250000*%
%TD*%
%TA.AperFunction,Conductor*%
%ADD22C,0.200000*%
%TD*%
%TA.AperFunction,Conductor*%
%ADD23C,0.150000*%
%TD*%
%TA.AperFunction,Conductor*%
%ADD24C,0.500000*%
%TD*%
%TA.AperFunction,Conductor*%
%ADD25C,0.300000*%
%TD*%
%TA.AperFunction,Conductor*%
%ADD26C,0.600000*%
%TD*%
G04 APERTURE END LIST*
D10*
%TO.N,+5V*%
%TO.C,5V*%
X135240000Y-74772600D03*
D11*
X135240000Y-74772800D03*
%TD*%
D12*
%TO.N,GND*%
%TO.C,H4*%
X142100000Y-78700000D03*
%TD*%
D10*
%TO.N,GND*%
%TO.C,GND*%
X127508000Y-123222100D03*
D11*
X127508000Y-123222300D03*
%TD*%
D13*
%TO.N,GND*%
%TO.C,TP28*%
X98289800Y-101840000D03*
D14*
X98290000Y-101840000D03*
%TD*%
D13*
%TO.N,GND*%
%TO.C,GND*%
X146699800Y-106380000D03*
D14*
X146700000Y-106380000D03*
%TD*%
D10*
%TO.N,+12V*%
%TO.C,12V*%
X107188000Y-123222100D03*
D11*
X107188000Y-123222300D03*
%TD*%
D10*
%TO.N,GND*%
%TO.C,GND*%
X109728000Y-123222100D03*
D11*
X109728000Y-123222300D03*
%TD*%
D10*
%TO.N,UART9_TX*%
%TO.C,TX*%
X124968000Y-123222100D03*
D11*
X124968000Y-123222300D03*
%TD*%
D10*
%TO.N,GND*%
%TO.C,GND*%
X114808000Y-123222100D03*
D11*
X114808000Y-123222300D03*
%TD*%
D13*
%TO.N,+5V*%
%TO.C,5V*%
X146699800Y-103840000D03*
D14*
X146700000Y-103840000D03*
%TD*%
D10*
%TO.N,+12V*%
%TO.C,12V*%
X107300000Y-74765500D03*
D11*
X107300000Y-74765700D03*
%TD*%
D10*
%TO.N,I2C1_SCL*%
%TO.C,SCL*%
X120000000Y-74778100D03*
D11*
X120000000Y-74778300D03*
%TD*%
D13*
%TO.N,SWDIO*%
%TO.C,CLK*%
X146702900Y-111460000D03*
D14*
X146703100Y-111460000D03*
%TD*%
D13*
%TO.N,GND*%
%TO.C,GND*%
X98289800Y-86600000D03*
D14*
X98290000Y-86600000D03*
%TD*%
D10*
%TO.N,GND*%
%TO.C,GND*%
X137780000Y-74782900D03*
D11*
X137780000Y-74783100D03*
%TD*%
D13*
%TO.N,SWDCLK*%
%TO.C,IO*%
X146700000Y-114000000D03*
D14*
X146700200Y-114000000D03*
%TD*%
D13*
%TO.N,I2C4_SCL*%
%TO.C,SCL*%
X98289800Y-96760000D03*
D14*
X98290000Y-96760000D03*
%TD*%
D15*
%TO.N,/Coil+*%
%TO.C,TP1*%
X99200000Y-111600000D03*
X99800000Y-111400000D03*
X98600000Y-111300000D03*
X98200000Y-110700000D03*
X98200000Y-110000000D03*
D16*
X99400000Y-109900000D03*
%TD*%
D10*
%TO.N,UART4_RX*%
%TO.C,RX*%
X127620000Y-74772600D03*
D11*
X127620000Y-74772800D03*
%TD*%
D13*
%TO.N,I2C4_SDA*%
%TO.C,SDA*%
X98289800Y-99300000D03*
D14*
X98290000Y-99300000D03*
%TD*%
D13*
%TO.N,UART7_RX*%
%TO.C,RX*%
X98289800Y-89140000D03*
D14*
X98290000Y-89140000D03*
%TD*%
D10*
%TO.N,UART3_TX*%
%TO.C,RX*%
X130050000Y-123220000D03*
D11*
X130050000Y-123220200D03*
%TD*%
D13*
%TO.N,NRST*%
%TO.C,NRST*%
X146699800Y-108920000D03*
D14*
X146700000Y-108920000D03*
%TD*%
D10*
%TO.N,GND*%
%TO.C,GND*%
X132700000Y-74772600D03*
D11*
X132700000Y-74772800D03*
%TD*%
D17*
%TO.N,N/C*%
%TO.C,J1*%
X145847200Y-93150000D03*
X145847200Y-102050000D03*
D18*
X142647199Y-93150000D03*
X142647199Y-102050000D03*
%TD*%
D13*
%TO.N,I2C3_SDA*%
%TO.C,SDA*%
X146706000Y-86495000D03*
D14*
X146706200Y-86495000D03*
%TD*%
D10*
%TO.N,+5V*%
%TO.C,5V*%
X137668000Y-123216400D03*
D11*
X137668000Y-123216600D03*
%TD*%
D12*
%TO.N,GND*%
%TO.C,H3*%
X103100000Y-78700000D03*
%TD*%
D15*
%TO.N,/BattPad-*%
%TO.C,TP2*%
X99200000Y-106900000D03*
X99800000Y-106700000D03*
X98600000Y-106600000D03*
X98200000Y-106000000D03*
X98200000Y-105300000D03*
D16*
X99400000Y-105200000D03*
%TD*%
D10*
%TO.N,GND*%
%TO.C,GND*%
X119888000Y-123222100D03*
D11*
X119888000Y-123222300D03*
%TD*%
D13*
%TO.N,GND*%
%TO.C,TP29*%
X98289800Y-94220000D03*
D14*
X98290000Y-94220000D03*
%TD*%
D10*
%TO.N,UART9_RX*%
%TO.C,RX*%
X122521800Y-123222100D03*
D11*
X122521800Y-123222300D03*
%TD*%
D13*
%TO.N,UART7_TX*%
%TO.C,TX*%
X98289800Y-91680000D03*
D14*
X98290000Y-91680000D03*
%TD*%
D10*
%TO.N,+3V3*%
%TO.C,3.3V*%
X117348000Y-123222100D03*
D11*
X117348000Y-123222300D03*
%TD*%
D10*
%TO.N,GND*%
%TO.C,GND*%
X125080000Y-74779300D03*
D11*
X125080000Y-74779500D03*
%TD*%
D12*
%TO.N,GND*%
%TO.C,H2*%
X103100000Y-119400000D03*
%TD*%
D13*
%TO.N,I2C3_SCL*%
%TO.C,SCL*%
X146706000Y-89035000D03*
D14*
X146706200Y-89035000D03*
%TD*%
%TO.N,GND*%
%TO.C,GND*%
X146710200Y-91440000D03*
D13*
X146710000Y-91440000D03*
%TD*%
D10*
%TO.N,GND*%
%TO.C,GND*%
X117460000Y-74771400D03*
D11*
X117460000Y-74771600D03*
%TD*%
D10*
%TO.N,I2C1_SDA*%
%TO.C,SDA*%
X122540000Y-74778100D03*
D11*
X122540000Y-74778300D03*
%TD*%
D10*
%TO.N,+3V3*%
%TO.C,3.3V*%
X112380000Y-74765500D03*
D11*
X112380000Y-74765700D03*
%TD*%
D10*
%TO.N,+3V3*%
%TO.C,3.3V*%
X114920000Y-74765500D03*
D11*
X114920000Y-74765700D03*
%TD*%
D13*
%TO.N,+3V3*%
%TO.C,3.3V*%
X98289800Y-84060000D03*
D14*
X98290000Y-84060000D03*
%TD*%
D10*
%TO.N,UART3_RX*%
%TO.C,TX*%
X132590000Y-123220000D03*
D11*
X132590000Y-123220200D03*
%TD*%
D13*
%TO.N,GND*%
%TO.C,GND*%
X98289800Y-113300000D03*
D14*
X98290000Y-113300000D03*
%TD*%
D13*
%TO.N,GND*%
%TO.C,GND*%
X146702900Y-83960000D03*
D14*
X146703100Y-83960000D03*
%TD*%
D10*
%TO.N,+3V3*%
%TO.C,3.3V*%
X112268000Y-123222100D03*
D11*
X112268000Y-123222300D03*
%TD*%
D10*
%TO.N,GND*%
%TO.C,GND*%
X135128000Y-123216400D03*
D11*
X135128000Y-123216600D03*
%TD*%
D12*
%TO.N,GND*%
%TO.C,H1*%
X142100000Y-119400000D03*
%TD*%
D10*
%TO.N,UART4_TX*%
%TO.C,TX*%
X130160000Y-74766700D03*
D11*
X130160000Y-74766900D03*
%TD*%
D10*
%TO.N,GND*%
%TO.C,GND*%
X109840000Y-74765500D03*
D11*
X109840000Y-74765700D03*
%TD*%
D19*
%TO.N,GND*%
X125225000Y-115100000D03*
X117000000Y-89450000D03*
X124160000Y-110150000D03*
X144300000Y-94250000D03*
X131278571Y-97424897D03*
X120500000Y-88700000D03*
X118152800Y-102300000D03*
X107105000Y-112490000D03*
X112925000Y-99925000D03*
X107105000Y-113070000D03*
X115250000Y-85675000D03*
X112925000Y-100505000D03*
X117575400Y-99840600D03*
X137300000Y-113550000D03*
X138900000Y-85600000D03*
X123830000Y-89200002D03*
X142550000Y-110450000D03*
X124550000Y-85350000D03*
X121480000Y-98590000D03*
X123000000Y-84400000D03*
X141600000Y-110400000D03*
X118732800Y-102300000D03*
X141600000Y-111025000D03*
X124475000Y-85900000D03*
X136800000Y-114450000D03*
X121052800Y-102300000D03*
X140600000Y-94800000D03*
X121900000Y-95650000D03*
X129650000Y-108250000D03*
X112300000Y-99925000D03*
X107730000Y-112490000D03*
X141500000Y-100650000D03*
X136900000Y-86400000D03*
X121000000Y-110900000D03*
X134900000Y-99100000D03*
X139700000Y-84600000D03*
X117575400Y-101000600D03*
X134900000Y-100100000D03*
X104492500Y-92350000D03*
X132750000Y-110950000D03*
X119672800Y-98120000D03*
X133475000Y-108900000D03*
X105600000Y-90450000D03*
X107730000Y-114230000D03*
X123725000Y-100800000D03*
X111500000Y-83650000D03*
X113550000Y-100505000D03*
X125100000Y-114000000D03*
X127280000Y-88760000D03*
X120100000Y-99500000D03*
X107730000Y-113070000D03*
X121075000Y-110200000D03*
X120200000Y-85600000D03*
X130350000Y-84500000D03*
X136200000Y-110970000D03*
X107625000Y-100600000D03*
X120900000Y-86150000D03*
X107625000Y-102340000D03*
X119892800Y-102300000D03*
X122100000Y-89200000D03*
X117575400Y-102160600D03*
X120250000Y-101825000D03*
X107625000Y-101760000D03*
X117930000Y-98120000D03*
X106792500Y-96025000D03*
X120200000Y-86100000D03*
X107850000Y-103225000D03*
X118000000Y-89450000D03*
X126105393Y-96808299D03*
X137500000Y-99100000D03*
X131980000Y-95650000D03*
X137450000Y-114500000D03*
X140200000Y-99150000D03*
X112300000Y-101665000D03*
X118510000Y-98120000D03*
X131475000Y-85875000D03*
X132340000Y-86190000D03*
X118380000Y-101100000D03*
X104717500Y-93550000D03*
X113550000Y-101665000D03*
X117575400Y-101580600D03*
X119312800Y-102300000D03*
X122250000Y-108249998D03*
X120252800Y-98120000D03*
X127280000Y-91460000D03*
X112150000Y-90700000D03*
X120300000Y-86800000D03*
X112300000Y-100505000D03*
X132850000Y-109950000D03*
X117800000Y-113400000D03*
X120832800Y-98120000D03*
X117575400Y-100420600D03*
X107025000Y-103225000D03*
X127175000Y-86650000D03*
X129640000Y-91450000D03*
X134540000Y-90160000D03*
X121412800Y-101330000D03*
X112925000Y-101085000D03*
X125025000Y-114525000D03*
X120472800Y-102300000D03*
X121412800Y-101910000D03*
X137700000Y-83900000D03*
X116750000Y-94350000D03*
X131550000Y-85325000D03*
X137500000Y-100100000D03*
X122820529Y-96910948D03*
X112093940Y-94859402D03*
X139850000Y-110370000D03*
X112300000Y-101085000D03*
X112925000Y-101665000D03*
X117500000Y-112900000D03*
X107730000Y-113650000D03*
X139900000Y-96100000D03*
X142550000Y-111025000D03*
X121075000Y-109150000D03*
X121340000Y-98140000D03*
X115300000Y-84624500D03*
X117840000Y-84500000D03*
X136600000Y-83900000D03*
X134719738Y-92919738D03*
X117575400Y-99260600D03*
X119090000Y-98120000D03*
X127740000Y-98400000D03*
X129725000Y-89775500D03*
X114900000Y-85100000D03*
X137100000Y-85000000D03*
X117580000Y-98680000D03*
X113550000Y-101085000D03*
X129650000Y-109400000D03*
X129570000Y-92640000D03*
X139500000Y-85600000D03*
X130750000Y-89775000D03*
X133860000Y-104230000D03*
X126900000Y-110200000D03*
X113550000Y-99925000D03*
X125400175Y-99149771D03*
X125800000Y-84799998D03*
X120100000Y-100100000D03*
X107625000Y-101180000D03*
X141800000Y-85700000D03*
%TO.N,Net-(U1-EN)*%
X133250000Y-113800000D03*
X139600000Y-112800000D03*
X133250000Y-112450000D03*
%TO.N,Net-(C11-Pad1)*%
X138100000Y-106270000D03*
X140610000Y-113375500D03*
%TO.N,Net-(U3-EN)*%
X121325000Y-112675000D03*
X121325000Y-112075000D03*
X127725000Y-112025000D03*
%TO.N,Net-(U2B-VFBSMPS)*%
X122921116Y-97616105D03*
X126806664Y-99361369D03*
X126750500Y-97709274D03*
X127745500Y-96818347D03*
%TO.N,+5V*%
X137580000Y-104730000D03*
X136730000Y-103130000D03*
X143850000Y-89900000D03*
X137250000Y-103140000D03*
X136200000Y-102600000D03*
X139200000Y-104300000D03*
X136200000Y-103100000D03*
X137290000Y-102630000D03*
X143437250Y-89524500D03*
X136710000Y-102600000D03*
%TO.N,USB_VBUS*%
X141721800Y-96342200D03*
X134080000Y-97450500D03*
%TO.N,Net-(U2B-VLXSMPS)*%
X123712659Y-97599874D03*
D20*
%TO.N,+12V*%
X118400000Y-116150000D03*
X100400000Y-82600000D03*
X106106119Y-116400000D03*
X131310979Y-116185577D03*
X118975000Y-108375000D03*
X119987500Y-108502500D03*
X127100000Y-81500000D03*
X138800000Y-81700000D03*
X144400000Y-116300000D03*
X113450000Y-81900000D03*
D19*
%TO.N,+3V3*%
X130500000Y-87500000D03*
X116260000Y-84670000D03*
X123400000Y-87425000D03*
X122579998Y-100390000D03*
X126747052Y-96908932D03*
X122875000Y-101550000D03*
D20*
X125900000Y-120500000D03*
D19*
X126122689Y-99217311D03*
X115865000Y-91100000D03*
X110350006Y-92800000D03*
X122987969Y-96065725D03*
X122125000Y-87525000D03*
X134674500Y-88790000D03*
X127800000Y-104000000D03*
X123400000Y-86950000D03*
X107163200Y-89986800D03*
X128418807Y-98324500D03*
X119850000Y-84250000D03*
X135900000Y-89675000D03*
X116900000Y-84624500D03*
X112100000Y-94150000D03*
X125425500Y-92600000D03*
X129230178Y-88344822D03*
X121724646Y-96595353D03*
X129225000Y-87600000D03*
X107475000Y-84150000D03*
X134650000Y-86825000D03*
X125336809Y-98399500D03*
X117181037Y-85054300D03*
X125400000Y-103900000D03*
X122100000Y-88275000D03*
X116200000Y-85545474D03*
X107150000Y-85350000D03*
X122800000Y-87525000D03*
X129900000Y-87600000D03*
X130500000Y-87025000D03*
X126570000Y-92590000D03*
%TO.N,/PA9_USB_VBUS_sense*%
X139600000Y-94850000D03*
X130824000Y-98393284D03*
%TO.N,I2C3_SCL*%
X142700000Y-90650000D03*
X130824000Y-99042787D03*
%TO.N,I2C3_SDA*%
X128597500Y-99140367D03*
X142030000Y-89039998D03*
D20*
%TO.N,I2C2_SCL*%
X125622300Y-80297700D03*
D19*
X137700000Y-117400000D03*
X127750000Y-103225000D03*
%TO.N,I2C2_SDA*%
X132000000Y-119000000D03*
X125700000Y-103100000D03*
D20*
X122400000Y-79000000D03*
D19*
%TO.N,/USB_D-*%
X141597878Y-97207878D03*
X143769700Y-97759537D03*
%TO.N,MOSI_GYRO*%
X119200000Y-90500000D03*
X112708833Y-82840000D03*
X125099994Y-89419994D03*
X125230000Y-91890000D03*
X132050000Y-88640000D03*
X119000000Y-87400000D03*
X130670002Y-91990000D03*
%TO.N,MISO_GYRO*%
X131721800Y-91071800D03*
X119600000Y-87800010D03*
X125709999Y-88629999D03*
X125725000Y-90900000D03*
X132600000Y-89297568D03*
X120100000Y-90400000D03*
%TO.N,I2C4_SCL*%
X115100000Y-91640000D03*
%TO.N,Net-(J1-CC2)*%
X144425908Y-97507134D03*
X140925000Y-95550000D03*
%TO.N,Net-(U2A-BOOT0)*%
X127300000Y-93800000D03*
X134800000Y-91300000D03*
%TO.N,I2C1_SCL*%
X124603751Y-96914109D03*
X124310000Y-93300000D03*
%TO.N,I2C1_SDA*%
X126100000Y-93550000D03*
%TO.N,I2C4_SDA*%
X116750000Y-92900000D03*
X123724749Y-98400239D03*
X118662500Y-92112500D03*
%TO.N,CS_FLASH*%
X118800000Y-93610000D03*
X110025000Y-91450000D03*
%TO.N,CS_IMU1*%
X133200000Y-88390000D03*
X130675490Y-92985000D03*
%TO.N,INT_IMU1*%
X129313373Y-93611612D03*
X133830000Y-89390000D03*
%TO.N,Net-(C50-Pad1)*%
X125600000Y-106400000D03*
X128600000Y-112900000D03*
%TO.N,SWDCLK*%
X129149439Y-96119439D03*
%TO.N,SWDIO*%
X130304694Y-96155313D03*
%TO.N,UART4_RX*%
X127705584Y-96018773D03*
%TO.N,UART4_TX*%
X128510000Y-95211188D03*
%TO.N,UART7_RX*%
X126068046Y-100743044D03*
%TO.N,UART7_TX*%
X126175012Y-101550000D03*
%TO.N,UART9_RX*%
X126925006Y-100000000D03*
%TO.N,UART9_TX*%
X128523080Y-99998080D03*
%TO.N,NRST*%
X133200000Y-101500000D03*
X120400000Y-97200000D03*
X124400000Y-104700500D03*
%TO.N,UART3_RX*%
X128444641Y-100695347D03*
%TO.N,UART3_TX*%
X129303041Y-101559405D03*
%TD*%
D21*
%TO.N,USB_VBUS*%
X134080500Y-97450000D02*
X140190000Y-97450000D01*
X140190000Y-97450000D02*
X141297800Y-96342200D01*
X134080000Y-97450500D02*
X134080500Y-97450000D01*
X141297800Y-96342200D02*
X141721800Y-96342200D01*
%TO.N,I2C1_SCL*%
X124603751Y-96914109D02*
X124310000Y-96620358D01*
X124310000Y-96620358D02*
X124310000Y-93300000D01*
D22*
%TO.N,/PA9_USB_VBUS_sense*%
X130824000Y-98393284D02*
X131556716Y-98393284D01*
X131556716Y-98393284D02*
X135100000Y-94850000D01*
X135100000Y-94850000D02*
X139600000Y-94850000D01*
D23*
%TO.N,Net-(U2B-VFBSMPS)*%
X126806664Y-99361369D02*
X126750500Y-99305205D01*
X126750500Y-99305205D02*
X126750500Y-97709274D01*
D22*
%TO.N,SWDCLK*%
X138735000Y-105745000D02*
X143790000Y-110800000D01*
X134337893Y-105745000D02*
X138735000Y-105745000D01*
X129149439Y-96119439D02*
X129149439Y-96209439D01*
X129149439Y-96209439D02*
X129899500Y-96959500D01*
X129899500Y-96959500D02*
X129899500Y-101306607D01*
X143790000Y-110800000D02*
X143790000Y-111890000D01*
X143790000Y-111890000D02*
X145900000Y-114000000D01*
X129899500Y-101306607D02*
X134337893Y-105745000D01*
D24*
%TO.N,+3V3*%
X125400000Y-103900000D02*
X128700000Y-107200000D01*
X128700000Y-109719239D02*
X129375000Y-110394239D01*
X128700000Y-107200000D02*
X128700000Y-109719239D01*
X129375000Y-110394239D02*
X129375000Y-117025000D01*
X129375000Y-117025000D02*
X125900000Y-120500000D01*
D21*
%TO.N,I2C2_SCL*%
X134200000Y-117400000D02*
X137700000Y-117400000D01*
X127750000Y-103225000D02*
X127925004Y-103225000D01*
X127925004Y-103225000D02*
X130750000Y-106049996D01*
X130750000Y-106049996D02*
X130750000Y-113950000D01*
X130750000Y-113950000D02*
X134200000Y-117400000D01*
D25*
%TO.N,Net-(C11-Pad1)*%
X138110000Y-106270000D02*
X138100000Y-106270000D01*
X140610000Y-113375500D02*
X140610000Y-108770000D01*
X140610000Y-108770000D02*
X138110000Y-106270000D01*
D22*
%TO.N,Net-(U2B-VFBSMPS)*%
X123159541Y-97365478D02*
X123499519Y-97025500D01*
X122921116Y-97616105D02*
X123159541Y-97377680D01*
X124540924Y-97650000D02*
X126691226Y-97650000D01*
X123499519Y-97025500D02*
X123916424Y-97025500D01*
X123159541Y-97377680D02*
X123159541Y-97365478D01*
X126691226Y-97650000D02*
X126750500Y-97709274D01*
X123916424Y-97025500D02*
X124540924Y-97650000D01*
D26*
%TO.N,+5V*%
X143850000Y-89900000D02*
X139000000Y-89900000D01*
X139000000Y-89900000D02*
X135240000Y-86140000D01*
X135240000Y-86140000D02*
X135240000Y-75572800D01*
%TO.N,+3V3*%
X105860000Y-84060000D02*
X99090000Y-84060000D01*
X107150000Y-85350000D02*
X105860000Y-84060000D01*
D21*
%TO.N,I2C2_SDA*%
X130300000Y-107700000D02*
X125700000Y-103100000D01*
X130300000Y-117300000D02*
X130300000Y-107700000D01*
X132000000Y-119000000D02*
X130300000Y-117300000D01*
D23*
%TO.N,/USB_D-*%
X141628178Y-97198341D02*
X143248341Y-97198341D01*
X143248341Y-97198341D02*
X143800000Y-97750000D01*
D25*
%TO.N,MOSI_GYRO*%
X112708833Y-84408833D02*
X115700000Y-87400000D01*
D21*
X118875000Y-90175000D02*
X119200000Y-90500000D01*
X132050000Y-89400000D02*
X130670002Y-90779998D01*
X119000000Y-87400000D02*
X118875000Y-87525000D01*
D25*
X115700000Y-87400000D02*
X119000000Y-87400000D01*
D21*
X118875000Y-87525000D02*
X118875000Y-90175000D01*
X125099994Y-91759994D02*
X125230000Y-91890000D01*
X125099994Y-89419994D02*
X125099994Y-91759994D01*
X132050000Y-88640000D02*
X132050000Y-89400000D01*
X130670002Y-90779998D02*
X130670002Y-91990000D01*
D25*
X112708833Y-82840000D02*
X112708833Y-84408833D01*
D21*
%TO.N,MISO_GYRO*%
X119600000Y-87800010D02*
X119600000Y-89900000D01*
X125709999Y-88629999D02*
X125850000Y-88770000D01*
X125850000Y-88770000D02*
X125850000Y-90775000D01*
X119600000Y-89900000D02*
X120100000Y-90400000D01*
X131721800Y-91071800D02*
X132600000Y-90193600D01*
X132600000Y-90193600D02*
X132600000Y-89297568D01*
X125850000Y-90775000D02*
X125725000Y-90900000D01*
D23*
%TO.N,Net-(J1-CC2)*%
X143055300Y-95540463D02*
X140955300Y-95540463D01*
X144456208Y-97497649D02*
X144456208Y-96941371D01*
X144456208Y-96941371D02*
X143055300Y-95540463D01*
D22*
%TO.N,Net-(U2A-BOOT0)*%
X131780000Y-94320000D02*
X134800000Y-91300000D01*
X127820000Y-94320000D02*
X131780000Y-94320000D01*
X127300000Y-93800000D02*
X127820000Y-94320000D01*
D23*
%TO.N,I2C1_SCL*%
X121425000Y-77375000D02*
X120000000Y-75950000D01*
X121425000Y-90525000D02*
X121425000Y-77375000D01*
X124310000Y-93300000D02*
X124200000Y-93300000D01*
X124200000Y-93300000D02*
X121425000Y-90525000D01*
D21*
%TO.N,I2C1_SDA*%
X126370000Y-79408300D02*
X123125000Y-76163300D01*
X126010000Y-93460000D02*
X126010000Y-91790000D01*
X126100000Y-93550000D02*
X126010000Y-93460000D01*
X126370000Y-91430000D02*
X126370000Y-79408300D01*
X126010000Y-91790000D02*
X126370000Y-91430000D01*
D25*
%TO.N,I2C4_SDA*%
X122594007Y-98400239D02*
X123724749Y-98400239D01*
X119780000Y-93230000D02*
X119780000Y-95586232D01*
X118662500Y-92112500D02*
X119780000Y-93230000D01*
X119780000Y-95586232D02*
X122594007Y-98400239D01*
D21*
%TO.N,CS_FLASH*%
X118800000Y-93610000D02*
X118690000Y-93500000D01*
X118690000Y-93500000D02*
X112075000Y-93500000D01*
X112075000Y-93500000D02*
X110025000Y-91450000D01*
%TO.N,CS_IMU1*%
X133200000Y-88390000D02*
X133200000Y-90552126D01*
X133200000Y-90552126D02*
X130767126Y-92985000D01*
X130767126Y-92985000D02*
X130675490Y-92985000D01*
%TO.N,INT_IMU1*%
X131163388Y-93611612D02*
X129313373Y-93611612D01*
X133830000Y-90945000D02*
X131163388Y-93611612D01*
X133830000Y-89390000D02*
X133830000Y-90945000D01*
%TO.N,Net-(C50-Pad1)*%
X128600000Y-112900000D02*
X128600000Y-110432411D01*
X127650000Y-109482411D02*
X127650000Y-108450000D01*
X128600000Y-110432411D02*
X127650000Y-109482411D01*
X127650000Y-108450000D02*
X125600000Y-106400000D01*
D22*
%TO.N,SWDIO*%
X130299500Y-99769500D02*
X130299500Y-96188670D01*
X135875000Y-105345000D02*
X130299500Y-99769500D01*
X145260000Y-111460000D02*
X139145000Y-105345000D01*
X139145000Y-105345000D02*
X135875000Y-105345000D01*
%TO.N,UART7_RX*%
X114500000Y-98300000D02*
X114500000Y-103200000D01*
X122641090Y-104170000D02*
X126068046Y-100743044D01*
X114500000Y-103200000D02*
X115470000Y-104170000D01*
X115470000Y-104170000D02*
X122641090Y-104170000D01*
X99090000Y-89140000D02*
X105340000Y-89140000D01*
X105340000Y-89140000D02*
X114500000Y-98300000D01*
%TO.N,UART7_TX*%
X113150000Y-105350000D02*
X122375012Y-105350000D01*
X97489800Y-91680000D02*
X99480000Y-91680000D01*
X122375012Y-105350000D02*
X126175012Y-101550000D01*
X99480000Y-91680000D02*
X113150000Y-105350000D01*
%TO.N,NRST*%
X133300000Y-101600000D02*
X138300000Y-101600000D01*
X140200000Y-105000000D02*
X140200000Y-103500000D01*
X133300000Y-101600000D02*
X133200000Y-101500000D01*
X145899800Y-108920000D02*
X144120000Y-108920000D01*
X140200000Y-103500000D02*
X138300000Y-101600000D01*
X144120000Y-108920000D02*
X140200000Y-105000000D01*
%TD*%
%TA.AperFunction,Conductor*%
%TO.N,Net-(U3-EN)*%
G36*
X128167395Y-110724781D02*
G01*
X128213223Y-110777522D01*
X128224500Y-110829189D01*
X128224500Y-112560991D01*
X128204815Y-112628030D01*
X128197240Y-112638149D01*
X128195871Y-112640280D01*
X128139069Y-112764657D01*
X128139068Y-112764662D01*
X128119610Y-112900000D01*
X128139068Y-113035337D01*
X128139070Y-113035345D01*
X128195867Y-113159714D01*
X128195869Y-113159716D01*
X128195870Y-113159718D01*
X128219713Y-113187235D01*
X128248738Y-113250790D01*
X128250000Y-113268437D01*
X128250000Y-113276256D01*
X128230315Y-113343295D01*
X128177511Y-113389050D01*
X128126257Y-113400256D01*
X121152099Y-113414715D01*
X121085019Y-113395169D01*
X121039155Y-113342460D01*
X121027842Y-113290715D01*
X121027842Y-111480224D01*
X121047527Y-111413185D01*
X121100331Y-111367430D01*
X121116908Y-111361247D01*
X121199558Y-111336979D01*
X121199559Y-111336979D01*
X121314586Y-111263057D01*
X121314586Y-111263056D01*
X121314589Y-111263055D01*
X121404130Y-111159718D01*
X121460931Y-111035342D01*
X121480390Y-110900000D01*
X121474039Y-110855830D01*
X121483982Y-110786675D01*
X121529737Y-110733870D01*
X121596600Y-110714186D01*
X128100331Y-110705190D01*
X128167395Y-110724781D01*
G37*
%TD.AperFunction*%
%TD*%
%TA.AperFunction,Conductor*%
%TO.N,Net-(U1-EN)*%
G36*
X140069057Y-111619685D02*
G01*
X140114812Y-111672489D01*
X140126018Y-111724000D01*
X140126018Y-114176000D01*
X140106333Y-114243039D01*
X140053529Y-114288794D01*
X140002018Y-114300000D01*
X137960217Y-114300000D01*
X137893178Y-114280315D01*
X137855898Y-114243034D01*
X137854126Y-114240276D01*
X137764590Y-114136946D01*
X137764586Y-114136942D01*
X137664018Y-114072313D01*
X137618262Y-114019510D01*
X137608318Y-113950351D01*
X137637340Y-113886797D01*
X137704130Y-113809718D01*
X137760931Y-113685342D01*
X137780390Y-113550000D01*
X137760931Y-113414658D01*
X137743048Y-113375500D01*
X137704132Y-113290285D01*
X137704127Y-113290278D01*
X137614590Y-113186946D01*
X137614586Y-113186942D01*
X137523736Y-113128558D01*
X137499561Y-113113022D01*
X137499560Y-113113021D01*
X137499559Y-113113021D01*
X137368368Y-113074500D01*
X137368367Y-113074500D01*
X137231633Y-113074500D01*
X137231632Y-113074500D01*
X137100440Y-113113021D01*
X136985413Y-113186942D01*
X136985409Y-113186946D01*
X136895872Y-113290278D01*
X136895867Y-113290285D01*
X136839070Y-113414654D01*
X136839068Y-113414662D01*
X136819610Y-113550000D01*
X136839068Y-113685337D01*
X136839069Y-113685342D01*
X136890970Y-113798988D01*
X136900914Y-113868147D01*
X136871889Y-113931703D01*
X136813111Y-113969477D01*
X136778176Y-113974500D01*
X136731632Y-113974500D01*
X136600440Y-114013021D01*
X136485413Y-114086942D01*
X136485409Y-114086946D01*
X136395872Y-114190278D01*
X136395870Y-114190281D01*
X136378867Y-114227513D01*
X136333111Y-114280316D01*
X136266073Y-114300000D01*
X132525018Y-114300000D01*
X132457979Y-114280315D01*
X132412224Y-114227511D01*
X132401018Y-114176000D01*
X132401018Y-111724000D01*
X132420703Y-111656961D01*
X132473507Y-111611206D01*
X132525018Y-111600000D01*
X140002018Y-111600000D01*
X140069057Y-111619685D01*
G37*
%TD.AperFunction*%
%TD*%
M02*
