M48
; DRILL file {KiCad 7.0.8} date 2024 February 20, Tuesday 09:26:06
; FORMAT={-:-/ absolute / metric / decimal}
; #@! TF.CreationDate,2024-02-20T09:26:06+00:00
; #@! TF.GenerationSoftware,Kicad,Pcbnew,7.0.8
; #@! TF.FileFunction,Plated,1,8,PTH
FMAT,2
METRIC
; #@! TA.AperFunction,Plated,PTH,ViaDrill
T1C0.200
; #@! TA.AperFunction,Plated,PTH,ComponentDrill
T2C0.300
; #@! TA.AperFunction,Plated,PTH,ViaDrill
T3C0.400
; #@! TA.AperFunction,Plated,PTH,ComponentDrill
T4C0.500
; #@! TA.AperFunction,Plated,PTH,ComponentDrill
T5C1.000
; #@! TA.AperFunction,Plated,PTH,ComponentDrill
T6C1.600
; #@! TA.AperFunction,Plated,PTH,ComponentDrill
T7C3.200
%
G90
G05
T1
X104.492Y-92.35
X104.718Y-93.55
X105.6Y-90.45
X106.792Y-96.025
X107.025Y-103.225
X107.105Y-112.49
X107.105Y-113.07
X107.15Y-85.35
X107.163Y-89.987
X107.475Y-84.15
X107.625Y-100.6
X107.625Y-101.18
X107.625Y-101.76
X107.625Y-102.34
X107.73Y-112.49
X107.73Y-113.07
X107.73Y-113.65
X107.73Y-114.23
X107.85Y-103.225
X110.025Y-91.45
X110.35Y-92.8
X111.5Y-83.65
X112.094Y-94.859
X112.1Y-94.15
X112.15Y-90.7
X112.3Y-99.925
X112.3Y-100.505
X112.3Y-101.085
X112.3Y-101.665
X112.709Y-82.84
X112.925Y-99.925
X112.925Y-100.505
X112.925Y-101.085
X112.925Y-101.665
X113.55Y-99.925
X113.55Y-100.505
X113.55Y-101.085
X113.55Y-101.665
X114.9Y-85.1
X115.1Y-91.64
X115.25Y-85.675
X115.3Y-84.624
X115.865Y-91.1
X116.2Y-85.545
X116.26Y-84.67
X116.75Y-92.9
X116.75Y-94.35
X116.9Y-84.624
X117.0Y-89.45
X117.181Y-85.054
X117.5Y-112.9
X117.575Y-99.261
X117.575Y-99.841
X117.575Y-100.421
X117.575Y-101.001
X117.575Y-101.581
X117.575Y-102.161
X117.58Y-98.68
X117.8Y-113.4
X117.84Y-84.5
X117.93Y-98.12
X118.0Y-89.45
X118.153Y-102.3
X118.38Y-101.1
X118.51Y-98.12
X118.662Y-92.112
X118.733Y-102.3
X118.8Y-93.61
X119.0Y-87.4
X119.09Y-98.12
X119.2Y-90.5
X119.313Y-102.3
X119.6Y-87.8
X119.673Y-98.12
X119.85Y-84.25
X119.893Y-102.3
X120.1Y-90.4
X120.1Y-99.5
X120.1Y-100.1
X120.2Y-85.6
X120.2Y-86.1
X120.25Y-101.825
X120.253Y-98.12
X120.3Y-86.8
X120.4Y-97.2
X120.473Y-102.3
X120.5Y-88.7
X120.833Y-98.12
X120.9Y-86.15
X121.0Y-110.9
X121.053Y-102.3
X121.075Y-109.15
X121.075Y-110.2
X121.325Y-112.075
X121.325Y-112.675
X121.34Y-98.14
X121.413Y-101.33
X121.413Y-101.91
X121.48Y-98.59
X121.725Y-96.595
X121.9Y-95.65
X122.1Y-88.275
X122.1Y-89.2
X122.125Y-87.525
X122.25Y-108.25
X122.58Y-100.39
X122.8Y-87.525
X122.821Y-96.911
X122.875Y-101.55
X122.921Y-97.616
X122.988Y-96.066
X123.0Y-84.4
X123.4Y-86.95
X123.4Y-87.425
X123.713Y-97.6
X123.725Y-98.4
X123.725Y-100.8
X123.83Y-89.2
X124.16Y-110.15
X124.31Y-93.3
X124.4Y-104.7
X124.475Y-85.9
X124.55Y-85.35
X124.604Y-96.914
X125.025Y-114.525
X125.1Y-89.42
X125.1Y-114.0
X125.225Y-115.1
X125.23Y-91.89
X125.337Y-98.399
X125.4Y-103.9
X125.4Y-99.15
X125.425Y-92.6
X125.6Y-106.4
X125.7Y-103.1
X125.71Y-88.63
X125.725Y-90.9
X125.8Y-84.8
X126.068Y-100.743
X126.1Y-93.55
X126.105Y-96.808
X126.123Y-99.217
X126.175Y-101.55
X126.57Y-92.59
X126.747Y-96.909
X126.75Y-97.709
X126.807Y-99.361
X126.9Y-110.2
X126.925Y-100.0
X127.175Y-86.65
X127.28Y-88.76
X127.28Y-91.46
X127.3Y-93.8
X127.706Y-96.019
X127.725Y-112.025
X127.74Y-98.4
X127.745Y-96.818
X127.75Y-103.225
X127.8Y-104.0
X128.419Y-98.325
X128.445Y-100.695
X128.51Y-95.211
X128.523Y-99.998
X128.597Y-99.14
X128.6Y-112.9
X129.149Y-96.119
X129.225Y-87.6
X129.23Y-88.345
X129.303Y-101.559
X129.313Y-93.612
X129.57Y-92.64
X129.64Y-91.45
X129.65Y-108.25
X129.65Y-109.4
X129.725Y-89.775
X129.9Y-87.6
X130.305Y-96.155
X130.35Y-84.5
X130.5Y-87.025
X130.5Y-87.5
X130.67Y-91.99
X130.675Y-92.985
X130.75Y-89.775
X130.824Y-98.393
X130.824Y-99.043
X131.279Y-97.425
X131.475Y-85.875
X131.55Y-85.325
X131.722Y-91.072
X131.98Y-95.65
X132.0Y-119.0
X132.05Y-88.64
X132.34Y-86.19
X132.6Y-89.298
X132.75Y-110.95
X132.85Y-109.95
X133.2Y-88.39
X133.2Y-101.5
X133.25Y-112.45
X133.25Y-113.8
X133.475Y-108.9
X133.83Y-89.39
X133.86Y-104.23
X134.08Y-97.45
X134.54Y-90.16
X134.65Y-86.825
X134.674Y-88.79
X134.72Y-92.92
X134.8Y-91.3
X134.9Y-99.1
X134.9Y-100.1
X135.9Y-89.675
X136.2Y-102.6
X136.2Y-103.1
X136.2Y-110.97
X136.6Y-83.9
X136.71Y-102.6
X136.73Y-103.13
X136.8Y-114.45
X136.9Y-86.4
X137.1Y-85.0
X137.25Y-103.14
X137.29Y-102.63
X137.3Y-113.55
X137.45Y-114.5
X137.5Y-99.1
X137.5Y-100.1
X137.58Y-104.73
X137.7Y-83.9
X137.7Y-117.4
X138.1Y-106.27
X138.9Y-85.6
X139.2Y-104.3
X139.5Y-85.6
X139.6Y-94.85
X139.6Y-112.8
X139.7Y-84.6
X139.85Y-110.37
X139.9Y-96.1
X140.2Y-99.15
X140.6Y-94.8
X140.61Y-113.375
X140.925Y-95.55
X141.5Y-100.65
X141.598Y-97.208
X141.6Y-110.4
X141.6Y-111.025
X141.722Y-96.342
X141.8Y-85.7
X142.03Y-89.04
X142.55Y-110.45
X142.55Y-111.025
X142.7Y-90.65
X143.437Y-89.524
X143.77Y-97.76
X143.85Y-89.9
X144.3Y-94.25
X144.426Y-97.507
T2
X98.2Y-105.3
X98.2Y-106.0
X98.2Y-110.0
X98.2Y-110.7
X98.6Y-106.6
X98.6Y-111.3
X99.2Y-106.9
X99.2Y-111.6
X99.8Y-106.7
X99.8Y-111.4
T3
X100.4Y-82.6
X106.106Y-116.4
X113.45Y-81.9
X118.4Y-116.15
X118.975Y-108.375
X119.987Y-108.502
X122.4Y-79.0
X125.622Y-80.298
X125.9Y-120.5
X127.1Y-81.5
X131.311Y-116.186
X138.8Y-81.7
X144.4Y-116.3
T5
X97.49Y-84.06
X97.49Y-86.6
X97.49Y-89.14
X97.49Y-91.68
X97.49Y-94.22
X97.49Y-96.76
X97.49Y-99.3
X97.49Y-101.84
X97.49Y-113.3
X99.09Y-84.06
X99.09Y-86.6
X99.09Y-89.14
X99.09Y-91.68
X99.09Y-94.22
X99.09Y-96.76
X99.09Y-99.3
X99.09Y-101.84
X99.09Y-113.3
X107.188Y-122.422
X107.188Y-124.022
X107.3Y-73.965
X107.3Y-75.566
X109.728Y-122.422
X109.728Y-124.022
X109.84Y-73.965
X109.84Y-75.566
X112.268Y-122.422
X112.268Y-124.022
X112.38Y-73.965
X112.38Y-75.566
X114.808Y-122.422
X114.808Y-124.022
X114.92Y-73.965
X114.92Y-75.566
X117.348Y-122.422
X117.348Y-124.022
X117.46Y-73.971
X117.46Y-75.572
X119.888Y-122.422
X119.888Y-124.022
X120.0Y-73.978
X120.0Y-75.578
X122.522Y-122.422
X122.522Y-124.022
X122.54Y-73.978
X122.54Y-75.578
X124.968Y-122.422
X124.968Y-124.022
X125.08Y-73.979
X125.08Y-75.579
X127.508Y-122.422
X127.508Y-124.022
X127.62Y-73.973
X127.62Y-75.573
X130.05Y-122.42
X130.05Y-124.02
X130.16Y-73.967
X130.16Y-75.567
X132.59Y-122.42
X132.59Y-124.02
X132.7Y-73.973
X132.7Y-75.573
X135.128Y-122.416
X135.128Y-124.017
X135.24Y-73.973
X135.24Y-75.573
X137.668Y-122.416
X137.668Y-124.017
X137.78Y-73.983
X137.78Y-75.583
X145.9Y-103.84
X145.9Y-106.38
X145.9Y-108.92
X145.9Y-114.0
X145.903Y-83.96
X145.903Y-111.46
X145.906Y-86.495
X145.906Y-89.035
X145.91Y-91.44
X147.5Y-103.84
X147.5Y-106.38
X147.5Y-108.92
X147.5Y-114.0
X147.503Y-83.96
X147.503Y-111.46
X147.506Y-86.495
X147.506Y-89.035
X147.51Y-91.44
T7
X103.1Y-78.7
X103.1Y-119.4
X142.1Y-78.7
X142.1Y-119.4
T4
G00X142.147Y-93.15
M15
G01X143.147Y-93.15
M16
G05
G00X142.147Y-102.05
M15
G01X143.147Y-102.05
M16
G05
G00X145.247Y-93.15
M15
G01X146.447Y-93.15
M16
G05
G00X145.247Y-102.05
M15
G01X146.447Y-102.05
M16
G05
T6
G00X99.4Y-105.7
M15
G01X99.4Y-104.7
M16
G05
G00X99.4Y-110.4
M15
G01X99.4Y-109.4
M16
G05
T0
M30
