%TF.GenerationSoftware,KiCad,Pcbnew,7.0.8*%
%TF.CreationDate,2024-02-20T09:26:03+00:00*%
%TF.ProjectId,CuttleBoard_8Layers,43757474-6c65-4426-9f61-72645f384c61,rev?*%
%TF.SameCoordinates,Original*%
%TF.FileFunction,Paste,Bot*%
%TF.FilePolarity,Positive*%
%FSLAX46Y46*%
G04 Gerber Fmt 4.6, Leading zero omitted, Abs format (unit mm)*
G04 Created by KiCad (PCBNEW 7.0.8) date 2024-02-20 09:26:03*
%MOMM*%
%LPD*%
G01*
G04 APERTURE LIST*
G04 Aperture macros list*
%AMRoundRect*
0 Rectangle with rounded corners*
0 $1 Rounding radius*
0 $2 $3 $4 $5 $6 $7 $8 $9 X,Y pos of 4 corners*
0 Add a 4 corners polygon primitive as box body*
4,1,4,$2,$3,$4,$5,$6,$7,$8,$9,$2,$3,0*
0 Add four circle primitives for the rounded corners*
1,1,$1+$1,$2,$3*
1,1,$1+$1,$4,$5*
1,1,$1+$1,$6,$7*
1,1,$1+$1,$8,$9*
0 Add four rect primitives between the rounded corners*
20,1,$1+$1,$2,$3,$4,$5,0*
20,1,$1+$1,$4,$5,$6,$7,0*
20,1,$1+$1,$6,$7,$8,$9,0*
20,1,$1+$1,$8,$9,$2,$3,0*%
G04 Aperture macros list end*
%ADD10RoundRect,0.140000X-0.170000X0.140000X-0.170000X-0.140000X0.170000X-0.140000X0.170000X0.140000X0*%
%ADD11RoundRect,0.350000X0.350000X-0.650000X0.350000X0.650000X-0.350000X0.650000X-0.350000X-0.650000X0*%
%ADD12RoundRect,0.350000X-0.650000X-0.350000X0.650000X-0.350000X0.650000X0.350000X-0.650000X0.350000X0*%
%ADD13RoundRect,0.350000X-0.350000X0.650000X-0.350000X-0.650000X0.350000X-0.650000X0.350000X0.650000X0*%
%ADD14RoundRect,0.140000X-0.140000X-0.170000X0.140000X-0.170000X0.140000X0.170000X-0.140000X0.170000X0*%
%ADD15RoundRect,0.350000X0.650000X0.350000X-0.650000X0.350000X-0.650000X-0.350000X0.650000X-0.350000X0*%
%ADD16RoundRect,0.218750X-0.218750X-0.256250X0.218750X-0.256250X0.218750X0.256250X-0.218750X0.256250X0*%
%ADD17RoundRect,0.140000X0.170000X-0.140000X0.170000X0.140000X-0.170000X0.140000X-0.170000X-0.140000X0*%
%ADD18RoundRect,0.140000X0.140000X0.170000X-0.140000X0.170000X-0.140000X-0.170000X0.140000X-0.170000X0*%
%ADD19RoundRect,0.250000X0.325000X0.650000X-0.325000X0.650000X-0.325000X-0.650000X0.325000X-0.650000X0*%
G04 APERTURE END LIST*
D10*
%TO.C,C33*%
X129320000Y-99960000D03*
X129320000Y-99000000D03*
%TD*%
D11*
%TO.C,U12*%
X118633333Y-114800000D03*
X117033333Y-114800000D03*
X115433333Y-114800000D03*
X113833333Y-114800000D03*
D12*
X111333333Y-115800000D03*
X111333333Y-117400000D03*
X111333333Y-119000000D03*
X111333333Y-120600000D03*
D13*
X113033333Y-133300000D03*
X114633333Y-133300000D03*
X116233333Y-133300000D03*
X117833333Y-133300000D03*
X119433333Y-133300000D03*
D12*
X121133333Y-119000000D03*
X121133333Y-117400000D03*
X121133333Y-115800000D03*
%TD*%
D10*
%TO.C,C22*%
X127570000Y-100480000D03*
X127570000Y-99520000D03*
%TD*%
D14*
%TO.C,C21*%
X127460000Y-96720000D03*
X128420000Y-96720000D03*
%TD*%
%TO.C,C31*%
X122870000Y-101450000D03*
X123830000Y-101450000D03*
%TD*%
D13*
%TO.C,U8*%
X113833333Y-83200000D03*
X115433333Y-83200000D03*
X117033333Y-83200000D03*
X118633333Y-83200000D03*
D15*
X121133333Y-82200000D03*
X121133333Y-80600000D03*
X121133333Y-79000000D03*
X121133333Y-77400000D03*
D11*
X119433333Y-64700000D03*
X117833333Y-64700000D03*
X116233333Y-64700000D03*
X114633333Y-64700000D03*
X113033333Y-64700000D03*
D15*
X111333333Y-79000000D03*
X111333333Y-80600000D03*
X111333333Y-82200000D03*
%TD*%
D14*
%TO.C,C35*%
X126510000Y-98530000D03*
X127470000Y-98530000D03*
%TD*%
D11*
%TO.C,U13*%
X106100000Y-114800000D03*
X104500000Y-114800000D03*
X102900000Y-114800000D03*
X101300000Y-114800000D03*
D12*
X98800000Y-115800000D03*
X98800000Y-117400000D03*
X98800000Y-119000000D03*
X98800000Y-120600000D03*
D13*
X100500000Y-133300000D03*
X102100000Y-133300000D03*
X103700000Y-133300000D03*
X105300000Y-133300000D03*
X106900000Y-133300000D03*
D12*
X108600000Y-119000000D03*
X108600000Y-117400000D03*
X108600000Y-115800000D03*
%TD*%
D11*
%TO.C,U11*%
X131166666Y-114800000D03*
X129566666Y-114800000D03*
X127966666Y-114800000D03*
X126366666Y-114800000D03*
D12*
X123866666Y-115800000D03*
X123866666Y-117400000D03*
X123866666Y-119000000D03*
X123866666Y-120600000D03*
D13*
X125566666Y-133300000D03*
X127166666Y-133300000D03*
X128766666Y-133300000D03*
X130366666Y-133300000D03*
X131966666Y-133300000D03*
D12*
X133666666Y-119000000D03*
X133666666Y-117400000D03*
X133666666Y-115800000D03*
%TD*%
D16*
%TO.C,L3*%
X125387500Y-97490000D03*
X123812500Y-97490000D03*
%TD*%
D17*
%TO.C,C23*%
X125314200Y-96330000D03*
X125314200Y-95370000D03*
%TD*%
D14*
%TO.C,C36*%
X122870000Y-100450000D03*
X123830000Y-100450000D03*
%TD*%
%TO.C,C37*%
X127430000Y-97590000D03*
X128390000Y-97590000D03*
%TD*%
D13*
%TO.C,U5*%
X138900000Y-83200000D03*
X140500000Y-83200000D03*
X142100000Y-83200000D03*
X143700000Y-83200000D03*
D15*
X146200000Y-82200000D03*
X146200000Y-80600000D03*
X146200000Y-79000000D03*
X146200000Y-77400000D03*
D11*
X144500000Y-64700000D03*
X142900000Y-64700000D03*
X141300000Y-64700000D03*
X139700000Y-64700000D03*
X138100000Y-64700000D03*
D15*
X136400000Y-79000000D03*
X136400000Y-80600000D03*
X136400000Y-82200000D03*
%TD*%
D18*
%TO.C,C32*%
X126100000Y-99450000D03*
X125140000Y-99450000D03*
%TD*%
D17*
%TO.C,C34*%
X122300000Y-96310000D03*
X122300000Y-95350000D03*
%TD*%
D19*
%TO.C,C48*%
X132625000Y-97420000D03*
X129675000Y-97420000D03*
%TD*%
D13*
%TO.C,U6*%
X126366666Y-83200000D03*
X127966666Y-83200000D03*
X129566666Y-83200000D03*
X131166666Y-83200000D03*
D15*
X133666666Y-82200000D03*
X133666666Y-80600000D03*
X133666666Y-79000000D03*
X133666666Y-77400000D03*
D11*
X131966666Y-64700000D03*
X130366666Y-64700000D03*
X128766666Y-64700000D03*
X127166666Y-64700000D03*
X125566666Y-64700000D03*
D15*
X123866666Y-79000000D03*
X123866666Y-80600000D03*
X123866666Y-82200000D03*
%TD*%
D11*
%TO.C,U10*%
X143700000Y-114800000D03*
X142100000Y-114800000D03*
X140500000Y-114800000D03*
X138900000Y-114800000D03*
D12*
X136400000Y-115800000D03*
X136400000Y-117400000D03*
X136400000Y-119000000D03*
X136400000Y-120600000D03*
D13*
X138100000Y-133300000D03*
X139700000Y-133300000D03*
X141300000Y-133300000D03*
X142900000Y-133300000D03*
X144500000Y-133300000D03*
D12*
X146200000Y-119000000D03*
X146200000Y-117400000D03*
X146200000Y-115800000D03*
%TD*%
D14*
%TO.C,C38*%
X123220000Y-95410000D03*
X124180000Y-95410000D03*
%TD*%
D13*
%TO.C,U9*%
X101300000Y-83200000D03*
X102900000Y-83200000D03*
X104500000Y-83200000D03*
X106100000Y-83200000D03*
D15*
X108600000Y-82200000D03*
X108600000Y-80600000D03*
X108600000Y-79000000D03*
X108600000Y-77400000D03*
D11*
X106900000Y-64700000D03*
X105300000Y-64700000D03*
X103700000Y-64700000D03*
X102100000Y-64700000D03*
X100500000Y-64700000D03*
D15*
X98800000Y-79000000D03*
X98800000Y-80600000D03*
X98800000Y-82200000D03*
%TD*%
M02*
