%TF.GenerationSoftware,KiCad,Pcbnew,7.0.8*%
%TF.CreationDate,2024-02-20T09:26:03+00:00*%
%TF.ProjectId,CuttleBoard_8Layers,43757474-6c65-4426-9f61-72645f384c61,rev?*%
%TF.SameCoordinates,Original*%
%TF.FileFunction,Soldermask,Bot*%
%TF.FilePolarity,Negative*%
%FSLAX46Y46*%
G04 Gerber Fmt 4.6, Leading zero omitted, Abs format (unit mm)*
G04 Created by KiCad (PCBNEW 7.0.8) date 2024-02-20 09:26:03*
%MOMM*%
%LPD*%
G01*
G04 APERTURE LIST*
G04 Aperture macros list*
%AMRoundRect*
0 Rectangle with rounded corners*
0 $1 Rounding radius*
0 $2 $3 $4 $5 $6 $7 $8 $9 X,Y pos of 4 corners*
0 Add a 4 corners polygon primitive as box body*
4,1,4,$2,$3,$4,$5,$6,$7,$8,$9,$2,$3,0*
0 Add four circle primitives for the rounded corners*
1,1,$1+$1,$2,$3*
1,1,$1+$1,$4,$5*
1,1,$1+$1,$6,$7*
1,1,$1+$1,$8,$9*
0 Add four rect primitives between the rounded corners*
20,1,$1+$1,$2,$3,$4,$5,0*
20,1,$1+$1,$4,$5,$6,$7,0*
20,1,$1+$1,$6,$7,$8,$9,0*
20,1,$1+$1,$8,$9,$2,$3,0*%
G04 Aperture macros list end*
%ADD10RoundRect,0.140000X-0.170000X0.140000X-0.170000X-0.140000X0.170000X-0.140000X0.170000X0.140000X0*%
%ADD11RoundRect,0.425000X-0.425000X-1.275000X0.425000X-1.275000X0.425000X1.275000X-0.425000X1.275000X0*%
%ADD12RoundRect,0.425000X0.425000X1.275000X-0.425000X1.275000X-0.425000X-1.275000X0.425000X-1.275000X0*%
%ADD13C,5.600000*%
%ADD14RoundRect,0.425000X1.275000X-0.425000X1.275000X0.425000X-1.275000X0.425000X-1.275000X-0.425000X0*%
%ADD15RoundRect,0.425000X-1.275000X0.425000X-1.275000X-0.425000X1.275000X-0.425000X1.275000X0.425000X0*%
%ADD16C,0.500000*%
%ADD17O,2.600000X4.000000*%
%ADD18O,2.000000X3.000000*%
%ADD19O,2.108200X0.914400*%
%ADD20O,1.905000X0.914400*%
%ADD21RoundRect,0.350000X0.350000X-0.650000X0.350000X0.650000X-0.350000X0.650000X-0.350000X-0.650000X0*%
%ADD22RoundRect,0.350000X-0.650000X-0.350000X0.650000X-0.350000X0.650000X0.350000X-0.650000X0.350000X0*%
%ADD23RoundRect,0.350000X-0.350000X0.650000X-0.350000X-0.650000X0.350000X-0.650000X0.350000X0.650000X0*%
%ADD24RoundRect,0.140000X-0.140000X-0.170000X0.140000X-0.170000X0.140000X0.170000X-0.140000X0.170000X0*%
%ADD25RoundRect,0.350000X0.650000X0.350000X-0.650000X0.350000X-0.650000X-0.350000X0.650000X-0.350000X0*%
%ADD26RoundRect,0.218750X-0.218750X-0.256250X0.218750X-0.256250X0.218750X0.256250X-0.218750X0.256250X0*%
%ADD27RoundRect,0.140000X0.170000X-0.140000X0.170000X0.140000X-0.170000X0.140000X-0.170000X-0.140000X0*%
%ADD28RoundRect,0.140000X0.140000X0.170000X-0.140000X0.170000X-0.140000X-0.170000X0.140000X-0.170000X0*%
%ADD29RoundRect,0.250000X0.325000X0.650000X-0.325000X0.650000X-0.325000X-0.650000X0.325000X-0.650000X0*%
G04 APERTURE END LIST*
D10*
%TO.C,C33*%
X129320000Y-99960000D03*
X129320000Y-99000000D03*
%TD*%
D11*
%TO.C,5V*%
X135240000Y-74772600D03*
D12*
X135240000Y-74772800D03*
%TD*%
D13*
%TO.C,H4*%
X142100000Y-78700000D03*
%TD*%
D11*
%TO.C,GND*%
X127508000Y-123222100D03*
D12*
X127508000Y-123222300D03*
%TD*%
D14*
%TO.C,TP28*%
X98289800Y-101840000D03*
D15*
X98290000Y-101840000D03*
%TD*%
D14*
%TO.C,GND*%
X146699800Y-106380000D03*
D15*
X146700000Y-106380000D03*
%TD*%
D11*
%TO.C,12V*%
X107188000Y-123222100D03*
D12*
X107188000Y-123222300D03*
%TD*%
D11*
%TO.C,GND*%
X109728000Y-123222100D03*
D12*
X109728000Y-123222300D03*
%TD*%
D11*
%TO.C,TX*%
X124968000Y-123222100D03*
D12*
X124968000Y-123222300D03*
%TD*%
D11*
%TO.C,GND*%
X114808000Y-123222100D03*
D12*
X114808000Y-123222300D03*
%TD*%
D14*
%TO.C,5V*%
X146699800Y-103840000D03*
D15*
X146700000Y-103840000D03*
%TD*%
D11*
%TO.C,12V*%
X107300000Y-74765500D03*
D12*
X107300000Y-74765700D03*
%TD*%
D11*
%TO.C,SCL*%
X120000000Y-74778100D03*
D12*
X120000000Y-74778300D03*
%TD*%
D14*
%TO.C,CLK*%
X146702900Y-111460000D03*
D15*
X146703100Y-111460000D03*
%TD*%
D14*
%TO.C,GND*%
X98289800Y-86600000D03*
D15*
X98290000Y-86600000D03*
%TD*%
D11*
%TO.C,GND*%
X137780000Y-74782900D03*
D12*
X137780000Y-74783100D03*
%TD*%
D14*
%TO.C,IO*%
X146700000Y-114000000D03*
D15*
X146700200Y-114000000D03*
%TD*%
D14*
%TO.C,SCL*%
X98289800Y-96760000D03*
D15*
X98290000Y-96760000D03*
%TD*%
D16*
%TO.C,TP1*%
X99200000Y-111600000D03*
X99800000Y-111400000D03*
X98600000Y-111300000D03*
X98200000Y-110700000D03*
X98200000Y-110000000D03*
D17*
X99100000Y-109900000D03*
D18*
X99400000Y-109900000D03*
%TD*%
D11*
%TO.C,RX*%
X127620000Y-74772600D03*
D12*
X127620000Y-74772800D03*
%TD*%
D14*
%TO.C,SDA*%
X98289800Y-99300000D03*
D15*
X98290000Y-99300000D03*
%TD*%
D14*
%TO.C,RX*%
X98289800Y-89140000D03*
D15*
X98290000Y-89140000D03*
%TD*%
D11*
%TO.C,RX*%
X130050000Y-123220000D03*
D12*
X130050000Y-123220200D03*
%TD*%
D14*
%TO.C,NRST*%
X146699800Y-108920000D03*
D15*
X146700000Y-108920000D03*
%TD*%
D11*
%TO.C,GND*%
X132700000Y-74772600D03*
D12*
X132700000Y-74772800D03*
%TD*%
D19*
%TO.C,J1*%
X145847200Y-93150000D03*
X145847200Y-102050000D03*
D20*
X142647199Y-93150000D03*
X142647199Y-102050000D03*
%TD*%
D14*
%TO.C,SDA*%
X146706000Y-86495000D03*
D15*
X146706200Y-86495000D03*
%TD*%
D11*
%TO.C,5V*%
X137668000Y-123216400D03*
D12*
X137668000Y-123216600D03*
%TD*%
D13*
%TO.C,H3*%
X103100000Y-78700000D03*
%TD*%
D16*
%TO.C,TP2*%
X99200000Y-106900000D03*
X99800000Y-106700000D03*
X98600000Y-106600000D03*
X98200000Y-106000000D03*
X98200000Y-105300000D03*
D17*
X99100000Y-105200000D03*
D18*
X99400000Y-105200000D03*
%TD*%
D11*
%TO.C,GND*%
X119888000Y-123222100D03*
D12*
X119888000Y-123222300D03*
%TD*%
D14*
%TO.C,TP29*%
X98289800Y-94220000D03*
D15*
X98290000Y-94220000D03*
%TD*%
D11*
%TO.C,RX*%
X122521800Y-123222100D03*
D12*
X122521800Y-123222300D03*
%TD*%
D14*
%TO.C,TX*%
X98289800Y-91680000D03*
D15*
X98290000Y-91680000D03*
%TD*%
D11*
%TO.C,3.3V*%
X117348000Y-123222100D03*
D12*
X117348000Y-123222300D03*
%TD*%
D11*
%TO.C,GND*%
X125080000Y-74779300D03*
D12*
X125080000Y-74779500D03*
%TD*%
D13*
%TO.C,H2*%
X103100000Y-119400000D03*
%TD*%
D14*
%TO.C,SCL*%
X146706000Y-89035000D03*
D15*
X146706200Y-89035000D03*
%TD*%
%TO.C,GND*%
X146710200Y-91440000D03*
D14*
X146710000Y-91440000D03*
%TD*%
D11*
%TO.C,GND*%
X117460000Y-74771400D03*
D12*
X117460000Y-74771600D03*
%TD*%
D11*
%TO.C,SDA*%
X122540000Y-74778100D03*
D12*
X122540000Y-74778300D03*
%TD*%
D11*
%TO.C,3.3V*%
X112380000Y-74765500D03*
D12*
X112380000Y-74765700D03*
%TD*%
D11*
%TO.C,3.3V*%
X114920000Y-74765500D03*
D12*
X114920000Y-74765700D03*
%TD*%
D14*
%TO.C,3.3V*%
X98289800Y-84060000D03*
D15*
X98290000Y-84060000D03*
%TD*%
D11*
%TO.C,TX*%
X132590000Y-123220000D03*
D12*
X132590000Y-123220200D03*
%TD*%
D14*
%TO.C,GND*%
X98289800Y-113300000D03*
D15*
X98290000Y-113300000D03*
%TD*%
D14*
%TO.C,GND*%
X146702900Y-83960000D03*
D15*
X146703100Y-83960000D03*
%TD*%
D11*
%TO.C,3.3V*%
X112268000Y-123222100D03*
D12*
X112268000Y-123222300D03*
%TD*%
D11*
%TO.C,GND*%
X135128000Y-123216400D03*
D12*
X135128000Y-123216600D03*
%TD*%
D13*
%TO.C,H1*%
X142100000Y-119400000D03*
%TD*%
D11*
%TO.C,TX*%
X130160000Y-74766700D03*
D12*
X130160000Y-74766900D03*
%TD*%
D11*
%TO.C,GND*%
X109840000Y-74765500D03*
D12*
X109840000Y-74765700D03*
%TD*%
D21*
%TO.C,U12*%
X118633333Y-114800000D03*
X117033333Y-114800000D03*
X115433333Y-114800000D03*
X113833333Y-114800000D03*
D22*
X111333333Y-115800000D03*
X111333333Y-117400000D03*
X111333333Y-119000000D03*
X111333333Y-120600000D03*
D23*
X113033333Y-133300000D03*
X114633333Y-133300000D03*
X116233333Y-133300000D03*
X117833333Y-133300000D03*
X119433333Y-133300000D03*
D22*
X121133333Y-119000000D03*
X121133333Y-117400000D03*
X121133333Y-115800000D03*
%TD*%
D10*
%TO.C,C22*%
X127570000Y-100480000D03*
X127570000Y-99520000D03*
%TD*%
D24*
%TO.C,C21*%
X127460000Y-96720000D03*
X128420000Y-96720000D03*
%TD*%
%TO.C,C31*%
X122870000Y-101450000D03*
X123830000Y-101450000D03*
%TD*%
D23*
%TO.C,U8*%
X113833333Y-83200000D03*
X115433333Y-83200000D03*
X117033333Y-83200000D03*
X118633333Y-83200000D03*
D25*
X121133333Y-82200000D03*
X121133333Y-80600000D03*
X121133333Y-79000000D03*
X121133333Y-77400000D03*
D21*
X119433333Y-64700000D03*
X117833333Y-64700000D03*
X116233333Y-64700000D03*
X114633333Y-64700000D03*
X113033333Y-64700000D03*
D25*
X111333333Y-79000000D03*
X111333333Y-80600000D03*
X111333333Y-82200000D03*
%TD*%
D24*
%TO.C,C35*%
X126510000Y-98530000D03*
X127470000Y-98530000D03*
%TD*%
D21*
%TO.C,U13*%
X106100000Y-114800000D03*
X104500000Y-114800000D03*
X102900000Y-114800000D03*
X101300000Y-114800000D03*
D22*
X98800000Y-115800000D03*
X98800000Y-117400000D03*
X98800000Y-119000000D03*
X98800000Y-120600000D03*
D23*
X100500000Y-133300000D03*
X102100000Y-133300000D03*
X103700000Y-133300000D03*
X105300000Y-133300000D03*
X106900000Y-133300000D03*
D22*
X108600000Y-119000000D03*
X108600000Y-117400000D03*
X108600000Y-115800000D03*
%TD*%
D21*
%TO.C,U11*%
X131166666Y-114800000D03*
X129566666Y-114800000D03*
X127966666Y-114800000D03*
X126366666Y-114800000D03*
D22*
X123866666Y-115800000D03*
X123866666Y-117400000D03*
X123866666Y-119000000D03*
X123866666Y-120600000D03*
D23*
X125566666Y-133300000D03*
X127166666Y-133300000D03*
X128766666Y-133300000D03*
X130366666Y-133300000D03*
X131966666Y-133300000D03*
D22*
X133666666Y-119000000D03*
X133666666Y-117400000D03*
X133666666Y-115800000D03*
%TD*%
D26*
%TO.C,L3*%
X125387500Y-97490000D03*
X123812500Y-97490000D03*
%TD*%
D27*
%TO.C,C23*%
X125314200Y-96330000D03*
X125314200Y-95370000D03*
%TD*%
D24*
%TO.C,C36*%
X122870000Y-100450000D03*
X123830000Y-100450000D03*
%TD*%
%TO.C,C37*%
X127430000Y-97590000D03*
X128390000Y-97590000D03*
%TD*%
D23*
%TO.C,U5*%
X138900000Y-83200000D03*
X140500000Y-83200000D03*
X142100000Y-83200000D03*
X143700000Y-83200000D03*
D25*
X146200000Y-82200000D03*
X146200000Y-80600000D03*
X146200000Y-79000000D03*
X146200000Y-77400000D03*
D21*
X144500000Y-64700000D03*
X142900000Y-64700000D03*
X141300000Y-64700000D03*
X139700000Y-64700000D03*
X138100000Y-64700000D03*
D25*
X136400000Y-79000000D03*
X136400000Y-80600000D03*
X136400000Y-82200000D03*
%TD*%
D28*
%TO.C,C32*%
X126100000Y-99450000D03*
X125140000Y-99450000D03*
%TD*%
D27*
%TO.C,C34*%
X122300000Y-96310000D03*
X122300000Y-95350000D03*
%TD*%
D29*
%TO.C,C48*%
X132625000Y-97420000D03*
X129675000Y-97420000D03*
%TD*%
D23*
%TO.C,U6*%
X126366666Y-83200000D03*
X127966666Y-83200000D03*
X129566666Y-83200000D03*
X131166666Y-83200000D03*
D25*
X133666666Y-82200000D03*
X133666666Y-80600000D03*
X133666666Y-79000000D03*
X133666666Y-77400000D03*
D21*
X131966666Y-64700000D03*
X130366666Y-64700000D03*
X128766666Y-64700000D03*
X127166666Y-64700000D03*
X125566666Y-64700000D03*
D25*
X123866666Y-79000000D03*
X123866666Y-80600000D03*
X123866666Y-82200000D03*
%TD*%
D21*
%TO.C,U10*%
X143700000Y-114800000D03*
X142100000Y-114800000D03*
X140500000Y-114800000D03*
X138900000Y-114800000D03*
D22*
X136400000Y-115800000D03*
X136400000Y-117400000D03*
X136400000Y-119000000D03*
X136400000Y-120600000D03*
D23*
X138100000Y-133300000D03*
X139700000Y-133300000D03*
X141300000Y-133300000D03*
X142900000Y-133300000D03*
X144500000Y-133300000D03*
D22*
X146200000Y-119000000D03*
X146200000Y-117400000D03*
X146200000Y-115800000D03*
%TD*%
D24*
%TO.C,C38*%
X123220000Y-95410000D03*
X124180000Y-95410000D03*
%TD*%
D23*
%TO.C,U9*%
X101300000Y-83200000D03*
X102900000Y-83200000D03*
X104500000Y-83200000D03*
X106100000Y-83200000D03*
D25*
X108600000Y-82200000D03*
X108600000Y-80600000D03*
X108600000Y-79000000D03*
X108600000Y-77400000D03*
D21*
X106900000Y-64700000D03*
X105300000Y-64700000D03*
X103700000Y-64700000D03*
X102100000Y-64700000D03*
X100500000Y-64700000D03*
D25*
X98800000Y-79000000D03*
X98800000Y-80600000D03*
X98800000Y-82200000D03*
%TD*%
M02*
