%TF.GenerationSoftware,KiCad,Pcbnew,7.0.8*%
%TF.CreationDate,2024-02-20T09:26:06+00:00*%
%TF.ProjectId,CuttleBoard_8Layers,43757474-6c65-4426-9f61-72645f384c61,rev?*%
%TF.SameCoordinates,Original*%
%TF.FileFunction,Drillmap*%
%TF.FilePolarity,Positive*%
%FSLAX45Y45*%
G04 Gerber Fmt 4.5, Leading zero omitted, Abs format (unit mm)*
G04 Created by KiCad (PCBNEW 7.0.8) date 2024-02-20 09:26:06*
%MOMM*%
%LPD*%
G01*
G04 APERTURE LIST*
%ADD10C,0.100000*%
%ADD11C,0.200000*%
G04 APERTURE END LIST*
D10*
X9750000Y-7695304D02*
X9750000Y-12102696D01*
X10046304Y-7399310D02*
G75*
G03*
X9750000Y-7695304I-154J-296150D01*
G01*
X14750000Y-12102696D02*
X14750000Y-7695000D01*
X10046304Y-12398696D02*
X14453696Y-12398696D01*
X14454000Y-7399000D02*
X10046304Y-7399304D01*
X14453696Y-12398696D02*
G75*
G03*
X14749696Y-12102696I4J295996D01*
G01*
X14750000Y-7695000D02*
G75*
G03*
X14454000Y-7399000I-296000J0D01*
G01*
X9750304Y-12102696D02*
G75*
G03*
X10046304Y-12398696I295996J-4D01*
G01*
D11*
X10005777Y-12715180D02*
X10005777Y-12515180D01*
X10005777Y-12515180D02*
X10053396Y-12515180D01*
X10053396Y-12515180D02*
X10081967Y-12524704D01*
X10081967Y-12524704D02*
X10101015Y-12543752D01*
X10101015Y-12543752D02*
X10110539Y-12562799D01*
X10110539Y-12562799D02*
X10120063Y-12600894D01*
X10120063Y-12600894D02*
X10120063Y-12629466D01*
X10120063Y-12629466D02*
X10110539Y-12667561D01*
X10110539Y-12667561D02*
X10101015Y-12686609D01*
X10101015Y-12686609D02*
X10081967Y-12705656D01*
X10081967Y-12705656D02*
X10053396Y-12715180D01*
X10053396Y-12715180D02*
X10005777Y-12715180D01*
X10205777Y-12715180D02*
X10205777Y-12581847D01*
X10205777Y-12619942D02*
X10215301Y-12600894D01*
X10215301Y-12600894D02*
X10224824Y-12591371D01*
X10224824Y-12591371D02*
X10243872Y-12581847D01*
X10243872Y-12581847D02*
X10262920Y-12581847D01*
X10329586Y-12715180D02*
X10329586Y-12581847D01*
X10329586Y-12515180D02*
X10320063Y-12524704D01*
X10320063Y-12524704D02*
X10329586Y-12534228D01*
X10329586Y-12534228D02*
X10339110Y-12524704D01*
X10339110Y-12524704D02*
X10329586Y-12515180D01*
X10329586Y-12515180D02*
X10329586Y-12534228D01*
X10453396Y-12715180D02*
X10434348Y-12705656D01*
X10434348Y-12705656D02*
X10424824Y-12686609D01*
X10424824Y-12686609D02*
X10424824Y-12515180D01*
X10558158Y-12715180D02*
X10539110Y-12705656D01*
X10539110Y-12705656D02*
X10529586Y-12686609D01*
X10529586Y-12686609D02*
X10529586Y-12515180D01*
X10786729Y-12715180D02*
X10786729Y-12515180D01*
X10786729Y-12515180D02*
X10853396Y-12658037D01*
X10853396Y-12658037D02*
X10920063Y-12515180D01*
X10920063Y-12515180D02*
X10920063Y-12715180D01*
X11101015Y-12715180D02*
X11101015Y-12610418D01*
X11101015Y-12610418D02*
X11091491Y-12591371D01*
X11091491Y-12591371D02*
X11072444Y-12581847D01*
X11072444Y-12581847D02*
X11034348Y-12581847D01*
X11034348Y-12581847D02*
X11015301Y-12591371D01*
X11101015Y-12705656D02*
X11081967Y-12715180D01*
X11081967Y-12715180D02*
X11034348Y-12715180D01*
X11034348Y-12715180D02*
X11015301Y-12705656D01*
X11015301Y-12705656D02*
X11005777Y-12686609D01*
X11005777Y-12686609D02*
X11005777Y-12667561D01*
X11005777Y-12667561D02*
X11015301Y-12648513D01*
X11015301Y-12648513D02*
X11034348Y-12638990D01*
X11034348Y-12638990D02*
X11081967Y-12638990D01*
X11081967Y-12638990D02*
X11101015Y-12629466D01*
X11196253Y-12581847D02*
X11196253Y-12781847D01*
X11196253Y-12591371D02*
X11215301Y-12581847D01*
X11215301Y-12581847D02*
X11253396Y-12581847D01*
X11253396Y-12581847D02*
X11272443Y-12591371D01*
X11272443Y-12591371D02*
X11281967Y-12600894D01*
X11281967Y-12600894D02*
X11291491Y-12619942D01*
X11291491Y-12619942D02*
X11291491Y-12677085D01*
X11291491Y-12677085D02*
X11281967Y-12696132D01*
X11281967Y-12696132D02*
X11272443Y-12705656D01*
X11272443Y-12705656D02*
X11253396Y-12715180D01*
X11253396Y-12715180D02*
X11215301Y-12715180D01*
X11215301Y-12715180D02*
X11196253Y-12705656D01*
X11377205Y-12696132D02*
X11386729Y-12705656D01*
X11386729Y-12705656D02*
X11377205Y-12715180D01*
X11377205Y-12715180D02*
X11367682Y-12705656D01*
X11367682Y-12705656D02*
X11377205Y-12696132D01*
X11377205Y-12696132D02*
X11377205Y-12715180D01*
X11377205Y-12591371D02*
X11386729Y-12600894D01*
X11386729Y-12600894D02*
X11377205Y-12610418D01*
X11377205Y-12610418D02*
X11367682Y-12600894D01*
X11367682Y-12600894D02*
X11377205Y-12591371D01*
X11377205Y-12591371D02*
X11377205Y-12610418D01*
M02*
