%TF.GenerationSoftware,KiCad,Pcbnew,7.0.8*%
%TF.CreationDate,2024-02-20T09:26:03+00:00*%
%TF.ProjectId,CuttleBoard_8Layers,43757474-6c65-4426-9f61-72645f384c61,rev?*%
%TF.SameCoordinates,Original*%
%TF.FileFunction,Paste,Top*%
%TF.FilePolarity,Positive*%
%FSLAX46Y46*%
G04 Gerber Fmt 4.6, Leading zero omitted, Abs format (unit mm)*
G04 Created by KiCad (PCBNEW 7.0.8) date 2024-02-20 09:26:03*
%MOMM*%
%LPD*%
G01*
G04 APERTURE LIST*
G04 Aperture macros list*
%AMRoundRect*
0 Rectangle with rounded corners*
0 $1 Rounding radius*
0 $2 $3 $4 $5 $6 $7 $8 $9 X,Y pos of 4 corners*
0 Add a 4 corners polygon primitive as box body*
4,1,4,$2,$3,$4,$5,$6,$7,$8,$9,$2,$3,0*
0 Add four circle primitives for the rounded corners*
1,1,$1+$1,$2,$3*
1,1,$1+$1,$4,$5*
1,1,$1+$1,$6,$7*
1,1,$1+$1,$8,$9*
0 Add four rect primitives between the rounded corners*
20,1,$1+$1,$2,$3,$4,$5,0*
20,1,$1+$1,$4,$5,$6,$7,0*
20,1,$1+$1,$6,$7,$8,$9,0*
20,1,$1+$1,$8,$9,$2,$3,0*%
G04 Aperture macros list end*
%ADD10RoundRect,0.147500X0.172500X-0.147500X0.172500X0.147500X-0.172500X0.147500X-0.172500X-0.147500X0*%
%ADD11RoundRect,0.218750X-0.218750X-0.256250X0.218750X-0.256250X0.218750X0.256250X-0.218750X0.256250X0*%
%ADD12RoundRect,0.140000X-0.170000X0.140000X-0.170000X-0.140000X0.170000X-0.140000X0.170000X0.140000X0*%
%ADD13RoundRect,0.135000X-0.185000X0.135000X-0.185000X-0.135000X0.185000X-0.135000X0.185000X0.135000X0*%
%ADD14RoundRect,0.135000X-0.135000X-0.185000X0.135000X-0.185000X0.135000X0.185000X-0.135000X0.185000X0*%
%ADD15RoundRect,0.150000X-0.825000X-0.150000X0.825000X-0.150000X0.825000X0.150000X-0.825000X0.150000X0*%
%ADD16RoundRect,0.075000X0.075000X0.125000X-0.075000X0.125000X-0.075000X-0.125000X0.075000X-0.125000X0*%
%ADD17RoundRect,0.147500X0.147500X0.172500X-0.147500X0.172500X-0.147500X-0.172500X0.147500X-0.172500X0*%
%ADD18R,0.660400X0.711200*%
%ADD19R,0.711200X0.660400*%
%ADD20RoundRect,0.140000X-0.140000X-0.170000X0.140000X-0.170000X0.140000X0.170000X-0.140000X0.170000X0*%
%ADD21R,1.400000X1.390000*%
%ADD22R,4.860000X3.360000*%
%ADD23R,0.800000X0.900000*%
%ADD24RoundRect,0.218750X-0.256250X0.218750X-0.256250X-0.218750X0.256250X-0.218750X0.256250X0.218750X0*%
%ADD25RoundRect,0.140000X0.170000X-0.140000X0.170000X0.140000X-0.170000X0.140000X-0.170000X-0.140000X0*%
%ADD26RoundRect,0.135000X0.135000X0.185000X-0.135000X0.185000X-0.135000X-0.185000X0.135000X-0.185000X0*%
%ADD27RoundRect,0.075000X-0.075000X-0.125000X0.075000X-0.125000X0.075000X0.125000X-0.075000X0.125000X0*%
%ADD28RoundRect,0.218750X0.256250X-0.218750X0.256250X0.218750X-0.256250X0.218750X-0.256250X-0.218750X0*%
%ADD29RoundRect,0.225000X0.225000X0.250000X-0.225000X0.250000X-0.225000X-0.250000X0.225000X-0.250000X0*%
%ADD30RoundRect,0.062500X0.237500X-0.062500X0.237500X0.062500X-0.237500X0.062500X-0.237500X-0.062500X0*%
%ADD31RoundRect,0.062500X0.062500X0.237500X-0.062500X0.237500X-0.062500X-0.237500X0.062500X-0.237500X0*%
%ADD32RoundRect,0.062500X-0.062500X-0.850000X0.062500X-0.850000X0.062500X0.850000X-0.062500X0.850000X0*%
%ADD33R,2.800000X1.200000*%
%ADD34RoundRect,0.225000X0.250000X-0.225000X0.250000X0.225000X-0.250000X0.225000X-0.250000X-0.225000X0*%
%ADD35RoundRect,0.218750X0.218750X0.256250X-0.218750X0.256250X-0.218750X-0.256250X0.218750X-0.256250X0*%
%ADD36RoundRect,0.250000X-0.650000X0.325000X-0.650000X-0.325000X0.650000X-0.325000X0.650000X0.325000X0*%
%ADD37R,0.812800X0.330200*%
%ADD38R,0.812800X0.279400*%
%ADD39RoundRect,0.140000X0.140000X0.170000X-0.140000X0.170000X-0.140000X-0.170000X0.140000X-0.170000X0*%
%ADD40C,0.400000*%
%ADD41RoundRect,0.225000X-0.250000X0.225000X-0.250000X-0.225000X0.250000X-0.225000X0.250000X0.225000X0*%
%ADD42RoundRect,0.087500X0.225000X0.087500X-0.225000X0.087500X-0.225000X-0.087500X0.225000X-0.087500X0*%
%ADD43RoundRect,0.087500X0.087500X0.225000X-0.087500X0.225000X-0.087500X-0.225000X0.087500X-0.225000X0*%
%ADD44R,0.900000X1.000000*%
%ADD45R,1.700000X0.550000*%
%ADD46RoundRect,0.087500X0.087500X-0.187500X0.087500X0.187500X-0.087500X0.187500X-0.087500X-0.187500X0*%
%ADD47RoundRect,0.087500X0.187500X-0.087500X0.187500X0.087500X-0.187500X0.087500X-0.187500X-0.087500X0*%
%ADD48RoundRect,0.250000X0.615000X-0.435000X0.615000X0.435000X-0.615000X0.435000X-0.615000X-0.435000X0*%
%ADD49RoundRect,0.125000X0.125000X-0.200000X0.125000X0.200000X-0.125000X0.200000X-0.125000X-0.200000X0*%
%ADD50RoundRect,0.075000X0.125000X-0.075000X0.125000X0.075000X-0.125000X0.075000X-0.125000X-0.075000X0*%
%ADD51RoundRect,0.135000X0.185000X-0.135000X0.185000X0.135000X-0.185000X0.135000X-0.185000X-0.135000X0*%
%ADD52RoundRect,0.150000X-0.200000X0.150000X-0.200000X-0.150000X0.200000X-0.150000X0.200000X0.150000X0*%
%ADD53R,0.500000X0.375000*%
%ADD54R,0.650000X0.300000*%
%ADD55RoundRect,0.075000X-0.125000X0.075000X-0.125000X-0.075000X0.125000X-0.075000X0.125000X0.075000X0*%
%ADD56RoundRect,0.112500X-0.112500X0.187500X-0.112500X-0.187500X0.112500X-0.187500X0.112500X0.187500X0*%
%ADD57RoundRect,0.250000X1.000000X-1.750000X1.000000X1.750000X-1.000000X1.750000X-1.000000X-1.750000X0*%
%ADD58RoundRect,0.050000X-0.075000X0.250000X-0.075000X-0.250000X0.075000X-0.250000X0.075000X0.250000X0*%
%ADD59RoundRect,0.040000X-0.060000X0.460000X-0.060000X-0.460000X0.060000X-0.460000X0.060000X0.460000X0*%
G04 APERTURE END LIST*
D10*
%TO.C,D3*%
X134425000Y-104427250D03*
X134425000Y-103457250D03*
%TD*%
D11*
%TO.C,FB7*%
X134612500Y-87900000D03*
X136187500Y-87900000D03*
%TD*%
D12*
%TO.C,C40*%
X129725000Y-88200000D03*
X129725000Y-89160000D03*
%TD*%
D13*
%TO.C,R21*%
X126100000Y-92690000D03*
X126100000Y-93710000D03*
%TD*%
D14*
%TO.C,R3*%
X115865000Y-91100000D03*
X116885000Y-91100000D03*
%TD*%
%TO.C,R23*%
X141140000Y-89750000D03*
X142160000Y-89750000D03*
%TD*%
D15*
%TO.C,U20*%
X103825000Y-92295000D03*
X103825000Y-93565000D03*
X103825000Y-94835000D03*
X103825000Y-96105000D03*
X108775000Y-96105000D03*
X108775000Y-94835000D03*
X108775000Y-93565000D03*
X108775000Y-92295000D03*
%TD*%
D13*
%TO.C,R20*%
X134400000Y-91379476D03*
X134400000Y-92399476D03*
%TD*%
D16*
%TO.C,R17*%
X141100000Y-83917500D03*
X140500000Y-83917500D03*
%TD*%
D14*
%TO.C,R6*%
X131580000Y-99107500D03*
X132600000Y-99107500D03*
%TD*%
D12*
%TO.C,C41*%
X123808800Y-88251800D03*
X123808800Y-89211800D03*
%TD*%
D17*
%TO.C,D5*%
X136635000Y-84800000D03*
X135665000Y-84800000D03*
%TD*%
D18*
%TO.C,U7*%
X114430000Y-92350002D03*
X115700000Y-92350002D03*
X116970000Y-92350002D03*
D19*
X117799945Y-93180000D03*
X117799945Y-94450000D03*
X117799945Y-95720000D03*
D18*
X116970000Y-96549998D03*
X115700000Y-96549998D03*
X114430000Y-96549998D03*
D19*
X113600055Y-95720000D03*
X113600055Y-94450000D03*
X113600055Y-93180000D03*
%TD*%
D20*
%TO.C,C4*%
X135770000Y-114742250D03*
X136730000Y-114742250D03*
%TD*%
D21*
%TO.C,D6*%
X101825000Y-100110000D03*
X101825000Y-101950000D03*
D22*
X105807000Y-101030000D03*
%TD*%
D23*
%TO.C,Y1*%
X119485000Y-101100000D03*
X119485000Y-99700000D03*
X118385000Y-99700000D03*
X118385000Y-101100000D03*
%TD*%
D12*
%TO.C,C9*%
X120710000Y-98840000D03*
X120710000Y-99800000D03*
%TD*%
D14*
%TO.C,R4*%
X131590000Y-100100000D03*
X132610000Y-100100000D03*
%TD*%
D24*
%TO.C,FB3*%
X136730000Y-104312500D03*
X136730000Y-105887500D03*
%TD*%
D25*
%TO.C,C1*%
X129789400Y-85430000D03*
X129789400Y-84470000D03*
%TD*%
D26*
%TO.C,R13*%
X126960000Y-114075000D03*
X125940000Y-114075000D03*
%TD*%
D27*
%TO.C,R16*%
X140550000Y-85367500D03*
X141150000Y-85367500D03*
%TD*%
D28*
%TO.C,FB2*%
X122125000Y-114587500D03*
X122125000Y-113012500D03*
%TD*%
D13*
%TO.C,R12*%
X127850000Y-112940000D03*
X127850000Y-113960000D03*
%TD*%
%TO.C,R10*%
X139500000Y-113732250D03*
X139500000Y-114752250D03*
%TD*%
D25*
%TO.C,C54*%
X135275000Y-111922250D03*
X135275000Y-110962250D03*
%TD*%
D12*
%TO.C,C6*%
X135275000Y-112812250D03*
X135275000Y-113772250D03*
%TD*%
D29*
%TO.C,C46*%
X122577200Y-86748000D03*
X121027200Y-86748000D03*
%TD*%
D25*
%TO.C,C56*%
X123525000Y-111230000D03*
X123525000Y-110270000D03*
%TD*%
D14*
%TO.C,R2*%
X113790000Y-90950000D03*
X114810000Y-90950000D03*
%TD*%
D17*
%TO.C,D4*%
X134485000Y-99100000D03*
X133515000Y-99100000D03*
%TD*%
D29*
%TO.C,C44*%
X116850000Y-83600000D03*
X115300000Y-83600000D03*
%TD*%
D28*
%TO.C,FB1*%
X134025000Y-115429750D03*
X134025000Y-113854750D03*
%TD*%
D30*
%TO.C,U1*%
X136400000Y-111230250D03*
X136400000Y-111880250D03*
X136400000Y-112530250D03*
X136400000Y-113030250D03*
D31*
X136800000Y-113755250D03*
X137300000Y-113755250D03*
X137800000Y-113755250D03*
D30*
X138200000Y-113030250D03*
X138200000Y-112530250D03*
X138200000Y-111880250D03*
X138200000Y-111230250D03*
D32*
X137300000Y-111567250D03*
%TD*%
D33*
%TO.C,L2*%
X125300000Y-108840000D03*
X125300000Y-106340000D03*
%TD*%
D34*
%TO.C,C3*%
X134025000Y-112442250D03*
X134025000Y-110892250D03*
%TD*%
%TO.C,C2*%
X140525000Y-112442250D03*
X140525000Y-110892250D03*
%TD*%
%TO.C,C10*%
X128625000Y-111525000D03*
X128625000Y-109975000D03*
%TD*%
%TO.C,C12*%
X122125000Y-111575000D03*
X122125000Y-110025000D03*
%TD*%
D35*
%TO.C,L4*%
X142237500Y-87900000D03*
X140662500Y-87900000D03*
%TD*%
D14*
%TO.C,R29*%
X114749000Y-112776000D03*
X115769000Y-112776000D03*
%TD*%
D36*
%TO.C,C17*%
X132325000Y-106342250D03*
X132325000Y-109292250D03*
%TD*%
D37*
%TO.C,J1*%
X142472140Y-101150000D03*
X142472140Y-94050000D03*
D38*
X142472201Y-100650032D03*
X142472201Y-99849932D03*
X142472201Y-99350060D03*
X142472201Y-98849934D03*
X142472201Y-98349808D03*
X142472201Y-97849682D03*
X142472201Y-97349556D03*
X142472201Y-96849430D03*
X142472201Y-96349304D03*
X142472201Y-95849178D03*
X142472201Y-95350068D03*
X142472201Y-94549968D03*
X143722201Y-94600006D03*
X143722201Y-95100132D03*
X143722201Y-95600258D03*
X143722201Y-96100384D03*
X143722201Y-96600510D03*
X143722201Y-97100636D03*
X143722201Y-98100126D03*
X143722201Y-98600252D03*
X143722201Y-99100378D03*
X143722201Y-99600504D03*
X143722201Y-100100630D03*
X143722201Y-100600756D03*
%TD*%
D12*
%TO.C,C42*%
X122665800Y-88221200D03*
X122665800Y-89181200D03*
%TD*%
D39*
%TO.C,C43*%
X119330000Y-83825000D03*
X118370000Y-83825000D03*
%TD*%
D40*
%TO.C,U2*%
X122525000Y-94800000D03*
X123325000Y-94800000D03*
X124125000Y-94800000D03*
X124925000Y-94800000D03*
X125725000Y-94800000D03*
X126525000Y-94800000D03*
X127325000Y-94800000D03*
X128125000Y-94800000D03*
X128925000Y-94800000D03*
X129725000Y-94800000D03*
X122525000Y-95600000D03*
X123325000Y-95600000D03*
X124125000Y-95600000D03*
X124925000Y-95600000D03*
X125725000Y-95600000D03*
X126525000Y-95600000D03*
X127325000Y-95600000D03*
X128125000Y-95600000D03*
X128925000Y-95600000D03*
X129725000Y-95600000D03*
X122525000Y-96400000D03*
X123325000Y-96400000D03*
X124125000Y-96400000D03*
X124925000Y-96400000D03*
X125725000Y-96400000D03*
X126525000Y-96400000D03*
X127325000Y-96400000D03*
X128125000Y-96400000D03*
X128925000Y-96400000D03*
X129725000Y-96400000D03*
X122525000Y-97200000D03*
X123325000Y-97200000D03*
X124125000Y-97200000D03*
X124925000Y-97200000D03*
X125725000Y-97200000D03*
X126525000Y-97200000D03*
X127325000Y-97200000D03*
X128125000Y-97200000D03*
X128925000Y-97200000D03*
X129725000Y-97200000D03*
X122525000Y-98000000D03*
X123325000Y-98000000D03*
X124125000Y-98000000D03*
X124925000Y-98000000D03*
X125725000Y-98000000D03*
X126525000Y-98000000D03*
X127325000Y-98000000D03*
X128125000Y-98000000D03*
X128925000Y-98000000D03*
X129725000Y-98000000D03*
X122525000Y-98800000D03*
X123325000Y-98800000D03*
X124125000Y-98800000D03*
X124925000Y-98800000D03*
X125725000Y-98800000D03*
X126525000Y-98800000D03*
X127325000Y-98800000D03*
X128125000Y-98800000D03*
X128925000Y-98800000D03*
X129725000Y-98800000D03*
X122525000Y-99600000D03*
X123325000Y-99600000D03*
X124125000Y-99600000D03*
X124925000Y-99600000D03*
X125725000Y-99600000D03*
X126525000Y-99600000D03*
X127325000Y-99600000D03*
X128125000Y-99600000D03*
X128925000Y-99600000D03*
X129725000Y-99600000D03*
X122525000Y-100400000D03*
X123325000Y-100400000D03*
X124125000Y-100400000D03*
X124925000Y-100400000D03*
X125725000Y-100400000D03*
X126525000Y-100400000D03*
X127325000Y-100400000D03*
X128125000Y-100400000D03*
X128925000Y-100400000D03*
X129725000Y-100400000D03*
X122525000Y-101200000D03*
X123325000Y-101200000D03*
X124125000Y-101200000D03*
X124925000Y-101200000D03*
X125725000Y-101200000D03*
X126525000Y-101200000D03*
X127325000Y-101200000D03*
X128125000Y-101200000D03*
X128925000Y-101200000D03*
X129725000Y-101200000D03*
X122525000Y-102000000D03*
X123325000Y-102000000D03*
X124125000Y-102000000D03*
X124925000Y-102000000D03*
X125725000Y-102000000D03*
X126525000Y-102000000D03*
X127325000Y-102000000D03*
X128125000Y-102000000D03*
X128925000Y-102000000D03*
X129725000Y-102000000D03*
%TD*%
D26*
%TO.C,R11*%
X138610000Y-114742250D03*
X137590000Y-114742250D03*
%TD*%
D41*
%TO.C,C52*%
X127575000Y-106925000D03*
X127575000Y-108475000D03*
%TD*%
D27*
%TO.C,C24*%
X116459000Y-113576000D03*
X117059000Y-113576000D03*
%TD*%
D42*
%TO.C,U17*%
X119551700Y-86580800D03*
X119551700Y-86080800D03*
X119551700Y-85580800D03*
X119551700Y-85080800D03*
D43*
X118889200Y-84918300D03*
X118389200Y-84918300D03*
X117889200Y-84918300D03*
D42*
X117226700Y-85080800D03*
X117226700Y-85580800D03*
X117226700Y-86080800D03*
X117226700Y-86580800D03*
D43*
X117889200Y-86743300D03*
X118389200Y-86743300D03*
X118889200Y-86743300D03*
%TD*%
D44*
%TO.C,SW1*%
X139800000Y-91300000D03*
X135700000Y-91300000D03*
X139800000Y-89700000D03*
X135700000Y-89700000D03*
D45*
X137750000Y-91925000D03*
%TD*%
D25*
%TO.C,C55*%
X127325000Y-111305000D03*
X127325000Y-110345000D03*
%TD*%
D12*
%TO.C,C15*%
X123525000Y-112120000D03*
X123525000Y-113080000D03*
%TD*%
D25*
%TO.C,C18*%
X139240000Y-112080000D03*
X139240000Y-111120000D03*
%TD*%
D21*
%TO.C,D10*%
X107575000Y-114590000D03*
X107575000Y-112750000D03*
D22*
X103593000Y-113670000D03*
%TD*%
D28*
%TO.C,FB6*%
X143700000Y-89442500D03*
X143700000Y-87867500D03*
%TD*%
D27*
%TO.C,R30*%
X116459000Y-112776000D03*
X117059000Y-112776000D03*
%TD*%
D46*
%TO.C,U4*%
X131050000Y-87200000D03*
X131550000Y-87200000D03*
X132050000Y-87200000D03*
X132550000Y-87200000D03*
X133050000Y-87200000D03*
D47*
X133275000Y-86475000D03*
X133275000Y-85975000D03*
X133275000Y-85475000D03*
D46*
X133050000Y-84750000D03*
X132550000Y-84750000D03*
X132050000Y-84750000D03*
X131550000Y-84750000D03*
X131050000Y-84750000D03*
D47*
X130825000Y-85475000D03*
X130825000Y-85975000D03*
X130825000Y-86475000D03*
%TD*%
D17*
%TO.C,D1*%
X119985000Y-110750000D03*
X119015000Y-110750000D03*
%TD*%
D21*
%TO.C,D9*%
X107613000Y-110470000D03*
X107613000Y-108630000D03*
D22*
X103631000Y-109550000D03*
%TD*%
D39*
%TO.C,C45*%
X116204800Y-85070700D03*
X115244800Y-85070700D03*
%TD*%
D36*
%TO.C,C11*%
X134625000Y-106342250D03*
X134625000Y-109292250D03*
%TD*%
D14*
%TO.C,R15*%
X139590000Y-94200000D03*
X140610000Y-94200000D03*
%TD*%
D46*
%TO.C,U16*%
X124074200Y-87215800D03*
X124574200Y-87215800D03*
X125074200Y-87215800D03*
X125574200Y-87215800D03*
X126074200Y-87215800D03*
D47*
X126299200Y-86490800D03*
X126299200Y-85990800D03*
X126299200Y-85490800D03*
D46*
X126074200Y-84765800D03*
X125574200Y-84765800D03*
X125074200Y-84765800D03*
X124574200Y-84765800D03*
X124074200Y-84765800D03*
D47*
X123849200Y-85490800D03*
X123849200Y-85990800D03*
X123849200Y-86490800D03*
%TD*%
D34*
%TO.C,C28*%
X139200000Y-87925000D03*
X139200000Y-86375000D03*
%TD*%
D16*
%TO.C,C49*%
X106400000Y-91050000D03*
X105800000Y-91050000D03*
%TD*%
D34*
%TO.C,C29*%
X137700000Y-87925000D03*
X137700000Y-86375000D03*
%TD*%
D48*
%TO.C,IC1*%
X109190000Y-86875000D03*
X111340000Y-86875000D03*
X109190000Y-85175000D03*
X111340000Y-85175000D03*
D49*
X108360000Y-89775000D03*
X109630000Y-89775000D03*
X110900000Y-89775000D03*
X112170000Y-89775000D03*
X112170000Y-82275000D03*
X110900000Y-82275000D03*
X109630000Y-82275000D03*
X108360000Y-82275000D03*
%TD*%
D27*
%TO.C,R27*%
X139900000Y-95525000D03*
X140500000Y-95525000D03*
%TD*%
D17*
%TO.C,D2*%
X134485000Y-100100000D03*
X133515000Y-100100000D03*
%TD*%
D12*
%TO.C,C39*%
X130750000Y-88200000D03*
X130750000Y-89160000D03*
%TD*%
D14*
%TO.C,R22*%
X141140000Y-90800000D03*
X142160000Y-90800000D03*
%TD*%
D30*
%TO.C,U3*%
X124605000Y-110525000D03*
X124605000Y-111175000D03*
X124605000Y-111825000D03*
X124605000Y-112325000D03*
D31*
X125005000Y-113050000D03*
X125505000Y-113050000D03*
X126005000Y-113050000D03*
D30*
X126405000Y-112325000D03*
X126405000Y-111825000D03*
X126405000Y-111175000D03*
X126405000Y-110525000D03*
D32*
X125505000Y-110862000D03*
%TD*%
D50*
%TO.C,R26*%
X140750000Y-99150000D03*
X140750000Y-98550000D03*
%TD*%
D51*
%TO.C,R5*%
X135475000Y-104452250D03*
X135475000Y-103432250D03*
%TD*%
D52*
%TO.C,D12*%
X138200000Y-104700000D03*
X138200000Y-103300000D03*
%TD*%
D53*
%TO.C,U19*%
X131849600Y-96912500D03*
D54*
X131774600Y-97450000D03*
D53*
X131849600Y-97987500D03*
X133549600Y-97987500D03*
D54*
X133624600Y-97450000D03*
D53*
X133549600Y-96912500D03*
%TD*%
D12*
%TO.C,C7*%
X120710000Y-100665000D03*
X120710000Y-101625000D03*
%TD*%
D25*
%TO.C,C30*%
X122843600Y-85500800D03*
X122843600Y-84540800D03*
%TD*%
D55*
%TO.C,R9*%
X121125000Y-96825000D03*
X121125000Y-97425000D03*
%TD*%
D56*
%TO.C,D11*%
X123825000Y-115200000D03*
X123825000Y-117300000D03*
%TD*%
D26*
%TO.C,R1*%
X120020000Y-109726250D03*
X119000000Y-109726250D03*
%TD*%
D28*
%TO.C,FB5*%
X119987500Y-108502500D03*
X119987500Y-106927500D03*
%TD*%
D27*
%TO.C,C27*%
X140550000Y-84667500D03*
X141150000Y-84667500D03*
%TD*%
D51*
%TO.C,R19*%
X126375000Y-104110000D03*
X126375000Y-103090000D03*
%TD*%
D41*
%TO.C,C51*%
X121525000Y-106925000D03*
X121525000Y-108475000D03*
%TD*%
D14*
%TO.C,R7*%
X134640000Y-86000000D03*
X135660000Y-86000000D03*
%TD*%
D55*
%TO.C,C20*%
X112520000Y-94350000D03*
X112520000Y-94950000D03*
%TD*%
D57*
%TO.C,C5*%
X112600000Y-106950000D03*
X112600000Y-100850000D03*
%TD*%
D56*
%TO.C,D7*%
X135750000Y-115867250D03*
X135750000Y-117967250D03*
%TD*%
D41*
%TO.C,C50*%
X129050000Y-106925000D03*
X129050000Y-108475000D03*
%TD*%
D13*
%TO.C,R8*%
X124950000Y-92690000D03*
X124950000Y-93710000D03*
%TD*%
D29*
%TO.C,C26*%
X143175000Y-86400000D03*
X141625000Y-86400000D03*
%TD*%
%TO.C,C47*%
X129550000Y-86750000D03*
X128000000Y-86750000D03*
%TD*%
D58*
%TO.C,U15*%
X142900000Y-83917500D03*
X142400000Y-83917500D03*
X141900000Y-83917500D03*
D59*
X141900000Y-85017500D03*
X142400000Y-85017500D03*
X142900000Y-85017500D03*
%TD*%
D36*
%TO.C,C8*%
X142325000Y-106392250D03*
X142325000Y-109342250D03*
%TD*%
D41*
%TO.C,C53*%
X123025000Y-106925000D03*
X123025000Y-108475000D03*
%TD*%
D21*
%TO.C,D8*%
X101877000Y-104510000D03*
X101877000Y-106350000D03*
D22*
X105859000Y-105430000D03*
%TD*%
D20*
%TO.C,C13*%
X124120000Y-114100000D03*
X125080000Y-114100000D03*
%TD*%
D51*
%TO.C,R18*%
X127400000Y-104110000D03*
X127400000Y-103090000D03*
%TD*%
D33*
%TO.C,L1*%
X137330000Y-109790000D03*
X137330000Y-107290000D03*
%TD*%
D36*
%TO.C,C25*%
X140025000Y-106392250D03*
X140025000Y-109342250D03*
%TD*%
D26*
%TO.C,R14*%
X140585000Y-93125000D03*
X139565000Y-93125000D03*
%TD*%
M02*
