%TF.GenerationSoftware,KiCad,Pcbnew,7.0.8*%
%TF.CreationDate,2024-02-20T09:26:03+00:00*%
%TF.ProjectId,CuttleBoard_8Layers,43757474-6c65-4426-9f61-72645f384c61,rev?*%
%TF.SameCoordinates,Original*%
%TF.FileFunction,Copper,L4,Inr*%
%TF.FilePolarity,Positive*%
%FSLAX46Y46*%
G04 Gerber Fmt 4.6, Leading zero omitted, Abs format (unit mm)*
G04 Created by KiCad (PCBNEW 7.0.8) date 2024-02-20 09:26:03*
%MOMM*%
%LPD*%
G01*
G04 APERTURE LIST*
G04 Aperture macros list*
%AMRoundRect*
0 Rectangle with rounded corners*
0 $1 Rounding radius*
0 $2 $3 $4 $5 $6 $7 $8 $9 X,Y pos of 4 corners*
0 Add a 4 corners polygon primitive as box body*
4,1,4,$2,$3,$4,$5,$6,$7,$8,$9,$2,$3,0*
0 Add four circle primitives for the rounded corners*
1,1,$1+$1,$2,$3*
1,1,$1+$1,$4,$5*
1,1,$1+$1,$6,$7*
1,1,$1+$1,$8,$9*
0 Add four rect primitives between the rounded corners*
20,1,$1+$1,$2,$3,$4,$5,0*
20,1,$1+$1,$4,$5,$6,$7,0*
20,1,$1+$1,$6,$7,$8,$9,0*
20,1,$1+$1,$8,$9,$2,$3,0*%
G04 Aperture macros list end*
%TA.AperFunction,CastellatedPad*%
%ADD10RoundRect,0.425000X-0.425000X-1.275000X0.425000X-1.275000X0.425000X1.275000X-0.425000X1.275000X0*%
%TD*%
%TA.AperFunction,CastellatedPad*%
%ADD11RoundRect,0.425000X0.425000X1.275000X-0.425000X1.275000X-0.425000X-1.275000X0.425000X-1.275000X0*%
%TD*%
%TA.AperFunction,ComponentPad*%
%ADD12C,5.600000*%
%TD*%
%TA.AperFunction,CastellatedPad*%
%ADD13RoundRect,0.425000X1.275000X-0.425000X1.275000X0.425000X-1.275000X0.425000X-1.275000X-0.425000X0*%
%TD*%
%TA.AperFunction,CastellatedPad*%
%ADD14RoundRect,0.425000X-1.275000X0.425000X-1.275000X-0.425000X1.275000X-0.425000X1.275000X0.425000X0*%
%TD*%
%TA.AperFunction,ComponentPad*%
%ADD15C,0.500000*%
%TD*%
%TA.AperFunction,ComponentPad*%
%ADD16O,2.000000X3.000000*%
%TD*%
%TA.AperFunction,ComponentPad*%
%ADD17O,2.108200X0.914400*%
%TD*%
%TA.AperFunction,ComponentPad*%
%ADD18O,1.905000X0.914400*%
%TD*%
%TA.AperFunction,ViaPad*%
%ADD19C,0.450000*%
%TD*%
%TA.AperFunction,ViaPad*%
%ADD20C,0.800000*%
%TD*%
G04 APERTURE END LIST*
D10*
%TO.N,+5V*%
%TO.C,5V*%
X135240000Y-74772600D03*
D11*
X135240000Y-74772800D03*
%TD*%
D12*
%TO.N,GND*%
%TO.C,H4*%
X142100000Y-78700000D03*
%TD*%
D10*
%TO.N,GND*%
%TO.C,GND*%
X127508000Y-123222100D03*
D11*
X127508000Y-123222300D03*
%TD*%
D13*
%TO.N,GND*%
%TO.C,TP28*%
X98289800Y-101840000D03*
D14*
X98290000Y-101840000D03*
%TD*%
D13*
%TO.N,GND*%
%TO.C,GND*%
X146699800Y-106380000D03*
D14*
X146700000Y-106380000D03*
%TD*%
D10*
%TO.N,+12V*%
%TO.C,12V*%
X107188000Y-123222100D03*
D11*
X107188000Y-123222300D03*
%TD*%
D10*
%TO.N,GND*%
%TO.C,GND*%
X109728000Y-123222100D03*
D11*
X109728000Y-123222300D03*
%TD*%
D10*
%TO.N,UART9_TX*%
%TO.C,TX*%
X124968000Y-123222100D03*
D11*
X124968000Y-123222300D03*
%TD*%
D10*
%TO.N,GND*%
%TO.C,GND*%
X114808000Y-123222100D03*
D11*
X114808000Y-123222300D03*
%TD*%
D13*
%TO.N,+5V*%
%TO.C,5V*%
X146699800Y-103840000D03*
D14*
X146700000Y-103840000D03*
%TD*%
D10*
%TO.N,+12V*%
%TO.C,12V*%
X107300000Y-74765500D03*
D11*
X107300000Y-74765700D03*
%TD*%
D10*
%TO.N,I2C1_SCL*%
%TO.C,SCL*%
X120000000Y-74778100D03*
D11*
X120000000Y-74778300D03*
%TD*%
D13*
%TO.N,SWDIO*%
%TO.C,CLK*%
X146702900Y-111460000D03*
D14*
X146703100Y-111460000D03*
%TD*%
D13*
%TO.N,GND*%
%TO.C,GND*%
X98289800Y-86600000D03*
D14*
X98290000Y-86600000D03*
%TD*%
D10*
%TO.N,GND*%
%TO.C,GND*%
X137780000Y-74782900D03*
D11*
X137780000Y-74783100D03*
%TD*%
D13*
%TO.N,SWDCLK*%
%TO.C,IO*%
X146700000Y-114000000D03*
D14*
X146700200Y-114000000D03*
%TD*%
D13*
%TO.N,I2C4_SCL*%
%TO.C,SCL*%
X98289800Y-96760000D03*
D14*
X98290000Y-96760000D03*
%TD*%
D15*
%TO.N,/Coil+*%
%TO.C,TP1*%
X99200000Y-111600000D03*
X99800000Y-111400000D03*
X98600000Y-111300000D03*
X98200000Y-110700000D03*
X98200000Y-110000000D03*
D16*
X99400000Y-109900000D03*
%TD*%
D10*
%TO.N,UART4_RX*%
%TO.C,RX*%
X127620000Y-74772600D03*
D11*
X127620000Y-74772800D03*
%TD*%
D13*
%TO.N,I2C4_SDA*%
%TO.C,SDA*%
X98289800Y-99300000D03*
D14*
X98290000Y-99300000D03*
%TD*%
D13*
%TO.N,UART7_RX*%
%TO.C,RX*%
X98289800Y-89140000D03*
D14*
X98290000Y-89140000D03*
%TD*%
D10*
%TO.N,UART3_TX*%
%TO.C,RX*%
X130050000Y-123220000D03*
D11*
X130050000Y-123220200D03*
%TD*%
D13*
%TO.N,NRST*%
%TO.C,NRST*%
X146699800Y-108920000D03*
D14*
X146700000Y-108920000D03*
%TD*%
D10*
%TO.N,GND*%
%TO.C,GND*%
X132700000Y-74772600D03*
D11*
X132700000Y-74772800D03*
%TD*%
D17*
%TO.N,N/C*%
%TO.C,J1*%
X145847200Y-93150000D03*
X145847200Y-102050000D03*
D18*
X142647199Y-93150000D03*
X142647199Y-102050000D03*
%TD*%
D13*
%TO.N,I2C3_SDA*%
%TO.C,SDA*%
X146706000Y-86495000D03*
D14*
X146706200Y-86495000D03*
%TD*%
D10*
%TO.N,+5V*%
%TO.C,5V*%
X137668000Y-123216400D03*
D11*
X137668000Y-123216600D03*
%TD*%
D12*
%TO.N,GND*%
%TO.C,H3*%
X103100000Y-78700000D03*
%TD*%
D15*
%TO.N,/BattPad-*%
%TO.C,TP2*%
X99200000Y-106900000D03*
X99800000Y-106700000D03*
X98600000Y-106600000D03*
X98200000Y-106000000D03*
X98200000Y-105300000D03*
D16*
X99400000Y-105200000D03*
%TD*%
D10*
%TO.N,GND*%
%TO.C,GND*%
X119888000Y-123222100D03*
D11*
X119888000Y-123222300D03*
%TD*%
D13*
%TO.N,GND*%
%TO.C,TP29*%
X98289800Y-94220000D03*
D14*
X98290000Y-94220000D03*
%TD*%
D10*
%TO.N,UART9_RX*%
%TO.C,RX*%
X122521800Y-123222100D03*
D11*
X122521800Y-123222300D03*
%TD*%
D13*
%TO.N,UART7_TX*%
%TO.C,TX*%
X98289800Y-91680000D03*
D14*
X98290000Y-91680000D03*
%TD*%
D10*
%TO.N,+3V3*%
%TO.C,3.3V*%
X117348000Y-123222100D03*
D11*
X117348000Y-123222300D03*
%TD*%
D10*
%TO.N,GND*%
%TO.C,GND*%
X125080000Y-74779300D03*
D11*
X125080000Y-74779500D03*
%TD*%
D12*
%TO.N,GND*%
%TO.C,H2*%
X103100000Y-119400000D03*
%TD*%
D13*
%TO.N,I2C3_SCL*%
%TO.C,SCL*%
X146706000Y-89035000D03*
D14*
X146706200Y-89035000D03*
%TD*%
%TO.N,GND*%
%TO.C,GND*%
X146710200Y-91440000D03*
D13*
X146710000Y-91440000D03*
%TD*%
D10*
%TO.N,GND*%
%TO.C,GND*%
X117460000Y-74771400D03*
D11*
X117460000Y-74771600D03*
%TD*%
D10*
%TO.N,I2C1_SDA*%
%TO.C,SDA*%
X122540000Y-74778100D03*
D11*
X122540000Y-74778300D03*
%TD*%
D10*
%TO.N,+3V3*%
%TO.C,3.3V*%
X112380000Y-74765500D03*
D11*
X112380000Y-74765700D03*
%TD*%
D10*
%TO.N,+3V3*%
%TO.C,3.3V*%
X114920000Y-74765500D03*
D11*
X114920000Y-74765700D03*
%TD*%
D13*
%TO.N,+3V3*%
%TO.C,3.3V*%
X98289800Y-84060000D03*
D14*
X98290000Y-84060000D03*
%TD*%
D10*
%TO.N,UART3_RX*%
%TO.C,TX*%
X132590000Y-123220000D03*
D11*
X132590000Y-123220200D03*
%TD*%
D13*
%TO.N,GND*%
%TO.C,GND*%
X98289800Y-113300000D03*
D14*
X98290000Y-113300000D03*
%TD*%
D13*
%TO.N,GND*%
%TO.C,GND*%
X146702900Y-83960000D03*
D14*
X146703100Y-83960000D03*
%TD*%
D10*
%TO.N,+3V3*%
%TO.C,3.3V*%
X112268000Y-123222100D03*
D11*
X112268000Y-123222300D03*
%TD*%
D10*
%TO.N,GND*%
%TO.C,GND*%
X135128000Y-123216400D03*
D11*
X135128000Y-123216600D03*
%TD*%
D12*
%TO.N,GND*%
%TO.C,H1*%
X142100000Y-119400000D03*
%TD*%
D10*
%TO.N,UART4_TX*%
%TO.C,TX*%
X130160000Y-74766700D03*
D11*
X130160000Y-74766900D03*
%TD*%
D10*
%TO.N,GND*%
%TO.C,GND*%
X109840000Y-74765500D03*
D11*
X109840000Y-74765700D03*
%TD*%
D19*
%TO.N,GND*%
X125225000Y-115100000D03*
X117000000Y-89450000D03*
X124160000Y-110150000D03*
X144300000Y-94250000D03*
X131278571Y-97424897D03*
X120500000Y-88700000D03*
X118152800Y-102300000D03*
X107105000Y-112490000D03*
X112925000Y-99925000D03*
X107105000Y-113070000D03*
X115250000Y-85675000D03*
X112925000Y-100505000D03*
X117575400Y-99840600D03*
X137300000Y-113550000D03*
X138900000Y-85600000D03*
X123830000Y-89200002D03*
X142550000Y-110450000D03*
X124550000Y-85350000D03*
X121480000Y-98590000D03*
X123000000Y-84400000D03*
X141600000Y-110400000D03*
X118732800Y-102300000D03*
X141600000Y-111025000D03*
X124475000Y-85900000D03*
X136800000Y-114450000D03*
X121052800Y-102300000D03*
X140600000Y-94800000D03*
X121900000Y-95650000D03*
X129650000Y-108250000D03*
X112300000Y-99925000D03*
X107730000Y-112490000D03*
X141500000Y-100650000D03*
X136900000Y-86400000D03*
X121000000Y-110900000D03*
X134900000Y-99100000D03*
X139700000Y-84600000D03*
X117575400Y-101000600D03*
X134900000Y-100100000D03*
X104492500Y-92350000D03*
X132750000Y-110950000D03*
X119672800Y-98120000D03*
X133475000Y-108900000D03*
X105600000Y-90450000D03*
X107730000Y-114230000D03*
X123725000Y-100800000D03*
X111500000Y-83650000D03*
X113550000Y-100505000D03*
X125100000Y-114000000D03*
X127280000Y-88760000D03*
X120100000Y-99500000D03*
X107730000Y-113070000D03*
X121075000Y-110200000D03*
X120200000Y-85600000D03*
X130350000Y-84500000D03*
X136200000Y-110970000D03*
X107625000Y-100600000D03*
X120900000Y-86150000D03*
X107625000Y-102340000D03*
X119892800Y-102300000D03*
X122100000Y-89200000D03*
X117575400Y-102160600D03*
X120250000Y-101825000D03*
X107625000Y-101760000D03*
X117930000Y-98120000D03*
X106792500Y-96025000D03*
X120200000Y-86100000D03*
X107850000Y-103225000D03*
X118000000Y-89450000D03*
X126105393Y-96808299D03*
X137500000Y-99100000D03*
X131980000Y-95650000D03*
X137450000Y-114500000D03*
X140200000Y-99150000D03*
X112300000Y-101665000D03*
X118510000Y-98120000D03*
X131475000Y-85875000D03*
X132340000Y-86190000D03*
X118380000Y-101100000D03*
X104717500Y-93550000D03*
X113550000Y-101665000D03*
X117575400Y-101580600D03*
X119312800Y-102300000D03*
X122250000Y-108249998D03*
X120252800Y-98120000D03*
X127280000Y-91460000D03*
X112150000Y-90700000D03*
X120300000Y-86800000D03*
X112300000Y-100505000D03*
X132850000Y-109950000D03*
X117800000Y-113400000D03*
X120832800Y-98120000D03*
X117575400Y-100420600D03*
X107025000Y-103225000D03*
X127175000Y-86650000D03*
X129640000Y-91450000D03*
X134540000Y-90160000D03*
X121412800Y-101330000D03*
X112925000Y-101085000D03*
X125025000Y-114525000D03*
X120472800Y-102300000D03*
X121412800Y-101910000D03*
X137700000Y-83900000D03*
X116750000Y-94350000D03*
X131550000Y-85325000D03*
X137500000Y-100100000D03*
X122820529Y-96910948D03*
X112093940Y-94859402D03*
X139850000Y-110370000D03*
X112300000Y-101085000D03*
X112925000Y-101665000D03*
X117500000Y-112900000D03*
X107730000Y-113650000D03*
X139900000Y-96100000D03*
X142550000Y-111025000D03*
X121075000Y-109150000D03*
X121340000Y-98140000D03*
X115300000Y-84624500D03*
X117840000Y-84500000D03*
X136600000Y-83900000D03*
X134719738Y-92919738D03*
X117575400Y-99260600D03*
X119090000Y-98120000D03*
X127740000Y-98400000D03*
X129725000Y-89775500D03*
X114900000Y-85100000D03*
X137100000Y-85000000D03*
X117580000Y-98680000D03*
X113550000Y-101085000D03*
X129650000Y-109400000D03*
X129570000Y-92640000D03*
X139500000Y-85600000D03*
X130750000Y-89775000D03*
X133860000Y-104230000D03*
X126900000Y-110200000D03*
X113550000Y-99925000D03*
X125400175Y-99149771D03*
X125800000Y-84799998D03*
X120100000Y-100100000D03*
X107625000Y-101180000D03*
X141800000Y-85700000D03*
%TO.N,Net-(U1-EN)*%
X133250000Y-113800000D03*
X139600000Y-112800000D03*
X133250000Y-112450000D03*
%TO.N,Net-(C11-Pad1)*%
X138100000Y-106270000D03*
X140610000Y-113375500D03*
%TO.N,Net-(U3-EN)*%
X121325000Y-112675000D03*
X121325000Y-112075000D03*
X127725000Y-112025000D03*
%TO.N,Net-(U2B-VFBSMPS)*%
X122921116Y-97616105D03*
X126806664Y-99361369D03*
X126750500Y-97709274D03*
X127745500Y-96818347D03*
%TO.N,+5V*%
X137580000Y-104730000D03*
X136730000Y-103130000D03*
X143850000Y-89900000D03*
X137250000Y-103140000D03*
X136200000Y-102600000D03*
X139200000Y-104300000D03*
X136200000Y-103100000D03*
X137290000Y-102630000D03*
X143437250Y-89524500D03*
X136710000Y-102600000D03*
%TO.N,USB_VBUS*%
X141721800Y-96342200D03*
X134080000Y-97450500D03*
%TO.N,Net-(U2B-VLXSMPS)*%
X123712659Y-97599874D03*
D20*
%TO.N,+12V*%
X118400000Y-116150000D03*
X100400000Y-82600000D03*
X106106119Y-116400000D03*
X131310979Y-116185577D03*
X118975000Y-108375000D03*
X119987500Y-108502500D03*
X127100000Y-81500000D03*
X138800000Y-81700000D03*
X144400000Y-116300000D03*
X113450000Y-81900000D03*
D19*
%TO.N,+3V3*%
X130500000Y-87500000D03*
X116260000Y-84670000D03*
X123400000Y-87425000D03*
X122579998Y-100390000D03*
X126747052Y-96908932D03*
X122875000Y-101550000D03*
D20*
X125900000Y-120500000D03*
D19*
X126122689Y-99217311D03*
X115865000Y-91100000D03*
X110350006Y-92800000D03*
X122987969Y-96065725D03*
X122125000Y-87525000D03*
X134674500Y-88790000D03*
X127800000Y-104000000D03*
X123400000Y-86950000D03*
X107163200Y-89986800D03*
X128418807Y-98324500D03*
X119850000Y-84250000D03*
X135900000Y-89675000D03*
X116900000Y-84624500D03*
X112100000Y-94150000D03*
X125425500Y-92600000D03*
X129230178Y-88344822D03*
X121724646Y-96595353D03*
X129225000Y-87600000D03*
X107475000Y-84150000D03*
X134650000Y-86825000D03*
X125336809Y-98399500D03*
X117181037Y-85054300D03*
X125400000Y-103900000D03*
X122100000Y-88275000D03*
X116200000Y-85545474D03*
X107150000Y-85350000D03*
X122800000Y-87525000D03*
X129900000Y-87600000D03*
X130500000Y-87025000D03*
X126570000Y-92590000D03*
%TO.N,/PA9_USB_VBUS_sense*%
X139600000Y-94850000D03*
X130824000Y-98393284D03*
%TO.N,I2C3_SCL*%
X142700000Y-90650000D03*
X130824000Y-99042787D03*
%TO.N,I2C3_SDA*%
X128597500Y-99140367D03*
X142030000Y-89039998D03*
D20*
%TO.N,I2C2_SCL*%
X125622300Y-80297700D03*
D19*
X137700000Y-117400000D03*
X127750000Y-103225000D03*
%TO.N,I2C2_SDA*%
X132000000Y-119000000D03*
X125700000Y-103100000D03*
D20*
X122400000Y-79000000D03*
D19*
%TO.N,/USB_D-*%
X141597878Y-97207878D03*
X143769700Y-97759537D03*
%TO.N,MOSI_GYRO*%
X119200000Y-90500000D03*
X112708833Y-82840000D03*
X125099994Y-89419994D03*
X125230000Y-91890000D03*
X132050000Y-88640000D03*
X119000000Y-87400000D03*
X130670002Y-91990000D03*
%TO.N,MISO_GYRO*%
X131721800Y-91071800D03*
X119600000Y-87800010D03*
X125709999Y-88629999D03*
X125725000Y-90900000D03*
X132600000Y-89297568D03*
X120100000Y-90400000D03*
%TO.N,I2C4_SCL*%
X115100000Y-91640000D03*
%TO.N,Net-(J1-CC2)*%
X144425908Y-97507134D03*
X140925000Y-95550000D03*
%TO.N,Net-(U2A-BOOT0)*%
X127300000Y-93800000D03*
X134800000Y-91300000D03*
%TO.N,I2C1_SCL*%
X124603751Y-96914109D03*
X124310000Y-93300000D03*
%TO.N,I2C1_SDA*%
X126100000Y-93550000D03*
%TO.N,I2C4_SDA*%
X116750000Y-92900000D03*
X123724749Y-98400239D03*
X118662500Y-92112500D03*
%TO.N,CS_FLASH*%
X118800000Y-93610000D03*
X110025000Y-91450000D03*
%TO.N,CS_IMU1*%
X133200000Y-88390000D03*
X130675490Y-92985000D03*
%TO.N,INT_IMU1*%
X129313373Y-93611612D03*
X133830000Y-89390000D03*
%TO.N,Net-(C50-Pad1)*%
X125600000Y-106400000D03*
X128600000Y-112900000D03*
%TO.N,SWDCLK*%
X129149439Y-96119439D03*
%TO.N,SWDIO*%
X130304694Y-96155313D03*
%TO.N,UART4_RX*%
X127705584Y-96018773D03*
%TO.N,UART4_TX*%
X128510000Y-95211188D03*
%TO.N,UART7_RX*%
X126068046Y-100743044D03*
%TO.N,UART7_TX*%
X126175012Y-101550000D03*
%TO.N,UART9_RX*%
X126925006Y-100000000D03*
%TO.N,UART9_TX*%
X128523080Y-99998080D03*
%TO.N,NRST*%
X133200000Y-101500000D03*
X120400000Y-97200000D03*
X124400000Y-104700500D03*
%TO.N,UART3_RX*%
X128444641Y-100695347D03*
%TO.N,UART3_TX*%
X129303041Y-101559405D03*
%TD*%
%TA.AperFunction,Conductor*%
%TO.N,GND*%
G36*
X144541718Y-74290596D02*
G01*
X144834302Y-74307027D01*
X144841191Y-74307803D01*
X145077888Y-74348020D01*
X145128356Y-74356595D01*
X145135140Y-74358143D01*
X145158077Y-74364751D01*
X145335737Y-74415934D01*
X145415031Y-74438778D01*
X145421595Y-74441075D01*
X145690705Y-74552543D01*
X145696962Y-74555558D01*
X145951888Y-74696451D01*
X145957780Y-74700153D01*
X146195334Y-74868706D01*
X146200761Y-74873034D01*
X146343756Y-75000822D01*
X146417951Y-75067128D01*
X146422871Y-75072048D01*
X146500552Y-75158972D01*
X146616964Y-75289236D01*
X146621293Y-75294665D01*
X146789846Y-75532219D01*
X146793548Y-75538111D01*
X146934441Y-75793037D01*
X146937459Y-75799302D01*
X146978252Y-75897784D01*
X147048923Y-76068401D01*
X147051221Y-76074968D01*
X147131856Y-76354859D01*
X147133404Y-76361643D01*
X147182194Y-76648793D01*
X147182973Y-76655708D01*
X147199402Y-76948264D01*
X147199500Y-76951741D01*
X147199500Y-85320500D01*
X147179815Y-85387539D01*
X147127011Y-85433294D01*
X147075500Y-85444500D01*
X145367838Y-85444501D01*
X145332372Y-85447291D01*
X145180614Y-85491380D01*
X145180609Y-85491382D01*
X145044583Y-85571827D01*
X145044574Y-85571834D01*
X144932834Y-85683574D01*
X144932827Y-85683583D01*
X144852382Y-85819609D01*
X144852380Y-85819614D01*
X144808292Y-85971366D01*
X144808290Y-85971379D01*
X144805500Y-86006835D01*
X144805501Y-86983162D01*
X144808291Y-87018627D01*
X144852380Y-87170385D01*
X144852382Y-87170390D01*
X144932827Y-87306416D01*
X144932834Y-87306425D01*
X145044574Y-87418165D01*
X145044578Y-87418168D01*
X145044580Y-87418170D01*
X145180610Y-87498618D01*
X145332373Y-87542709D01*
X145348502Y-87543978D01*
X145354838Y-87545499D01*
X145367824Y-87545499D01*
X145367837Y-87545500D01*
X145368036Y-87545499D01*
X145368037Y-87545500D01*
X147075500Y-87545499D01*
X147142539Y-87565184D01*
X147188294Y-87617988D01*
X147199500Y-87669499D01*
X147199500Y-87860500D01*
X147179815Y-87927539D01*
X147127011Y-87973294D01*
X147075500Y-87984500D01*
X145367838Y-87984501D01*
X145332372Y-87987291D01*
X145180614Y-88031380D01*
X145180609Y-88031382D01*
X145044583Y-88111827D01*
X145044574Y-88111834D01*
X144932834Y-88223574D01*
X144932827Y-88223583D01*
X144852382Y-88359609D01*
X144852380Y-88359614D01*
X144808292Y-88511366D01*
X144808290Y-88511379D01*
X144805500Y-88546835D01*
X144805501Y-89523162D01*
X144808291Y-89558627D01*
X144852380Y-89710385D01*
X144852382Y-89710390D01*
X144932827Y-89846416D01*
X144932834Y-89846425D01*
X145044574Y-89958165D01*
X145044578Y-89958168D01*
X145044580Y-89958170D01*
X145180610Y-90038618D01*
X145332373Y-90082709D01*
X145348502Y-90083978D01*
X145354838Y-90085499D01*
X145367824Y-90085499D01*
X145367837Y-90085500D01*
X145368036Y-90085499D01*
X145368037Y-90085500D01*
X147075500Y-90085499D01*
X147142539Y-90105184D01*
X147188294Y-90157988D01*
X147199500Y-90209499D01*
X147199500Y-92822413D01*
X147179815Y-92889452D01*
X147127011Y-92935207D01*
X147057853Y-92945151D01*
X146994297Y-92916126D01*
X146960940Y-92869868D01*
X146954834Y-92855127D01*
X146867802Y-92741705D01*
X146861113Y-92732987D01*
X146748765Y-92646780D01*
X146738973Y-92639266D01*
X146644176Y-92600000D01*
X146596737Y-92580350D01*
X146582447Y-92578468D01*
X146482428Y-92565300D01*
X146482421Y-92565300D01*
X145211979Y-92565300D01*
X145211971Y-92565300D01*
X145097663Y-92580350D01*
X145097662Y-92580350D01*
X144955426Y-92639266D01*
X144833288Y-92732985D01*
X144739565Y-92855128D01*
X144680650Y-92997362D01*
X144680649Y-92997364D01*
X144660555Y-93149998D01*
X144660555Y-93150001D01*
X144680649Y-93302635D01*
X144680650Y-93302637D01*
X144739566Y-93444873D01*
X144786426Y-93505942D01*
X144833287Y-93567013D01*
X144891413Y-93611614D01*
X144955426Y-93660733D01*
X144955427Y-93660733D01*
X144955428Y-93660734D01*
X145097663Y-93719650D01*
X145211979Y-93734700D01*
X145211986Y-93734700D01*
X146482414Y-93734700D01*
X146482421Y-93734700D01*
X146596737Y-93719650D01*
X146738972Y-93660734D01*
X146861113Y-93567013D01*
X146954834Y-93444873D01*
X146960939Y-93430133D01*
X147004778Y-93375731D01*
X147071072Y-93353665D01*
X147138772Y-93370943D01*
X147186383Y-93422080D01*
X147199500Y-93477586D01*
X147199500Y-101722413D01*
X147179815Y-101789452D01*
X147127011Y-101835207D01*
X147057853Y-101845151D01*
X146994297Y-101816126D01*
X146960940Y-101769868D01*
X146954834Y-101755127D01*
X146906798Y-101692526D01*
X146861113Y-101632987D01*
X146765221Y-101559407D01*
X146738973Y-101539266D01*
X146644176Y-101500000D01*
X146596737Y-101480350D01*
X146582447Y-101478468D01*
X146482428Y-101465300D01*
X146482421Y-101465300D01*
X145211979Y-101465300D01*
X145211971Y-101465300D01*
X145097663Y-101480350D01*
X145097662Y-101480350D01*
X144955426Y-101539266D01*
X144833288Y-101632985D01*
X144739565Y-101755128D01*
X144680650Y-101897362D01*
X144680650Y-101897364D01*
X144667548Y-101996878D01*
X144639281Y-102060775D01*
X144580956Y-102099245D01*
X144547741Y-102104652D01*
X143853630Y-102122189D01*
X143786115Y-102104204D01*
X143739041Y-102052573D01*
X143727559Y-102014414D01*
X143720358Y-101959719D01*
X143712149Y-101897363D01*
X143653233Y-101755128D01*
X143653232Y-101755127D01*
X143653232Y-101755126D01*
X143605197Y-101692526D01*
X143559512Y-101632987D01*
X143463620Y-101559407D01*
X143437372Y-101539266D01*
X143342575Y-101500000D01*
X143295136Y-101480350D01*
X143280846Y-101478468D01*
X143180827Y-101465300D01*
X143180820Y-101465300D01*
X142113578Y-101465300D01*
X142113570Y-101465300D01*
X141999262Y-101480350D01*
X141999261Y-101480350D01*
X141857025Y-101539266D01*
X141734887Y-101632985D01*
X141641164Y-101755128D01*
X141582249Y-101897362D01*
X141582249Y-101897363D01*
X141562154Y-102049999D01*
X141562154Y-102058127D01*
X141558880Y-102058127D01*
X141550436Y-102112083D01*
X141504027Y-102164313D01*
X141441423Y-102183132D01*
X137574917Y-102280818D01*
X137515491Y-102267343D01*
X137423123Y-102220279D01*
X137290002Y-102199196D01*
X137289998Y-102199196D01*
X137156876Y-102220279D01*
X137085517Y-102256639D01*
X137016848Y-102269535D01*
X136973405Y-102252977D01*
X136971915Y-102255903D01*
X136963221Y-102251473D01*
X136963220Y-102251472D01*
X136843126Y-102190281D01*
X136843124Y-102190280D01*
X136843121Y-102190279D01*
X136710002Y-102169196D01*
X136709998Y-102169196D01*
X136576876Y-102190279D01*
X136511294Y-102223695D01*
X136442624Y-102236591D01*
X136398706Y-102223695D01*
X136333123Y-102190279D01*
X136200002Y-102169196D01*
X136199998Y-102169196D01*
X136066878Y-102190279D01*
X135946777Y-102251473D01*
X135909496Y-102288754D01*
X135848172Y-102322238D01*
X135824949Y-102325031D01*
X121902228Y-102676784D01*
X121834713Y-102658799D01*
X121787639Y-102607168D01*
X121775096Y-102552730D01*
X121775157Y-102472481D01*
X121775854Y-101550002D01*
X122444196Y-101550002D01*
X122465279Y-101683121D01*
X122465280Y-101683124D01*
X122465281Y-101683126D01*
X122519457Y-101789452D01*
X122526473Y-101803221D01*
X122526476Y-101803225D01*
X122621774Y-101898523D01*
X122621778Y-101898526D01*
X122621780Y-101898528D01*
X122741874Y-101959719D01*
X122741876Y-101959719D01*
X122741878Y-101959720D01*
X122874998Y-101980804D01*
X122875000Y-101980804D01*
X122875002Y-101980804D01*
X123008121Y-101959720D01*
X123008121Y-101959719D01*
X123008126Y-101959719D01*
X123128220Y-101898528D01*
X123223528Y-101803220D01*
X123284719Y-101683126D01*
X123304314Y-101559407D01*
X123305804Y-101550002D01*
X123305804Y-101549997D01*
X123284720Y-101416878D01*
X123284719Y-101416876D01*
X123284719Y-101416874D01*
X123223528Y-101296780D01*
X123223524Y-101296776D01*
X123223523Y-101296774D01*
X123128225Y-101201476D01*
X123128221Y-101201473D01*
X123128220Y-101201472D01*
X123008126Y-101140281D01*
X123008124Y-101140280D01*
X123008121Y-101140279D01*
X122875002Y-101119196D01*
X122874998Y-101119196D01*
X122741878Y-101140279D01*
X122741874Y-101140280D01*
X122741874Y-101140281D01*
X122719903Y-101151476D01*
X122621778Y-101201473D01*
X122621774Y-101201476D01*
X122526476Y-101296774D01*
X122526473Y-101296778D01*
X122465279Y-101416878D01*
X122444196Y-101549997D01*
X122444196Y-101550002D01*
X121775854Y-101550002D01*
X121776760Y-100351702D01*
X121796495Y-100284682D01*
X121813556Y-100263645D01*
X121978839Y-100100165D01*
X122040343Y-100067019D01*
X122110006Y-100072386D01*
X122165709Y-100114563D01*
X122189767Y-100180161D01*
X122176523Y-100244619D01*
X122170277Y-100256876D01*
X122149194Y-100389997D01*
X122149194Y-100390002D01*
X122170277Y-100523121D01*
X122170278Y-100523124D01*
X122170279Y-100523126D01*
X122190199Y-100562221D01*
X122231471Y-100643221D01*
X122231474Y-100643225D01*
X122326772Y-100738523D01*
X122326776Y-100738526D01*
X122326778Y-100738528D01*
X122446872Y-100799719D01*
X122446874Y-100799719D01*
X122446876Y-100799720D01*
X122579996Y-100820804D01*
X122579998Y-100820804D01*
X122580000Y-100820804D01*
X122713119Y-100799720D01*
X122713119Y-100799719D01*
X122713124Y-100799719D01*
X122824351Y-100743046D01*
X125637242Y-100743046D01*
X125658325Y-100876165D01*
X125658326Y-100876168D01*
X125658327Y-100876170D01*
X125695216Y-100948568D01*
X125719519Y-100996265D01*
X125719522Y-100996269D01*
X125814820Y-101091567D01*
X125814823Y-101091569D01*
X125814826Y-101091572D01*
X125814828Y-101091573D01*
X125822718Y-101097305D01*
X125820407Y-101100485D01*
X125857257Y-101135333D01*
X125874009Y-101203165D01*
X125851428Y-101269285D01*
X125837810Y-101285453D01*
X125826486Y-101296776D01*
X125826485Y-101296778D01*
X125765291Y-101416878D01*
X125744208Y-101549997D01*
X125744208Y-101550002D01*
X125765291Y-101683121D01*
X125765292Y-101683124D01*
X125765293Y-101683126D01*
X125819469Y-101789452D01*
X125826485Y-101803221D01*
X125826488Y-101803225D01*
X125921786Y-101898523D01*
X125921790Y-101898526D01*
X125921792Y-101898528D01*
X126041886Y-101959719D01*
X126041888Y-101959719D01*
X126041890Y-101959720D01*
X126175010Y-101980804D01*
X126175012Y-101980804D01*
X126175014Y-101980804D01*
X126308133Y-101959720D01*
X126308133Y-101959719D01*
X126308138Y-101959719D01*
X126428232Y-101898528D01*
X126523540Y-101803220D01*
X126584731Y-101683126D01*
X126604326Y-101559407D01*
X128872237Y-101559407D01*
X128893320Y-101692526D01*
X128893321Y-101692529D01*
X128893322Y-101692531D01*
X128954513Y-101812625D01*
X128954514Y-101812626D01*
X128954517Y-101812630D01*
X129049815Y-101907928D01*
X129049819Y-101907931D01*
X129049821Y-101907933D01*
X129169915Y-101969124D01*
X129169917Y-101969124D01*
X129169919Y-101969125D01*
X129303039Y-101990209D01*
X129303041Y-101990209D01*
X129303043Y-101990209D01*
X129436162Y-101969125D01*
X129436162Y-101969124D01*
X129436167Y-101969124D01*
X129556261Y-101907933D01*
X129651569Y-101812625D01*
X129712760Y-101692531D01*
X129714250Y-101683126D01*
X129733845Y-101559407D01*
X129733845Y-101559402D01*
X129724437Y-101500002D01*
X132769196Y-101500002D01*
X132790279Y-101633121D01*
X132790280Y-101633124D01*
X132790281Y-101633126D01*
X132851472Y-101753220D01*
X132851473Y-101753221D01*
X132851476Y-101753225D01*
X132946774Y-101848523D01*
X132946778Y-101848526D01*
X132946780Y-101848528D01*
X133066874Y-101909719D01*
X133066876Y-101909719D01*
X133066878Y-101909720D01*
X133199998Y-101930804D01*
X133200000Y-101930804D01*
X133200002Y-101930804D01*
X133333121Y-101909720D01*
X133333121Y-101909719D01*
X133333126Y-101909719D01*
X133453220Y-101848528D01*
X133548528Y-101753220D01*
X133609719Y-101633126D01*
X133609741Y-101632987D01*
X133630804Y-101500002D01*
X133630804Y-101499997D01*
X133609720Y-101366878D01*
X133609719Y-101366876D01*
X133609719Y-101366874D01*
X133548528Y-101246780D01*
X133548526Y-101246778D01*
X133548523Y-101246774D01*
X133453225Y-101151476D01*
X133453221Y-101151473D01*
X133453220Y-101151472D01*
X133333126Y-101090281D01*
X133333124Y-101090280D01*
X133333121Y-101090279D01*
X133200002Y-101069196D01*
X133199998Y-101069196D01*
X133066878Y-101090279D01*
X132946778Y-101151473D01*
X132946774Y-101151476D01*
X132851476Y-101246774D01*
X132851473Y-101246778D01*
X132790279Y-101366878D01*
X132769196Y-101499997D01*
X132769196Y-101500002D01*
X129724437Y-101500002D01*
X129712761Y-101426283D01*
X129712760Y-101426281D01*
X129712760Y-101426279D01*
X129651569Y-101306185D01*
X129651567Y-101306183D01*
X129651564Y-101306179D01*
X129556266Y-101210881D01*
X129556262Y-101210878D01*
X129556261Y-101210877D01*
X129436167Y-101149686D01*
X129436165Y-101149685D01*
X129436162Y-101149684D01*
X129303043Y-101128601D01*
X129303039Y-101128601D01*
X129169919Y-101149684D01*
X129049819Y-101210878D01*
X129049815Y-101210881D01*
X128954517Y-101306179D01*
X128954514Y-101306183D01*
X128893320Y-101426283D01*
X128872237Y-101559402D01*
X128872237Y-101559407D01*
X126604326Y-101559407D01*
X126605816Y-101550002D01*
X126605816Y-101549997D01*
X126584732Y-101416878D01*
X126584731Y-101416876D01*
X126584731Y-101416874D01*
X126523540Y-101296780D01*
X126523536Y-101296776D01*
X126523535Y-101296774D01*
X126428237Y-101201476D01*
X126428233Y-101201473D01*
X126428232Y-101201472D01*
X126428230Y-101201471D01*
X126420340Y-101195739D01*
X126422637Y-101192576D01*
X126385716Y-101157567D01*
X126369056Y-101089713D01*
X126391724Y-101023623D01*
X126405246Y-101007591D01*
X126416574Y-100996264D01*
X126477765Y-100876170D01*
X126477766Y-100876165D01*
X126498850Y-100743046D01*
X126498850Y-100743041D01*
X126477766Y-100609922D01*
X126477765Y-100609920D01*
X126477765Y-100609918D01*
X126416574Y-100489824D01*
X126416572Y-100489822D01*
X126416569Y-100489818D01*
X126321271Y-100394520D01*
X126321267Y-100394517D01*
X126321266Y-100394516D01*
X126201172Y-100333325D01*
X126201170Y-100333324D01*
X126201167Y-100333323D01*
X126068048Y-100312240D01*
X126068044Y-100312240D01*
X125934924Y-100333323D01*
X125934920Y-100333324D01*
X125934920Y-100333325D01*
X125901214Y-100350499D01*
X125814824Y-100394517D01*
X125814820Y-100394520D01*
X125719522Y-100489818D01*
X125719519Y-100489822D01*
X125658325Y-100609922D01*
X125637242Y-100743041D01*
X125637242Y-100743046D01*
X122824351Y-100743046D01*
X122833218Y-100738528D01*
X122928526Y-100643220D01*
X122989717Y-100523126D01*
X122989718Y-100523121D01*
X123010802Y-100390002D01*
X123010802Y-100389997D01*
X122989718Y-100256878D01*
X122989717Y-100256876D01*
X122989717Y-100256874D01*
X122956253Y-100191198D01*
X122943358Y-100122532D01*
X122969634Y-100057791D01*
X123026741Y-100017534D01*
X123066844Y-100010907D01*
X123828000Y-100011600D01*
X123829705Y-99217313D01*
X125691885Y-99217313D01*
X125712968Y-99350432D01*
X125712969Y-99350435D01*
X125712970Y-99350437D01*
X125774161Y-99470531D01*
X125774162Y-99470532D01*
X125774165Y-99470536D01*
X125869463Y-99565834D01*
X125869467Y-99565837D01*
X125869469Y-99565839D01*
X125989563Y-99627030D01*
X125989565Y-99627030D01*
X125989567Y-99627031D01*
X126122687Y-99648115D01*
X126122689Y-99648115D01*
X126122691Y-99648115D01*
X126255811Y-99627031D01*
X126255812Y-99627030D01*
X126255815Y-99627030D01*
X126317814Y-99595439D01*
X126386482Y-99582543D01*
X126451222Y-99608819D01*
X126461789Y-99618243D01*
X126517448Y-99673902D01*
X126550933Y-99735225D01*
X126545949Y-99804917D01*
X126540252Y-99817877D01*
X126515285Y-99866876D01*
X126494202Y-99999997D01*
X126494202Y-100000002D01*
X126515285Y-100133121D01*
X126515286Y-100133124D01*
X126515287Y-100133126D01*
X126561167Y-100223170D01*
X126576479Y-100253221D01*
X126576482Y-100253225D01*
X126671780Y-100348523D01*
X126671784Y-100348526D01*
X126671786Y-100348528D01*
X126791880Y-100409719D01*
X126791882Y-100409719D01*
X126791884Y-100409720D01*
X126925004Y-100430804D01*
X126925006Y-100430804D01*
X126925008Y-100430804D01*
X127058127Y-100409720D01*
X127058127Y-100409719D01*
X127058132Y-100409719D01*
X127178226Y-100348528D01*
X127273534Y-100253220D01*
X127334725Y-100133126D01*
X127338164Y-100111416D01*
X127355810Y-100000002D01*
X127355810Y-99999997D01*
X127334726Y-99866878D01*
X127334725Y-99866876D01*
X127334725Y-99866874D01*
X127273534Y-99746780D01*
X127273532Y-99746778D01*
X127273529Y-99746774D01*
X127214221Y-99687466D01*
X127180736Y-99626143D01*
X127185720Y-99556451D01*
X127191409Y-99543507D01*
X127216383Y-99494495D01*
X127220179Y-99470532D01*
X127237468Y-99361371D01*
X127237468Y-99361366D01*
X127216384Y-99228247D01*
X127216383Y-99228245D01*
X127216383Y-99228243D01*
X127155192Y-99108149D01*
X127155190Y-99108147D01*
X127155187Y-99108143D01*
X127059889Y-99012845D01*
X127059885Y-99012842D01*
X127059884Y-99012841D01*
X126939790Y-98951650D01*
X126939788Y-98951649D01*
X126939785Y-98951648D01*
X126806666Y-98930565D01*
X126806662Y-98930565D01*
X126673540Y-98951648D01*
X126611538Y-98983240D01*
X126542868Y-98996136D01*
X126478128Y-98969859D01*
X126467563Y-98960436D01*
X126375914Y-98868787D01*
X126375910Y-98868784D01*
X126375909Y-98868783D01*
X126255815Y-98807592D01*
X126255813Y-98807591D01*
X126255810Y-98807590D01*
X126122691Y-98786507D01*
X126122687Y-98786507D01*
X125989567Y-98807590D01*
X125989563Y-98807591D01*
X125989563Y-98807592D01*
X125984918Y-98809959D01*
X125869467Y-98868784D01*
X125869463Y-98868787D01*
X125774165Y-98964085D01*
X125774162Y-98964089D01*
X125774161Y-98964091D01*
X125729952Y-99050857D01*
X125712968Y-99084189D01*
X125691885Y-99217308D01*
X125691885Y-99217313D01*
X123829705Y-99217313D01*
X123830000Y-99080000D01*
X122206459Y-99070278D01*
X122139539Y-99050192D01*
X122125161Y-99039260D01*
X122088877Y-99007245D01*
X121978287Y-98909665D01*
X121861959Y-98807022D01*
X121824714Y-98747907D01*
X121820000Y-98714042D01*
X121820000Y-97750000D01*
X120751111Y-97750000D01*
X120684072Y-97730315D01*
X120638317Y-97677511D01*
X120629488Y-97616107D01*
X122490312Y-97616107D01*
X122511395Y-97749226D01*
X122511396Y-97749229D01*
X122511397Y-97749231D01*
X122572588Y-97869325D01*
X122572589Y-97869326D01*
X122572592Y-97869330D01*
X122667890Y-97964628D01*
X122667894Y-97964631D01*
X122667896Y-97964633D01*
X122787990Y-98025824D01*
X122787992Y-98025824D01*
X122787994Y-98025825D01*
X122921114Y-98046909D01*
X122921116Y-98046909D01*
X122921118Y-98046909D01*
X123054237Y-98025825D01*
X123054237Y-98025824D01*
X123054242Y-98025824D01*
X123174336Y-97964633D01*
X123237322Y-97901646D01*
X123298642Y-97868162D01*
X123368334Y-97873146D01*
X123412683Y-97901647D01*
X123429456Y-97918420D01*
X123462941Y-97979743D01*
X123457957Y-98049435D01*
X123429457Y-98093782D01*
X123376222Y-98147016D01*
X123376222Y-98147017D01*
X123315028Y-98267117D01*
X123293945Y-98400236D01*
X123293945Y-98400241D01*
X123315028Y-98533360D01*
X123315029Y-98533363D01*
X123315030Y-98533365D01*
X123375845Y-98652721D01*
X123376222Y-98653460D01*
X123376225Y-98653464D01*
X123471523Y-98748762D01*
X123471527Y-98748765D01*
X123471529Y-98748767D01*
X123591623Y-98809958D01*
X123591625Y-98809958D01*
X123591627Y-98809959D01*
X123724747Y-98831043D01*
X123724749Y-98831043D01*
X123724751Y-98831043D01*
X123857870Y-98809959D01*
X123857870Y-98809958D01*
X123857875Y-98809958D01*
X123977969Y-98748767D01*
X124073277Y-98653459D01*
X124134468Y-98533365D01*
X124135570Y-98526410D01*
X124155553Y-98400241D01*
X124155553Y-98400236D01*
X124155437Y-98399502D01*
X124906005Y-98399502D01*
X124927088Y-98532621D01*
X124927089Y-98532624D01*
X124927090Y-98532626D01*
X124988281Y-98652720D01*
X124988282Y-98652721D01*
X124988285Y-98652725D01*
X125083583Y-98748023D01*
X125083587Y-98748026D01*
X125083589Y-98748028D01*
X125203683Y-98809219D01*
X125203685Y-98809219D01*
X125203687Y-98809220D01*
X125336807Y-98830304D01*
X125336809Y-98830304D01*
X125336811Y-98830304D01*
X125469930Y-98809220D01*
X125469930Y-98809219D01*
X125469935Y-98809219D01*
X125590029Y-98748028D01*
X125685337Y-98652720D01*
X125746528Y-98532626D01*
X125747513Y-98526410D01*
X125767613Y-98399502D01*
X125767613Y-98399497D01*
X125755735Y-98324502D01*
X127988003Y-98324502D01*
X128009086Y-98457621D01*
X128009087Y-98457624D01*
X128009088Y-98457626D01*
X128047679Y-98533365D01*
X128070280Y-98577721D01*
X128070283Y-98577725D01*
X128165581Y-98673023D01*
X128165583Y-98673024D01*
X128165587Y-98673028D01*
X128210619Y-98695972D01*
X128261414Y-98743947D01*
X128278209Y-98811768D01*
X128255671Y-98877903D01*
X128254646Y-98879335D01*
X128248976Y-98887139D01*
X128187779Y-99007245D01*
X128166696Y-99140364D01*
X128166696Y-99140369D01*
X128187779Y-99273488D01*
X128187780Y-99273491D01*
X128187781Y-99273493D01*
X128248972Y-99393587D01*
X128248973Y-99393588D01*
X128248976Y-99393592D01*
X128304905Y-99449521D01*
X128338390Y-99510844D01*
X128333406Y-99580536D01*
X128291534Y-99636469D01*
X128273528Y-99647682D01*
X128269865Y-99649548D01*
X128269854Y-99649556D01*
X128174556Y-99744854D01*
X128174553Y-99744858D01*
X128113359Y-99864958D01*
X128092276Y-99998077D01*
X128092276Y-99998082D01*
X128113359Y-100131201D01*
X128113360Y-100131204D01*
X128113361Y-100131206D01*
X128171587Y-100245481D01*
X128184483Y-100314148D01*
X128158207Y-100378889D01*
X128148784Y-100389455D01*
X128096114Y-100442124D01*
X128096114Y-100442125D01*
X128034920Y-100562225D01*
X128013837Y-100695344D01*
X128013837Y-100695349D01*
X128034920Y-100828468D01*
X128034921Y-100828471D01*
X128034922Y-100828473D01*
X128059225Y-100876170D01*
X128096114Y-100948568D01*
X128096117Y-100948572D01*
X128191415Y-101043870D01*
X128191419Y-101043873D01*
X128191421Y-101043875D01*
X128311515Y-101105066D01*
X128311517Y-101105066D01*
X128311519Y-101105067D01*
X128444639Y-101126151D01*
X128444641Y-101126151D01*
X128444643Y-101126151D01*
X128577762Y-101105067D01*
X128577762Y-101105066D01*
X128577767Y-101105066D01*
X128697861Y-101043875D01*
X128793169Y-100948567D01*
X128854360Y-100828473D01*
X128858914Y-100799719D01*
X128875445Y-100695349D01*
X128875445Y-100695344D01*
X128854361Y-100562225D01*
X128854360Y-100562223D01*
X128854360Y-100562221D01*
X128796132Y-100447943D01*
X128783237Y-100379277D01*
X128809513Y-100314536D01*
X128818921Y-100303986D01*
X128871608Y-100251300D01*
X128932799Y-100131206D01*
X128935933Y-100111420D01*
X128953884Y-99998082D01*
X128953884Y-99998077D01*
X128932800Y-99864958D01*
X128932799Y-99864956D01*
X128932799Y-99864954D01*
X128871608Y-99744860D01*
X128871606Y-99744858D01*
X128871603Y-99744854D01*
X128815674Y-99688925D01*
X128782189Y-99627602D01*
X128787173Y-99557910D01*
X128829045Y-99501977D01*
X128847062Y-99490759D01*
X128847535Y-99490517D01*
X128850720Y-99488895D01*
X128946028Y-99393587D01*
X129007219Y-99273493D01*
X129016117Y-99217313D01*
X129028304Y-99140369D01*
X129028304Y-99140364D01*
X129012850Y-99042789D01*
X130393196Y-99042789D01*
X130414279Y-99175908D01*
X130414280Y-99175911D01*
X130414281Y-99175913D01*
X130440947Y-99228247D01*
X130475473Y-99296008D01*
X130475476Y-99296012D01*
X130570774Y-99391310D01*
X130570778Y-99391313D01*
X130570780Y-99391315D01*
X130690874Y-99452506D01*
X130690876Y-99452506D01*
X130690878Y-99452507D01*
X130823998Y-99473591D01*
X130824000Y-99473591D01*
X130824002Y-99473591D01*
X130957121Y-99452507D01*
X130957121Y-99452506D01*
X130957126Y-99452506D01*
X131077220Y-99391315D01*
X131172528Y-99296007D01*
X131233719Y-99175913D01*
X131239349Y-99140367D01*
X131254804Y-99042789D01*
X131254804Y-99042784D01*
X131233720Y-98909665D01*
X131233719Y-98909663D01*
X131233719Y-98909661D01*
X131172528Y-98789567D01*
X131172526Y-98789565D01*
X131168097Y-98780872D01*
X131169644Y-98780083D01*
X131150031Y-98725114D01*
X131165857Y-98657060D01*
X131172091Y-98647359D01*
X131172525Y-98646506D01*
X131172528Y-98646504D01*
X131233719Y-98526410D01*
X131239712Y-98488574D01*
X131254804Y-98393286D01*
X131254804Y-98393281D01*
X131233720Y-98260162D01*
X131233719Y-98260160D01*
X131233719Y-98260158D01*
X131172528Y-98140064D01*
X131172526Y-98140062D01*
X131172523Y-98140058D01*
X131077225Y-98044760D01*
X131077221Y-98044757D01*
X131077220Y-98044756D01*
X130957126Y-97983565D01*
X130957124Y-97983564D01*
X130957121Y-97983563D01*
X130824002Y-97962480D01*
X130823998Y-97962480D01*
X130690878Y-97983563D01*
X130690874Y-97983564D01*
X130690874Y-97983565D01*
X130652464Y-98003136D01*
X130570778Y-98044757D01*
X130570774Y-98044760D01*
X130475476Y-98140058D01*
X130475473Y-98140062D01*
X130414279Y-98260162D01*
X130393196Y-98393281D01*
X130393196Y-98393286D01*
X130414279Y-98526405D01*
X130414280Y-98526408D01*
X130414281Y-98526410D01*
X130475472Y-98646504D01*
X130475473Y-98646505D01*
X130479903Y-98655199D01*
X130478355Y-98655987D01*
X130497968Y-98710960D01*
X130482141Y-98779013D01*
X130475907Y-98788712D01*
X130414279Y-98909665D01*
X130393196Y-99042784D01*
X130393196Y-99042789D01*
X129012850Y-99042789D01*
X129007220Y-99007245D01*
X129007219Y-99007243D01*
X129007219Y-99007241D01*
X128946028Y-98887147D01*
X128946026Y-98887145D01*
X128946023Y-98887141D01*
X128850725Y-98791843D01*
X128850721Y-98791840D01*
X128850720Y-98791839D01*
X128844583Y-98788712D01*
X128805687Y-98768893D01*
X128754892Y-98720918D01*
X128738097Y-98653097D01*
X128760635Y-98586962D01*
X128761665Y-98585524D01*
X128767329Y-98577725D01*
X128767335Y-98577720D01*
X128828526Y-98457626D01*
X128837733Y-98399497D01*
X128849611Y-98324502D01*
X128849611Y-98324497D01*
X128828527Y-98191378D01*
X128828526Y-98191376D01*
X128828526Y-98191374D01*
X128767335Y-98071280D01*
X128767333Y-98071278D01*
X128767330Y-98071274D01*
X128672032Y-97975976D01*
X128672028Y-97975973D01*
X128672027Y-97975972D01*
X128551933Y-97914781D01*
X128551931Y-97914780D01*
X128551928Y-97914779D01*
X128418809Y-97893696D01*
X128418805Y-97893696D01*
X128285685Y-97914779D01*
X128285681Y-97914780D01*
X128285681Y-97914781D01*
X128281613Y-97916854D01*
X128165585Y-97975973D01*
X128165581Y-97975976D01*
X128070283Y-98071274D01*
X128070280Y-98071278D01*
X128009086Y-98191378D01*
X127988003Y-98324497D01*
X127988003Y-98324502D01*
X125755735Y-98324502D01*
X125746529Y-98266378D01*
X125746528Y-98266376D01*
X125746528Y-98266374D01*
X125685337Y-98146280D01*
X125685335Y-98146278D01*
X125685332Y-98146274D01*
X125590034Y-98050976D01*
X125590030Y-98050973D01*
X125590029Y-98050972D01*
X125469935Y-97989781D01*
X125469933Y-97989780D01*
X125469930Y-97989779D01*
X125336811Y-97968696D01*
X125336807Y-97968696D01*
X125203687Y-97989779D01*
X125083587Y-98050973D01*
X125083583Y-98050976D01*
X124988285Y-98146274D01*
X124988282Y-98146278D01*
X124927088Y-98266378D01*
X124906005Y-98399497D01*
X124906005Y-98399502D01*
X124155437Y-98399502D01*
X124134469Y-98267117D01*
X124134468Y-98267115D01*
X124134468Y-98267113D01*
X124073277Y-98147019D01*
X124073274Y-98147016D01*
X124073272Y-98147013D01*
X124007951Y-98081692D01*
X123974466Y-98020369D01*
X123979450Y-97950677D01*
X124007949Y-97906331D01*
X124061187Y-97853094D01*
X124122378Y-97733000D01*
X124123603Y-97725267D01*
X124143463Y-97599876D01*
X124143463Y-97599871D01*
X124122379Y-97466752D01*
X124122378Y-97466750D01*
X124122378Y-97466748D01*
X124061187Y-97346654D01*
X124061185Y-97346652D01*
X124061182Y-97346648D01*
X123965884Y-97251350D01*
X123965880Y-97251347D01*
X123965879Y-97251346D01*
X123845785Y-97190155D01*
X123845783Y-97190154D01*
X123845780Y-97190153D01*
X123712661Y-97169070D01*
X123712657Y-97169070D01*
X123579537Y-97190153D01*
X123459437Y-97251347D01*
X123459436Y-97251347D01*
X123396452Y-97314332D01*
X123335128Y-97347816D01*
X123265437Y-97342831D01*
X123221089Y-97314330D01*
X123174340Y-97267580D01*
X123174337Y-97267578D01*
X123174336Y-97267577D01*
X123054242Y-97206386D01*
X123054240Y-97206385D01*
X123054237Y-97206384D01*
X122921118Y-97185301D01*
X122921114Y-97185301D01*
X122787994Y-97206384D01*
X122667894Y-97267578D01*
X122667890Y-97267581D01*
X122572592Y-97362879D01*
X122572589Y-97362883D01*
X122511395Y-97482983D01*
X122490312Y-97616102D01*
X122490312Y-97616107D01*
X120629488Y-97616107D01*
X120628373Y-97608353D01*
X120657398Y-97544797D01*
X120663430Y-97538319D01*
X120748523Y-97453225D01*
X120748528Y-97453220D01*
X120809719Y-97333126D01*
X120810415Y-97328733D01*
X120830804Y-97200002D01*
X120830804Y-97199997D01*
X120809720Y-97066878D01*
X120809719Y-97066876D01*
X120809719Y-97066874D01*
X120748528Y-96946780D01*
X120748526Y-96946778D01*
X120748523Y-96946774D01*
X120653225Y-96851476D01*
X120653221Y-96851473D01*
X120653220Y-96851472D01*
X120533126Y-96790281D01*
X120533124Y-96790280D01*
X120533121Y-96790279D01*
X120400002Y-96769196D01*
X120399998Y-96769196D01*
X120266878Y-96790279D01*
X120266874Y-96790280D01*
X120266874Y-96790281D01*
X120195064Y-96826870D01*
X120146778Y-96851473D01*
X120146774Y-96851476D01*
X120051476Y-96946774D01*
X120051473Y-96946778D01*
X119990279Y-97066878D01*
X119969196Y-97199997D01*
X119969196Y-97200002D01*
X119990279Y-97333121D01*
X119990280Y-97333124D01*
X119990281Y-97333126D01*
X120051472Y-97453220D01*
X120051473Y-97453221D01*
X120051476Y-97453225D01*
X120136570Y-97538319D01*
X120170055Y-97599642D01*
X120165071Y-97669334D01*
X120123199Y-97725267D01*
X120057735Y-97749684D01*
X120048889Y-97750000D01*
X117190000Y-97750000D01*
X117190000Y-102675000D01*
X121775000Y-102679998D01*
X121775000Y-102679997D01*
X121775103Y-102679997D01*
X121775074Y-102679998D01*
X121776800Y-102680000D01*
X121776850Y-102679998D01*
X121814052Y-102680040D01*
X121824402Y-102678797D01*
X125304941Y-102590856D01*
X125372455Y-102608841D01*
X125419529Y-102660472D01*
X125431216Y-102729357D01*
X125403806Y-102793626D01*
X125395754Y-102802496D01*
X125351476Y-102846774D01*
X125351473Y-102846778D01*
X125290279Y-102966878D01*
X125269196Y-103099997D01*
X125269196Y-103100002D01*
X125290279Y-103233121D01*
X125290280Y-103233124D01*
X125290281Y-103233126D01*
X125333460Y-103317870D01*
X125346356Y-103386537D01*
X125320080Y-103451278D01*
X125274371Y-103483499D01*
X125275570Y-103485851D01*
X125266876Y-103490280D01*
X125266874Y-103490281D01*
X125161121Y-103544165D01*
X125146778Y-103551473D01*
X125146774Y-103551476D01*
X125051476Y-103646774D01*
X125051473Y-103646778D01*
X124990279Y-103766878D01*
X124969196Y-103899997D01*
X124969196Y-103900002D01*
X124990279Y-104033121D01*
X124990280Y-104033124D01*
X124990281Y-104033126D01*
X125041234Y-104133126D01*
X125051473Y-104153221D01*
X125051476Y-104153225D01*
X125146774Y-104248523D01*
X125146778Y-104248526D01*
X125146780Y-104248528D01*
X125266874Y-104309719D01*
X125266876Y-104309719D01*
X125266878Y-104309720D01*
X125399998Y-104330804D01*
X125400000Y-104330804D01*
X125400002Y-104330804D01*
X125533121Y-104309720D01*
X125533121Y-104309719D01*
X125533126Y-104309719D01*
X125653220Y-104248528D01*
X125748528Y-104153220D01*
X125809719Y-104033126D01*
X125809720Y-104033121D01*
X125830804Y-103900002D01*
X125830804Y-103899997D01*
X125809720Y-103766878D01*
X125809719Y-103766876D01*
X125809719Y-103766874D01*
X125766538Y-103682127D01*
X125753643Y-103613462D01*
X125779919Y-103548722D01*
X125825627Y-103516498D01*
X125824430Y-103514149D01*
X125833123Y-103509719D01*
X125833126Y-103509719D01*
X125953220Y-103448528D01*
X126048528Y-103353220D01*
X126109719Y-103233126D01*
X126111006Y-103225002D01*
X127319196Y-103225002D01*
X127340279Y-103358121D01*
X127340280Y-103358124D01*
X127340281Y-103358126D01*
X127400722Y-103476748D01*
X127401473Y-103478221D01*
X127401476Y-103478225D01*
X127473070Y-103549819D01*
X127506555Y-103611142D01*
X127501571Y-103680834D01*
X127473070Y-103725181D01*
X127451476Y-103746774D01*
X127451473Y-103746778D01*
X127390279Y-103866878D01*
X127369196Y-103999997D01*
X127369196Y-104000002D01*
X127390279Y-104133121D01*
X127390280Y-104133124D01*
X127390281Y-104133126D01*
X127451472Y-104253220D01*
X127451473Y-104253221D01*
X127451476Y-104253225D01*
X127546774Y-104348523D01*
X127546778Y-104348526D01*
X127546780Y-104348528D01*
X127666874Y-104409719D01*
X127666876Y-104409719D01*
X127666878Y-104409720D01*
X127799998Y-104430804D01*
X127800000Y-104430804D01*
X127800002Y-104430804D01*
X127933121Y-104409720D01*
X127933121Y-104409719D01*
X127933126Y-104409719D01*
X128053220Y-104348528D01*
X128148528Y-104253220D01*
X128209719Y-104133126D01*
X128220460Y-104065311D01*
X128230804Y-104000002D01*
X128230804Y-103999997D01*
X128209720Y-103866878D01*
X128209719Y-103866876D01*
X128209719Y-103866874D01*
X128148528Y-103746780D01*
X128148526Y-103746778D01*
X128148523Y-103746774D01*
X128076929Y-103675180D01*
X128043444Y-103613857D01*
X128048428Y-103544165D01*
X128076930Y-103499817D01*
X128098528Y-103478220D01*
X128159719Y-103358126D01*
X128160715Y-103351837D01*
X128180804Y-103225002D01*
X128180804Y-103224997D01*
X128159720Y-103091878D01*
X128159719Y-103091876D01*
X128159719Y-103091874D01*
X128098528Y-102971780D01*
X128098526Y-102971778D01*
X128098523Y-102971774D01*
X128003225Y-102876476D01*
X128003221Y-102876473D01*
X128003220Y-102876472D01*
X127883126Y-102815281D01*
X127883124Y-102815280D01*
X127883121Y-102815279D01*
X127750002Y-102794196D01*
X127749998Y-102794196D01*
X127616878Y-102815279D01*
X127496778Y-102876473D01*
X127496774Y-102876476D01*
X127401476Y-102971774D01*
X127401473Y-102971778D01*
X127340279Y-103091878D01*
X127319196Y-103224997D01*
X127319196Y-103225002D01*
X126111006Y-103225002D01*
X126120571Y-103164609D01*
X126130804Y-103100002D01*
X126130804Y-103099997D01*
X126109720Y-102966878D01*
X126109719Y-102966876D01*
X126109719Y-102966874D01*
X126048528Y-102846780D01*
X126048526Y-102846778D01*
X126048523Y-102846774D01*
X125984929Y-102783180D01*
X125951444Y-102721857D01*
X125956428Y-102652165D01*
X125998300Y-102596232D01*
X126063764Y-102571815D01*
X126069459Y-102571539D01*
X135663792Y-102329125D01*
X135731302Y-102347109D01*
X135778376Y-102398740D01*
X135790063Y-102467625D01*
X135789392Y-102472481D01*
X135769196Y-102599996D01*
X135769196Y-102600002D01*
X135790279Y-102733122D01*
X135821148Y-102793707D01*
X135834043Y-102862376D01*
X135821148Y-102906293D01*
X135790279Y-102966877D01*
X135769196Y-103099997D01*
X135769196Y-103100002D01*
X135790279Y-103233121D01*
X135790280Y-103233124D01*
X135790281Y-103233126D01*
X135850768Y-103351838D01*
X135851473Y-103353221D01*
X135851476Y-103353225D01*
X135946774Y-103448523D01*
X135946778Y-103448526D01*
X135946780Y-103448528D01*
X136066874Y-103509719D01*
X136066876Y-103509719D01*
X136066878Y-103509720D01*
X136199998Y-103530804D01*
X136200000Y-103530804D01*
X136200002Y-103530804D01*
X136333123Y-103509720D01*
X136333123Y-103509719D01*
X136333126Y-103509719D01*
X136379265Y-103486209D01*
X136447931Y-103473312D01*
X136491849Y-103486206D01*
X136596874Y-103539719D01*
X136596876Y-103539719D01*
X136596878Y-103539720D01*
X136729998Y-103560804D01*
X136730000Y-103560804D01*
X136730002Y-103560804D01*
X136863122Y-103539720D01*
X136863123Y-103539719D01*
X136863126Y-103539719D01*
X136923893Y-103508756D01*
X136992559Y-103495860D01*
X137036477Y-103508755D01*
X137116874Y-103549719D01*
X137116876Y-103549719D01*
X137116878Y-103549720D01*
X137249998Y-103570804D01*
X137250000Y-103570804D01*
X137250002Y-103570804D01*
X137383121Y-103549720D01*
X137383121Y-103549719D01*
X137383126Y-103549719D01*
X137503220Y-103488528D01*
X137598528Y-103393220D01*
X137659719Y-103273126D01*
X137659720Y-103273121D01*
X137680804Y-103140002D01*
X137680804Y-103139997D01*
X137659720Y-103006876D01*
X137659719Y-103006874D01*
X137646305Y-102980548D01*
X137633408Y-102911879D01*
X137646302Y-102867961D01*
X137699719Y-102763126D01*
X137704471Y-102733122D01*
X137720804Y-102630002D01*
X137720804Y-102629997D01*
X137699720Y-102496878D01*
X137699719Y-102496876D01*
X137699719Y-102496874D01*
X137678766Y-102455752D01*
X137665871Y-102387086D01*
X137692147Y-102322345D01*
X137749254Y-102282088D01*
X137786107Y-102275502D01*
X141487693Y-102181976D01*
X141555203Y-102199960D01*
X141602277Y-102251591D01*
X141605381Y-102258482D01*
X141641165Y-102344873D01*
X141682499Y-102398740D01*
X141734886Y-102467013D01*
X141814474Y-102528082D01*
X141857025Y-102560733D01*
X141857026Y-102560733D01*
X141857027Y-102560734D01*
X141999262Y-102619650D01*
X142113578Y-102634700D01*
X142113585Y-102634700D01*
X143180813Y-102634700D01*
X143180820Y-102634700D01*
X143295136Y-102619650D01*
X143437371Y-102560734D01*
X143559512Y-102467013D01*
X143653233Y-102344873D01*
X143712149Y-102202637D01*
X143712149Y-102202635D01*
X143713477Y-102199430D01*
X143757318Y-102145026D01*
X143823612Y-102122961D01*
X143824609Y-102122930D01*
X144556052Y-102104449D01*
X144623564Y-102122434D01*
X144670638Y-102174065D01*
X144678954Y-102196311D01*
X144680647Y-102202630D01*
X144739566Y-102344873D01*
X144780900Y-102398740D01*
X144833287Y-102467013D01*
X144912875Y-102528082D01*
X144955426Y-102560733D01*
X144955427Y-102560733D01*
X144955428Y-102560734D01*
X145097663Y-102619650D01*
X145104151Y-102620504D01*
X145168048Y-102648770D01*
X145206519Y-102707095D01*
X145207350Y-102776959D01*
X145170278Y-102836183D01*
X145151087Y-102850175D01*
X145038383Y-102916827D01*
X145038374Y-102916834D01*
X144926634Y-103028574D01*
X144926627Y-103028583D01*
X144846182Y-103164609D01*
X144846180Y-103164614D01*
X144802092Y-103316366D01*
X144802090Y-103316379D01*
X144799300Y-103351835D01*
X144799301Y-104328162D01*
X144802091Y-104363627D01*
X144846180Y-104515385D01*
X144846182Y-104515390D01*
X144926627Y-104651416D01*
X144926634Y-104651425D01*
X145038374Y-104763165D01*
X145038378Y-104763168D01*
X145038380Y-104763170D01*
X145174410Y-104843618D01*
X145326173Y-104887709D01*
X145342302Y-104888978D01*
X145348638Y-104890499D01*
X145361624Y-104890499D01*
X145361637Y-104890500D01*
X145361836Y-104890499D01*
X145361837Y-104890500D01*
X147075500Y-104890499D01*
X147142539Y-104910184D01*
X147188294Y-104962988D01*
X147199500Y-105014499D01*
X147199500Y-107745500D01*
X147179815Y-107812539D01*
X147127011Y-107858294D01*
X147075500Y-107869500D01*
X145361638Y-107869501D01*
X145326172Y-107872291D01*
X145174414Y-107916380D01*
X145174409Y-107916382D01*
X145038383Y-107996827D01*
X145038374Y-107996834D01*
X144926634Y-108108574D01*
X144926627Y-108108583D01*
X144846182Y-108244609D01*
X144846180Y-108244614D01*
X144802092Y-108396366D01*
X144802090Y-108396379D01*
X144799300Y-108431835D01*
X144799301Y-109408162D01*
X144802091Y-109443627D01*
X144846180Y-109595385D01*
X144846182Y-109595390D01*
X144926627Y-109731416D01*
X144926634Y-109731425D01*
X145038374Y-109843165D01*
X145038378Y-109843168D01*
X145038380Y-109843170D01*
X145174410Y-109923618D01*
X145326173Y-109967709D01*
X145342302Y-109968978D01*
X145348638Y-109970499D01*
X145361624Y-109970499D01*
X145361637Y-109970500D01*
X145361836Y-109970499D01*
X145361837Y-109970500D01*
X147075500Y-109970499D01*
X147142539Y-109990184D01*
X147188294Y-110042988D01*
X147199500Y-110094499D01*
X147199500Y-110285500D01*
X147179815Y-110352539D01*
X147127011Y-110398294D01*
X147075500Y-110409500D01*
X145364738Y-110409501D01*
X145329272Y-110412291D01*
X145177514Y-110456380D01*
X145177509Y-110456382D01*
X145041483Y-110536827D01*
X145041474Y-110536834D01*
X144929734Y-110648574D01*
X144929727Y-110648583D01*
X144849282Y-110784609D01*
X144849280Y-110784614D01*
X144805192Y-110936366D01*
X144805190Y-110936379D01*
X144802400Y-110971835D01*
X144802401Y-111948162D01*
X144805191Y-111983627D01*
X144849280Y-112135385D01*
X144849282Y-112135390D01*
X144929727Y-112271416D01*
X144929734Y-112271425D01*
X145041474Y-112383165D01*
X145041483Y-112383172D01*
X145053504Y-112390281D01*
X145177510Y-112463618D01*
X145329273Y-112507709D01*
X145345402Y-112508978D01*
X145351738Y-112510499D01*
X145364724Y-112510499D01*
X145364737Y-112510500D01*
X145364936Y-112510499D01*
X145364937Y-112510500D01*
X147075500Y-112510499D01*
X147142539Y-112530184D01*
X147188294Y-112582988D01*
X147199500Y-112634499D01*
X147199500Y-112825500D01*
X147179815Y-112892539D01*
X147127011Y-112938294D01*
X147075500Y-112949500D01*
X145361838Y-112949501D01*
X145326372Y-112952291D01*
X145174614Y-112996380D01*
X145174609Y-112996382D01*
X145038583Y-113076827D01*
X145038574Y-113076834D01*
X144926834Y-113188574D01*
X144926827Y-113188583D01*
X144846382Y-113324609D01*
X144846380Y-113324614D01*
X144802292Y-113476366D01*
X144802290Y-113476379D01*
X144799500Y-113511835D01*
X144799501Y-114488162D01*
X144802291Y-114523627D01*
X144846380Y-114675385D01*
X144846382Y-114675390D01*
X144926827Y-114811416D01*
X144926834Y-114811425D01*
X145038574Y-114923165D01*
X145038578Y-114923168D01*
X145038580Y-114923170D01*
X145174610Y-115003618D01*
X145326373Y-115047709D01*
X145342502Y-115048978D01*
X145348838Y-115050499D01*
X145361824Y-115050499D01*
X145361837Y-115050500D01*
X145362036Y-115050499D01*
X145362037Y-115050500D01*
X147075500Y-115050499D01*
X147142539Y-115070184D01*
X147188294Y-115122988D01*
X147199500Y-115174499D01*
X147199500Y-120950434D01*
X147197975Y-120969824D01*
X147196463Y-120979374D01*
X147196463Y-121025230D01*
X147196365Y-121028706D01*
X147179940Y-121321259D01*
X147179161Y-121328174D01*
X147130374Y-121615327D01*
X147128826Y-121622110D01*
X147048193Y-121902003D01*
X147045895Y-121908571D01*
X146934435Y-122177662D01*
X146931416Y-122183931D01*
X146790522Y-122438862D01*
X146786820Y-122444753D01*
X146618273Y-122682302D01*
X146613934Y-122687743D01*
X146419846Y-122904926D01*
X146414926Y-122909846D01*
X146197743Y-123103934D01*
X146192302Y-123108273D01*
X145954753Y-123276820D01*
X145948862Y-123280522D01*
X145693931Y-123421416D01*
X145687662Y-123424435D01*
X145418571Y-123535895D01*
X145412003Y-123538193D01*
X145132110Y-123618826D01*
X145125327Y-123620374D01*
X144838174Y-123669161D01*
X144831259Y-123669940D01*
X144538706Y-123686365D01*
X144535230Y-123686463D01*
X144479385Y-123686463D01*
X144479373Y-123686464D01*
X138842500Y-123686464D01*
X138775461Y-123666779D01*
X138729706Y-123613975D01*
X138718500Y-123562464D01*
X138718499Y-121878438D01*
X138718499Y-121878238D01*
X138718008Y-121872003D01*
X138715709Y-121842773D01*
X138671618Y-121691010D01*
X138594541Y-121560680D01*
X138591172Y-121554983D01*
X138591165Y-121554974D01*
X138479425Y-121443234D01*
X138479416Y-121443227D01*
X138343390Y-121362782D01*
X138343385Y-121362780D01*
X138191633Y-121318692D01*
X138191620Y-121318690D01*
X138156165Y-121315900D01*
X138156163Y-121315900D01*
X137179838Y-121315901D01*
X137144372Y-121318691D01*
X136992614Y-121362780D01*
X136992609Y-121362782D01*
X136856583Y-121443227D01*
X136856574Y-121443234D01*
X136744834Y-121554974D01*
X136744827Y-121554983D01*
X136664382Y-121691009D01*
X136664380Y-121691014D01*
X136620292Y-121842766D01*
X136620290Y-121842779D01*
X136617500Y-121878235D01*
X136617500Y-121878437D01*
X136617501Y-123562464D01*
X136597816Y-123629503D01*
X136545013Y-123675258D01*
X136493501Y-123686464D01*
X133764500Y-123686464D01*
X133697461Y-123666779D01*
X133651706Y-123613975D01*
X133640500Y-123562464D01*
X133640499Y-121882038D01*
X133640499Y-121881838D01*
X133640499Y-121881835D01*
X133637709Y-121846373D01*
X133593618Y-121694610D01*
X133514412Y-121560680D01*
X133513172Y-121558583D01*
X133513165Y-121558574D01*
X133401425Y-121446834D01*
X133401416Y-121446827D01*
X133265390Y-121366382D01*
X133265385Y-121366380D01*
X133113633Y-121322292D01*
X133113620Y-121322290D01*
X133078165Y-121319500D01*
X133078163Y-121319500D01*
X132101838Y-121319501D01*
X132066372Y-121322291D01*
X131914614Y-121366380D01*
X131914609Y-121366382D01*
X131778583Y-121446827D01*
X131778574Y-121446834D01*
X131666834Y-121558574D01*
X131666827Y-121558583D01*
X131586382Y-121694609D01*
X131586380Y-121694614D01*
X131542292Y-121846366D01*
X131542290Y-121846379D01*
X131539500Y-121881835D01*
X131539500Y-121882037D01*
X131539501Y-123562464D01*
X131519816Y-123629503D01*
X131467013Y-123675258D01*
X131415501Y-123686464D01*
X131224500Y-123686464D01*
X131157461Y-123666779D01*
X131111706Y-123613975D01*
X131100500Y-123562464D01*
X131100499Y-121882038D01*
X131100499Y-121881838D01*
X131100499Y-121881835D01*
X131097709Y-121846373D01*
X131053618Y-121694610D01*
X130974412Y-121560680D01*
X130973172Y-121558583D01*
X130973165Y-121558574D01*
X130861425Y-121446834D01*
X130861416Y-121446827D01*
X130725390Y-121366382D01*
X130725385Y-121366380D01*
X130573633Y-121322292D01*
X130573620Y-121322290D01*
X130538165Y-121319500D01*
X130538163Y-121319500D01*
X129561838Y-121319501D01*
X129526372Y-121322291D01*
X129374614Y-121366380D01*
X129374609Y-121366382D01*
X129238583Y-121446827D01*
X129238574Y-121446834D01*
X129126834Y-121558574D01*
X129126827Y-121558583D01*
X129046382Y-121694609D01*
X129046380Y-121694614D01*
X129002292Y-121846366D01*
X129002290Y-121846379D01*
X128999500Y-121881835D01*
X128999500Y-121882037D01*
X128999501Y-123562464D01*
X128979816Y-123629503D01*
X128927013Y-123675258D01*
X128875501Y-123686464D01*
X126142500Y-123686464D01*
X126075461Y-123666779D01*
X126029706Y-123613975D01*
X126018500Y-123562464D01*
X126018499Y-121884138D01*
X126018499Y-121883938D01*
X126018499Y-121883935D01*
X126015709Y-121848473D01*
X125971618Y-121696710D01*
X125891170Y-121560680D01*
X125891168Y-121560678D01*
X125891165Y-121560674D01*
X125779425Y-121448934D01*
X125779416Y-121448927D01*
X125643390Y-121368482D01*
X125643385Y-121368480D01*
X125491633Y-121324392D01*
X125491620Y-121324390D01*
X125456165Y-121321600D01*
X125456163Y-121321600D01*
X124479838Y-121321601D01*
X124444372Y-121324391D01*
X124292614Y-121368480D01*
X124292609Y-121368482D01*
X124156583Y-121448927D01*
X124156574Y-121448934D01*
X124044834Y-121560674D01*
X124044827Y-121560683D01*
X123964382Y-121696709D01*
X123964380Y-121696714D01*
X123920292Y-121848466D01*
X123920290Y-121848479D01*
X123917500Y-121883935D01*
X123917500Y-121884137D01*
X123917501Y-123562464D01*
X123897816Y-123629503D01*
X123845013Y-123675258D01*
X123793501Y-123686464D01*
X123696300Y-123686464D01*
X123629261Y-123666779D01*
X123583506Y-123613975D01*
X123572300Y-123562464D01*
X123572299Y-121884138D01*
X123572299Y-121883938D01*
X123572299Y-121883935D01*
X123569509Y-121848473D01*
X123525418Y-121696710D01*
X123444970Y-121560680D01*
X123444968Y-121560678D01*
X123444965Y-121560674D01*
X123333225Y-121448934D01*
X123333216Y-121448927D01*
X123197190Y-121368482D01*
X123197185Y-121368480D01*
X123045433Y-121324392D01*
X123045420Y-121324390D01*
X123009965Y-121321600D01*
X123009963Y-121321600D01*
X122033638Y-121321601D01*
X121998172Y-121324391D01*
X121846414Y-121368480D01*
X121846409Y-121368482D01*
X121710383Y-121448927D01*
X121710374Y-121448934D01*
X121598634Y-121560674D01*
X121598627Y-121560683D01*
X121518182Y-121696709D01*
X121518180Y-121696714D01*
X121474092Y-121848466D01*
X121474090Y-121848479D01*
X121471300Y-121883935D01*
X121471300Y-121884137D01*
X121471301Y-123562464D01*
X121451616Y-123629503D01*
X121398813Y-123675258D01*
X121347301Y-123686464D01*
X118522500Y-123686464D01*
X118455461Y-123666779D01*
X118409706Y-123613975D01*
X118398500Y-123562464D01*
X118398499Y-121884138D01*
X118398499Y-121883938D01*
X118398499Y-121883935D01*
X118395709Y-121848473D01*
X118351618Y-121696710D01*
X118271170Y-121560680D01*
X118271168Y-121560678D01*
X118271165Y-121560674D01*
X118159425Y-121448934D01*
X118159416Y-121448927D01*
X118023390Y-121368482D01*
X118023385Y-121368480D01*
X117871633Y-121324392D01*
X117871620Y-121324390D01*
X117836165Y-121321600D01*
X117836163Y-121321600D01*
X116859838Y-121321601D01*
X116824372Y-121324391D01*
X116672614Y-121368480D01*
X116672609Y-121368482D01*
X116536583Y-121448927D01*
X116536574Y-121448934D01*
X116424834Y-121560674D01*
X116424827Y-121560683D01*
X116344382Y-121696709D01*
X116344380Y-121696714D01*
X116300292Y-121848466D01*
X116300290Y-121848479D01*
X116297500Y-121883935D01*
X116297500Y-121884137D01*
X116297501Y-123562464D01*
X116277816Y-123629503D01*
X116225013Y-123675258D01*
X116173501Y-123686464D01*
X113442500Y-123686464D01*
X113375461Y-123666779D01*
X113329706Y-123613975D01*
X113318500Y-123562464D01*
X113318499Y-121884138D01*
X113318499Y-121883938D01*
X113318499Y-121883935D01*
X113315709Y-121848473D01*
X113271618Y-121696710D01*
X113191170Y-121560680D01*
X113191168Y-121560678D01*
X113191165Y-121560674D01*
X113079425Y-121448934D01*
X113079416Y-121448927D01*
X112943390Y-121368482D01*
X112943385Y-121368480D01*
X112791633Y-121324392D01*
X112791620Y-121324390D01*
X112756165Y-121321600D01*
X112756163Y-121321600D01*
X111779838Y-121321601D01*
X111744372Y-121324391D01*
X111592614Y-121368480D01*
X111592609Y-121368482D01*
X111456583Y-121448927D01*
X111456574Y-121448934D01*
X111344834Y-121560674D01*
X111344827Y-121560683D01*
X111264382Y-121696709D01*
X111264380Y-121696714D01*
X111220292Y-121848466D01*
X111220290Y-121848479D01*
X111217500Y-121883935D01*
X111217500Y-121884137D01*
X111217501Y-123562464D01*
X111197816Y-123629503D01*
X111145013Y-123675258D01*
X111093501Y-123686464D01*
X108362500Y-123686464D01*
X108295461Y-123666779D01*
X108249706Y-123613975D01*
X108238500Y-123562464D01*
X108238499Y-121884138D01*
X108238499Y-121883938D01*
X108238499Y-121883935D01*
X108235709Y-121848473D01*
X108191618Y-121696710D01*
X108111170Y-121560680D01*
X108111168Y-121560678D01*
X108111165Y-121560674D01*
X107999425Y-121448934D01*
X107999416Y-121448927D01*
X107863390Y-121368482D01*
X107863385Y-121368480D01*
X107711633Y-121324392D01*
X107711620Y-121324390D01*
X107676165Y-121321600D01*
X107676163Y-121321600D01*
X106699838Y-121321601D01*
X106664372Y-121324391D01*
X106512614Y-121368480D01*
X106512609Y-121368482D01*
X106376583Y-121448927D01*
X106376574Y-121448934D01*
X106264834Y-121560674D01*
X106264827Y-121560683D01*
X106184382Y-121696709D01*
X106184380Y-121696714D01*
X106140292Y-121848466D01*
X106140290Y-121848479D01*
X106137500Y-121883935D01*
X106137500Y-121884137D01*
X106137501Y-123562464D01*
X106117816Y-123629503D01*
X106065013Y-123675258D01*
X106013501Y-123686464D01*
X100520627Y-123686464D01*
X100520615Y-123686463D01*
X100464769Y-123686463D01*
X100461293Y-123686365D01*
X100168740Y-123669940D01*
X100161825Y-123669161D01*
X99874672Y-123620374D01*
X99867889Y-123618826D01*
X99587996Y-123538193D01*
X99581434Y-123535897D01*
X99312336Y-123424434D01*
X99306068Y-123421416D01*
X99051137Y-123280522D01*
X99045246Y-123276820D01*
X98926471Y-123192546D01*
X98807691Y-123108268D01*
X98802262Y-123103939D01*
X98702379Y-123014678D01*
X98585073Y-122909846D01*
X98580153Y-122904926D01*
X98490897Y-122805049D01*
X98386059Y-122687735D01*
X98381733Y-122682311D01*
X98213179Y-122444753D01*
X98209477Y-122438862D01*
X98068583Y-122183931D01*
X98065568Y-122177670D01*
X97954098Y-121908555D01*
X97951806Y-121902003D01*
X97946659Y-121884138D01*
X97871173Y-121622110D01*
X97869625Y-121615327D01*
X97841355Y-121448934D01*
X97820836Y-121328160D01*
X97820060Y-121321270D01*
X97803632Y-121028686D01*
X97803536Y-121025228D01*
X97803536Y-121024536D01*
X97803537Y-120979373D01*
X97803535Y-120979366D01*
X97802025Y-120969824D01*
X97800500Y-120950434D01*
X97800500Y-120500001D01*
X125294318Y-120500001D01*
X125314955Y-120656760D01*
X125314956Y-120656762D01*
X125375464Y-120802841D01*
X125471718Y-120928282D01*
X125597159Y-121024536D01*
X125743238Y-121085044D01*
X125788266Y-121090972D01*
X125899999Y-121105682D01*
X125900000Y-121105682D01*
X125900001Y-121105682D01*
X125952254Y-121098802D01*
X126056762Y-121085044D01*
X126202841Y-121024536D01*
X126328282Y-120928282D01*
X126424536Y-120802841D01*
X126485044Y-120656762D01*
X126505682Y-120500000D01*
X126485044Y-120343238D01*
X126424536Y-120197159D01*
X126328282Y-120071718D01*
X126202841Y-119975464D01*
X126056762Y-119914956D01*
X126056760Y-119914955D01*
X125900001Y-119894318D01*
X125899999Y-119894318D01*
X125743239Y-119914955D01*
X125743237Y-119914956D01*
X125597160Y-119975463D01*
X125471718Y-120071718D01*
X125375463Y-120197160D01*
X125314956Y-120343237D01*
X125314955Y-120343239D01*
X125294318Y-120499998D01*
X125294318Y-120500001D01*
X97800500Y-120500001D01*
X97800500Y-119000002D01*
X131569196Y-119000002D01*
X131590279Y-119133121D01*
X131590280Y-119133124D01*
X131590281Y-119133126D01*
X131651472Y-119253220D01*
X131651473Y-119253221D01*
X131651476Y-119253225D01*
X131746774Y-119348523D01*
X131746778Y-119348526D01*
X131746780Y-119348528D01*
X131866874Y-119409719D01*
X131866876Y-119409719D01*
X131866878Y-119409720D01*
X131999998Y-119430804D01*
X132000000Y-119430804D01*
X132000002Y-119430804D01*
X132133121Y-119409720D01*
X132133121Y-119409719D01*
X132133126Y-119409719D01*
X132253220Y-119348528D01*
X132348528Y-119253220D01*
X132409719Y-119133126D01*
X132430804Y-119000000D01*
X132409719Y-118866874D01*
X132348528Y-118746780D01*
X132348526Y-118746778D01*
X132348523Y-118746774D01*
X132253225Y-118651476D01*
X132253221Y-118651473D01*
X132253220Y-118651472D01*
X132133126Y-118590281D01*
X132133124Y-118590280D01*
X132133121Y-118590279D01*
X132000002Y-118569196D01*
X131999998Y-118569196D01*
X131866878Y-118590279D01*
X131746778Y-118651473D01*
X131746774Y-118651476D01*
X131651476Y-118746774D01*
X131651473Y-118746778D01*
X131590279Y-118866878D01*
X131569196Y-118999997D01*
X131569196Y-119000002D01*
X97800500Y-119000002D01*
X97800500Y-117400002D01*
X137269196Y-117400002D01*
X137290279Y-117533121D01*
X137290280Y-117533124D01*
X137290281Y-117533126D01*
X137351472Y-117653220D01*
X137351473Y-117653221D01*
X137351476Y-117653225D01*
X137446774Y-117748523D01*
X137446778Y-117748526D01*
X137446780Y-117748528D01*
X137566874Y-117809719D01*
X137566876Y-117809719D01*
X137566878Y-117809720D01*
X137699998Y-117830804D01*
X137700000Y-117830804D01*
X137700002Y-117830804D01*
X137833121Y-117809720D01*
X137833121Y-117809719D01*
X137833126Y-117809719D01*
X137953220Y-117748528D01*
X138048528Y-117653220D01*
X138109719Y-117533126D01*
X138130804Y-117400000D01*
X138109719Y-117266874D01*
X138048528Y-117146780D01*
X138048526Y-117146778D01*
X138048523Y-117146774D01*
X137953225Y-117051476D01*
X137953221Y-117051473D01*
X137953220Y-117051472D01*
X137833126Y-116990281D01*
X137833124Y-116990280D01*
X137833121Y-116990279D01*
X137700002Y-116969196D01*
X137699998Y-116969196D01*
X137566878Y-116990279D01*
X137446778Y-117051473D01*
X137446774Y-117051476D01*
X137351476Y-117146774D01*
X137351473Y-117146778D01*
X137290279Y-117266878D01*
X137269196Y-117399997D01*
X137269196Y-117400002D01*
X97800500Y-117400002D01*
X97800500Y-116400001D01*
X105500437Y-116400001D01*
X105521074Y-116556760D01*
X105521075Y-116556762D01*
X105581583Y-116702841D01*
X105677837Y-116828282D01*
X105803278Y-116924536D01*
X105949357Y-116985044D01*
X106027738Y-116995363D01*
X106106118Y-117005682D01*
X106106119Y-117005682D01*
X106106120Y-117005682D01*
X106158373Y-116998802D01*
X106262881Y-116985044D01*
X106408960Y-116924536D01*
X106534401Y-116828282D01*
X106630655Y-116702841D01*
X106691163Y-116556762D01*
X106711801Y-116400000D01*
X106691163Y-116243238D01*
X106652543Y-116150001D01*
X117794318Y-116150001D01*
X117814955Y-116306760D01*
X117814956Y-116306762D01*
X117853576Y-116400000D01*
X117875464Y-116452841D01*
X117971718Y-116578282D01*
X118097159Y-116674536D01*
X118243238Y-116735044D01*
X118321619Y-116745363D01*
X118399999Y-116755682D01*
X118400000Y-116755682D01*
X118400001Y-116755682D01*
X118452254Y-116748802D01*
X118556762Y-116735044D01*
X118702841Y-116674536D01*
X118828282Y-116578282D01*
X118924536Y-116452841D01*
X118985044Y-116306762D01*
X119000998Y-116185578D01*
X130705297Y-116185578D01*
X130725934Y-116342337D01*
X130725935Y-116342339D01*
X130771706Y-116452841D01*
X130786443Y-116488418D01*
X130882697Y-116613859D01*
X131008138Y-116710113D01*
X131154217Y-116770621D01*
X131232598Y-116780940D01*
X131310978Y-116791259D01*
X131310979Y-116791259D01*
X131310980Y-116791259D01*
X131363233Y-116784379D01*
X131467741Y-116770621D01*
X131613820Y-116710113D01*
X131739261Y-116613859D01*
X131835515Y-116488418D01*
X131896023Y-116342339D01*
X131901597Y-116300001D01*
X143794318Y-116300001D01*
X143814955Y-116456760D01*
X143814956Y-116456762D01*
X143856376Y-116556760D01*
X143875464Y-116602841D01*
X143971718Y-116728282D01*
X144097159Y-116824536D01*
X144243238Y-116885044D01*
X144321619Y-116895363D01*
X144399999Y-116905682D01*
X144400000Y-116905682D01*
X144400001Y-116905682D01*
X144452254Y-116898802D01*
X144556762Y-116885044D01*
X144702841Y-116824536D01*
X144828282Y-116728282D01*
X144924536Y-116602841D01*
X144985044Y-116456762D01*
X145005682Y-116300000D01*
X144985044Y-116143238D01*
X144924536Y-115997159D01*
X144828282Y-115871718D01*
X144702841Y-115775464D01*
X144658977Y-115757295D01*
X144556762Y-115714956D01*
X144556760Y-115714955D01*
X144400001Y-115694318D01*
X144399999Y-115694318D01*
X144243239Y-115714955D01*
X144243237Y-115714956D01*
X144097160Y-115775463D01*
X143971718Y-115871718D01*
X143875463Y-115997160D01*
X143814956Y-116143237D01*
X143814955Y-116143239D01*
X143794318Y-116299998D01*
X143794318Y-116300001D01*
X131901597Y-116300001D01*
X131916661Y-116185577D01*
X131911977Y-116150001D01*
X131896023Y-116028816D01*
X131896023Y-116028815D01*
X131835515Y-115882736D01*
X131739261Y-115757295D01*
X131613820Y-115661041D01*
X131467741Y-115600533D01*
X131467739Y-115600532D01*
X131310980Y-115579895D01*
X131310978Y-115579895D01*
X131154218Y-115600532D01*
X131154216Y-115600533D01*
X131008139Y-115661040D01*
X130882697Y-115757295D01*
X130786442Y-115882737D01*
X130725935Y-116028814D01*
X130725934Y-116028816D01*
X130705297Y-116185575D01*
X130705297Y-116185578D01*
X119000998Y-116185578D01*
X119000998Y-116185577D01*
X119005682Y-116150001D01*
X119005682Y-116149998D01*
X118985044Y-115993239D01*
X118985044Y-115993238D01*
X118924536Y-115847159D01*
X118828282Y-115721718D01*
X118702841Y-115625464D01*
X118642652Y-115600533D01*
X118556762Y-115564956D01*
X118556760Y-115564955D01*
X118400001Y-115544318D01*
X118399999Y-115544318D01*
X118243239Y-115564955D01*
X118243237Y-115564956D01*
X118097160Y-115625463D01*
X117971718Y-115721718D01*
X117875463Y-115847160D01*
X117814956Y-115993237D01*
X117814955Y-115993239D01*
X117794318Y-116149998D01*
X117794318Y-116150001D01*
X106652543Y-116150001D01*
X106630655Y-116097159D01*
X106534401Y-115971718D01*
X106408960Y-115875464D01*
X106399916Y-115871718D01*
X106262881Y-115814956D01*
X106262879Y-115814955D01*
X106106120Y-115794318D01*
X106106118Y-115794318D01*
X105949358Y-115814955D01*
X105949356Y-115814956D01*
X105803279Y-115875463D01*
X105677837Y-115971718D01*
X105581582Y-116097160D01*
X105521075Y-116243237D01*
X105521074Y-116243239D01*
X105500437Y-116399998D01*
X105500437Y-116400001D01*
X97800500Y-116400001D01*
X97800500Y-113800002D01*
X132819196Y-113800002D01*
X132840279Y-113933121D01*
X132840280Y-113933124D01*
X132840281Y-113933126D01*
X132901472Y-114053220D01*
X132901473Y-114053221D01*
X132901476Y-114053225D01*
X132996774Y-114148523D01*
X132996778Y-114148526D01*
X132996780Y-114148528D01*
X133116874Y-114209719D01*
X133116876Y-114209719D01*
X133116878Y-114209720D01*
X133249998Y-114230804D01*
X133250000Y-114230804D01*
X133250002Y-114230804D01*
X133383121Y-114209720D01*
X133383121Y-114209719D01*
X133383126Y-114209719D01*
X133503220Y-114148528D01*
X133598528Y-114053220D01*
X133659719Y-113933126D01*
X133680804Y-113800000D01*
X133678463Y-113785220D01*
X133659720Y-113666878D01*
X133659719Y-113666876D01*
X133659719Y-113666874D01*
X133598528Y-113546780D01*
X133598526Y-113546778D01*
X133598523Y-113546774D01*
X133503225Y-113451476D01*
X133503221Y-113451473D01*
X133503220Y-113451472D01*
X133383126Y-113390281D01*
X133383124Y-113390280D01*
X133383121Y-113390279D01*
X133289818Y-113375502D01*
X140179196Y-113375502D01*
X140200279Y-113508621D01*
X140200280Y-113508624D01*
X140200281Y-113508626D01*
X140261472Y-113628720D01*
X140261473Y-113628721D01*
X140261476Y-113628725D01*
X140356774Y-113724023D01*
X140356778Y-113724026D01*
X140356780Y-113724028D01*
X140476874Y-113785219D01*
X140476876Y-113785219D01*
X140476878Y-113785220D01*
X140609998Y-113806304D01*
X140610000Y-113806304D01*
X140610002Y-113806304D01*
X140743121Y-113785220D01*
X140743121Y-113785219D01*
X140743126Y-113785219D01*
X140863220Y-113724028D01*
X140958528Y-113628720D01*
X141019719Y-113508626D01*
X141019720Y-113508621D01*
X141040804Y-113375502D01*
X141040804Y-113375497D01*
X141019720Y-113242378D01*
X141019719Y-113242376D01*
X141019719Y-113242374D01*
X140958528Y-113122280D01*
X140958526Y-113122278D01*
X140958523Y-113122274D01*
X140863225Y-113026976D01*
X140863221Y-113026973D01*
X140863220Y-113026972D01*
X140743126Y-112965781D01*
X140743124Y-112965780D01*
X140743121Y-112965779D01*
X140610002Y-112944696D01*
X140609998Y-112944696D01*
X140476878Y-112965779D01*
X140356778Y-113026973D01*
X140356774Y-113026976D01*
X140261476Y-113122274D01*
X140261473Y-113122278D01*
X140261472Y-113122280D01*
X140227694Y-113188574D01*
X140200279Y-113242378D01*
X140179196Y-113375497D01*
X140179196Y-113375502D01*
X133289818Y-113375502D01*
X133250002Y-113369196D01*
X133249998Y-113369196D01*
X133116878Y-113390279D01*
X132996778Y-113451473D01*
X132996774Y-113451476D01*
X132901476Y-113546774D01*
X132901473Y-113546778D01*
X132840279Y-113666878D01*
X132819196Y-113799997D01*
X132819196Y-113800002D01*
X97800500Y-113800002D01*
X97800500Y-112675002D01*
X120894196Y-112675002D01*
X120915279Y-112808121D01*
X120915280Y-112808124D01*
X120915281Y-112808126D01*
X120976472Y-112928220D01*
X120976473Y-112928221D01*
X120976476Y-112928225D01*
X121071774Y-113023523D01*
X121071778Y-113023526D01*
X121071780Y-113023528D01*
X121191874Y-113084719D01*
X121191876Y-113084719D01*
X121191878Y-113084720D01*
X121324998Y-113105804D01*
X121325000Y-113105804D01*
X121325002Y-113105804D01*
X121458121Y-113084720D01*
X121458121Y-113084719D01*
X121458126Y-113084719D01*
X121578220Y-113023528D01*
X121673528Y-112928220D01*
X121687906Y-112900002D01*
X128169196Y-112900002D01*
X128190279Y-113033121D01*
X128190280Y-113033124D01*
X128190281Y-113033126D01*
X128251472Y-113153220D01*
X128251473Y-113153221D01*
X128251476Y-113153225D01*
X128346774Y-113248523D01*
X128346778Y-113248526D01*
X128346780Y-113248528D01*
X128466874Y-113309719D01*
X128466876Y-113309719D01*
X128466878Y-113309720D01*
X128599998Y-113330804D01*
X128600000Y-113330804D01*
X128600002Y-113330804D01*
X128733121Y-113309720D01*
X128733121Y-113309719D01*
X128733126Y-113309719D01*
X128853220Y-113248528D01*
X128948528Y-113153220D01*
X129009719Y-113033126D01*
X129011239Y-113023528D01*
X129030804Y-112900002D01*
X129030804Y-112899997D01*
X129009720Y-112766878D01*
X129009719Y-112766876D01*
X129009719Y-112766874D01*
X128948528Y-112646780D01*
X128948526Y-112646778D01*
X128948523Y-112646774D01*
X128853225Y-112551476D01*
X128853221Y-112551473D01*
X128853220Y-112551472D01*
X128733126Y-112490281D01*
X128733124Y-112490280D01*
X128733121Y-112490279D01*
X128600002Y-112469196D01*
X128599998Y-112469196D01*
X128466878Y-112490279D01*
X128346778Y-112551473D01*
X128346774Y-112551476D01*
X128251476Y-112646774D01*
X128251473Y-112646778D01*
X128190279Y-112766878D01*
X128169196Y-112899997D01*
X128169196Y-112900002D01*
X121687906Y-112900002D01*
X121734719Y-112808126D01*
X121736239Y-112798528D01*
X121755804Y-112675002D01*
X121755804Y-112674997D01*
X121734720Y-112541878D01*
X121734719Y-112541876D01*
X121734719Y-112541874D01*
X121678374Y-112431291D01*
X121665479Y-112362626D01*
X121678373Y-112318710D01*
X121734719Y-112208126D01*
X121736516Y-112196780D01*
X121755804Y-112075002D01*
X121755804Y-112074997D01*
X121747886Y-112025002D01*
X127294196Y-112025002D01*
X127315279Y-112158121D01*
X127315280Y-112158124D01*
X127315281Y-112158126D01*
X127373010Y-112271425D01*
X127376473Y-112278221D01*
X127376476Y-112278225D01*
X127471774Y-112373523D01*
X127471778Y-112373526D01*
X127471780Y-112373528D01*
X127591874Y-112434719D01*
X127591876Y-112434719D01*
X127591878Y-112434720D01*
X127724998Y-112455804D01*
X127725000Y-112455804D01*
X127725002Y-112455804D01*
X127761634Y-112450002D01*
X132819196Y-112450002D01*
X132840279Y-112583121D01*
X132840280Y-112583124D01*
X132840281Y-112583126D01*
X132901472Y-112703220D01*
X132901473Y-112703221D01*
X132901476Y-112703225D01*
X132996774Y-112798523D01*
X132996778Y-112798526D01*
X132996780Y-112798528D01*
X133116874Y-112859719D01*
X133116876Y-112859719D01*
X133116878Y-112859720D01*
X133249998Y-112880804D01*
X133250000Y-112880804D01*
X133250002Y-112880804D01*
X133383121Y-112859720D01*
X133383121Y-112859719D01*
X133383126Y-112859719D01*
X133500327Y-112800002D01*
X139169196Y-112800002D01*
X139190279Y-112933121D01*
X139190280Y-112933124D01*
X139190281Y-112933126D01*
X139241234Y-113033126D01*
X139251473Y-113053221D01*
X139251476Y-113053225D01*
X139346774Y-113148523D01*
X139346778Y-113148526D01*
X139346780Y-113148528D01*
X139466874Y-113209719D01*
X139466876Y-113209719D01*
X139466878Y-113209720D01*
X139599998Y-113230804D01*
X139600000Y-113230804D01*
X139600002Y-113230804D01*
X139733121Y-113209720D01*
X139733121Y-113209719D01*
X139733126Y-113209719D01*
X139853220Y-113148528D01*
X139948528Y-113053220D01*
X140009719Y-112933126D01*
X140010496Y-112928220D01*
X140030804Y-112800002D01*
X140030804Y-112799997D01*
X140009720Y-112666878D01*
X140009719Y-112666876D01*
X140009719Y-112666874D01*
X139948528Y-112546780D01*
X139948526Y-112546778D01*
X139948523Y-112546774D01*
X139853225Y-112451476D01*
X139853221Y-112451473D01*
X139853220Y-112451472D01*
X139733126Y-112390281D01*
X139733124Y-112390280D01*
X139733121Y-112390279D01*
X139600002Y-112369196D01*
X139599998Y-112369196D01*
X139466878Y-112390279D01*
X139346778Y-112451473D01*
X139346774Y-112451476D01*
X139251476Y-112546774D01*
X139251473Y-112546778D01*
X139190279Y-112666878D01*
X139169196Y-112799997D01*
X139169196Y-112800002D01*
X133500327Y-112800002D01*
X133503220Y-112798528D01*
X133598528Y-112703220D01*
X133659719Y-112583126D01*
X133664732Y-112551476D01*
X133680804Y-112450002D01*
X133680804Y-112449997D01*
X133659720Y-112316878D01*
X133659719Y-112316876D01*
X133659719Y-112316874D01*
X133598528Y-112196780D01*
X133598526Y-112196778D01*
X133598523Y-112196774D01*
X133503225Y-112101476D01*
X133503221Y-112101473D01*
X133503220Y-112101472D01*
X133383126Y-112040281D01*
X133383124Y-112040280D01*
X133383121Y-112040279D01*
X133250002Y-112019196D01*
X133249998Y-112019196D01*
X133116878Y-112040279D01*
X132996778Y-112101473D01*
X132996774Y-112101476D01*
X132901476Y-112196774D01*
X132901473Y-112196778D01*
X132840279Y-112316878D01*
X132819196Y-112449997D01*
X132819196Y-112450002D01*
X127761634Y-112450002D01*
X127858121Y-112434720D01*
X127858121Y-112434719D01*
X127858126Y-112434719D01*
X127978220Y-112373528D01*
X128073528Y-112278220D01*
X128134719Y-112158126D01*
X128138321Y-112135385D01*
X128155804Y-112025002D01*
X128155804Y-112024997D01*
X128134720Y-111891878D01*
X128134719Y-111891876D01*
X128134719Y-111891874D01*
X128073528Y-111771780D01*
X128073526Y-111771778D01*
X128073523Y-111771774D01*
X127978225Y-111676476D01*
X127978221Y-111676473D01*
X127978220Y-111676472D01*
X127858126Y-111615281D01*
X127858124Y-111615280D01*
X127858121Y-111615279D01*
X127725002Y-111594196D01*
X127724998Y-111594196D01*
X127591878Y-111615279D01*
X127471778Y-111676473D01*
X127471774Y-111676476D01*
X127376476Y-111771774D01*
X127376473Y-111771778D01*
X127315279Y-111891878D01*
X127294196Y-112024997D01*
X127294196Y-112025002D01*
X121747886Y-112025002D01*
X121734720Y-111941878D01*
X121734719Y-111941876D01*
X121734719Y-111941874D01*
X121673528Y-111821780D01*
X121673526Y-111821778D01*
X121673523Y-111821774D01*
X121578225Y-111726476D01*
X121578221Y-111726473D01*
X121578220Y-111726472D01*
X121458126Y-111665281D01*
X121458124Y-111665280D01*
X121458121Y-111665279D01*
X121325002Y-111644196D01*
X121324998Y-111644196D01*
X121191878Y-111665279D01*
X121191874Y-111665280D01*
X121191874Y-111665281D01*
X121169903Y-111676476D01*
X121071778Y-111726473D01*
X121071774Y-111726476D01*
X120976476Y-111821774D01*
X120976473Y-111821778D01*
X120915279Y-111941878D01*
X120894196Y-112074997D01*
X120894196Y-112075002D01*
X120915279Y-112208123D01*
X120971624Y-112318706D01*
X120984520Y-112387375D01*
X120971624Y-112431294D01*
X120915279Y-112541876D01*
X120894196Y-112674997D01*
X120894196Y-112675002D01*
X97800500Y-112675002D01*
X97800500Y-111205856D01*
X97820185Y-111138817D01*
X97872989Y-111093062D01*
X97942147Y-111083118D01*
X97991537Y-111101540D01*
X98010931Y-111114004D01*
X98010934Y-111114005D01*
X98010933Y-111114005D01*
X98062005Y-111129001D01*
X98120783Y-111166775D01*
X98149809Y-111230330D01*
X98149809Y-111265624D01*
X98144867Y-111299998D01*
X98144867Y-111299999D01*
X98163302Y-111428225D01*
X98208972Y-111528226D01*
X98217118Y-111546063D01*
X98301951Y-111643967D01*
X98410931Y-111714004D01*
X98530930Y-111749238D01*
X98535225Y-111750499D01*
X98535227Y-111750500D01*
X98535228Y-111750500D01*
X98664773Y-111750500D01*
X98673551Y-111749238D01*
X98674038Y-111752630D01*
X98727375Y-111752620D01*
X98786160Y-111790383D01*
X98805257Y-111820092D01*
X98817118Y-111846063D01*
X98901951Y-111943967D01*
X99010931Y-112014004D01*
X99135225Y-112050499D01*
X99135227Y-112050500D01*
X99135228Y-112050500D01*
X99264773Y-112050500D01*
X99264773Y-112050499D01*
X99389069Y-112014004D01*
X99498049Y-111943967D01*
X99558529Y-111874167D01*
X99617306Y-111836392D01*
X99687176Y-111836391D01*
X99687177Y-111836392D01*
X99735225Y-111850499D01*
X99735227Y-111850500D01*
X99735228Y-111850500D01*
X99864773Y-111850500D01*
X99864773Y-111850499D01*
X99989069Y-111814004D01*
X100098049Y-111743967D01*
X100182882Y-111646063D01*
X100236697Y-111528226D01*
X100255133Y-111400000D01*
X100244768Y-111327910D01*
X100254711Y-111258754D01*
X100283968Y-111218629D01*
X100290981Y-111212236D01*
X100425058Y-111034689D01*
X100524229Y-110835528D01*
X100585115Y-110621536D01*
X100600500Y-110455503D01*
X100600500Y-109344497D01*
X100585115Y-109178464D01*
X100524229Y-108964472D01*
X100524224Y-108964461D01*
X100425061Y-108765316D01*
X100425056Y-108765308D01*
X100290979Y-108587761D01*
X100126562Y-108437876D01*
X100126560Y-108437874D01*
X100025016Y-108375001D01*
X118369318Y-108375001D01*
X118389955Y-108531760D01*
X118389956Y-108531762D01*
X118450464Y-108677841D01*
X118546718Y-108803282D01*
X118672159Y-108899536D01*
X118818238Y-108960044D01*
X118851903Y-108964476D01*
X118974999Y-108980682D01*
X118975000Y-108980682D01*
X118975001Y-108980682D01*
X119027254Y-108973802D01*
X119131762Y-108960044D01*
X119277841Y-108899536D01*
X119341477Y-108850705D01*
X119406644Y-108825513D01*
X119475089Y-108839551D01*
X119515337Y-108873596D01*
X119535242Y-108899536D01*
X119559218Y-108930782D01*
X119684659Y-109027036D01*
X119830738Y-109087544D01*
X119909119Y-109097863D01*
X119987499Y-109108182D01*
X119987500Y-109108182D01*
X119987501Y-109108182D01*
X120039754Y-109101302D01*
X120144262Y-109087544D01*
X120290341Y-109027036D01*
X120415782Y-108930782D01*
X120512036Y-108805341D01*
X120572544Y-108659262D01*
X120593182Y-108502500D01*
X120572544Y-108345738D01*
X120512036Y-108199659D01*
X120415782Y-108074218D01*
X120290341Y-107977964D01*
X120144262Y-107917456D01*
X120144260Y-107917455D01*
X119987501Y-107896818D01*
X119987499Y-107896818D01*
X119830739Y-107917455D01*
X119830737Y-107917456D01*
X119684657Y-107977964D01*
X119621023Y-108026793D01*
X119555854Y-108051987D01*
X119487409Y-108037948D01*
X119447161Y-108003903D01*
X119441731Y-107996827D01*
X119403282Y-107946718D01*
X119277841Y-107850464D01*
X119131762Y-107789956D01*
X119131760Y-107789955D01*
X118975001Y-107769318D01*
X118974999Y-107769318D01*
X118818239Y-107789955D01*
X118818237Y-107789956D01*
X118672160Y-107850463D01*
X118546718Y-107946718D01*
X118450463Y-108072160D01*
X118389956Y-108218237D01*
X118389955Y-108218239D01*
X118369318Y-108374998D01*
X118369318Y-108375001D01*
X100025016Y-108375001D01*
X99937404Y-108320754D01*
X99937398Y-108320752D01*
X99729940Y-108240382D01*
X99511243Y-108199500D01*
X99288757Y-108199500D01*
X99070060Y-108240382D01*
X98938864Y-108291207D01*
X98862601Y-108320752D01*
X98862595Y-108320754D01*
X98673439Y-108437874D01*
X98673437Y-108437876D01*
X98509020Y-108587761D01*
X98374943Y-108765308D01*
X98374938Y-108765316D01*
X98275775Y-108964461D01*
X98275769Y-108964476D01*
X98214885Y-109178462D01*
X98214884Y-109178464D01*
X98199500Y-109344500D01*
X98199500Y-109437802D01*
X98179815Y-109504841D01*
X98127011Y-109550596D01*
X98110434Y-109556779D01*
X98010934Y-109585994D01*
X98010932Y-109585994D01*
X97991538Y-109598459D01*
X97924499Y-109618143D01*
X97857460Y-109598458D01*
X97811705Y-109545653D01*
X97800500Y-109494143D01*
X97800500Y-106505856D01*
X97820185Y-106438817D01*
X97872989Y-106393062D01*
X97942147Y-106383118D01*
X97991537Y-106401540D01*
X98010931Y-106414004D01*
X98010934Y-106414005D01*
X98010933Y-106414005D01*
X98062005Y-106429001D01*
X98120783Y-106466775D01*
X98149809Y-106530330D01*
X98149809Y-106565624D01*
X98144867Y-106599998D01*
X98144867Y-106599999D01*
X98163302Y-106728225D01*
X98208972Y-106828226D01*
X98217118Y-106846063D01*
X98301951Y-106943967D01*
X98410931Y-107014004D01*
X98530930Y-107049238D01*
X98535225Y-107050499D01*
X98535227Y-107050500D01*
X98535228Y-107050500D01*
X98664773Y-107050500D01*
X98673551Y-107049238D01*
X98674038Y-107052630D01*
X98727375Y-107052620D01*
X98786160Y-107090383D01*
X98805257Y-107120092D01*
X98817118Y-107146063D01*
X98901951Y-107243967D01*
X99010931Y-107314004D01*
X99135225Y-107350499D01*
X99135227Y-107350500D01*
X99135228Y-107350500D01*
X99264773Y-107350500D01*
X99264773Y-107350499D01*
X99389069Y-107314004D01*
X99498049Y-107243967D01*
X99558529Y-107174167D01*
X99617306Y-107136392D01*
X99687176Y-107136391D01*
X99687177Y-107136392D01*
X99735225Y-107150499D01*
X99735227Y-107150500D01*
X99735228Y-107150500D01*
X99864773Y-107150500D01*
X99864773Y-107150499D01*
X99989069Y-107114004D01*
X100098049Y-107043967D01*
X100182882Y-106946063D01*
X100236697Y-106828226D01*
X100255133Y-106700000D01*
X100244768Y-106627910D01*
X100254711Y-106558754D01*
X100283968Y-106518629D01*
X100290981Y-106512236D01*
X100375736Y-106400002D01*
X125169196Y-106400002D01*
X125190279Y-106533121D01*
X125190280Y-106533124D01*
X125190281Y-106533126D01*
X125233793Y-106618523D01*
X125251473Y-106653221D01*
X125251476Y-106653225D01*
X125346774Y-106748523D01*
X125346778Y-106748526D01*
X125346780Y-106748528D01*
X125466874Y-106809719D01*
X125466876Y-106809719D01*
X125466878Y-106809720D01*
X125599998Y-106830804D01*
X125600000Y-106830804D01*
X125600002Y-106830804D01*
X125733121Y-106809720D01*
X125733121Y-106809719D01*
X125733126Y-106809719D01*
X125853220Y-106748528D01*
X125948528Y-106653220D01*
X126009719Y-106533126D01*
X126030804Y-106400000D01*
X126029705Y-106393062D01*
X126010215Y-106270002D01*
X137669196Y-106270002D01*
X137690279Y-106403121D01*
X137690280Y-106403124D01*
X137690281Y-106403126D01*
X137749131Y-106518625D01*
X137751473Y-106523221D01*
X137751476Y-106523225D01*
X137846774Y-106618523D01*
X137846778Y-106618526D01*
X137846780Y-106618528D01*
X137966874Y-106679719D01*
X137966876Y-106679719D01*
X137966878Y-106679720D01*
X138099998Y-106700804D01*
X138100000Y-106700804D01*
X138100002Y-106700804D01*
X138233121Y-106679720D01*
X138233121Y-106679719D01*
X138233126Y-106679719D01*
X138353220Y-106618528D01*
X138448528Y-106523220D01*
X138509719Y-106403126D01*
X138520558Y-106334691D01*
X138530804Y-106270002D01*
X138530804Y-106269997D01*
X138509720Y-106136878D01*
X138509719Y-106136876D01*
X138509719Y-106136874D01*
X138448528Y-106016780D01*
X138448526Y-106016778D01*
X138448523Y-106016774D01*
X138353225Y-105921476D01*
X138353221Y-105921473D01*
X138353220Y-105921472D01*
X138233126Y-105860281D01*
X138233124Y-105860280D01*
X138233121Y-105860279D01*
X138100002Y-105839196D01*
X138099998Y-105839196D01*
X137966878Y-105860279D01*
X137846778Y-105921473D01*
X137846774Y-105921476D01*
X137751476Y-106016774D01*
X137751473Y-106016778D01*
X137690279Y-106136878D01*
X137669196Y-106269997D01*
X137669196Y-106270002D01*
X126010215Y-106270002D01*
X126009720Y-106266878D01*
X126009719Y-106266876D01*
X126009719Y-106266874D01*
X125948528Y-106146780D01*
X125948526Y-106146778D01*
X125948523Y-106146774D01*
X125853225Y-106051476D01*
X125853221Y-106051473D01*
X125853220Y-106051472D01*
X125733126Y-105990281D01*
X125733124Y-105990280D01*
X125733121Y-105990279D01*
X125600002Y-105969196D01*
X125599998Y-105969196D01*
X125466878Y-105990279D01*
X125346778Y-106051473D01*
X125346774Y-106051476D01*
X125251476Y-106146774D01*
X125251473Y-106146778D01*
X125190279Y-106266878D01*
X125169196Y-106399997D01*
X125169196Y-106400002D01*
X100375736Y-106400002D01*
X100425058Y-106334689D01*
X100524229Y-106135528D01*
X100585115Y-105921536D01*
X100600500Y-105755503D01*
X100600500Y-104700502D01*
X123969196Y-104700502D01*
X123990279Y-104833621D01*
X123990280Y-104833624D01*
X123990281Y-104833626D01*
X124033345Y-104918143D01*
X124051473Y-104953721D01*
X124051476Y-104953725D01*
X124146774Y-105049023D01*
X124146778Y-105049026D01*
X124146780Y-105049028D01*
X124266874Y-105110219D01*
X124266876Y-105110219D01*
X124266878Y-105110220D01*
X124399998Y-105131304D01*
X124400000Y-105131304D01*
X124400002Y-105131304D01*
X124533121Y-105110220D01*
X124533121Y-105110219D01*
X124533126Y-105110219D01*
X124653220Y-105049028D01*
X124748528Y-104953720D01*
X124809719Y-104833626D01*
X124814278Y-104804841D01*
X124826132Y-104730002D01*
X137149196Y-104730002D01*
X137170279Y-104863121D01*
X137170280Y-104863124D01*
X137170281Y-104863126D01*
X137231472Y-104983220D01*
X137231473Y-104983221D01*
X137231476Y-104983225D01*
X137326774Y-105078523D01*
X137326778Y-105078526D01*
X137326780Y-105078528D01*
X137446874Y-105139719D01*
X137446876Y-105139719D01*
X137446878Y-105139720D01*
X137579998Y-105160804D01*
X137580000Y-105160804D01*
X137580002Y-105160804D01*
X137713121Y-105139720D01*
X137713121Y-105139719D01*
X137713126Y-105139719D01*
X137833220Y-105078528D01*
X137928528Y-104983220D01*
X137989719Y-104863126D01*
X137991877Y-104849500D01*
X138010804Y-104730002D01*
X138010804Y-104729997D01*
X137989720Y-104596878D01*
X137989719Y-104596876D01*
X137989719Y-104596874D01*
X137928528Y-104476780D01*
X137928526Y-104476778D01*
X137928523Y-104476774D01*
X137833225Y-104381476D01*
X137833221Y-104381473D01*
X137833220Y-104381472D01*
X137713126Y-104320281D01*
X137713124Y-104320280D01*
X137713121Y-104320279D01*
X137585091Y-104300002D01*
X138769196Y-104300002D01*
X138790279Y-104433121D01*
X138790280Y-104433124D01*
X138790281Y-104433126D01*
X138832197Y-104515390D01*
X138851473Y-104553221D01*
X138851476Y-104553225D01*
X138946774Y-104648523D01*
X138946778Y-104648526D01*
X138946780Y-104648528D01*
X139066874Y-104709719D01*
X139066876Y-104709719D01*
X139066878Y-104709720D01*
X139199998Y-104730804D01*
X139200000Y-104730804D01*
X139200002Y-104730804D01*
X139333121Y-104709720D01*
X139333121Y-104709719D01*
X139333126Y-104709719D01*
X139453220Y-104648528D01*
X139548528Y-104553220D01*
X139609719Y-104433126D01*
X139613426Y-104409720D01*
X139630804Y-104300002D01*
X139630804Y-104299997D01*
X139609720Y-104166878D01*
X139609719Y-104166876D01*
X139609719Y-104166874D01*
X139548528Y-104046780D01*
X139548526Y-104046778D01*
X139548523Y-104046774D01*
X139453225Y-103951476D01*
X139453221Y-103951473D01*
X139453220Y-103951472D01*
X139333126Y-103890281D01*
X139333124Y-103890280D01*
X139333121Y-103890279D01*
X139200002Y-103869196D01*
X139199998Y-103869196D01*
X139066878Y-103890279D01*
X139066874Y-103890280D01*
X139066874Y-103890281D01*
X138986811Y-103931075D01*
X138946778Y-103951473D01*
X138946774Y-103951476D01*
X138851476Y-104046774D01*
X138851473Y-104046778D01*
X138842030Y-104065311D01*
X138807477Y-104133126D01*
X138790279Y-104166878D01*
X138769196Y-104299997D01*
X138769196Y-104300002D01*
X137585091Y-104300002D01*
X137580002Y-104299196D01*
X137579998Y-104299196D01*
X137446878Y-104320279D01*
X137446874Y-104320280D01*
X137446874Y-104320281D01*
X137391446Y-104348523D01*
X137326778Y-104381473D01*
X137326774Y-104381476D01*
X137231476Y-104476774D01*
X137231473Y-104476778D01*
X137170279Y-104596878D01*
X137149196Y-104729997D01*
X137149196Y-104730002D01*
X124826132Y-104730002D01*
X124830804Y-104700502D01*
X124830804Y-104700497D01*
X124809720Y-104567378D01*
X124809719Y-104567376D01*
X124809719Y-104567374D01*
X124748528Y-104447280D01*
X124748526Y-104447278D01*
X124748523Y-104447274D01*
X124653225Y-104351976D01*
X124653221Y-104351973D01*
X124653220Y-104351972D01*
X124533126Y-104290781D01*
X124533124Y-104290780D01*
X124533121Y-104290779D01*
X124400002Y-104269696D01*
X124399998Y-104269696D01*
X124266878Y-104290779D01*
X124146778Y-104351973D01*
X124146774Y-104351976D01*
X124051476Y-104447274D01*
X124051473Y-104447278D01*
X123990279Y-104567378D01*
X123969196Y-104700497D01*
X123969196Y-104700502D01*
X100600500Y-104700502D01*
X100600500Y-104644497D01*
X100585115Y-104478464D01*
X100524229Y-104264472D01*
X100518627Y-104253221D01*
X100425061Y-104065316D01*
X100425056Y-104065308D01*
X100290979Y-103887761D01*
X100126562Y-103737876D01*
X100126560Y-103737874D01*
X99937404Y-103620754D01*
X99937398Y-103620752D01*
X99919600Y-103613857D01*
X99729940Y-103540382D01*
X99511243Y-103499500D01*
X99288757Y-103499500D01*
X99070060Y-103540382D01*
X99017345Y-103560804D01*
X98862601Y-103620752D01*
X98862595Y-103620754D01*
X98673439Y-103737874D01*
X98673437Y-103737876D01*
X98509020Y-103887761D01*
X98374943Y-104065308D01*
X98374938Y-104065316D01*
X98275775Y-104264461D01*
X98275769Y-104264476D01*
X98214885Y-104478462D01*
X98214884Y-104478464D01*
X98199500Y-104644500D01*
X98199500Y-104737802D01*
X98179815Y-104804841D01*
X98127011Y-104850596D01*
X98110434Y-104856779D01*
X98010934Y-104885994D01*
X98010932Y-104885994D01*
X97991538Y-104898459D01*
X97924499Y-104918143D01*
X97857460Y-104898458D01*
X97811705Y-104845653D01*
X97800500Y-104794143D01*
X97800500Y-100474499D01*
X97820185Y-100407460D01*
X97872989Y-100361705D01*
X97924500Y-100350499D01*
X99628162Y-100350499D01*
X99663627Y-100347709D01*
X99815390Y-100303618D01*
X99951420Y-100223170D01*
X100063170Y-100111420D01*
X100143618Y-99975390D01*
X100187709Y-99823627D01*
X100190500Y-99788163D01*
X100190499Y-98811838D01*
X100187709Y-98776373D01*
X100143618Y-98624610D01*
X100063170Y-98488580D01*
X100063168Y-98488578D01*
X100063165Y-98488574D01*
X99951425Y-98376834D01*
X99951416Y-98376827D01*
X99815390Y-98296382D01*
X99815385Y-98296380D01*
X99663633Y-98252292D01*
X99663620Y-98252290D01*
X99628165Y-98249500D01*
X99628163Y-98249500D01*
X99627963Y-98249500D01*
X97924500Y-98249500D01*
X97857461Y-98229815D01*
X97811706Y-98177011D01*
X97800500Y-98125500D01*
X97800500Y-97934499D01*
X97820185Y-97867460D01*
X97872989Y-97821705D01*
X97924500Y-97810499D01*
X99628162Y-97810499D01*
X99663627Y-97807709D01*
X99815390Y-97763618D01*
X99951420Y-97683170D01*
X100063170Y-97571420D01*
X100143618Y-97435390D01*
X100187709Y-97283627D01*
X100190249Y-97251350D01*
X100190500Y-97248165D01*
X100190499Y-96595355D01*
X121293842Y-96595355D01*
X121314925Y-96728474D01*
X121314926Y-96728477D01*
X121314927Y-96728479D01*
X121376118Y-96848573D01*
X121376119Y-96848574D01*
X121376122Y-96848578D01*
X121471420Y-96943876D01*
X121471424Y-96943879D01*
X121471426Y-96943881D01*
X121591520Y-97005072D01*
X121591522Y-97005072D01*
X121591524Y-97005073D01*
X121724644Y-97026157D01*
X121724646Y-97026157D01*
X121724648Y-97026157D01*
X121857767Y-97005073D01*
X121857767Y-97005072D01*
X121857772Y-97005072D01*
X121977866Y-96943881D01*
X122007636Y-96914111D01*
X124172947Y-96914111D01*
X124194030Y-97047230D01*
X124194031Y-97047233D01*
X124194032Y-97047235D01*
X124254991Y-97166873D01*
X124255224Y-97167330D01*
X124255227Y-97167334D01*
X124350525Y-97262632D01*
X124350529Y-97262635D01*
X124350531Y-97262637D01*
X124470625Y-97323828D01*
X124470627Y-97323828D01*
X124470629Y-97323829D01*
X124603749Y-97344913D01*
X124603751Y-97344913D01*
X124603753Y-97344913D01*
X124736872Y-97323829D01*
X124736872Y-97323828D01*
X124736877Y-97323828D01*
X124856971Y-97262637D01*
X124952279Y-97167329D01*
X125013470Y-97047235D01*
X125014942Y-97037940D01*
X125034555Y-96914111D01*
X125034555Y-96914106D01*
X125033736Y-96908934D01*
X126316248Y-96908934D01*
X126337331Y-97042053D01*
X126337332Y-97042056D01*
X126337333Y-97042058D01*
X126398523Y-97162150D01*
X126398525Y-97162153D01*
X126398528Y-97162157D01*
X126459517Y-97223146D01*
X126493002Y-97284469D01*
X126488018Y-97354161D01*
X126459517Y-97398508D01*
X126401976Y-97456048D01*
X126401973Y-97456052D01*
X126401972Y-97456054D01*
X126343188Y-97571425D01*
X126340779Y-97576152D01*
X126319696Y-97709271D01*
X126319696Y-97709276D01*
X126340779Y-97842395D01*
X126340780Y-97842398D01*
X126340781Y-97842400D01*
X126394792Y-97948402D01*
X126401973Y-97962495D01*
X126401976Y-97962499D01*
X126497274Y-98057797D01*
X126497278Y-98057800D01*
X126497280Y-98057802D01*
X126617374Y-98118993D01*
X126617376Y-98118993D01*
X126617378Y-98118994D01*
X126750498Y-98140078D01*
X126750500Y-98140078D01*
X126750502Y-98140078D01*
X126883621Y-98118994D01*
X126883621Y-98118993D01*
X126883626Y-98118993D01*
X127003720Y-98057802D01*
X127099028Y-97962494D01*
X127160219Y-97842400D01*
X127163497Y-97821705D01*
X127181304Y-97709276D01*
X127181304Y-97709271D01*
X127160220Y-97576152D01*
X127160219Y-97576150D01*
X127160219Y-97576148D01*
X127099028Y-97456054D01*
X127099026Y-97456052D01*
X127099023Y-97456048D01*
X127093477Y-97450502D01*
X133649196Y-97450502D01*
X133670279Y-97583621D01*
X133670280Y-97583624D01*
X133670281Y-97583626D01*
X133731472Y-97703720D01*
X133731473Y-97703721D01*
X133731476Y-97703725D01*
X133826774Y-97799023D01*
X133826778Y-97799026D01*
X133826780Y-97799028D01*
X133946874Y-97860219D01*
X133946876Y-97860219D01*
X133946878Y-97860220D01*
X134079998Y-97881304D01*
X134080000Y-97881304D01*
X134080002Y-97881304D01*
X134213121Y-97860220D01*
X134213121Y-97860219D01*
X134213126Y-97860219D01*
X134333220Y-97799028D01*
X134372709Y-97759539D01*
X143338896Y-97759539D01*
X143359979Y-97892658D01*
X143359980Y-97892661D01*
X143359981Y-97892663D01*
X143416270Y-98003136D01*
X143421173Y-98012758D01*
X143421176Y-98012762D01*
X143516474Y-98108060D01*
X143516478Y-98108063D01*
X143516480Y-98108065D01*
X143636574Y-98169256D01*
X143636576Y-98169256D01*
X143636578Y-98169257D01*
X143769698Y-98190341D01*
X143769700Y-98190341D01*
X143769702Y-98190341D01*
X143902821Y-98169257D01*
X143902821Y-98169256D01*
X143902826Y-98169256D01*
X144022920Y-98108065D01*
X144118228Y-98012757D01*
X144136867Y-97976175D01*
X144184838Y-97925382D01*
X144252659Y-97908586D01*
X144285674Y-97914543D01*
X144292780Y-97916852D01*
X144292782Y-97916853D01*
X144292783Y-97916853D01*
X144292786Y-97916854D01*
X144425906Y-97937938D01*
X144425908Y-97937938D01*
X144425910Y-97937938D01*
X144559029Y-97916854D01*
X144559029Y-97916853D01*
X144559034Y-97916853D01*
X144679128Y-97855662D01*
X144774436Y-97760354D01*
X144835627Y-97640260D01*
X144837820Y-97626415D01*
X144856712Y-97507136D01*
X144856712Y-97507131D01*
X144835628Y-97374012D01*
X144835627Y-97374010D01*
X144835627Y-97374008D01*
X144774436Y-97253914D01*
X144774434Y-97253912D01*
X144774431Y-97253908D01*
X144679133Y-97158610D01*
X144679129Y-97158607D01*
X144679128Y-97158606D01*
X144559034Y-97097415D01*
X144559032Y-97097414D01*
X144559029Y-97097413D01*
X144425910Y-97076330D01*
X144425906Y-97076330D01*
X144292786Y-97097413D01*
X144172686Y-97158607D01*
X144172682Y-97158610D01*
X144077384Y-97253908D01*
X144077379Y-97253915D01*
X144058741Y-97290494D01*
X144010766Y-97341290D01*
X143942945Y-97358084D01*
X143909937Y-97352128D01*
X143902825Y-97349817D01*
X143769702Y-97328733D01*
X143769698Y-97328733D01*
X143636578Y-97349816D01*
X143636574Y-97349817D01*
X143636574Y-97349818D01*
X143589091Y-97374012D01*
X143516478Y-97411010D01*
X143516474Y-97411013D01*
X143421176Y-97506311D01*
X143421173Y-97506315D01*
X143421172Y-97506317D01*
X143373621Y-97599642D01*
X143359979Y-97626415D01*
X143338896Y-97759534D01*
X143338896Y-97759539D01*
X134372709Y-97759539D01*
X134428528Y-97703720D01*
X134489719Y-97583626D01*
X134490903Y-97576152D01*
X134510804Y-97450502D01*
X134510804Y-97450497D01*
X134489720Y-97317378D01*
X134489719Y-97317376D01*
X134489719Y-97317374D01*
X134433929Y-97207880D01*
X141167074Y-97207880D01*
X141188157Y-97340999D01*
X141188158Y-97341002D01*
X141188159Y-97341004D01*
X141245339Y-97453225D01*
X141249351Y-97461099D01*
X141249354Y-97461103D01*
X141344652Y-97556401D01*
X141344656Y-97556404D01*
X141344658Y-97556406D01*
X141464752Y-97617597D01*
X141464754Y-97617597D01*
X141464756Y-97617598D01*
X141597876Y-97638682D01*
X141597878Y-97638682D01*
X141597880Y-97638682D01*
X141730999Y-97617598D01*
X141730999Y-97617597D01*
X141731004Y-97617597D01*
X141851098Y-97556406D01*
X141946406Y-97461098D01*
X142007597Y-97341004D01*
X142010317Y-97323829D01*
X142028682Y-97207880D01*
X142028682Y-97207875D01*
X142007598Y-97074756D01*
X142007597Y-97074754D01*
X142007597Y-97074752D01*
X141946406Y-96954658D01*
X141946404Y-96954656D01*
X141946401Y-96954652D01*
X141901904Y-96910155D01*
X141868419Y-96848832D01*
X141873403Y-96779140D01*
X141915275Y-96723207D01*
X141933278Y-96711996D01*
X141975020Y-96690728D01*
X142070328Y-96595420D01*
X142131519Y-96475326D01*
X142132685Y-96467965D01*
X142152604Y-96342202D01*
X142152604Y-96342197D01*
X142131520Y-96209078D01*
X142131519Y-96209076D01*
X142131519Y-96209074D01*
X142070328Y-96088980D01*
X142070326Y-96088978D01*
X142070323Y-96088974D01*
X141975025Y-95993676D01*
X141975021Y-95993673D01*
X141975020Y-95993672D01*
X141854926Y-95932481D01*
X141854924Y-95932480D01*
X141854921Y-95932479D01*
X141721802Y-95911396D01*
X141721798Y-95911396D01*
X141588678Y-95932479D01*
X141588674Y-95932480D01*
X141588674Y-95932481D01*
X141508611Y-95973275D01*
X141468578Y-95993673D01*
X141468574Y-95993676D01*
X141373276Y-96088974D01*
X141373273Y-96088978D01*
X141312079Y-96209078D01*
X141290996Y-96342197D01*
X141290996Y-96342202D01*
X141312079Y-96475321D01*
X141312080Y-96475324D01*
X141312081Y-96475326D01*
X141373238Y-96595353D01*
X141373273Y-96595421D01*
X141373276Y-96595425D01*
X141417773Y-96639922D01*
X141451258Y-96701245D01*
X141446274Y-96770937D01*
X141404402Y-96826870D01*
X141386388Y-96838087D01*
X141344659Y-96859349D01*
X141344652Y-96859354D01*
X141249354Y-96954652D01*
X141249351Y-96954656D01*
X141188157Y-97074756D01*
X141167074Y-97207875D01*
X141167074Y-97207880D01*
X134433929Y-97207880D01*
X134428528Y-97197280D01*
X134428526Y-97197278D01*
X134428523Y-97197274D01*
X134333225Y-97101976D01*
X134333221Y-97101973D01*
X134333220Y-97101972D01*
X134213126Y-97040781D01*
X134213124Y-97040780D01*
X134213121Y-97040779D01*
X134080002Y-97019696D01*
X134079998Y-97019696D01*
X133946878Y-97040779D01*
X133826778Y-97101973D01*
X133826774Y-97101976D01*
X133731476Y-97197274D01*
X133731473Y-97197278D01*
X133670279Y-97317378D01*
X133649196Y-97450497D01*
X133649196Y-97450502D01*
X127093477Y-97450502D01*
X127038034Y-97395059D01*
X127004549Y-97333736D01*
X127009533Y-97264044D01*
X127038031Y-97219700D01*
X127095580Y-97162152D01*
X127156771Y-97042058D01*
X127156772Y-97042053D01*
X127158868Y-97037940D01*
X127206842Y-96987144D01*
X127274663Y-96970348D01*
X127340798Y-96992885D01*
X127379837Y-97037938D01*
X127396971Y-97071565D01*
X127396976Y-97071572D01*
X127492274Y-97166870D01*
X127492278Y-97166873D01*
X127492280Y-97166875D01*
X127612374Y-97228066D01*
X127612376Y-97228066D01*
X127612378Y-97228067D01*
X127745498Y-97249151D01*
X127745500Y-97249151D01*
X127745502Y-97249151D01*
X127878621Y-97228067D01*
X127878621Y-97228066D01*
X127878626Y-97228066D01*
X127998720Y-97166875D01*
X128094028Y-97071567D01*
X128155219Y-96951473D01*
X128155220Y-96951468D01*
X128176304Y-96818349D01*
X128176304Y-96818344D01*
X128155220Y-96685225D01*
X128155219Y-96685223D01*
X128155219Y-96685221D01*
X128094028Y-96565127D01*
X128094026Y-96565125D01*
X128094023Y-96565121D01*
X128015184Y-96486282D01*
X127981699Y-96424959D01*
X127986683Y-96355267D01*
X128015184Y-96310920D01*
X128054112Y-96271993D01*
X128115303Y-96151899D01*
X128120444Y-96119441D01*
X128718635Y-96119441D01*
X128739718Y-96252560D01*
X128739719Y-96252563D01*
X128739720Y-96252565D01*
X128798181Y-96367301D01*
X128800912Y-96372660D01*
X128800915Y-96372664D01*
X128896213Y-96467962D01*
X128896217Y-96467965D01*
X128896219Y-96467967D01*
X129016313Y-96529158D01*
X129016315Y-96529158D01*
X129016317Y-96529159D01*
X129149437Y-96550243D01*
X129149439Y-96550243D01*
X129149441Y-96550243D01*
X129282560Y-96529159D01*
X129282560Y-96529158D01*
X129282565Y-96529158D01*
X129402659Y-96467967D01*
X129497967Y-96372659D01*
X129559158Y-96252565D01*
X129559159Y-96252560D01*
X129574561Y-96155315D01*
X129873890Y-96155315D01*
X129894973Y-96288434D01*
X129894974Y-96288437D01*
X129894975Y-96288439D01*
X129937888Y-96372660D01*
X129956167Y-96408534D01*
X129956170Y-96408538D01*
X130051468Y-96503836D01*
X130051472Y-96503839D01*
X130051474Y-96503841D01*
X130171568Y-96565032D01*
X130171570Y-96565032D01*
X130171572Y-96565033D01*
X130304692Y-96586117D01*
X130304694Y-96586117D01*
X130304696Y-96586117D01*
X130437815Y-96565033D01*
X130437815Y-96565032D01*
X130437820Y-96565032D01*
X130557914Y-96503841D01*
X130653222Y-96408533D01*
X130714413Y-96288439D01*
X130717018Y-96271993D01*
X130735498Y-96155315D01*
X130735498Y-96155310D01*
X130714414Y-96022191D01*
X130714413Y-96022189D01*
X130714413Y-96022187D01*
X130653222Y-95902093D01*
X130653220Y-95902091D01*
X130653217Y-95902087D01*
X130557919Y-95806789D01*
X130557915Y-95806786D01*
X130557914Y-95806785D01*
X130437820Y-95745594D01*
X130437818Y-95745593D01*
X130437815Y-95745592D01*
X130304696Y-95724509D01*
X130304692Y-95724509D01*
X130171572Y-95745592D01*
X130051472Y-95806786D01*
X130051468Y-95806789D01*
X129956170Y-95902087D01*
X129956167Y-95902091D01*
X129894973Y-96022191D01*
X129873890Y-96155310D01*
X129873890Y-96155315D01*
X129574561Y-96155315D01*
X129580243Y-96119441D01*
X129580243Y-96119436D01*
X129559159Y-95986317D01*
X129559158Y-95986315D01*
X129559158Y-95986313D01*
X129497967Y-95866219D01*
X129497965Y-95866217D01*
X129497962Y-95866213D01*
X129402664Y-95770915D01*
X129402660Y-95770912D01*
X129402659Y-95770911D01*
X129282565Y-95709720D01*
X129282563Y-95709719D01*
X129282560Y-95709718D01*
X129149441Y-95688635D01*
X129149437Y-95688635D01*
X129016317Y-95709718D01*
X128896217Y-95770912D01*
X128896213Y-95770915D01*
X128800915Y-95866213D01*
X128800912Y-95866217D01*
X128739718Y-95986317D01*
X128718635Y-96119436D01*
X128718635Y-96119441D01*
X128120444Y-96119441D01*
X128120445Y-96119436D01*
X128136388Y-96018775D01*
X128136388Y-96018770D01*
X128115304Y-95885651D01*
X128115303Y-95885649D01*
X128115303Y-95885647D01*
X128054112Y-95765553D01*
X128054110Y-95765551D01*
X128054107Y-95765547D01*
X127958809Y-95670249D01*
X127958805Y-95670246D01*
X127958804Y-95670245D01*
X127838710Y-95609054D01*
X127838708Y-95609053D01*
X127838705Y-95609052D01*
X127705586Y-95587969D01*
X127705582Y-95587969D01*
X127572462Y-95609052D01*
X127452362Y-95670246D01*
X127452358Y-95670249D01*
X127357060Y-95765547D01*
X127357057Y-95765551D01*
X127357056Y-95765553D01*
X127320737Y-95836834D01*
X127295863Y-95885651D01*
X127274780Y-96018770D01*
X127274780Y-96018775D01*
X127295863Y-96151894D01*
X127295864Y-96151897D01*
X127295865Y-96151899D01*
X127357056Y-96271993D01*
X127357057Y-96271994D01*
X127357060Y-96271998D01*
X127435899Y-96350837D01*
X127469384Y-96412160D01*
X127464400Y-96481852D01*
X127435899Y-96526199D01*
X127396976Y-96565121D01*
X127396974Y-96565125D01*
X127396972Y-96565127D01*
X127358862Y-96639922D01*
X127333683Y-96689339D01*
X127285708Y-96740135D01*
X127217887Y-96756930D01*
X127151752Y-96734392D01*
X127112715Y-96689341D01*
X127095580Y-96655712D01*
X127095578Y-96655710D01*
X127095575Y-96655706D01*
X127000277Y-96560408D01*
X127000273Y-96560405D01*
X127000272Y-96560404D01*
X126880178Y-96499213D01*
X126880176Y-96499212D01*
X126880173Y-96499211D01*
X126747054Y-96478128D01*
X126747050Y-96478128D01*
X126613930Y-96499211D01*
X126613926Y-96499212D01*
X126613926Y-96499213D01*
X126603766Y-96504390D01*
X126493830Y-96560405D01*
X126493826Y-96560408D01*
X126398528Y-96655706D01*
X126398525Y-96655710D01*
X126337331Y-96775810D01*
X126316248Y-96908929D01*
X126316248Y-96908934D01*
X125033736Y-96908934D01*
X125013471Y-96780987D01*
X125013470Y-96780985D01*
X125013470Y-96780983D01*
X124952279Y-96660889D01*
X124952277Y-96660887D01*
X124952274Y-96660883D01*
X124856976Y-96565585D01*
X124856972Y-96565582D01*
X124856971Y-96565581D01*
X124736877Y-96504390D01*
X124736875Y-96504389D01*
X124736872Y-96504388D01*
X124603753Y-96483305D01*
X124603749Y-96483305D01*
X124470629Y-96504388D01*
X124350529Y-96565582D01*
X124350525Y-96565585D01*
X124255227Y-96660883D01*
X124255224Y-96660887D01*
X124194030Y-96780987D01*
X124172947Y-96914106D01*
X124172947Y-96914111D01*
X122007636Y-96914111D01*
X122073174Y-96848573D01*
X122134365Y-96728479D01*
X122136977Y-96711988D01*
X122155450Y-96595355D01*
X122155450Y-96595350D01*
X122134366Y-96462231D01*
X122134365Y-96462229D01*
X122134365Y-96462227D01*
X122073174Y-96342133D01*
X122073172Y-96342131D01*
X122073169Y-96342127D01*
X121977871Y-96246829D01*
X121977867Y-96246826D01*
X121977866Y-96246825D01*
X121857772Y-96185634D01*
X121857770Y-96185633D01*
X121857767Y-96185632D01*
X121724648Y-96164549D01*
X121724644Y-96164549D01*
X121591524Y-96185632D01*
X121471424Y-96246826D01*
X121471420Y-96246829D01*
X121376122Y-96342127D01*
X121376119Y-96342131D01*
X121314925Y-96462231D01*
X121293842Y-96595350D01*
X121293842Y-96595355D01*
X100190499Y-96595355D01*
X100190499Y-96271838D01*
X100190499Y-96271837D01*
X100187709Y-96236373D01*
X100143618Y-96084610D01*
X100132451Y-96065727D01*
X122557165Y-96065727D01*
X122578248Y-96198846D01*
X122578249Y-96198849D01*
X122578250Y-96198851D01*
X122639441Y-96318945D01*
X122639442Y-96318946D01*
X122639445Y-96318950D01*
X122734743Y-96414248D01*
X122734747Y-96414251D01*
X122734749Y-96414253D01*
X122854843Y-96475444D01*
X122854845Y-96475444D01*
X122854847Y-96475445D01*
X122987967Y-96496529D01*
X122987969Y-96496529D01*
X122987971Y-96496529D01*
X123121090Y-96475445D01*
X123121090Y-96475444D01*
X123121095Y-96475444D01*
X123241189Y-96414253D01*
X123336497Y-96318945D01*
X123397688Y-96198851D01*
X123397689Y-96198846D01*
X123418773Y-96065727D01*
X123418773Y-96065722D01*
X123397689Y-95932603D01*
X123397688Y-95932601D01*
X123397688Y-95932599D01*
X123336497Y-95812505D01*
X123336495Y-95812503D01*
X123336492Y-95812499D01*
X123241194Y-95717201D01*
X123241190Y-95717198D01*
X123241189Y-95717197D01*
X123121095Y-95656006D01*
X123121093Y-95656005D01*
X123121090Y-95656004D01*
X122987971Y-95634921D01*
X122987967Y-95634921D01*
X122854847Y-95656004D01*
X122734747Y-95717198D01*
X122734743Y-95717201D01*
X122639445Y-95812499D01*
X122639442Y-95812503D01*
X122639441Y-95812505D01*
X122589054Y-95911396D01*
X122578248Y-95932603D01*
X122557165Y-96065722D01*
X122557165Y-96065727D01*
X100132451Y-96065727D01*
X100063170Y-95948580D01*
X100063168Y-95948578D01*
X100063165Y-95948574D01*
X99951425Y-95836834D01*
X99951416Y-95836827D01*
X99815390Y-95756382D01*
X99815385Y-95756380D01*
X99663633Y-95712292D01*
X99663620Y-95712290D01*
X99628165Y-95709500D01*
X99628163Y-95709500D01*
X99627963Y-95709500D01*
X97924500Y-95709500D01*
X97857461Y-95689815D01*
X97811706Y-95637011D01*
X97800500Y-95585500D01*
X97800500Y-95211190D01*
X128079196Y-95211190D01*
X128100279Y-95344309D01*
X128100280Y-95344312D01*
X128100281Y-95344314D01*
X128161472Y-95464408D01*
X128161473Y-95464409D01*
X128161476Y-95464413D01*
X128256774Y-95559711D01*
X128256778Y-95559714D01*
X128256780Y-95559716D01*
X128376874Y-95620907D01*
X128376876Y-95620907D01*
X128376878Y-95620908D01*
X128509998Y-95641992D01*
X128510000Y-95641992D01*
X128510002Y-95641992D01*
X128643121Y-95620908D01*
X128643121Y-95620907D01*
X128643126Y-95620907D01*
X128763220Y-95559716D01*
X128772934Y-95550002D01*
X140494196Y-95550002D01*
X140515279Y-95683121D01*
X140515280Y-95683124D01*
X140515281Y-95683126D01*
X140560012Y-95770915D01*
X140576473Y-95803221D01*
X140576476Y-95803225D01*
X140671774Y-95898523D01*
X140671778Y-95898526D01*
X140671780Y-95898528D01*
X140791874Y-95959719D01*
X140791876Y-95959719D01*
X140791878Y-95959720D01*
X140924998Y-95980804D01*
X140925000Y-95980804D01*
X140925002Y-95980804D01*
X141058121Y-95959720D01*
X141058121Y-95959719D01*
X141058126Y-95959719D01*
X141178220Y-95898528D01*
X141273528Y-95803220D01*
X141334719Y-95683126D01*
X141336759Y-95670245D01*
X141355804Y-95550002D01*
X141355804Y-95549997D01*
X141334720Y-95416878D01*
X141334719Y-95416876D01*
X141334719Y-95416874D01*
X141273528Y-95296780D01*
X141273526Y-95296778D01*
X141273523Y-95296774D01*
X141178225Y-95201476D01*
X141178221Y-95201473D01*
X141178220Y-95201472D01*
X141058126Y-95140281D01*
X141058124Y-95140280D01*
X141058121Y-95140279D01*
X140925002Y-95119196D01*
X140924998Y-95119196D01*
X140791878Y-95140279D01*
X140671778Y-95201473D01*
X140671774Y-95201476D01*
X140576476Y-95296774D01*
X140576473Y-95296778D01*
X140515279Y-95416878D01*
X140494196Y-95549997D01*
X140494196Y-95550002D01*
X128772934Y-95550002D01*
X128858528Y-95464408D01*
X128919719Y-95344314D01*
X128929778Y-95280804D01*
X128940804Y-95211190D01*
X128940804Y-95211185D01*
X128919720Y-95078066D01*
X128919719Y-95078064D01*
X128919719Y-95078062D01*
X128858528Y-94957968D01*
X128858526Y-94957966D01*
X128858523Y-94957962D01*
X128763225Y-94862664D01*
X128763221Y-94862661D01*
X128763220Y-94862660D01*
X128738377Y-94850002D01*
X139169196Y-94850002D01*
X139190279Y-94983121D01*
X139190280Y-94983124D01*
X139190281Y-94983126D01*
X139251472Y-95103220D01*
X139251473Y-95103221D01*
X139251476Y-95103225D01*
X139346774Y-95198523D01*
X139346778Y-95198526D01*
X139346780Y-95198528D01*
X139466874Y-95259719D01*
X139466876Y-95259719D01*
X139466878Y-95259720D01*
X139599998Y-95280804D01*
X139600000Y-95280804D01*
X139600002Y-95280804D01*
X139733121Y-95259720D01*
X139733121Y-95259719D01*
X139733126Y-95259719D01*
X139853220Y-95198528D01*
X139948528Y-95103220D01*
X140009719Y-94983126D01*
X140013705Y-94957962D01*
X140030804Y-94850002D01*
X140030804Y-94849997D01*
X140009720Y-94716878D01*
X140009719Y-94716876D01*
X140009719Y-94716874D01*
X139948528Y-94596780D01*
X139948526Y-94596778D01*
X139948523Y-94596774D01*
X139853225Y-94501476D01*
X139853221Y-94501473D01*
X139853220Y-94501472D01*
X139733126Y-94440281D01*
X139733124Y-94440280D01*
X139733121Y-94440279D01*
X139600002Y-94419196D01*
X139599998Y-94419196D01*
X139466878Y-94440279D01*
X139346778Y-94501473D01*
X139346774Y-94501476D01*
X139251476Y-94596774D01*
X139251473Y-94596778D01*
X139190279Y-94716878D01*
X139169196Y-94849997D01*
X139169196Y-94850002D01*
X128738377Y-94850002D01*
X128643126Y-94801469D01*
X128643124Y-94801468D01*
X128643121Y-94801467D01*
X128510002Y-94780384D01*
X128509998Y-94780384D01*
X128376878Y-94801467D01*
X128256778Y-94862661D01*
X128256774Y-94862664D01*
X128161476Y-94957962D01*
X128161473Y-94957966D01*
X128100279Y-95078066D01*
X128079196Y-95211185D01*
X128079196Y-95211190D01*
X97800500Y-95211190D01*
X97800500Y-94150002D01*
X111669196Y-94150002D01*
X111690279Y-94283121D01*
X111690280Y-94283124D01*
X111690281Y-94283126D01*
X111751472Y-94403220D01*
X111751473Y-94403221D01*
X111751476Y-94403225D01*
X111846774Y-94498523D01*
X111846778Y-94498526D01*
X111846780Y-94498528D01*
X111966874Y-94559719D01*
X111966876Y-94559719D01*
X111966878Y-94559720D01*
X112099998Y-94580804D01*
X112100000Y-94580804D01*
X112100002Y-94580804D01*
X112233121Y-94559720D01*
X112233121Y-94559719D01*
X112233126Y-94559719D01*
X112353220Y-94498528D01*
X112448528Y-94403220D01*
X112509719Y-94283126D01*
X112518006Y-94230804D01*
X112530804Y-94150002D01*
X112530804Y-94149997D01*
X112509720Y-94016878D01*
X112509719Y-94016876D01*
X112509719Y-94016874D01*
X112448528Y-93896780D01*
X112448526Y-93896778D01*
X112448523Y-93896774D01*
X112353225Y-93801476D01*
X112353221Y-93801473D01*
X112353220Y-93801472D01*
X112233126Y-93740281D01*
X112233124Y-93740280D01*
X112233121Y-93740279D01*
X112100002Y-93719196D01*
X112099998Y-93719196D01*
X111966878Y-93740279D01*
X111966874Y-93740280D01*
X111966874Y-93740281D01*
X111958127Y-93744738D01*
X111846778Y-93801473D01*
X111846774Y-93801476D01*
X111751476Y-93896774D01*
X111751473Y-93896778D01*
X111690279Y-94016878D01*
X111669196Y-94149997D01*
X111669196Y-94150002D01*
X97800500Y-94150002D01*
X97800500Y-93610002D01*
X118369196Y-93610002D01*
X118390279Y-93743121D01*
X118390280Y-93743124D01*
X118390281Y-93743126D01*
X118451472Y-93863220D01*
X118451473Y-93863221D01*
X118451476Y-93863225D01*
X118546774Y-93958523D01*
X118546778Y-93958526D01*
X118546780Y-93958528D01*
X118666874Y-94019719D01*
X118666876Y-94019719D01*
X118666878Y-94019720D01*
X118799998Y-94040804D01*
X118800000Y-94040804D01*
X118800002Y-94040804D01*
X118933121Y-94019720D01*
X118933121Y-94019719D01*
X118933126Y-94019719D01*
X119053220Y-93958528D01*
X119148528Y-93863220D01*
X119209719Y-93743126D01*
X119213437Y-93719650D01*
X119230804Y-93610002D01*
X119230804Y-93609997D01*
X119209720Y-93476878D01*
X119209719Y-93476876D01*
X119209719Y-93476874D01*
X119148528Y-93356780D01*
X119148526Y-93356778D01*
X119148523Y-93356774D01*
X119091751Y-93300002D01*
X123879196Y-93300002D01*
X123900279Y-93433121D01*
X123900280Y-93433124D01*
X123900281Y-93433126D01*
X123961472Y-93553220D01*
X123961473Y-93553221D01*
X123961476Y-93553225D01*
X124056774Y-93648523D01*
X124056778Y-93648526D01*
X124056780Y-93648528D01*
X124176874Y-93709719D01*
X124176876Y-93709719D01*
X124176878Y-93709720D01*
X124309998Y-93730804D01*
X124310000Y-93730804D01*
X124310002Y-93730804D01*
X124443121Y-93709720D01*
X124443121Y-93709719D01*
X124443126Y-93709719D01*
X124563220Y-93648528D01*
X124658528Y-93553220D01*
X124660168Y-93550002D01*
X125669196Y-93550002D01*
X125690279Y-93683121D01*
X125690280Y-93683124D01*
X125690281Y-93683126D01*
X125751472Y-93803220D01*
X125751473Y-93803221D01*
X125751476Y-93803225D01*
X125846774Y-93898523D01*
X125846778Y-93898526D01*
X125846780Y-93898528D01*
X125966874Y-93959719D01*
X125966876Y-93959719D01*
X125966878Y-93959720D01*
X126099998Y-93980804D01*
X126100000Y-93980804D01*
X126100002Y-93980804D01*
X126233121Y-93959720D01*
X126233121Y-93959719D01*
X126233126Y-93959719D01*
X126353220Y-93898528D01*
X126448528Y-93803220D01*
X126450168Y-93800002D01*
X126869196Y-93800002D01*
X126890279Y-93933121D01*
X126890280Y-93933124D01*
X126890281Y-93933126D01*
X126951472Y-94053220D01*
X126951473Y-94053221D01*
X126951476Y-94053225D01*
X127046774Y-94148523D01*
X127046778Y-94148526D01*
X127046780Y-94148528D01*
X127166874Y-94209719D01*
X127166876Y-94209719D01*
X127166878Y-94209720D01*
X127299998Y-94230804D01*
X127300000Y-94230804D01*
X127300002Y-94230804D01*
X127433121Y-94209720D01*
X127433121Y-94209719D01*
X127433126Y-94209719D01*
X127553220Y-94148528D01*
X127648528Y-94053220D01*
X127709719Y-93933126D01*
X127720791Y-93863220D01*
X127730804Y-93800002D01*
X127730804Y-93799997D01*
X127709720Y-93666878D01*
X127709719Y-93666876D01*
X127709719Y-93666874D01*
X127681563Y-93611614D01*
X128882569Y-93611614D01*
X128903652Y-93744733D01*
X128903653Y-93744736D01*
X128903654Y-93744738D01*
X128964845Y-93864832D01*
X128964846Y-93864833D01*
X128964849Y-93864837D01*
X129060147Y-93960135D01*
X129060151Y-93960138D01*
X129060153Y-93960140D01*
X129180247Y-94021331D01*
X129180249Y-94021331D01*
X129180251Y-94021332D01*
X129313371Y-94042416D01*
X129313373Y-94042416D01*
X129313375Y-94042416D01*
X129446494Y-94021332D01*
X129446494Y-94021331D01*
X129446499Y-94021331D01*
X129566593Y-93960140D01*
X129661901Y-93864832D01*
X129723092Y-93744738D01*
X129723093Y-93744733D01*
X129744177Y-93611614D01*
X129744177Y-93611609D01*
X129723093Y-93478490D01*
X129723092Y-93478488D01*
X129723092Y-93478486D01*
X129661901Y-93358392D01*
X129661899Y-93358390D01*
X129661896Y-93358386D01*
X129566598Y-93263088D01*
X129566594Y-93263085D01*
X129566593Y-93263084D01*
X129446499Y-93201893D01*
X129446497Y-93201892D01*
X129446494Y-93201891D01*
X129313375Y-93180808D01*
X129313371Y-93180808D01*
X129180251Y-93201891D01*
X129180247Y-93201892D01*
X129180247Y-93201893D01*
X129100184Y-93242687D01*
X129060151Y-93263085D01*
X129060147Y-93263088D01*
X128964849Y-93358386D01*
X128964846Y-93358390D01*
X128903652Y-93478490D01*
X128882569Y-93611609D01*
X128882569Y-93611614D01*
X127681563Y-93611614D01*
X127648528Y-93546780D01*
X127648526Y-93546778D01*
X127648523Y-93546774D01*
X127553225Y-93451476D01*
X127553221Y-93451473D01*
X127553220Y-93451472D01*
X127433126Y-93390281D01*
X127433124Y-93390280D01*
X127433121Y-93390279D01*
X127300002Y-93369196D01*
X127299998Y-93369196D01*
X127166878Y-93390279D01*
X127166874Y-93390280D01*
X127166874Y-93390281D01*
X127104465Y-93422080D01*
X127046778Y-93451473D01*
X127046774Y-93451476D01*
X126951476Y-93546774D01*
X126951473Y-93546778D01*
X126951472Y-93546780D01*
X126893410Y-93660734D01*
X126890279Y-93666878D01*
X126869196Y-93799997D01*
X126869196Y-93800002D01*
X126450168Y-93800002D01*
X126509719Y-93683126D01*
X126509720Y-93683121D01*
X126530804Y-93550002D01*
X126530804Y-93549997D01*
X126509720Y-93416878D01*
X126509719Y-93416876D01*
X126509719Y-93416874D01*
X126448528Y-93296780D01*
X126448526Y-93296778D01*
X126448523Y-93296774D01*
X126367612Y-93215863D01*
X126334127Y-93154540D01*
X126339111Y-93084848D01*
X126380983Y-93028915D01*
X126446447Y-93004498D01*
X126474691Y-93005709D01*
X126569998Y-93020804D01*
X126570000Y-93020804D01*
X126570002Y-93020804D01*
X126703121Y-92999720D01*
X126703121Y-92999719D01*
X126703126Y-92999719D01*
X126823220Y-92938528D01*
X126918528Y-92843220D01*
X126979719Y-92723126D01*
X126979720Y-92723121D01*
X127000804Y-92590002D01*
X127000804Y-92589997D01*
X126979720Y-92456878D01*
X126979719Y-92456876D01*
X126979719Y-92456874D01*
X126918528Y-92336780D01*
X126918526Y-92336778D01*
X126918523Y-92336774D01*
X126823225Y-92241476D01*
X126823221Y-92241473D01*
X126823220Y-92241472D01*
X126703126Y-92180281D01*
X126703124Y-92180280D01*
X126703121Y-92180279D01*
X126570002Y-92159196D01*
X126569998Y-92159196D01*
X126436878Y-92180279D01*
X126316778Y-92241473D01*
X126316774Y-92241476D01*
X126221476Y-92336774D01*
X126221473Y-92336778D01*
X126160279Y-92456878D01*
X126139196Y-92589997D01*
X126139196Y-92590002D01*
X126160279Y-92723121D01*
X126160280Y-92723124D01*
X126160281Y-92723126D01*
X126221472Y-92843220D01*
X126221473Y-92843221D01*
X126221476Y-92843225D01*
X126302387Y-92924136D01*
X126335872Y-92985459D01*
X126330888Y-93055151D01*
X126289016Y-93111084D01*
X126223552Y-93135501D01*
X126195309Y-93134291D01*
X126151725Y-93127388D01*
X126100000Y-93119196D01*
X126099998Y-93119196D01*
X126099997Y-93119196D01*
X125966878Y-93140279D01*
X125966874Y-93140280D01*
X125966874Y-93140281D01*
X125890499Y-93179196D01*
X125846778Y-93201473D01*
X125846774Y-93201476D01*
X125751476Y-93296774D01*
X125751473Y-93296778D01*
X125690279Y-93416878D01*
X125669196Y-93549997D01*
X125669196Y-93550002D01*
X124660168Y-93550002D01*
X124719719Y-93433126D01*
X124721469Y-93422080D01*
X124740804Y-93300002D01*
X124740804Y-93299997D01*
X124719720Y-93166878D01*
X124719719Y-93166876D01*
X124719719Y-93166874D01*
X124658528Y-93046780D01*
X124658526Y-93046778D01*
X124658523Y-93046774D01*
X124563225Y-92951476D01*
X124563221Y-92951473D01*
X124563220Y-92951472D01*
X124443126Y-92890281D01*
X124443124Y-92890280D01*
X124443121Y-92890279D01*
X124310002Y-92869196D01*
X124309998Y-92869196D01*
X124176878Y-92890279D01*
X124176874Y-92890280D01*
X124176874Y-92890281D01*
X124126150Y-92916126D01*
X124056778Y-92951473D01*
X124056774Y-92951476D01*
X123961476Y-93046774D01*
X123961473Y-93046778D01*
X123961472Y-93046780D01*
X123906566Y-93154540D01*
X123900279Y-93166878D01*
X123879196Y-93299997D01*
X123879196Y-93300002D01*
X119091751Y-93300002D01*
X119053225Y-93261476D01*
X119053221Y-93261473D01*
X119053220Y-93261472D01*
X118933126Y-93200281D01*
X118933124Y-93200280D01*
X118933121Y-93200279D01*
X118800002Y-93179196D01*
X118799998Y-93179196D01*
X118666878Y-93200279D01*
X118546778Y-93261473D01*
X118546774Y-93261476D01*
X118451476Y-93356774D01*
X118451473Y-93356778D01*
X118390279Y-93476878D01*
X118369196Y-93609997D01*
X118369196Y-93610002D01*
X97800500Y-93610002D01*
X97800500Y-92854499D01*
X97816502Y-92800002D01*
X109919202Y-92800002D01*
X109940285Y-92933121D01*
X109940286Y-92933124D01*
X109940287Y-92933126D01*
X109991240Y-93033126D01*
X110001479Y-93053221D01*
X110001482Y-93053225D01*
X110096780Y-93148523D01*
X110096784Y-93148526D01*
X110096786Y-93148528D01*
X110216880Y-93209719D01*
X110216882Y-93209719D01*
X110216884Y-93209720D01*
X110350004Y-93230804D01*
X110350006Y-93230804D01*
X110350008Y-93230804D01*
X110483127Y-93209720D01*
X110483127Y-93209719D01*
X110483132Y-93209719D01*
X110603226Y-93148528D01*
X110698534Y-93053220D01*
X110759725Y-92933126D01*
X110762418Y-92916126D01*
X110764972Y-92900002D01*
X116319196Y-92900002D01*
X116340279Y-93033121D01*
X116340280Y-93033124D01*
X116340281Y-93033126D01*
X116399832Y-93150001D01*
X116401473Y-93153221D01*
X116401476Y-93153225D01*
X116496774Y-93248523D01*
X116496778Y-93248526D01*
X116496780Y-93248528D01*
X116616874Y-93309719D01*
X116616876Y-93309719D01*
X116616878Y-93309720D01*
X116749998Y-93330804D01*
X116750000Y-93330804D01*
X116750002Y-93330804D01*
X116883121Y-93309720D01*
X116883121Y-93309719D01*
X116883126Y-93309719D01*
X117003220Y-93248528D01*
X117098528Y-93153220D01*
X117159719Y-93033126D01*
X117163426Y-93009720D01*
X117180804Y-92900002D01*
X117180804Y-92899997D01*
X117159720Y-92766878D01*
X117159719Y-92766876D01*
X117159719Y-92766874D01*
X117098528Y-92646780D01*
X117098526Y-92646778D01*
X117098523Y-92646774D01*
X117003225Y-92551476D01*
X117003221Y-92551473D01*
X117003220Y-92551472D01*
X116883126Y-92490281D01*
X116883124Y-92490280D01*
X116883121Y-92490279D01*
X116750002Y-92469196D01*
X116749998Y-92469196D01*
X116616878Y-92490279D01*
X116616874Y-92490280D01*
X116616874Y-92490281D01*
X116614639Y-92491420D01*
X116496778Y-92551473D01*
X116496774Y-92551476D01*
X116401476Y-92646774D01*
X116401473Y-92646778D01*
X116401472Y-92646780D01*
X116357477Y-92733126D01*
X116340279Y-92766878D01*
X116319196Y-92899997D01*
X116319196Y-92900002D01*
X110764972Y-92900002D01*
X110780810Y-92800002D01*
X110780810Y-92799997D01*
X110759726Y-92666878D01*
X110759725Y-92666876D01*
X110759725Y-92666874D01*
X110698534Y-92546780D01*
X110698532Y-92546778D01*
X110698529Y-92546774D01*
X110603231Y-92451476D01*
X110603227Y-92451473D01*
X110603226Y-92451472D01*
X110483132Y-92390281D01*
X110483130Y-92390280D01*
X110483127Y-92390279D01*
X110350008Y-92369196D01*
X110350004Y-92369196D01*
X110216884Y-92390279D01*
X110096784Y-92451473D01*
X110096780Y-92451476D01*
X110001482Y-92546774D01*
X110001479Y-92546778D01*
X109940285Y-92666878D01*
X109919202Y-92799997D01*
X109919202Y-92800002D01*
X97816502Y-92800002D01*
X97820185Y-92787460D01*
X97872989Y-92741705D01*
X97924500Y-92730499D01*
X99628162Y-92730499D01*
X99663627Y-92727709D01*
X99815390Y-92683618D01*
X99951420Y-92603170D01*
X100063170Y-92491420D01*
X100143618Y-92355390D01*
X100187709Y-92203627D01*
X100190500Y-92168163D01*
X100190500Y-92112502D01*
X118231696Y-92112502D01*
X118252779Y-92245621D01*
X118252780Y-92245624D01*
X118252781Y-92245626D01*
X118308709Y-92355390D01*
X118313973Y-92365721D01*
X118313976Y-92365725D01*
X118409274Y-92461023D01*
X118409278Y-92461026D01*
X118409280Y-92461028D01*
X118529374Y-92522219D01*
X118529376Y-92522219D01*
X118529378Y-92522220D01*
X118662498Y-92543304D01*
X118662500Y-92543304D01*
X118662502Y-92543304D01*
X118795621Y-92522220D01*
X118795621Y-92522219D01*
X118795626Y-92522219D01*
X118915720Y-92461028D01*
X119011028Y-92365720D01*
X119072219Y-92245626D01*
X119072600Y-92243220D01*
X119093304Y-92112502D01*
X119093304Y-92112497D01*
X119072220Y-91979378D01*
X119072219Y-91979376D01*
X119072219Y-91979374D01*
X119026682Y-91890002D01*
X124799196Y-91890002D01*
X124820279Y-92023121D01*
X124820280Y-92023122D01*
X124820281Y-92023126D01*
X124871234Y-92123126D01*
X124881473Y-92143221D01*
X124881476Y-92143225D01*
X124976774Y-92238523D01*
X124976777Y-92238525D01*
X124976780Y-92238528D01*
X124989624Y-92245072D01*
X125040420Y-92293044D01*
X125057217Y-92360864D01*
X125043816Y-92411851D01*
X125015779Y-92466876D01*
X124994696Y-92599997D01*
X124994696Y-92600002D01*
X125015779Y-92733121D01*
X125015780Y-92733124D01*
X125015781Y-92733126D01*
X125076972Y-92853220D01*
X125076973Y-92853221D01*
X125076976Y-92853225D01*
X125172274Y-92948523D01*
X125172278Y-92948526D01*
X125172280Y-92948528D01*
X125292374Y-93009719D01*
X125292376Y-93009719D01*
X125292378Y-93009720D01*
X125425498Y-93030804D01*
X125425500Y-93030804D01*
X125425502Y-93030804D01*
X125558621Y-93009720D01*
X125558621Y-93009719D01*
X125558626Y-93009719D01*
X125678720Y-92948528D01*
X125774028Y-92853220D01*
X125835219Y-92733126D01*
X125835241Y-92732987D01*
X125856304Y-92600002D01*
X125856304Y-92599997D01*
X125835220Y-92466878D01*
X125835219Y-92466876D01*
X125835219Y-92466874D01*
X125774028Y-92346780D01*
X125774026Y-92346778D01*
X125774023Y-92346774D01*
X125678725Y-92251476D01*
X125678719Y-92251471D01*
X125671391Y-92247738D01*
X125665873Y-92244926D01*
X125615078Y-92196953D01*
X125598282Y-92129132D01*
X125611683Y-92078149D01*
X125639719Y-92023126D01*
X125644966Y-91990002D01*
X130239198Y-91990002D01*
X130260281Y-92123121D01*
X130260282Y-92123124D01*
X130260283Y-92123126D01*
X130321474Y-92243220D01*
X130321475Y-92243221D01*
X130321478Y-92243225D01*
X130416776Y-92338523D01*
X130416778Y-92338524D01*
X130416782Y-92338528D01*
X130495063Y-92378414D01*
X130545858Y-92426388D01*
X130562653Y-92494209D01*
X130540116Y-92560343D01*
X130495063Y-92599382D01*
X130422270Y-92636472D01*
X130422269Y-92636473D01*
X130422264Y-92636476D01*
X130326966Y-92731774D01*
X130326963Y-92731778D01*
X130265769Y-92851878D01*
X130244686Y-92984997D01*
X130244686Y-92985002D01*
X130265769Y-93118121D01*
X130265770Y-93118124D01*
X130265771Y-93118126D01*
X130326962Y-93238220D01*
X130326963Y-93238221D01*
X130326966Y-93238225D01*
X130422264Y-93333523D01*
X130422268Y-93333526D01*
X130422270Y-93333528D01*
X130542364Y-93394719D01*
X130542366Y-93394719D01*
X130542368Y-93394720D01*
X130675488Y-93415804D01*
X130675490Y-93415804D01*
X130675492Y-93415804D01*
X130808611Y-93394720D01*
X130808611Y-93394719D01*
X130808616Y-93394719D01*
X130928710Y-93333528D01*
X131024018Y-93238220D01*
X131068968Y-93150001D01*
X141562154Y-93150001D01*
X141582248Y-93302635D01*
X141582249Y-93302637D01*
X141641165Y-93444873D01*
X141688025Y-93505942D01*
X141734886Y-93567013D01*
X141793012Y-93611614D01*
X141857025Y-93660733D01*
X141857026Y-93660733D01*
X141857027Y-93660734D01*
X141999262Y-93719650D01*
X142113578Y-93734700D01*
X142113585Y-93734700D01*
X143180813Y-93734700D01*
X143180820Y-93734700D01*
X143295136Y-93719650D01*
X143437371Y-93660734D01*
X143559512Y-93567013D01*
X143653233Y-93444873D01*
X143712149Y-93302637D01*
X143731646Y-93154540D01*
X143732244Y-93150001D01*
X143732244Y-93149998D01*
X143712149Y-92997364D01*
X143712149Y-92997363D01*
X143653233Y-92855128D01*
X143653232Y-92855127D01*
X143653232Y-92855126D01*
X143566201Y-92741705D01*
X143559512Y-92732987D01*
X143447164Y-92646780D01*
X143437372Y-92639266D01*
X143342575Y-92600000D01*
X143295136Y-92580350D01*
X143280846Y-92578468D01*
X143180827Y-92565300D01*
X143180820Y-92565300D01*
X142113578Y-92565300D01*
X142113570Y-92565300D01*
X141999262Y-92580350D01*
X141999261Y-92580350D01*
X141857025Y-92639266D01*
X141734887Y-92732985D01*
X141641164Y-92855128D01*
X141582249Y-92997362D01*
X141582248Y-92997364D01*
X141562154Y-93149998D01*
X141562154Y-93150001D01*
X131068968Y-93150001D01*
X131085209Y-93118126D01*
X131085210Y-93118121D01*
X131106294Y-92985002D01*
X131106294Y-92984997D01*
X131085210Y-92851878D01*
X131085209Y-92851876D01*
X131085209Y-92851874D01*
X131024018Y-92731780D01*
X131024016Y-92731778D01*
X131024013Y-92731774D01*
X130928715Y-92636476D01*
X130928712Y-92636474D01*
X130928710Y-92636472D01*
X130850428Y-92596585D01*
X130799633Y-92548611D01*
X130782838Y-92480790D01*
X130805376Y-92414655D01*
X130850426Y-92375619D01*
X130923222Y-92338528D01*
X131018530Y-92243220D01*
X131079721Y-92123126D01*
X131081404Y-92112500D01*
X131100806Y-91990002D01*
X131100806Y-91989997D01*
X131079722Y-91856878D01*
X131079721Y-91856876D01*
X131079721Y-91856874D01*
X131018530Y-91736780D01*
X131018528Y-91736778D01*
X131018525Y-91736774D01*
X130923227Y-91641476D01*
X130923223Y-91641473D01*
X130923222Y-91641472D01*
X130803128Y-91580281D01*
X130803126Y-91580280D01*
X130803123Y-91580279D01*
X130670004Y-91559196D01*
X130670000Y-91559196D01*
X130536880Y-91580279D01*
X130416780Y-91641473D01*
X130416776Y-91641476D01*
X130321478Y-91736774D01*
X130321475Y-91736778D01*
X130260281Y-91856878D01*
X130239198Y-91989997D01*
X130239198Y-91990002D01*
X125644966Y-91990002D01*
X125660804Y-91890002D01*
X125660804Y-91889997D01*
X125639720Y-91756878D01*
X125639719Y-91756876D01*
X125639719Y-91756874D01*
X125578528Y-91636780D01*
X125578526Y-91636778D01*
X125578523Y-91636774D01*
X125483225Y-91541476D01*
X125483221Y-91541473D01*
X125483220Y-91541472D01*
X125363126Y-91480281D01*
X125363124Y-91480280D01*
X125363121Y-91480279D01*
X125230002Y-91459196D01*
X125229998Y-91459196D01*
X125096878Y-91480279D01*
X125096874Y-91480280D01*
X125096874Y-91480281D01*
X125039099Y-91509719D01*
X124976778Y-91541473D01*
X124976774Y-91541476D01*
X124881476Y-91636774D01*
X124881473Y-91636778D01*
X124820279Y-91756878D01*
X124799196Y-91889997D01*
X124799196Y-91890002D01*
X119026682Y-91890002D01*
X119011028Y-91859280D01*
X119011026Y-91859278D01*
X119011023Y-91859274D01*
X118915725Y-91763976D01*
X118915721Y-91763973D01*
X118915720Y-91763972D01*
X118795626Y-91702781D01*
X118795624Y-91702780D01*
X118795621Y-91702779D01*
X118662502Y-91681696D01*
X118662498Y-91681696D01*
X118529378Y-91702779D01*
X118529374Y-91702780D01*
X118529374Y-91702781D01*
X118474376Y-91730804D01*
X118409278Y-91763973D01*
X118409274Y-91763976D01*
X118313976Y-91859274D01*
X118313973Y-91859278D01*
X118252779Y-91979378D01*
X118231696Y-92112497D01*
X118231696Y-92112502D01*
X100190500Y-92112502D01*
X100190499Y-91450002D01*
X109594196Y-91450002D01*
X109615279Y-91583121D01*
X109615280Y-91583124D01*
X109615281Y-91583126D01*
X109676472Y-91703220D01*
X109676473Y-91703221D01*
X109676476Y-91703225D01*
X109771774Y-91798523D01*
X109771778Y-91798526D01*
X109771780Y-91798528D01*
X109891874Y-91859719D01*
X109891876Y-91859719D01*
X109891878Y-91859720D01*
X110024998Y-91880804D01*
X110025000Y-91880804D01*
X110025002Y-91880804D01*
X110158121Y-91859720D01*
X110158121Y-91859719D01*
X110158126Y-91859719D01*
X110278220Y-91798528D01*
X110373528Y-91703220D01*
X110405739Y-91640002D01*
X114669196Y-91640002D01*
X114690279Y-91773121D01*
X114690280Y-91773124D01*
X114690281Y-91773126D01*
X114751472Y-91893220D01*
X114751473Y-91893221D01*
X114751476Y-91893225D01*
X114846774Y-91988523D01*
X114846778Y-91988526D01*
X114846780Y-91988528D01*
X114966874Y-92049719D01*
X114966876Y-92049719D01*
X114966878Y-92049720D01*
X115099998Y-92070804D01*
X115100000Y-92070804D01*
X115100002Y-92070804D01*
X115233121Y-92049720D01*
X115233121Y-92049719D01*
X115233126Y-92049719D01*
X115353220Y-91988528D01*
X115448528Y-91893220D01*
X115509719Y-91773126D01*
X115512293Y-91756878D01*
X115519761Y-91709720D01*
X115530804Y-91640000D01*
X115528777Y-91627205D01*
X115537730Y-91557915D01*
X115582724Y-91504462D01*
X115649475Y-91483820D01*
X115707542Y-91497321D01*
X115731874Y-91509719D01*
X115731876Y-91509719D01*
X115731878Y-91509720D01*
X115864998Y-91530804D01*
X115865000Y-91530804D01*
X115865002Y-91530804D01*
X115998121Y-91509720D01*
X115998121Y-91509719D01*
X115998126Y-91509719D01*
X116118220Y-91448528D01*
X116213528Y-91353220D01*
X116274719Y-91233126D01*
X116278509Y-91209196D01*
X116295804Y-91100002D01*
X116295804Y-91099997D01*
X116274720Y-90966878D01*
X116274719Y-90966876D01*
X116274719Y-90966874D01*
X116213528Y-90846780D01*
X116213526Y-90846778D01*
X116213523Y-90846774D01*
X116118225Y-90751476D01*
X116118221Y-90751473D01*
X116118220Y-90751472D01*
X115998126Y-90690281D01*
X115998124Y-90690280D01*
X115998121Y-90690279D01*
X115865002Y-90669196D01*
X115864998Y-90669196D01*
X115731878Y-90690279D01*
X115731874Y-90690280D01*
X115731874Y-90690281D01*
X115667126Y-90723272D01*
X115611778Y-90751473D01*
X115611774Y-90751476D01*
X115516476Y-90846774D01*
X115516473Y-90846778D01*
X115455279Y-90966878D01*
X115434196Y-91099997D01*
X115434196Y-91100002D01*
X115436222Y-91112794D01*
X115427267Y-91182088D01*
X115382271Y-91235540D01*
X115315519Y-91256179D01*
X115257456Y-91242678D01*
X115238709Y-91233126D01*
X115233126Y-91230281D01*
X115233125Y-91230280D01*
X115233122Y-91230279D01*
X115100002Y-91209196D01*
X115099998Y-91209196D01*
X114966878Y-91230279D01*
X114846778Y-91291473D01*
X114846774Y-91291476D01*
X114751476Y-91386774D01*
X114751473Y-91386778D01*
X114690279Y-91506878D01*
X114669196Y-91639997D01*
X114669196Y-91640002D01*
X110405739Y-91640002D01*
X110434719Y-91583126D01*
X110439455Y-91553225D01*
X110455804Y-91450002D01*
X110455804Y-91449997D01*
X110434720Y-91316878D01*
X110434719Y-91316876D01*
X110434719Y-91316874D01*
X110373528Y-91196780D01*
X110373526Y-91196778D01*
X110373523Y-91196774D01*
X110278225Y-91101476D01*
X110278221Y-91101473D01*
X110278220Y-91101472D01*
X110158126Y-91040281D01*
X110158124Y-91040280D01*
X110158121Y-91040279D01*
X110025002Y-91019196D01*
X110024998Y-91019196D01*
X109891878Y-91040279D01*
X109771778Y-91101473D01*
X109771774Y-91101476D01*
X109676476Y-91196774D01*
X109676473Y-91196778D01*
X109615279Y-91316878D01*
X109594196Y-91449997D01*
X109594196Y-91450002D01*
X100190499Y-91450002D01*
X100190499Y-91191838D01*
X100187709Y-91156373D01*
X100143618Y-91004610D01*
X100076003Y-90890279D01*
X100063172Y-90868583D01*
X100063165Y-90868574D01*
X99951425Y-90756834D01*
X99951416Y-90756827D01*
X99815390Y-90676382D01*
X99815385Y-90676380D01*
X99663633Y-90632292D01*
X99663620Y-90632290D01*
X99628165Y-90629500D01*
X99628163Y-90629500D01*
X99627963Y-90629500D01*
X97924500Y-90629500D01*
X97857461Y-90609815D01*
X97811706Y-90557011D01*
X97800500Y-90505500D01*
X97800500Y-90500002D01*
X118769196Y-90500002D01*
X118790279Y-90633121D01*
X118790280Y-90633124D01*
X118790281Y-90633126D01*
X118851472Y-90753220D01*
X118851473Y-90753221D01*
X118851476Y-90753225D01*
X118946774Y-90848523D01*
X118946778Y-90848526D01*
X118946780Y-90848528D01*
X119066874Y-90909719D01*
X119066876Y-90909719D01*
X119066878Y-90909720D01*
X119199998Y-90930804D01*
X119200000Y-90930804D01*
X119200002Y-90930804D01*
X119333121Y-90909720D01*
X119333121Y-90909719D01*
X119333126Y-90909719D01*
X119352197Y-90900002D01*
X125294196Y-90900002D01*
X125315279Y-91033121D01*
X125315280Y-91033124D01*
X125315281Y-91033126D01*
X125355874Y-91112794D01*
X125376473Y-91153221D01*
X125376476Y-91153225D01*
X125471774Y-91248523D01*
X125471778Y-91248526D01*
X125471780Y-91248528D01*
X125591874Y-91309719D01*
X125591876Y-91309719D01*
X125591878Y-91309720D01*
X125724998Y-91330804D01*
X125725000Y-91330804D01*
X125725002Y-91330804D01*
X125858121Y-91309720D01*
X125858121Y-91309719D01*
X125858126Y-91309719D01*
X125978220Y-91248528D01*
X126073528Y-91153220D01*
X126115013Y-91071802D01*
X131290996Y-91071802D01*
X131312079Y-91204921D01*
X131312080Y-91204924D01*
X131312081Y-91204926D01*
X131373272Y-91325020D01*
X131373273Y-91325021D01*
X131373276Y-91325025D01*
X131468574Y-91420323D01*
X131468578Y-91420326D01*
X131468580Y-91420328D01*
X131588674Y-91481519D01*
X131588676Y-91481519D01*
X131588678Y-91481520D01*
X131721798Y-91502604D01*
X131721800Y-91502604D01*
X131721802Y-91502604D01*
X131854921Y-91481520D01*
X131854921Y-91481519D01*
X131854926Y-91481519D01*
X131975020Y-91420328D01*
X132070328Y-91325020D01*
X132083075Y-91300002D01*
X134369196Y-91300002D01*
X134390279Y-91433121D01*
X134390280Y-91433124D01*
X134390281Y-91433126D01*
X134451472Y-91553220D01*
X134451473Y-91553221D01*
X134451476Y-91553225D01*
X134546774Y-91648523D01*
X134546778Y-91648526D01*
X134546780Y-91648528D01*
X134666874Y-91709719D01*
X134666876Y-91709719D01*
X134666878Y-91709720D01*
X134799998Y-91730804D01*
X134800000Y-91730804D01*
X134800002Y-91730804D01*
X134933121Y-91709720D01*
X134933121Y-91709719D01*
X134933126Y-91709719D01*
X135053220Y-91648528D01*
X135148528Y-91553220D01*
X135209719Y-91433126D01*
X135211746Y-91420328D01*
X135230804Y-91300002D01*
X135230804Y-91299997D01*
X135209720Y-91166878D01*
X135209719Y-91166876D01*
X135209719Y-91166874D01*
X135148528Y-91046780D01*
X135148526Y-91046778D01*
X135148523Y-91046774D01*
X135053225Y-90951476D01*
X135053221Y-90951473D01*
X135053220Y-90951472D01*
X134933126Y-90890281D01*
X134933124Y-90890280D01*
X134933121Y-90890279D01*
X134800002Y-90869196D01*
X134799998Y-90869196D01*
X134666878Y-90890279D01*
X134666874Y-90890280D01*
X134666874Y-90890281D01*
X134641480Y-90903220D01*
X134546778Y-90951473D01*
X134546774Y-90951476D01*
X134451476Y-91046774D01*
X134451473Y-91046778D01*
X134390279Y-91166878D01*
X134369196Y-91299997D01*
X134369196Y-91300002D01*
X132083075Y-91300002D01*
X132131519Y-91204926D01*
X132139708Y-91153221D01*
X132152604Y-91071802D01*
X132152604Y-91071797D01*
X132131520Y-90938678D01*
X132131519Y-90938676D01*
X132131519Y-90938674D01*
X132070328Y-90818580D01*
X132070326Y-90818578D01*
X132070323Y-90818574D01*
X131975025Y-90723276D01*
X131975021Y-90723273D01*
X131975020Y-90723272D01*
X131854926Y-90662081D01*
X131854924Y-90662080D01*
X131854921Y-90662079D01*
X131778666Y-90650002D01*
X142269196Y-90650002D01*
X142290279Y-90783121D01*
X142290280Y-90783124D01*
X142290281Y-90783126D01*
X142351472Y-90903220D01*
X142351473Y-90903221D01*
X142351476Y-90903225D01*
X142446774Y-90998523D01*
X142446778Y-90998526D01*
X142446780Y-90998528D01*
X142566874Y-91059719D01*
X142566876Y-91059719D01*
X142566878Y-91059720D01*
X142699998Y-91080804D01*
X142700000Y-91080804D01*
X142700002Y-91080804D01*
X142833121Y-91059720D01*
X142833121Y-91059719D01*
X142833126Y-91059719D01*
X142953220Y-90998528D01*
X143048528Y-90903220D01*
X143109719Y-90783126D01*
X143109720Y-90783121D01*
X143130804Y-90650002D01*
X143130804Y-90649997D01*
X143109720Y-90516878D01*
X143109719Y-90516876D01*
X143109719Y-90516874D01*
X143048528Y-90396780D01*
X143048526Y-90396778D01*
X143048523Y-90396774D01*
X142953225Y-90301476D01*
X142953221Y-90301473D01*
X142953220Y-90301472D01*
X142833126Y-90240281D01*
X142833124Y-90240280D01*
X142833121Y-90240279D01*
X142700002Y-90219196D01*
X142699998Y-90219196D01*
X142566878Y-90240279D01*
X142566874Y-90240280D01*
X142566874Y-90240281D01*
X142486811Y-90281075D01*
X142446778Y-90301473D01*
X142446774Y-90301476D01*
X142351476Y-90396774D01*
X142351473Y-90396778D01*
X142290279Y-90516878D01*
X142269196Y-90649997D01*
X142269196Y-90650002D01*
X131778666Y-90650002D01*
X131721802Y-90640996D01*
X131721798Y-90640996D01*
X131588678Y-90662079D01*
X131468578Y-90723273D01*
X131468574Y-90723276D01*
X131373276Y-90818574D01*
X131373273Y-90818578D01*
X131373272Y-90818580D01*
X131336739Y-90890281D01*
X131312079Y-90938678D01*
X131290996Y-91071797D01*
X131290996Y-91071802D01*
X126115013Y-91071802D01*
X126134719Y-91033126D01*
X126134720Y-91033121D01*
X126155804Y-90900002D01*
X126155804Y-90899997D01*
X126134720Y-90766878D01*
X126134719Y-90766876D01*
X126134719Y-90766874D01*
X126073528Y-90646780D01*
X126073526Y-90646778D01*
X126073523Y-90646774D01*
X125978225Y-90551476D01*
X125978221Y-90551473D01*
X125978220Y-90551472D01*
X125858126Y-90490281D01*
X125858124Y-90490280D01*
X125858121Y-90490279D01*
X125725002Y-90469196D01*
X125724998Y-90469196D01*
X125591878Y-90490279D01*
X125591874Y-90490280D01*
X125591874Y-90490281D01*
X125511811Y-90531075D01*
X125471778Y-90551473D01*
X125471774Y-90551476D01*
X125376476Y-90646774D01*
X125376473Y-90646778D01*
X125315279Y-90766878D01*
X125294196Y-90899997D01*
X125294196Y-90900002D01*
X119352197Y-90900002D01*
X119453220Y-90848528D01*
X119548528Y-90753220D01*
X119573302Y-90704597D01*
X119621271Y-90653805D01*
X119689092Y-90637009D01*
X119755227Y-90659545D01*
X119771465Y-90673214D01*
X119846774Y-90748523D01*
X119846778Y-90748526D01*
X119846780Y-90748528D01*
X119966874Y-90809719D01*
X119966876Y-90809719D01*
X119966878Y-90809720D01*
X120099998Y-90830804D01*
X120100000Y-90830804D01*
X120100002Y-90830804D01*
X120233121Y-90809720D01*
X120233121Y-90809719D01*
X120233126Y-90809719D01*
X120353220Y-90748528D01*
X120448528Y-90653220D01*
X120509719Y-90533126D01*
X120509720Y-90533121D01*
X120530804Y-90400002D01*
X120530804Y-90399997D01*
X120509720Y-90266878D01*
X120509719Y-90266876D01*
X120509719Y-90266874D01*
X120448528Y-90146780D01*
X120448526Y-90146778D01*
X120448523Y-90146774D01*
X120353225Y-90051476D01*
X120353221Y-90051473D01*
X120353220Y-90051472D01*
X120233126Y-89990281D01*
X120233124Y-89990280D01*
X120233121Y-89990279D01*
X120100002Y-89969196D01*
X120099998Y-89969196D01*
X119966878Y-89990279D01*
X119846778Y-90051473D01*
X119846774Y-90051476D01*
X119751476Y-90146774D01*
X119751474Y-90146778D01*
X119751472Y-90146780D01*
X119726698Y-90195400D01*
X119678725Y-90246195D01*
X119610904Y-90262990D01*
X119544769Y-90240453D01*
X119528534Y-90226785D01*
X119453225Y-90151476D01*
X119453221Y-90151473D01*
X119453220Y-90151472D01*
X119333126Y-90090281D01*
X119333124Y-90090280D01*
X119333121Y-90090279D01*
X119200002Y-90069196D01*
X119199998Y-90069196D01*
X119066878Y-90090279D01*
X118946778Y-90151473D01*
X118946774Y-90151476D01*
X118851476Y-90246774D01*
X118851473Y-90246778D01*
X118790279Y-90366878D01*
X118769196Y-90499997D01*
X118769196Y-90500002D01*
X97800500Y-90500002D01*
X97800500Y-90314499D01*
X97820185Y-90247460D01*
X97872989Y-90201705D01*
X97924500Y-90190499D01*
X99628162Y-90190499D01*
X99663627Y-90187709D01*
X99815390Y-90143618D01*
X99951420Y-90063170D01*
X100027788Y-89986802D01*
X106732396Y-89986802D01*
X106753479Y-90119921D01*
X106753480Y-90119924D01*
X106753481Y-90119926D01*
X106814672Y-90240020D01*
X106814673Y-90240021D01*
X106814676Y-90240025D01*
X106909974Y-90335323D01*
X106909978Y-90335326D01*
X106909980Y-90335328D01*
X107030074Y-90396519D01*
X107030076Y-90396519D01*
X107030078Y-90396520D01*
X107163198Y-90417604D01*
X107163200Y-90417604D01*
X107163202Y-90417604D01*
X107296321Y-90396520D01*
X107296321Y-90396519D01*
X107296326Y-90396519D01*
X107416420Y-90335328D01*
X107511728Y-90240020D01*
X107572919Y-90119926D01*
X107575254Y-90105184D01*
X107594004Y-89986802D01*
X107594004Y-89986797D01*
X107572920Y-89853678D01*
X107572919Y-89853676D01*
X107572919Y-89853674D01*
X107511728Y-89733580D01*
X107511726Y-89733578D01*
X107511723Y-89733574D01*
X107416425Y-89638276D01*
X107416421Y-89638273D01*
X107416420Y-89638272D01*
X107296326Y-89577081D01*
X107296324Y-89577080D01*
X107296321Y-89577079D01*
X107163202Y-89555996D01*
X107163198Y-89555996D01*
X107030078Y-89577079D01*
X106909978Y-89638273D01*
X106909974Y-89638276D01*
X106814676Y-89733574D01*
X106814673Y-89733578D01*
X106753479Y-89853678D01*
X106732396Y-89986797D01*
X106732396Y-89986802D01*
X100027788Y-89986802D01*
X100063170Y-89951420D01*
X100143618Y-89815390D01*
X100187709Y-89663627D01*
X100190500Y-89628163D01*
X100190500Y-89419996D01*
X124669190Y-89419996D01*
X124690273Y-89553115D01*
X124690274Y-89553118D01*
X124690275Y-89553120D01*
X124751466Y-89673214D01*
X124751467Y-89673215D01*
X124751470Y-89673219D01*
X124846768Y-89768517D01*
X124846772Y-89768520D01*
X124846774Y-89768522D01*
X124966868Y-89829713D01*
X124966870Y-89829713D01*
X124966872Y-89829714D01*
X125099992Y-89850798D01*
X125099994Y-89850798D01*
X125099996Y-89850798D01*
X125233115Y-89829714D01*
X125233115Y-89829713D01*
X125233120Y-89829713D01*
X125353214Y-89768522D01*
X125448522Y-89673214D01*
X125509713Y-89553120D01*
X125509714Y-89553115D01*
X125530798Y-89419996D01*
X125530798Y-89419991D01*
X125509714Y-89286872D01*
X125509713Y-89286870D01*
X125509713Y-89286868D01*
X125477316Y-89223286D01*
X125464421Y-89154620D01*
X125490697Y-89089879D01*
X125547804Y-89049622D01*
X125607198Y-89044521D01*
X125657634Y-89052509D01*
X125709997Y-89060803D01*
X125709999Y-89060803D01*
X125710001Y-89060803D01*
X125843120Y-89039719D01*
X125843120Y-89039718D01*
X125843125Y-89039718D01*
X125963219Y-88978527D01*
X126058527Y-88883219D01*
X126119718Y-88763125D01*
X126119719Y-88763120D01*
X126140803Y-88630001D01*
X126140803Y-88629996D01*
X126119719Y-88496877D01*
X126119718Y-88496875D01*
X126119718Y-88496873D01*
X126058527Y-88376779D01*
X126058525Y-88376777D01*
X126058522Y-88376773D01*
X125963224Y-88281475D01*
X125963220Y-88281472D01*
X125963219Y-88281471D01*
X125843125Y-88220280D01*
X125843123Y-88220279D01*
X125843120Y-88220278D01*
X125710001Y-88199195D01*
X125709997Y-88199195D01*
X125576877Y-88220278D01*
X125456777Y-88281472D01*
X125456773Y-88281475D01*
X125361475Y-88376773D01*
X125361472Y-88376777D01*
X125300278Y-88496877D01*
X125279195Y-88629996D01*
X125279195Y-88630001D01*
X125300278Y-88763122D01*
X125332675Y-88826704D01*
X125345571Y-88895373D01*
X125319294Y-88960113D01*
X125262188Y-89000370D01*
X125202792Y-89005471D01*
X125099996Y-88989190D01*
X125099992Y-88989190D01*
X124966872Y-89010273D01*
X124966868Y-89010274D01*
X124966868Y-89010275D01*
X124889645Y-89049622D01*
X124846772Y-89071467D01*
X124846768Y-89071470D01*
X124751470Y-89166768D01*
X124751467Y-89166772D01*
X124746779Y-89175972D01*
X124698218Y-89271280D01*
X124690273Y-89286872D01*
X124669190Y-89419991D01*
X124669190Y-89419996D01*
X100190500Y-89419996D01*
X100190499Y-88651838D01*
X100187709Y-88616373D01*
X100143618Y-88464610D01*
X100091671Y-88376773D01*
X100063172Y-88328583D01*
X100063165Y-88328574D01*
X100009593Y-88275002D01*
X121669196Y-88275002D01*
X121690279Y-88408121D01*
X121690280Y-88408124D01*
X121690281Y-88408126D01*
X121751472Y-88528220D01*
X121751473Y-88528221D01*
X121751476Y-88528225D01*
X121846774Y-88623523D01*
X121846778Y-88623526D01*
X121846780Y-88623528D01*
X121966874Y-88684719D01*
X121966876Y-88684719D01*
X121966878Y-88684720D01*
X122099998Y-88705804D01*
X122100000Y-88705804D01*
X122100002Y-88705804D01*
X122233121Y-88684720D01*
X122233121Y-88684719D01*
X122233126Y-88684719D01*
X122353220Y-88623528D01*
X122448528Y-88528220D01*
X122509719Y-88408126D01*
X122512590Y-88390000D01*
X122530804Y-88275002D01*
X122530804Y-88274997D01*
X122509720Y-88141878D01*
X122509719Y-88141876D01*
X122509719Y-88141874D01*
X122485305Y-88093959D01*
X122472410Y-88025294D01*
X122498686Y-87960554D01*
X122555792Y-87920296D01*
X122625598Y-87917304D01*
X122652082Y-87927182D01*
X122666874Y-87934719D01*
X122666875Y-87934719D01*
X122666877Y-87934720D01*
X122799998Y-87955804D01*
X122800000Y-87955804D01*
X122800002Y-87955804D01*
X122933121Y-87934720D01*
X122933121Y-87934719D01*
X122933126Y-87934719D01*
X123053220Y-87873528D01*
X123087341Y-87839407D01*
X123148663Y-87805921D01*
X123218355Y-87810905D01*
X123231317Y-87816602D01*
X123266876Y-87834720D01*
X123399998Y-87855804D01*
X123400000Y-87855804D01*
X123400002Y-87855804D01*
X123533121Y-87834720D01*
X123533121Y-87834719D01*
X123533126Y-87834719D01*
X123653220Y-87773528D01*
X123748528Y-87678220D01*
X123788382Y-87600002D01*
X128794196Y-87600002D01*
X128815279Y-87733121D01*
X128815280Y-87733124D01*
X128815281Y-87733126D01*
X128876472Y-87853220D01*
X128876473Y-87853221D01*
X128876476Y-87853225D01*
X128910570Y-87887319D01*
X128944055Y-87948642D01*
X128939071Y-88018334D01*
X128910570Y-88062681D01*
X128881654Y-88091596D01*
X128881651Y-88091600D01*
X128820457Y-88211700D01*
X128799374Y-88344819D01*
X128799374Y-88344824D01*
X128820457Y-88477943D01*
X128820458Y-88477946D01*
X128820459Y-88477948D01*
X128881650Y-88598042D01*
X128881651Y-88598043D01*
X128881654Y-88598047D01*
X128976952Y-88693345D01*
X128976956Y-88693348D01*
X128976958Y-88693350D01*
X129097052Y-88754541D01*
X129097054Y-88754541D01*
X129097056Y-88754542D01*
X129230176Y-88775626D01*
X129230178Y-88775626D01*
X129230180Y-88775626D01*
X129363299Y-88754542D01*
X129363299Y-88754541D01*
X129363304Y-88754541D01*
X129483398Y-88693350D01*
X129536746Y-88640002D01*
X131619196Y-88640002D01*
X131640279Y-88773121D01*
X131640280Y-88773124D01*
X131640281Y-88773126D01*
X131701472Y-88893220D01*
X131701473Y-88893221D01*
X131701476Y-88893225D01*
X131796774Y-88988523D01*
X131796778Y-88988526D01*
X131796780Y-88988528D01*
X131916874Y-89049719D01*
X131916876Y-89049719D01*
X131916878Y-89049720D01*
X132049998Y-89070804D01*
X132059759Y-89070804D01*
X132059759Y-89074867D01*
X132109232Y-89080999D01*
X132162918Y-89125715D01*
X132183906Y-89192358D01*
X132182404Y-89214173D01*
X132177649Y-89244196D01*
X132169197Y-89297565D01*
X132169196Y-89297570D01*
X132190279Y-89430689D01*
X132190280Y-89430692D01*
X132190281Y-89430694D01*
X132251472Y-89550788D01*
X132251473Y-89550789D01*
X132251476Y-89550793D01*
X132346774Y-89646091D01*
X132346778Y-89646094D01*
X132346780Y-89646096D01*
X132466874Y-89707287D01*
X132466876Y-89707287D01*
X132466878Y-89707288D01*
X132599998Y-89728372D01*
X132600000Y-89728372D01*
X132600002Y-89728372D01*
X132733121Y-89707288D01*
X132733121Y-89707287D01*
X132733126Y-89707287D01*
X132853220Y-89646096D01*
X132948528Y-89550788D01*
X133009719Y-89430694D01*
X133011132Y-89421774D01*
X133016164Y-89390002D01*
X133399196Y-89390002D01*
X133420279Y-89523121D01*
X133420280Y-89523124D01*
X133420281Y-89523126D01*
X133478953Y-89638276D01*
X133481473Y-89643221D01*
X133481476Y-89643225D01*
X133576774Y-89738523D01*
X133576778Y-89738526D01*
X133576780Y-89738528D01*
X133696874Y-89799719D01*
X133696876Y-89799719D01*
X133696878Y-89799720D01*
X133829998Y-89820804D01*
X133830000Y-89820804D01*
X133830002Y-89820804D01*
X133963121Y-89799720D01*
X133963121Y-89799719D01*
X133963126Y-89799719D01*
X134083220Y-89738528D01*
X134146746Y-89675002D01*
X135469196Y-89675002D01*
X135490279Y-89808121D01*
X135490280Y-89808124D01*
X135490281Y-89808126D01*
X135551472Y-89928220D01*
X135551473Y-89928221D01*
X135551476Y-89928225D01*
X135646774Y-90023523D01*
X135646778Y-90023526D01*
X135646780Y-90023528D01*
X135766874Y-90084719D01*
X135766876Y-90084719D01*
X135766878Y-90084720D01*
X135899998Y-90105804D01*
X135900000Y-90105804D01*
X135900002Y-90105804D01*
X136033121Y-90084720D01*
X136033121Y-90084719D01*
X136033126Y-90084719D01*
X136153220Y-90023528D01*
X136248528Y-89928220D01*
X136309719Y-89808126D01*
X136309720Y-89808121D01*
X136330804Y-89675002D01*
X136330804Y-89674997D01*
X136309720Y-89541878D01*
X136309719Y-89541876D01*
X136309719Y-89541874D01*
X136300868Y-89524502D01*
X143006446Y-89524502D01*
X143027529Y-89657621D01*
X143027530Y-89657624D01*
X143027531Y-89657626D01*
X143088722Y-89777720D01*
X143088723Y-89777721D01*
X143088726Y-89777725D01*
X143184024Y-89873023D01*
X143184028Y-89873026D01*
X143184030Y-89873028D01*
X143304124Y-89934219D01*
X143338735Y-89939700D01*
X143401869Y-89969629D01*
X143437265Y-90023848D01*
X143440277Y-90033117D01*
X143440280Y-90033124D01*
X143440281Y-90033126D01*
X143501472Y-90153220D01*
X143501473Y-90153221D01*
X143501476Y-90153225D01*
X143596774Y-90248523D01*
X143596778Y-90248526D01*
X143596780Y-90248528D01*
X143716874Y-90309719D01*
X143716876Y-90309719D01*
X143716878Y-90309720D01*
X143849998Y-90330804D01*
X143850000Y-90330804D01*
X143850002Y-90330804D01*
X143983121Y-90309720D01*
X143983121Y-90309719D01*
X143983126Y-90309719D01*
X144103220Y-90248528D01*
X144198528Y-90153220D01*
X144259719Y-90033126D01*
X144259720Y-90033121D01*
X144280804Y-89900002D01*
X144280804Y-89899997D01*
X144259720Y-89766878D01*
X144259719Y-89766876D01*
X144259719Y-89766874D01*
X144198528Y-89646780D01*
X144198526Y-89646778D01*
X144198523Y-89646774D01*
X144103225Y-89551476D01*
X144103221Y-89551473D01*
X144103220Y-89551472D01*
X143983126Y-89490281D01*
X143983124Y-89490280D01*
X143983121Y-89490279D01*
X143948513Y-89484798D01*
X143885378Y-89454869D01*
X143849980Y-89400642D01*
X143846969Y-89391379D01*
X143846969Y-89391374D01*
X143785778Y-89271280D01*
X143785776Y-89271278D01*
X143785773Y-89271274D01*
X143690475Y-89175976D01*
X143690471Y-89175973D01*
X143690470Y-89175972D01*
X143570376Y-89114781D01*
X143570374Y-89114780D01*
X143570371Y-89114779D01*
X143437252Y-89093696D01*
X143437248Y-89093696D01*
X143304128Y-89114779D01*
X143304124Y-89114780D01*
X143304124Y-89114781D01*
X143260949Y-89136780D01*
X143184028Y-89175973D01*
X143184024Y-89175976D01*
X143088726Y-89271274D01*
X143088723Y-89271278D01*
X143027529Y-89391378D01*
X143006446Y-89524497D01*
X143006446Y-89524502D01*
X136300868Y-89524502D01*
X136248528Y-89421780D01*
X136248526Y-89421778D01*
X136248523Y-89421774D01*
X136153225Y-89326476D01*
X136153221Y-89326473D01*
X136153220Y-89326472D01*
X136033126Y-89265281D01*
X136033124Y-89265280D01*
X136033121Y-89265279D01*
X135900002Y-89244196D01*
X135899998Y-89244196D01*
X135766878Y-89265279D01*
X135646778Y-89326473D01*
X135646774Y-89326476D01*
X135551476Y-89421774D01*
X135551473Y-89421778D01*
X135551472Y-89421780D01*
X135499133Y-89524502D01*
X135490279Y-89541878D01*
X135469196Y-89674997D01*
X135469196Y-89675002D01*
X134146746Y-89675002D01*
X134178528Y-89643220D01*
X134239719Y-89523126D01*
X134244921Y-89490281D01*
X134260804Y-89390002D01*
X134260804Y-89389997D01*
X134241462Y-89267875D01*
X134250417Y-89198581D01*
X134295413Y-89145129D01*
X134362165Y-89124490D01*
X134420230Y-89137992D01*
X134421277Y-89138525D01*
X134421280Y-89138528D01*
X134541374Y-89199719D01*
X134541376Y-89199719D01*
X134541378Y-89199720D01*
X134674498Y-89220804D01*
X134674500Y-89220804D01*
X134674502Y-89220804D01*
X134807621Y-89199720D01*
X134807621Y-89199719D01*
X134807626Y-89199719D01*
X134927720Y-89138528D01*
X135023028Y-89043220D01*
X135024669Y-89040000D01*
X141599196Y-89040000D01*
X141620279Y-89173119D01*
X141620280Y-89173122D01*
X141620281Y-89173124D01*
X141678237Y-89286868D01*
X141681473Y-89293219D01*
X141681476Y-89293223D01*
X141776774Y-89388521D01*
X141776778Y-89388524D01*
X141776780Y-89388526D01*
X141896874Y-89449717D01*
X141896876Y-89449717D01*
X141896878Y-89449718D01*
X142029998Y-89470802D01*
X142030000Y-89470802D01*
X142030002Y-89470802D01*
X142163121Y-89449718D01*
X142163121Y-89449717D01*
X142163126Y-89449717D01*
X142283220Y-89388526D01*
X142378528Y-89293218D01*
X142439719Y-89173124D01*
X142440726Y-89166768D01*
X142460804Y-89040000D01*
X142460804Y-89039995D01*
X142439720Y-88906876D01*
X142439719Y-88906874D01*
X142439719Y-88906872D01*
X142378528Y-88786778D01*
X142378526Y-88786776D01*
X142378523Y-88786772D01*
X142283225Y-88691474D01*
X142283221Y-88691471D01*
X142283220Y-88691470D01*
X142163126Y-88630279D01*
X142163124Y-88630278D01*
X142163121Y-88630277D01*
X142030002Y-88609194D01*
X142029998Y-88609194D01*
X141896878Y-88630277D01*
X141896874Y-88630278D01*
X141896874Y-88630279D01*
X141877794Y-88640001D01*
X141776778Y-88691471D01*
X141776774Y-88691474D01*
X141681476Y-88786772D01*
X141681473Y-88786776D01*
X141681472Y-88786778D01*
X141627235Y-88893225D01*
X141620279Y-88906876D01*
X141599196Y-89039995D01*
X141599196Y-89040000D01*
X135024669Y-89040000D01*
X135084219Y-88923126D01*
X135084801Y-88919454D01*
X135105304Y-88790002D01*
X135105304Y-88789997D01*
X135084220Y-88656878D01*
X135084219Y-88656876D01*
X135084219Y-88656874D01*
X135023028Y-88536780D01*
X135023026Y-88536778D01*
X135023023Y-88536774D01*
X134927725Y-88441476D01*
X134927721Y-88441473D01*
X134927720Y-88441472D01*
X134807626Y-88380281D01*
X134807624Y-88380280D01*
X134807621Y-88380279D01*
X134674502Y-88359196D01*
X134674498Y-88359196D01*
X134541378Y-88380279D01*
X134541374Y-88380280D01*
X134541374Y-88380281D01*
X134486735Y-88408121D01*
X134421278Y-88441473D01*
X134421274Y-88441476D01*
X134325976Y-88536774D01*
X134325973Y-88536778D01*
X134325972Y-88536780D01*
X134267348Y-88651837D01*
X134264779Y-88656878D01*
X134244206Y-88786778D01*
X134243696Y-88790000D01*
X134247049Y-88811171D01*
X134263038Y-88912125D01*
X134254082Y-88981419D01*
X134209085Y-89034870D01*
X134142334Y-89055509D01*
X134084269Y-89042007D01*
X134083221Y-89041473D01*
X134083220Y-89041472D01*
X133963126Y-88980281D01*
X133963124Y-88980280D01*
X133963121Y-88980279D01*
X133830002Y-88959196D01*
X133829998Y-88959196D01*
X133696878Y-88980279D01*
X133576778Y-89041473D01*
X133576774Y-89041476D01*
X133481476Y-89136774D01*
X133481473Y-89136778D01*
X133420279Y-89256878D01*
X133399196Y-89389997D01*
X133399196Y-89390002D01*
X133016164Y-89390002D01*
X133030804Y-89297570D01*
X133030804Y-89297565D01*
X133009720Y-89164446D01*
X133009719Y-89164444D01*
X133009719Y-89164442D01*
X132948528Y-89044348D01*
X132948526Y-89044346D01*
X132948523Y-89044342D01*
X132880423Y-88976242D01*
X132849414Y-88919454D01*
X132840741Y-88922690D01*
X132775601Y-88909491D01*
X132733123Y-88887847D01*
X132600002Y-88866764D01*
X132590241Y-88866764D01*
X132590241Y-88862801D01*
X132540018Y-88856241D01*
X132486627Y-88811171D01*
X132466079Y-88744391D01*
X132467596Y-88723393D01*
X132480804Y-88640001D01*
X132480804Y-88639997D01*
X132459720Y-88506878D01*
X132459719Y-88506876D01*
X132459719Y-88506874D01*
X132400170Y-88390002D01*
X132769196Y-88390002D01*
X132790279Y-88523121D01*
X132790280Y-88523124D01*
X132790281Y-88523126D01*
X132851472Y-88643220D01*
X132851473Y-88643221D01*
X132851476Y-88643225D01*
X132919576Y-88711325D01*
X132950584Y-88768112D01*
X132959258Y-88764877D01*
X133024396Y-88778075D01*
X133066874Y-88799719D01*
X133066876Y-88799719D01*
X133066878Y-88799720D01*
X133199998Y-88820804D01*
X133200000Y-88820804D01*
X133200002Y-88820804D01*
X133333121Y-88799720D01*
X133333121Y-88799719D01*
X133333126Y-88799719D01*
X133453220Y-88738528D01*
X133548528Y-88643220D01*
X133609719Y-88523126D01*
X133611580Y-88511379D01*
X133630804Y-88390002D01*
X133630804Y-88389997D01*
X133609720Y-88256878D01*
X133609719Y-88256876D01*
X133609719Y-88256874D01*
X133548528Y-88136780D01*
X133548526Y-88136778D01*
X133548523Y-88136774D01*
X133453225Y-88041476D01*
X133453221Y-88041473D01*
X133453220Y-88041472D01*
X133333126Y-87980281D01*
X133333124Y-87980280D01*
X133333121Y-87980279D01*
X133200002Y-87959196D01*
X133199998Y-87959196D01*
X133066878Y-87980279D01*
X132946778Y-88041473D01*
X132946774Y-88041476D01*
X132851476Y-88136774D01*
X132851473Y-88136778D01*
X132790279Y-88256878D01*
X132769196Y-88389997D01*
X132769196Y-88390002D01*
X132400170Y-88390002D01*
X132398528Y-88386780D01*
X132398526Y-88386778D01*
X132398523Y-88386774D01*
X132303225Y-88291476D01*
X132303221Y-88291473D01*
X132303220Y-88291472D01*
X132183126Y-88230281D01*
X132183124Y-88230280D01*
X132183121Y-88230279D01*
X132050002Y-88209196D01*
X132049998Y-88209196D01*
X131916878Y-88230279D01*
X131916874Y-88230280D01*
X131916874Y-88230281D01*
X131836811Y-88271075D01*
X131796778Y-88291473D01*
X131796774Y-88291476D01*
X131701476Y-88386774D01*
X131701473Y-88386778D01*
X131640279Y-88506878D01*
X131619196Y-88639997D01*
X131619196Y-88640002D01*
X129536746Y-88640002D01*
X129578706Y-88598042D01*
X129639897Y-88477948D01*
X129650956Y-88408126D01*
X129660982Y-88344824D01*
X129660982Y-88344819D01*
X129639898Y-88211699D01*
X129639897Y-88211697D01*
X129639897Y-88211696D01*
X129627281Y-88186936D01*
X129614385Y-88118270D01*
X129640661Y-88053529D01*
X129697767Y-88013271D01*
X129756831Y-88010739D01*
X129757235Y-88008193D01*
X129899998Y-88030804D01*
X129900000Y-88030804D01*
X129900002Y-88030804D01*
X130033121Y-88009720D01*
X130033121Y-88009719D01*
X130033126Y-88009719D01*
X130153220Y-87948528D01*
X130187341Y-87914407D01*
X130248663Y-87880921D01*
X130318355Y-87885905D01*
X130331317Y-87891602D01*
X130366876Y-87909720D01*
X130499998Y-87930804D01*
X130500000Y-87930804D01*
X130500002Y-87930804D01*
X130633121Y-87909720D01*
X130633121Y-87909719D01*
X130633126Y-87909719D01*
X130753220Y-87848528D01*
X130848528Y-87753220D01*
X130909719Y-87633126D01*
X130912117Y-87617988D01*
X130930804Y-87500002D01*
X130930804Y-87499997D01*
X130909720Y-87366877D01*
X130909719Y-87366875D01*
X130909719Y-87366874D01*
X130885220Y-87318793D01*
X130872324Y-87250128D01*
X130885219Y-87206208D01*
X130909719Y-87158126D01*
X130910283Y-87154570D01*
X130930804Y-87025002D01*
X130930804Y-87024997D01*
X130909720Y-86891878D01*
X130909719Y-86891876D01*
X130909719Y-86891874D01*
X130875646Y-86825002D01*
X134219196Y-86825002D01*
X134240279Y-86958121D01*
X134240280Y-86958124D01*
X134240281Y-86958126D01*
X134301472Y-87078220D01*
X134301473Y-87078221D01*
X134301476Y-87078225D01*
X134396774Y-87173523D01*
X134396778Y-87173526D01*
X134396780Y-87173528D01*
X134516874Y-87234719D01*
X134516876Y-87234719D01*
X134516878Y-87234720D01*
X134649998Y-87255804D01*
X134650000Y-87255804D01*
X134650002Y-87255804D01*
X134783121Y-87234720D01*
X134783121Y-87234719D01*
X134783126Y-87234719D01*
X134903220Y-87173528D01*
X134998528Y-87078220D01*
X135059719Y-86958126D01*
X135061006Y-86950000D01*
X135080804Y-86825002D01*
X135080804Y-86824997D01*
X135059720Y-86691878D01*
X135059719Y-86691876D01*
X135059719Y-86691874D01*
X134998528Y-86571780D01*
X134998526Y-86571778D01*
X134998523Y-86571774D01*
X134903225Y-86476476D01*
X134903221Y-86476473D01*
X134903220Y-86476472D01*
X134783126Y-86415281D01*
X134783124Y-86415280D01*
X134783121Y-86415279D01*
X134650002Y-86394196D01*
X134649998Y-86394196D01*
X134516878Y-86415279D01*
X134396778Y-86476473D01*
X134396774Y-86476476D01*
X134301476Y-86571774D01*
X134301473Y-86571778D01*
X134240279Y-86691878D01*
X134219196Y-86824997D01*
X134219196Y-86825002D01*
X130875646Y-86825002D01*
X130848528Y-86771780D01*
X130848526Y-86771778D01*
X130848523Y-86771774D01*
X130753225Y-86676476D01*
X130753221Y-86676473D01*
X130753220Y-86676472D01*
X130633126Y-86615281D01*
X130633124Y-86615280D01*
X130633121Y-86615279D01*
X130500002Y-86594196D01*
X130499998Y-86594196D01*
X130366878Y-86615279D01*
X130246778Y-86676473D01*
X130246774Y-86676476D01*
X130151476Y-86771774D01*
X130151473Y-86771778D01*
X130090279Y-86891878D01*
X130070205Y-87018627D01*
X130069196Y-87025000D01*
X130070277Y-87031825D01*
X130061320Y-87101119D01*
X130016323Y-87154570D01*
X129949571Y-87175208D01*
X129928407Y-87173695D01*
X129912271Y-87171139D01*
X129900000Y-87169196D01*
X129899999Y-87169196D01*
X129899998Y-87169196D01*
X129766878Y-87190279D01*
X129646778Y-87251473D01*
X129638881Y-87257211D01*
X129637335Y-87255084D01*
X129588858Y-87281555D01*
X129519166Y-87276571D01*
X129487049Y-87255930D01*
X129486119Y-87257211D01*
X129478221Y-87251473D01*
X129478220Y-87251472D01*
X129358126Y-87190281D01*
X129358124Y-87190280D01*
X129358121Y-87190279D01*
X129225002Y-87169196D01*
X129224998Y-87169196D01*
X129091878Y-87190279D01*
X128971778Y-87251473D01*
X128971774Y-87251476D01*
X128876476Y-87346774D01*
X128876473Y-87346778D01*
X128876472Y-87346780D01*
X128840100Y-87418165D01*
X128815279Y-87466878D01*
X128794196Y-87599997D01*
X128794196Y-87600002D01*
X123788382Y-87600002D01*
X123809719Y-87558126D01*
X123809720Y-87558121D01*
X123830804Y-87425002D01*
X123830804Y-87424997D01*
X123809720Y-87291877D01*
X123809719Y-87291875D01*
X123809719Y-87291874D01*
X123785220Y-87243793D01*
X123772324Y-87175128D01*
X123785219Y-87131208D01*
X123809719Y-87083126D01*
X123810283Y-87079570D01*
X123830804Y-86950002D01*
X123830804Y-86949997D01*
X123809720Y-86816878D01*
X123809719Y-86816876D01*
X123809719Y-86816874D01*
X123748528Y-86696780D01*
X123748526Y-86696778D01*
X123748523Y-86696774D01*
X123653225Y-86601476D01*
X123653221Y-86601473D01*
X123653220Y-86601472D01*
X123533126Y-86540281D01*
X123533124Y-86540280D01*
X123533121Y-86540279D01*
X123400002Y-86519196D01*
X123399998Y-86519196D01*
X123266878Y-86540279D01*
X123146778Y-86601473D01*
X123146774Y-86601476D01*
X123051476Y-86696774D01*
X123051473Y-86696778D01*
X122990279Y-86816878D01*
X122969196Y-86949997D01*
X122969196Y-86950000D01*
X122970277Y-86956825D01*
X122961320Y-87026119D01*
X122916323Y-87079570D01*
X122849571Y-87100208D01*
X122828407Y-87098695D01*
X122812271Y-87096139D01*
X122800000Y-87094196D01*
X122799999Y-87094196D01*
X122799998Y-87094196D01*
X122666878Y-87115279D01*
X122546778Y-87176473D01*
X122538881Y-87182211D01*
X122537335Y-87180084D01*
X122488858Y-87206555D01*
X122419166Y-87201571D01*
X122387049Y-87180930D01*
X122386119Y-87182211D01*
X122378221Y-87176473D01*
X122378220Y-87176472D01*
X122258126Y-87115281D01*
X122258124Y-87115280D01*
X122258121Y-87115279D01*
X122125002Y-87094196D01*
X122124998Y-87094196D01*
X121991878Y-87115279D01*
X121871778Y-87176473D01*
X121871774Y-87176476D01*
X121776476Y-87271774D01*
X121776473Y-87271778D01*
X121715279Y-87391878D01*
X121694196Y-87524997D01*
X121694196Y-87525002D01*
X121715279Y-87658121D01*
X121715280Y-87658124D01*
X121715281Y-87658126D01*
X121776472Y-87778220D01*
X121798070Y-87799818D01*
X121831555Y-87861139D01*
X121826572Y-87930831D01*
X121798071Y-87975179D01*
X121751476Y-88021774D01*
X121751473Y-88021778D01*
X121690279Y-88141878D01*
X121669196Y-88274997D01*
X121669196Y-88275002D01*
X100009593Y-88275002D01*
X99951425Y-88216834D01*
X99951416Y-88216827D01*
X99815390Y-88136382D01*
X99815385Y-88136380D01*
X99663633Y-88092292D01*
X99663620Y-88092290D01*
X99628165Y-88089500D01*
X99628163Y-88089500D01*
X99627963Y-88089500D01*
X97924500Y-88089500D01*
X97857461Y-88069815D01*
X97811706Y-88017011D01*
X97800500Y-87965500D01*
X97800500Y-87400002D01*
X118569196Y-87400002D01*
X118590279Y-87533121D01*
X118590280Y-87533124D01*
X118590281Y-87533126D01*
X118641234Y-87633126D01*
X118651473Y-87653221D01*
X118651476Y-87653225D01*
X118746774Y-87748523D01*
X118746778Y-87748526D01*
X118746780Y-87748528D01*
X118866874Y-87809719D01*
X118866876Y-87809719D01*
X118866878Y-87809720D01*
X118999998Y-87830804D01*
X119000000Y-87830804D01*
X119047339Y-87823306D01*
X119116631Y-87832260D01*
X119170084Y-87877256D01*
X119189210Y-87926378D01*
X119190279Y-87933132D01*
X119190280Y-87933135D01*
X119190281Y-87933136D01*
X119240045Y-88030804D01*
X119251473Y-88053231D01*
X119251476Y-88053235D01*
X119346774Y-88148533D01*
X119346778Y-88148536D01*
X119346780Y-88148538D01*
X119466874Y-88209729D01*
X119466876Y-88209729D01*
X119466878Y-88209730D01*
X119599998Y-88230814D01*
X119600000Y-88230814D01*
X119600002Y-88230814D01*
X119733121Y-88209730D01*
X119733121Y-88209729D01*
X119733126Y-88209729D01*
X119853220Y-88148538D01*
X119948528Y-88053230D01*
X120009719Y-87933136D01*
X120010084Y-87930831D01*
X120030804Y-87800012D01*
X120030804Y-87800007D01*
X120009720Y-87666888D01*
X120009719Y-87666886D01*
X120009719Y-87666884D01*
X119948528Y-87546790D01*
X119948526Y-87546788D01*
X119948523Y-87546784D01*
X119853225Y-87451486D01*
X119853221Y-87451483D01*
X119853220Y-87451482D01*
X119733126Y-87390291D01*
X119733124Y-87390290D01*
X119733121Y-87390289D01*
X119600002Y-87369206D01*
X119600000Y-87369206D01*
X119552659Y-87376704D01*
X119483365Y-87367748D01*
X119429914Y-87322751D01*
X119410788Y-87273625D01*
X119410496Y-87271780D01*
X119409719Y-87266874D01*
X119348528Y-87146780D01*
X119348526Y-87146778D01*
X119348523Y-87146774D01*
X119253225Y-87051476D01*
X119253221Y-87051473D01*
X119253220Y-87051472D01*
X119133126Y-86990281D01*
X119133124Y-86990280D01*
X119133121Y-86990279D01*
X119000002Y-86969196D01*
X118999998Y-86969196D01*
X118866878Y-86990279D01*
X118746778Y-87051473D01*
X118746774Y-87051476D01*
X118651476Y-87146774D01*
X118651473Y-87146778D01*
X118590279Y-87266878D01*
X118569196Y-87399997D01*
X118569196Y-87400002D01*
X97800500Y-87400002D01*
X97800500Y-85350002D01*
X106719196Y-85350002D01*
X106740279Y-85483121D01*
X106740280Y-85483124D01*
X106740281Y-85483126D01*
X106801472Y-85603220D01*
X106801473Y-85603221D01*
X106801476Y-85603225D01*
X106896774Y-85698523D01*
X106896778Y-85698526D01*
X106896780Y-85698528D01*
X107016874Y-85759719D01*
X107016876Y-85759719D01*
X107016878Y-85759720D01*
X107149998Y-85780804D01*
X107150000Y-85780804D01*
X107150002Y-85780804D01*
X107283121Y-85759720D01*
X107283121Y-85759719D01*
X107283126Y-85759719D01*
X107403220Y-85698528D01*
X107498528Y-85603220D01*
X107527950Y-85545476D01*
X115769196Y-85545476D01*
X115790279Y-85678595D01*
X115790280Y-85678598D01*
X115790281Y-85678600D01*
X115831614Y-85759720D01*
X115851473Y-85798695D01*
X115851476Y-85798699D01*
X115946774Y-85893997D01*
X115946778Y-85894000D01*
X115946780Y-85894002D01*
X116066874Y-85955193D01*
X116066876Y-85955193D01*
X116066878Y-85955194D01*
X116199998Y-85976278D01*
X116200000Y-85976278D01*
X116200002Y-85976278D01*
X116333121Y-85955194D01*
X116333121Y-85955193D01*
X116333126Y-85955193D01*
X116453220Y-85894002D01*
X116548528Y-85798694D01*
X116609719Y-85678600D01*
X116630804Y-85545474D01*
X116622237Y-85491382D01*
X116608193Y-85402709D01*
X116609505Y-85402501D01*
X116607795Y-85342738D01*
X116609309Y-85340226D01*
X116605042Y-85339737D01*
X116552991Y-85298397D01*
X116548526Y-85292251D01*
X116475960Y-85219685D01*
X116442475Y-85158362D01*
X116447459Y-85088670D01*
X116489331Y-85032737D01*
X116507337Y-85021525D01*
X116513220Y-85018528D01*
X116524739Y-85007008D01*
X116586060Y-84973524D01*
X116655751Y-84978506D01*
X116668703Y-84984198D01*
X116689018Y-84994549D01*
X116739813Y-85042523D01*
X116755195Y-85085635D01*
X116772844Y-85197065D01*
X116771532Y-85197272D01*
X116773239Y-85257043D01*
X116771730Y-85259544D01*
X116775986Y-85260033D01*
X116828045Y-85301374D01*
X116832507Y-85307517D01*
X116832509Y-85307520D01*
X116832510Y-85307521D01*
X116832514Y-85307526D01*
X116927811Y-85402823D01*
X116927815Y-85402826D01*
X116927817Y-85402828D01*
X117047911Y-85464019D01*
X117047913Y-85464019D01*
X117047915Y-85464020D01*
X117181035Y-85485104D01*
X117181037Y-85485104D01*
X117181039Y-85485104D01*
X117314158Y-85464020D01*
X117314158Y-85464019D01*
X117314163Y-85464019D01*
X117434257Y-85402828D01*
X117529565Y-85307520D01*
X117590756Y-85187426D01*
X117591499Y-85182736D01*
X117611841Y-85054302D01*
X117611841Y-85054297D01*
X117590757Y-84921178D01*
X117590756Y-84921176D01*
X117590756Y-84921174D01*
X117529565Y-84801080D01*
X117529563Y-84801078D01*
X117529560Y-84801074D01*
X117434262Y-84705776D01*
X117434257Y-84705772D01*
X117392018Y-84684250D01*
X117341223Y-84636276D01*
X117325841Y-84593163D01*
X117309720Y-84491378D01*
X117309719Y-84491376D01*
X117309719Y-84491374D01*
X117248528Y-84371280D01*
X117248526Y-84371278D01*
X117248523Y-84371274D01*
X117153225Y-84275976D01*
X117153221Y-84275973D01*
X117153220Y-84275972D01*
X117102251Y-84250002D01*
X119419196Y-84250002D01*
X119440279Y-84383121D01*
X119440280Y-84383124D01*
X119440281Y-84383126D01*
X119501472Y-84503220D01*
X119501473Y-84503221D01*
X119501476Y-84503225D01*
X119596774Y-84598523D01*
X119596778Y-84598526D01*
X119596780Y-84598528D01*
X119716874Y-84659719D01*
X119716876Y-84659719D01*
X119716878Y-84659720D01*
X119849998Y-84680804D01*
X119850000Y-84680804D01*
X119850002Y-84680804D01*
X119983121Y-84659720D01*
X119983121Y-84659719D01*
X119983126Y-84659719D01*
X120103220Y-84598528D01*
X120198528Y-84503220D01*
X120259719Y-84383126D01*
X120261596Y-84371274D01*
X120280804Y-84250002D01*
X120280804Y-84249997D01*
X120259720Y-84116878D01*
X120259719Y-84116876D01*
X120259719Y-84116874D01*
X120198528Y-83996780D01*
X120198526Y-83996778D01*
X120198523Y-83996774D01*
X120103225Y-83901476D01*
X120103221Y-83901473D01*
X120103220Y-83901472D01*
X119983126Y-83840281D01*
X119983124Y-83840280D01*
X119983121Y-83840279D01*
X119850002Y-83819196D01*
X119849998Y-83819196D01*
X119716878Y-83840279D01*
X119596778Y-83901473D01*
X119596774Y-83901476D01*
X119501476Y-83996774D01*
X119501473Y-83996778D01*
X119440279Y-84116878D01*
X119419196Y-84249997D01*
X119419196Y-84250002D01*
X117102251Y-84250002D01*
X117033126Y-84214781D01*
X117033124Y-84214780D01*
X117033121Y-84214779D01*
X116900002Y-84193696D01*
X116899998Y-84193696D01*
X116766878Y-84214779D01*
X116646778Y-84275973D01*
X116646776Y-84275974D01*
X116635257Y-84287494D01*
X116573933Y-84320977D01*
X116504241Y-84315991D01*
X116491289Y-84310297D01*
X116393126Y-84260281D01*
X116393124Y-84260280D01*
X116393121Y-84260279D01*
X116260002Y-84239196D01*
X116259998Y-84239196D01*
X116126878Y-84260279D01*
X116006778Y-84321473D01*
X116006774Y-84321476D01*
X115911476Y-84416774D01*
X115911473Y-84416778D01*
X115850279Y-84536878D01*
X115829196Y-84669997D01*
X115829196Y-84670002D01*
X115850279Y-84803121D01*
X115850280Y-84803124D01*
X115850281Y-84803126D01*
X115909422Y-84919196D01*
X115911473Y-84923221D01*
X115911476Y-84923225D01*
X115984039Y-84995788D01*
X116017524Y-85057111D01*
X116012540Y-85126803D01*
X115970668Y-85182736D01*
X115952654Y-85193953D01*
X115946781Y-85196945D01*
X115946774Y-85196950D01*
X115851476Y-85292248D01*
X115851473Y-85292252D01*
X115790279Y-85412352D01*
X115769196Y-85545471D01*
X115769196Y-85545476D01*
X107527950Y-85545476D01*
X107559719Y-85483126D01*
X107567612Y-85433294D01*
X107580804Y-85350002D01*
X107580804Y-85349997D01*
X107559720Y-85216878D01*
X107559719Y-85216876D01*
X107559719Y-85216874D01*
X107498528Y-85096780D01*
X107498526Y-85096778D01*
X107498523Y-85096774D01*
X107403225Y-85001476D01*
X107403221Y-85001473D01*
X107403220Y-85001472D01*
X107283126Y-84940281D01*
X107283124Y-84940280D01*
X107283121Y-84940279D01*
X107150002Y-84919196D01*
X107149998Y-84919196D01*
X107016878Y-84940279D01*
X106896778Y-85001473D01*
X106896774Y-85001476D01*
X106801476Y-85096774D01*
X106801473Y-85096778D01*
X106740279Y-85216878D01*
X106719196Y-85349997D01*
X106719196Y-85350002D01*
X97800500Y-85350002D01*
X97800500Y-85234499D01*
X97820185Y-85167460D01*
X97872989Y-85121705D01*
X97924500Y-85110499D01*
X99628162Y-85110499D01*
X99663627Y-85107709D01*
X99815390Y-85063618D01*
X99951420Y-84983170D01*
X100063170Y-84871420D01*
X100143618Y-84735390D01*
X100187709Y-84583627D01*
X100190500Y-84548163D01*
X100190500Y-84150002D01*
X107044196Y-84150002D01*
X107065279Y-84283121D01*
X107065280Y-84283124D01*
X107065281Y-84283126D01*
X107116234Y-84383126D01*
X107126473Y-84403221D01*
X107126476Y-84403225D01*
X107221774Y-84498523D01*
X107221778Y-84498526D01*
X107221780Y-84498528D01*
X107341874Y-84559719D01*
X107341876Y-84559719D01*
X107341878Y-84559720D01*
X107474998Y-84580804D01*
X107475000Y-84580804D01*
X107475002Y-84580804D01*
X107608121Y-84559720D01*
X107608121Y-84559719D01*
X107608126Y-84559719D01*
X107728220Y-84498528D01*
X107823528Y-84403220D01*
X107884719Y-84283126D01*
X107884720Y-84283121D01*
X107905804Y-84150002D01*
X107905804Y-84149997D01*
X107884720Y-84016878D01*
X107884719Y-84016876D01*
X107884719Y-84016874D01*
X107823528Y-83896780D01*
X107823526Y-83896778D01*
X107823523Y-83896774D01*
X107728225Y-83801476D01*
X107728221Y-83801473D01*
X107728220Y-83801472D01*
X107608126Y-83740281D01*
X107608124Y-83740280D01*
X107608121Y-83740279D01*
X107475002Y-83719196D01*
X107474998Y-83719196D01*
X107341878Y-83740279D01*
X107221778Y-83801473D01*
X107221774Y-83801476D01*
X107126476Y-83896774D01*
X107126473Y-83896778D01*
X107065279Y-84016878D01*
X107044196Y-84149997D01*
X107044196Y-84150002D01*
X100190500Y-84150002D01*
X100190499Y-83571838D01*
X100187709Y-83536373D01*
X100143618Y-83384610D01*
X100136921Y-83373287D01*
X100119739Y-83305568D01*
X100141897Y-83239305D01*
X100196362Y-83195540D01*
X100259837Y-83187229D01*
X100400000Y-83205682D01*
X100400001Y-83205682D01*
X100452254Y-83198802D01*
X100556762Y-83185044D01*
X100702841Y-83124536D01*
X100828282Y-83028282D01*
X100924536Y-82902841D01*
X100950565Y-82840002D01*
X112278029Y-82840002D01*
X112299112Y-82973121D01*
X112299113Y-82973124D01*
X112299114Y-82973126D01*
X112360305Y-83093220D01*
X112360306Y-83093221D01*
X112360309Y-83093225D01*
X112455607Y-83188523D01*
X112455611Y-83188526D01*
X112455613Y-83188528D01*
X112575707Y-83249719D01*
X112575709Y-83249719D01*
X112575711Y-83249720D01*
X112708831Y-83270804D01*
X112708833Y-83270804D01*
X112708835Y-83270804D01*
X112841954Y-83249720D01*
X112841954Y-83249719D01*
X112841959Y-83249719D01*
X112962053Y-83188528D01*
X113057361Y-83093220D01*
X113118552Y-82973126D01*
X113129684Y-82902841D01*
X113139637Y-82840002D01*
X113139637Y-82839997D01*
X113118553Y-82706878D01*
X113118552Y-82706876D01*
X113118552Y-82706874D01*
X113081149Y-82633467D01*
X113068254Y-82564801D01*
X113094530Y-82500060D01*
X113151637Y-82459803D01*
X113221442Y-82456811D01*
X113239084Y-82462612D01*
X113293238Y-82485044D01*
X113371619Y-82495363D01*
X113449999Y-82505682D01*
X113450000Y-82505682D01*
X113450001Y-82505682D01*
X113502254Y-82498802D01*
X113606762Y-82485044D01*
X113752841Y-82424536D01*
X113878282Y-82328282D01*
X113974536Y-82202841D01*
X114035044Y-82056762D01*
X114055682Y-81900000D01*
X114049989Y-81856760D01*
X114035044Y-81743239D01*
X114035044Y-81743238D01*
X113974536Y-81597159D01*
X113899984Y-81500001D01*
X126494318Y-81500001D01*
X126514955Y-81656760D01*
X126514956Y-81656762D01*
X126550775Y-81743238D01*
X126575464Y-81802841D01*
X126671718Y-81928282D01*
X126797159Y-82024536D01*
X126943238Y-82085044D01*
X127021619Y-82095363D01*
X127099999Y-82105682D01*
X127100000Y-82105682D01*
X127100001Y-82105682D01*
X127152254Y-82098802D01*
X127256762Y-82085044D01*
X127402841Y-82024536D01*
X127528282Y-81928282D01*
X127624536Y-81802841D01*
X127667134Y-81700001D01*
X138194318Y-81700001D01*
X138214955Y-81856760D01*
X138214956Y-81856762D01*
X138271933Y-81994318D01*
X138275464Y-82002841D01*
X138371718Y-82128282D01*
X138497159Y-82224536D01*
X138643238Y-82285044D01*
X138721619Y-82295363D01*
X138799999Y-82305682D01*
X138800000Y-82305682D01*
X138800001Y-82305682D01*
X138864739Y-82297159D01*
X138956762Y-82285044D01*
X139102841Y-82224536D01*
X139228282Y-82128282D01*
X139324536Y-82002841D01*
X139385044Y-81856762D01*
X139405682Y-81700000D01*
X139399989Y-81656760D01*
X139385044Y-81543239D01*
X139385044Y-81543238D01*
X139324536Y-81397159D01*
X139228282Y-81271718D01*
X139102841Y-81175464D01*
X138956762Y-81114956D01*
X138956760Y-81114955D01*
X138800001Y-81094318D01*
X138799999Y-81094318D01*
X138643239Y-81114955D01*
X138643237Y-81114956D01*
X138497160Y-81175463D01*
X138371718Y-81271718D01*
X138275463Y-81397160D01*
X138214956Y-81543237D01*
X138214955Y-81543239D01*
X138194318Y-81699998D01*
X138194318Y-81700001D01*
X127667134Y-81700001D01*
X127685044Y-81656762D01*
X127705682Y-81500000D01*
X127685044Y-81343238D01*
X127624536Y-81197159D01*
X127528282Y-81071718D01*
X127402841Y-80975464D01*
X127256762Y-80914956D01*
X127256760Y-80914955D01*
X127100001Y-80894318D01*
X127099999Y-80894318D01*
X126943239Y-80914955D01*
X126943237Y-80914956D01*
X126797160Y-80975463D01*
X126671718Y-81071718D01*
X126575463Y-81197160D01*
X126514956Y-81343237D01*
X126514955Y-81343239D01*
X126494318Y-81499998D01*
X126494318Y-81500001D01*
X113899984Y-81500001D01*
X113878282Y-81471718D01*
X113752841Y-81375464D01*
X113606762Y-81314956D01*
X113606760Y-81314955D01*
X113450001Y-81294318D01*
X113449999Y-81294318D01*
X113293239Y-81314955D01*
X113293237Y-81314956D01*
X113147160Y-81375463D01*
X113021718Y-81471718D01*
X112925463Y-81597160D01*
X112864956Y-81743237D01*
X112864955Y-81743239D01*
X112844318Y-81899998D01*
X112844318Y-81900001D01*
X112864955Y-82056760D01*
X112864956Y-82056762D01*
X112925464Y-82202842D01*
X112946473Y-82230221D01*
X112971667Y-82295390D01*
X112957629Y-82363835D01*
X112908814Y-82413824D01*
X112840723Y-82429488D01*
X112828700Y-82428180D01*
X112708836Y-82409196D01*
X112708831Y-82409196D01*
X112575711Y-82430279D01*
X112575707Y-82430280D01*
X112575707Y-82430281D01*
X112550276Y-82443239D01*
X112455611Y-82491473D01*
X112455607Y-82491476D01*
X112360309Y-82586774D01*
X112360306Y-82586778D01*
X112299112Y-82706878D01*
X112278029Y-82839997D01*
X112278029Y-82840002D01*
X100950565Y-82840002D01*
X100985044Y-82756762D01*
X101005682Y-82600000D01*
X101003941Y-82586778D01*
X100985044Y-82443239D01*
X100985044Y-82443238D01*
X100924536Y-82297159D01*
X100828282Y-82171718D01*
X100702841Y-82075464D01*
X100657690Y-82056762D01*
X100556762Y-82014956D01*
X100556760Y-82014955D01*
X100400001Y-81994318D01*
X100399999Y-81994318D01*
X100243239Y-82014955D01*
X100243237Y-82014956D01*
X100097160Y-82075463D01*
X99971718Y-82171718D01*
X99875463Y-82297160D01*
X99814956Y-82443237D01*
X99814955Y-82443239D01*
X99794318Y-82599998D01*
X99794318Y-82600001D01*
X99814955Y-82756760D01*
X99814957Y-82756765D01*
X99857161Y-82858655D01*
X99864630Y-82928124D01*
X99833355Y-82990603D01*
X99773266Y-83026255D01*
X99708007Y-83025184D01*
X99663630Y-83012292D01*
X99663631Y-83012292D01*
X99663627Y-83012291D01*
X99663623Y-83012290D01*
X99663620Y-83012290D01*
X99628165Y-83009500D01*
X99628163Y-83009500D01*
X99627963Y-83009500D01*
X97924500Y-83009500D01*
X97857461Y-82989815D01*
X97811706Y-82937011D01*
X97800500Y-82885500D01*
X97800500Y-80297701D01*
X125016618Y-80297701D01*
X125037255Y-80454460D01*
X125037256Y-80454462D01*
X125097764Y-80600541D01*
X125194018Y-80725982D01*
X125319459Y-80822236D01*
X125465538Y-80882744D01*
X125543919Y-80893063D01*
X125622299Y-80903382D01*
X125622300Y-80903382D01*
X125622301Y-80903382D01*
X125691148Y-80894318D01*
X125779062Y-80882744D01*
X125925141Y-80822236D01*
X126050582Y-80725982D01*
X126146836Y-80600541D01*
X126207344Y-80454462D01*
X126227982Y-80297700D01*
X126207344Y-80140938D01*
X126146836Y-79994859D01*
X126050582Y-79869418D01*
X125925141Y-79773164D01*
X125779062Y-79712656D01*
X125779060Y-79712655D01*
X125622301Y-79692018D01*
X125622299Y-79692018D01*
X125465539Y-79712655D01*
X125465537Y-79712656D01*
X125319460Y-79773163D01*
X125194018Y-79869418D01*
X125097763Y-79994860D01*
X125037256Y-80140937D01*
X125037255Y-80140939D01*
X125016618Y-80297698D01*
X125016618Y-80297701D01*
X97800500Y-80297701D01*
X97800500Y-79000001D01*
X121794318Y-79000001D01*
X121814955Y-79156760D01*
X121814956Y-79156762D01*
X121875464Y-79302841D01*
X121971718Y-79428282D01*
X122097159Y-79524536D01*
X122243238Y-79585044D01*
X122321619Y-79595363D01*
X122399999Y-79605682D01*
X122400000Y-79605682D01*
X122400001Y-79605682D01*
X122452254Y-79598802D01*
X122556762Y-79585044D01*
X122702841Y-79524536D01*
X122828282Y-79428282D01*
X122924536Y-79302841D01*
X122985044Y-79156762D01*
X123005682Y-79000000D01*
X122985044Y-78843238D01*
X122924536Y-78697159D01*
X122828282Y-78571718D01*
X122702841Y-78475464D01*
X122556762Y-78414956D01*
X122556760Y-78414955D01*
X122400001Y-78394318D01*
X122399999Y-78394318D01*
X122243239Y-78414955D01*
X122243237Y-78414956D01*
X122097160Y-78475463D01*
X121971718Y-78571718D01*
X121875463Y-78697160D01*
X121814956Y-78843237D01*
X121814955Y-78843239D01*
X121794318Y-78999998D01*
X121794318Y-79000001D01*
X97800500Y-79000001D01*
X97800500Y-76954947D01*
X97800598Y-76951460D01*
X97817192Y-76658737D01*
X97817970Y-76651857D01*
X97866943Y-76364539D01*
X97868490Y-76357773D01*
X97949325Y-76077744D01*
X97951621Y-76071193D01*
X98063300Y-75801978D01*
X98066307Y-75795743D01*
X98207431Y-75540714D01*
X98211115Y-75534857D01*
X98379907Y-75297231D01*
X98384233Y-75291813D01*
X98578565Y-75074584D01*
X98583455Y-75069699D01*
X98800892Y-74875590D01*
X98806314Y-74871270D01*
X99044102Y-74702738D01*
X99049986Y-74699046D01*
X99305134Y-74558204D01*
X99311405Y-74555188D01*
X99314585Y-74553873D01*
X99580712Y-74443801D01*
X99587281Y-74441507D01*
X99852403Y-74365276D01*
X99867376Y-74360970D01*
X99874150Y-74359428D01*
X100161505Y-74310758D01*
X100168412Y-74309984D01*
X100462290Y-74293633D01*
X100465753Y-74293537D01*
X100510475Y-74293561D01*
X100510478Y-74293559D01*
X100520310Y-74293565D01*
X100520729Y-74293531D01*
X106125492Y-74293145D01*
X106192532Y-74312825D01*
X106238291Y-74365626D01*
X106249500Y-74417145D01*
X106249501Y-76103862D01*
X106252291Y-76139327D01*
X106296380Y-76291085D01*
X106296382Y-76291090D01*
X106376827Y-76427116D01*
X106376834Y-76427125D01*
X106488574Y-76538865D01*
X106488583Y-76538872D01*
X106490609Y-76540070D01*
X106624610Y-76619318D01*
X106776373Y-76663409D01*
X106802971Y-76665502D01*
X106811835Y-76666200D01*
X106811836Y-76666199D01*
X106811837Y-76666200D01*
X107788162Y-76666199D01*
X107823627Y-76663409D01*
X107975390Y-76619318D01*
X108111420Y-76538870D01*
X108223170Y-76427120D01*
X108303618Y-76291090D01*
X108347709Y-76139327D01*
X108350213Y-76107512D01*
X108350500Y-76103865D01*
X108350499Y-74416983D01*
X108370184Y-74349944D01*
X108422987Y-74304189D01*
X108474487Y-74292983D01*
X111205492Y-74292795D01*
X111272532Y-74312475D01*
X111318291Y-74365276D01*
X111329500Y-74416795D01*
X111329501Y-76103862D01*
X111332291Y-76139327D01*
X111376380Y-76291085D01*
X111376382Y-76291090D01*
X111456827Y-76427116D01*
X111456834Y-76427125D01*
X111568574Y-76538865D01*
X111568583Y-76538872D01*
X111570609Y-76540070D01*
X111704610Y-76619318D01*
X111856373Y-76663409D01*
X111882971Y-76665502D01*
X111891835Y-76666200D01*
X111891836Y-76666199D01*
X111891837Y-76666200D01*
X112868162Y-76666199D01*
X112903627Y-76663409D01*
X113055390Y-76619318D01*
X113191420Y-76538870D01*
X113303170Y-76427120D01*
X113383618Y-76291090D01*
X113427709Y-76139327D01*
X113430213Y-76107512D01*
X113430500Y-76103865D01*
X113430499Y-74416633D01*
X113450184Y-74349594D01*
X113502987Y-74303839D01*
X113554488Y-74292633D01*
X113745493Y-74292620D01*
X113812532Y-74312300D01*
X113858291Y-74365101D01*
X113869500Y-74416620D01*
X113869501Y-76103862D01*
X113872291Y-76139327D01*
X113916380Y-76291085D01*
X113916382Y-76291090D01*
X113996827Y-76427116D01*
X113996834Y-76427125D01*
X114108574Y-76538865D01*
X114108583Y-76538872D01*
X114110609Y-76540070D01*
X114244610Y-76619318D01*
X114396373Y-76663409D01*
X114422971Y-76665502D01*
X114431835Y-76666200D01*
X114431836Y-76666199D01*
X114431837Y-76666200D01*
X115408162Y-76666199D01*
X115443627Y-76663409D01*
X115595390Y-76619318D01*
X115731420Y-76538870D01*
X115843170Y-76427120D01*
X115923618Y-76291090D01*
X115967709Y-76139327D01*
X115970213Y-76107512D01*
X115970500Y-76103865D01*
X115970499Y-74416458D01*
X115990184Y-74349419D01*
X116042987Y-74303664D01*
X116094487Y-74292458D01*
X118825492Y-74292270D01*
X118892532Y-74311950D01*
X118938291Y-74364751D01*
X118949500Y-74416270D01*
X118949501Y-76116462D01*
X118952291Y-76151927D01*
X118996380Y-76303685D01*
X118996382Y-76303690D01*
X119076827Y-76439716D01*
X119076834Y-76439725D01*
X119188574Y-76551465D01*
X119188578Y-76551468D01*
X119188580Y-76551470D01*
X119324610Y-76631918D01*
X119432996Y-76663407D01*
X119467048Y-76673300D01*
X119476373Y-76676009D01*
X119502971Y-76678102D01*
X119511835Y-76678800D01*
X119511836Y-76678799D01*
X119511837Y-76678800D01*
X120488162Y-76678799D01*
X120523627Y-76676009D01*
X120675390Y-76631918D01*
X120811420Y-76551470D01*
X120923170Y-76439720D01*
X121003618Y-76303690D01*
X121047709Y-76151927D01*
X121050500Y-76116463D01*
X121050499Y-74416107D01*
X121070184Y-74349069D01*
X121122987Y-74303314D01*
X121174488Y-74292108D01*
X121365493Y-74292095D01*
X121432532Y-74311775D01*
X121478291Y-74364576D01*
X121489500Y-74416095D01*
X121489501Y-76116462D01*
X121492291Y-76151927D01*
X121536380Y-76303685D01*
X121536382Y-76303690D01*
X121616827Y-76439716D01*
X121616834Y-76439725D01*
X121728574Y-76551465D01*
X121728578Y-76551468D01*
X121728580Y-76551470D01*
X121864610Y-76631918D01*
X121972996Y-76663407D01*
X122007048Y-76673300D01*
X122016373Y-76676009D01*
X122042971Y-76678102D01*
X122051835Y-76678800D01*
X122051836Y-76678799D01*
X122051837Y-76678800D01*
X123028162Y-76678799D01*
X123063627Y-76676009D01*
X123215390Y-76631918D01*
X123351420Y-76551470D01*
X123463170Y-76439720D01*
X123543618Y-76303690D01*
X123587709Y-76151927D01*
X123590500Y-76116463D01*
X123590499Y-74415933D01*
X123610184Y-74348895D01*
X123662987Y-74303140D01*
X123714488Y-74291934D01*
X126445492Y-74291745D01*
X126512532Y-74311425D01*
X126558291Y-74364226D01*
X126569500Y-74415745D01*
X126569501Y-76110962D01*
X126572291Y-76146427D01*
X126616380Y-76298185D01*
X126616382Y-76298190D01*
X126696827Y-76434216D01*
X126696834Y-76434225D01*
X126808574Y-76545965D01*
X126808583Y-76545972D01*
X126817880Y-76551470D01*
X126944610Y-76626418D01*
X126963545Y-76631919D01*
X127076061Y-76664608D01*
X127096373Y-76670509D01*
X127122971Y-76672602D01*
X127131835Y-76673300D01*
X127131836Y-76673299D01*
X127131837Y-76673300D01*
X128108162Y-76673299D01*
X128143627Y-76670509D01*
X128295390Y-76626418D01*
X128431420Y-76545970D01*
X128543170Y-76434220D01*
X128623618Y-76298190D01*
X128667709Y-76146427D01*
X128670500Y-76110963D01*
X128670499Y-74415583D01*
X128690184Y-74348545D01*
X128742987Y-74302790D01*
X128794488Y-74291584D01*
X128985493Y-74291570D01*
X129052532Y-74311250D01*
X129098291Y-74364050D01*
X129109500Y-74415570D01*
X129109501Y-76105062D01*
X129112291Y-76140527D01*
X129156380Y-76292285D01*
X129156382Y-76292290D01*
X129236827Y-76428316D01*
X129236834Y-76428325D01*
X129348574Y-76540065D01*
X129348583Y-76540072D01*
X129396998Y-76568704D01*
X129484610Y-76620518D01*
X129523853Y-76631919D01*
X129632242Y-76663409D01*
X129636373Y-76664609D01*
X129662971Y-76666702D01*
X129671835Y-76667400D01*
X129671836Y-76667399D01*
X129671837Y-76667400D01*
X130648162Y-76667399D01*
X130683627Y-76664609D01*
X130835390Y-76620518D01*
X130971420Y-76540070D01*
X131083170Y-76428320D01*
X131163618Y-76292290D01*
X131207709Y-76140527D01*
X131210500Y-76105063D01*
X131210499Y-74415408D01*
X131230184Y-74348370D01*
X131282987Y-74302615D01*
X131334488Y-74291409D01*
X134065492Y-74291220D01*
X134132532Y-74310900D01*
X134178291Y-74363701D01*
X134189500Y-74415220D01*
X134189501Y-76110962D01*
X134192291Y-76146427D01*
X134236380Y-76298185D01*
X134236382Y-76298190D01*
X134316827Y-76434216D01*
X134316834Y-76434225D01*
X134428574Y-76545965D01*
X134428583Y-76545972D01*
X134437880Y-76551470D01*
X134564610Y-76626418D01*
X134583545Y-76631919D01*
X134696061Y-76664608D01*
X134716373Y-76670509D01*
X134742971Y-76672602D01*
X134751835Y-76673300D01*
X134751836Y-76673299D01*
X134751837Y-76673300D01*
X135728162Y-76673299D01*
X135763627Y-76670509D01*
X135915390Y-76626418D01*
X136051420Y-76545970D01*
X136163170Y-76434220D01*
X136243618Y-76298190D01*
X136287709Y-76146427D01*
X136290500Y-76110963D01*
X136290499Y-74415058D01*
X136310184Y-74348020D01*
X136362987Y-74302265D01*
X136414487Y-74291059D01*
X144538256Y-74290500D01*
X144541718Y-74290596D01*
G37*
%TD.AperFunction*%
%TD*%
M02*
