%TF.GenerationSoftware,KiCad,Pcbnew,7.0.8*%
%TF.CreationDate,2024-02-20T09:26:03+00:00*%
%TF.ProjectId,CuttleBoard_8Layers,43757474-6c65-4426-9f61-72645f384c61,rev?*%
%TF.SameCoordinates,Original*%
%TF.FileFunction,Legend,Bot*%
%TF.FilePolarity,Positive*%
%FSLAX46Y46*%
G04 Gerber Fmt 4.6, Leading zero omitted, Abs format (unit mm)*
G04 Created by KiCad (PCBNEW 7.0.8) date 2024-02-20 09:26:03*
%MOMM*%
%LPD*%
G01*
G04 APERTURE LIST*
%ADD10C,0.200000*%
%ADD11C,0.400000*%
%ADD12C,0.600000*%
%ADD13C,0.150000*%
%ADD14C,0.100000*%
%ADD15C,0.120000*%
G04 APERTURE END LIST*
D10*
X121370000Y-94330000D02*
X133780000Y-94330000D01*
X133780000Y-102470000D01*
X121370000Y-102470000D01*
X121370000Y-94330000D01*
D11*
X143355890Y-110323390D02*
X143355890Y-111618628D01*
X143355890Y-111618628D02*
X143279700Y-111771009D01*
X143279700Y-111771009D02*
X143203509Y-111847200D01*
X143203509Y-111847200D02*
X143051128Y-111923390D01*
X143051128Y-111923390D02*
X142746366Y-111923390D01*
X142746366Y-111923390D02*
X142593985Y-111847200D01*
X142593985Y-111847200D02*
X142517795Y-111771009D01*
X142517795Y-111771009D02*
X142441604Y-111618628D01*
X142441604Y-111618628D02*
X142441604Y-110323390D01*
X141679700Y-110856723D02*
X141679700Y-111923390D01*
X141679700Y-111009104D02*
X141603510Y-110932914D01*
X141603510Y-110932914D02*
X141451129Y-110856723D01*
X141451129Y-110856723D02*
X141222557Y-110856723D01*
X141222557Y-110856723D02*
X141070176Y-110932914D01*
X141070176Y-110932914D02*
X140993986Y-111085295D01*
X140993986Y-111085295D02*
X140993986Y-111923390D01*
X140232081Y-111923390D02*
X140232081Y-110856723D01*
X140232081Y-110323390D02*
X140308272Y-110399580D01*
X140308272Y-110399580D02*
X140232081Y-110475771D01*
X140232081Y-110475771D02*
X140155891Y-110399580D01*
X140155891Y-110399580D02*
X140232081Y-110323390D01*
X140232081Y-110323390D02*
X140232081Y-110475771D01*
X139622557Y-110856723D02*
X139241605Y-111923390D01*
X139241605Y-111923390D02*
X138860652Y-110856723D01*
X137641604Y-111847200D02*
X137793985Y-111923390D01*
X137793985Y-111923390D02*
X138098747Y-111923390D01*
X138098747Y-111923390D02*
X138251128Y-111847200D01*
X138251128Y-111847200D02*
X138327319Y-111694819D01*
X138327319Y-111694819D02*
X138327319Y-111085295D01*
X138327319Y-111085295D02*
X138251128Y-110932914D01*
X138251128Y-110932914D02*
X138098747Y-110856723D01*
X138098747Y-110856723D02*
X137793985Y-110856723D01*
X137793985Y-110856723D02*
X137641604Y-110932914D01*
X137641604Y-110932914D02*
X137565414Y-111085295D01*
X137565414Y-111085295D02*
X137565414Y-111237676D01*
X137565414Y-111237676D02*
X138327319Y-111390057D01*
X136879699Y-111923390D02*
X136879699Y-110856723D01*
X136879699Y-111161485D02*
X136803509Y-111009104D01*
X136803509Y-111009104D02*
X136727318Y-110932914D01*
X136727318Y-110932914D02*
X136574937Y-110856723D01*
X136574937Y-110856723D02*
X136422556Y-110856723D01*
X135965414Y-111847200D02*
X135813033Y-111923390D01*
X135813033Y-111923390D02*
X135508271Y-111923390D01*
X135508271Y-111923390D02*
X135355890Y-111847200D01*
X135355890Y-111847200D02*
X135279699Y-111694819D01*
X135279699Y-111694819D02*
X135279699Y-111618628D01*
X135279699Y-111618628D02*
X135355890Y-111466247D01*
X135355890Y-111466247D02*
X135508271Y-111390057D01*
X135508271Y-111390057D02*
X135736842Y-111390057D01*
X135736842Y-111390057D02*
X135889223Y-111313866D01*
X135889223Y-111313866D02*
X135965414Y-111161485D01*
X135965414Y-111161485D02*
X135965414Y-111085295D01*
X135965414Y-111085295D02*
X135889223Y-110932914D01*
X135889223Y-110932914D02*
X135736842Y-110856723D01*
X135736842Y-110856723D02*
X135508271Y-110856723D01*
X135508271Y-110856723D02*
X135355890Y-110932914D01*
X134593985Y-111923390D02*
X134593985Y-110856723D01*
X134593985Y-110323390D02*
X134670176Y-110399580D01*
X134670176Y-110399580D02*
X134593985Y-110475771D01*
X134593985Y-110475771D02*
X134517795Y-110399580D01*
X134517795Y-110399580D02*
X134593985Y-110323390D01*
X134593985Y-110323390D02*
X134593985Y-110475771D01*
X134060652Y-110856723D02*
X133451128Y-110856723D01*
X133832080Y-110323390D02*
X133832080Y-111694819D01*
X133832080Y-111694819D02*
X133755890Y-111847200D01*
X133755890Y-111847200D02*
X133603509Y-111923390D01*
X133603509Y-111923390D02*
X133451128Y-111923390D01*
X133070175Y-110856723D02*
X132689223Y-111923390D01*
X132308270Y-110856723D02*
X132689223Y-111923390D01*
X132689223Y-111923390D02*
X132841604Y-112304342D01*
X132841604Y-112304342D02*
X132917794Y-112380533D01*
X132917794Y-112380533D02*
X133070175Y-112456723D01*
X130251127Y-111923390D02*
X130403508Y-111847200D01*
X130403508Y-111847200D02*
X130479698Y-111771009D01*
X130479698Y-111771009D02*
X130555889Y-111618628D01*
X130555889Y-111618628D02*
X130555889Y-111161485D01*
X130555889Y-111161485D02*
X130479698Y-111009104D01*
X130479698Y-111009104D02*
X130403508Y-110932914D01*
X130403508Y-110932914D02*
X130251127Y-110856723D01*
X130251127Y-110856723D02*
X130022555Y-110856723D01*
X130022555Y-110856723D02*
X129870174Y-110932914D01*
X129870174Y-110932914D02*
X129793984Y-111009104D01*
X129793984Y-111009104D02*
X129717793Y-111161485D01*
X129717793Y-111161485D02*
X129717793Y-111618628D01*
X129717793Y-111618628D02*
X129793984Y-111771009D01*
X129793984Y-111771009D02*
X129870174Y-111847200D01*
X129870174Y-111847200D02*
X130022555Y-111923390D01*
X130022555Y-111923390D02*
X130251127Y-111923390D01*
X129260651Y-110856723D02*
X128651127Y-110856723D01*
X129032079Y-111923390D02*
X129032079Y-110551961D01*
X129032079Y-110551961D02*
X128955889Y-110399580D01*
X128955889Y-110399580D02*
X128803508Y-110323390D01*
X128803508Y-110323390D02*
X128651127Y-110323390D01*
X126898745Y-111923390D02*
X126898745Y-110323390D01*
X126898745Y-110323390D02*
X126365412Y-111466247D01*
X126365412Y-111466247D02*
X125832078Y-110323390D01*
X125832078Y-110323390D02*
X125832078Y-111923390D01*
X124384460Y-111923390D02*
X124384460Y-111085295D01*
X124384460Y-111085295D02*
X124460650Y-110932914D01*
X124460650Y-110932914D02*
X124613031Y-110856723D01*
X124613031Y-110856723D02*
X124917793Y-110856723D01*
X124917793Y-110856723D02*
X125070174Y-110932914D01*
X124384460Y-111847200D02*
X124536841Y-111923390D01*
X124536841Y-111923390D02*
X124917793Y-111923390D01*
X124917793Y-111923390D02*
X125070174Y-111847200D01*
X125070174Y-111847200D02*
X125146365Y-111694819D01*
X125146365Y-111694819D02*
X125146365Y-111542438D01*
X125146365Y-111542438D02*
X125070174Y-111390057D01*
X125070174Y-111390057D02*
X124917793Y-111313866D01*
X124917793Y-111313866D02*
X124536841Y-111313866D01*
X124536841Y-111313866D02*
X124384460Y-111237676D01*
X123622555Y-110856723D02*
X123622555Y-111923390D01*
X123622555Y-111009104D02*
X123546365Y-110932914D01*
X123546365Y-110932914D02*
X123393984Y-110856723D01*
X123393984Y-110856723D02*
X123165412Y-110856723D01*
X123165412Y-110856723D02*
X123013031Y-110932914D01*
X123013031Y-110932914D02*
X122936841Y-111085295D01*
X122936841Y-111085295D02*
X122936841Y-111923390D01*
X121489222Y-111847200D02*
X121641603Y-111923390D01*
X121641603Y-111923390D02*
X121946365Y-111923390D01*
X121946365Y-111923390D02*
X122098746Y-111847200D01*
X122098746Y-111847200D02*
X122174936Y-111771009D01*
X122174936Y-111771009D02*
X122251127Y-111618628D01*
X122251127Y-111618628D02*
X122251127Y-111161485D01*
X122251127Y-111161485D02*
X122174936Y-111009104D01*
X122174936Y-111009104D02*
X122098746Y-110932914D01*
X122098746Y-110932914D02*
X121946365Y-110856723D01*
X121946365Y-110856723D02*
X121641603Y-110856723D01*
X121641603Y-110856723D02*
X121489222Y-110932914D01*
X120803507Y-111923390D02*
X120803507Y-110323390D01*
X120117793Y-111923390D02*
X120117793Y-111085295D01*
X120117793Y-111085295D02*
X120193983Y-110932914D01*
X120193983Y-110932914D02*
X120346364Y-110856723D01*
X120346364Y-110856723D02*
X120574936Y-110856723D01*
X120574936Y-110856723D02*
X120727317Y-110932914D01*
X120727317Y-110932914D02*
X120803507Y-111009104D01*
X118746364Y-111847200D02*
X118898745Y-111923390D01*
X118898745Y-111923390D02*
X119203507Y-111923390D01*
X119203507Y-111923390D02*
X119355888Y-111847200D01*
X119355888Y-111847200D02*
X119432079Y-111694819D01*
X119432079Y-111694819D02*
X119432079Y-111085295D01*
X119432079Y-111085295D02*
X119355888Y-110932914D01*
X119355888Y-110932914D02*
X119203507Y-110856723D01*
X119203507Y-110856723D02*
X118898745Y-110856723D01*
X118898745Y-110856723D02*
X118746364Y-110932914D01*
X118746364Y-110932914D02*
X118670174Y-111085295D01*
X118670174Y-111085295D02*
X118670174Y-111237676D01*
X118670174Y-111237676D02*
X119432079Y-111390057D01*
X118060650Y-111847200D02*
X117908269Y-111923390D01*
X117908269Y-111923390D02*
X117603507Y-111923390D01*
X117603507Y-111923390D02*
X117451126Y-111847200D01*
X117451126Y-111847200D02*
X117374935Y-111694819D01*
X117374935Y-111694819D02*
X117374935Y-111618628D01*
X117374935Y-111618628D02*
X117451126Y-111466247D01*
X117451126Y-111466247D02*
X117603507Y-111390057D01*
X117603507Y-111390057D02*
X117832078Y-111390057D01*
X117832078Y-111390057D02*
X117984459Y-111313866D01*
X117984459Y-111313866D02*
X118060650Y-111161485D01*
X118060650Y-111161485D02*
X118060650Y-111085295D01*
X118060650Y-111085295D02*
X117984459Y-110932914D01*
X117984459Y-110932914D02*
X117832078Y-110856723D01*
X117832078Y-110856723D02*
X117603507Y-110856723D01*
X117603507Y-110856723D02*
X117451126Y-110932914D01*
X116917793Y-110856723D02*
X116308269Y-110856723D01*
X116689221Y-110323390D02*
X116689221Y-111694819D01*
X116689221Y-111694819D02*
X116613031Y-111847200D01*
X116613031Y-111847200D02*
X116460650Y-111923390D01*
X116460650Y-111923390D02*
X116308269Y-111923390D01*
X115165411Y-111847200D02*
X115317792Y-111923390D01*
X115317792Y-111923390D02*
X115622554Y-111923390D01*
X115622554Y-111923390D02*
X115774935Y-111847200D01*
X115774935Y-111847200D02*
X115851126Y-111694819D01*
X115851126Y-111694819D02*
X115851126Y-111085295D01*
X115851126Y-111085295D02*
X115774935Y-110932914D01*
X115774935Y-110932914D02*
X115622554Y-110856723D01*
X115622554Y-110856723D02*
X115317792Y-110856723D01*
X115317792Y-110856723D02*
X115165411Y-110932914D01*
X115165411Y-110932914D02*
X115089221Y-111085295D01*
X115089221Y-111085295D02*
X115089221Y-111237676D01*
X115089221Y-111237676D02*
X115851126Y-111390057D01*
X114403506Y-111923390D02*
X114403506Y-110856723D01*
X114403506Y-111161485D02*
X114327316Y-111009104D01*
X114327316Y-111009104D02*
X114251125Y-110932914D01*
X114251125Y-110932914D02*
X114098744Y-110856723D01*
X114098744Y-110856723D02*
X113946363Y-110856723D01*
X112270173Y-110475771D02*
X112193982Y-110399580D01*
X112193982Y-110399580D02*
X112041601Y-110323390D01*
X112041601Y-110323390D02*
X111660649Y-110323390D01*
X111660649Y-110323390D02*
X111508268Y-110399580D01*
X111508268Y-110399580D02*
X111432077Y-110475771D01*
X111432077Y-110475771D02*
X111355887Y-110628152D01*
X111355887Y-110628152D02*
X111355887Y-110780533D01*
X111355887Y-110780533D02*
X111432077Y-111009104D01*
X111432077Y-111009104D02*
X112346363Y-111923390D01*
X112346363Y-111923390D02*
X111355887Y-111923390D01*
X110365410Y-110323390D02*
X110213029Y-110323390D01*
X110213029Y-110323390D02*
X110060648Y-110399580D01*
X110060648Y-110399580D02*
X109984458Y-110475771D01*
X109984458Y-110475771D02*
X109908267Y-110628152D01*
X109908267Y-110628152D02*
X109832077Y-110932914D01*
X109832077Y-110932914D02*
X109832077Y-111313866D01*
X109832077Y-111313866D02*
X109908267Y-111618628D01*
X109908267Y-111618628D02*
X109984458Y-111771009D01*
X109984458Y-111771009D02*
X110060648Y-111847200D01*
X110060648Y-111847200D02*
X110213029Y-111923390D01*
X110213029Y-111923390D02*
X110365410Y-111923390D01*
X110365410Y-111923390D02*
X110517791Y-111847200D01*
X110517791Y-111847200D02*
X110593982Y-111771009D01*
X110593982Y-111771009D02*
X110670172Y-111618628D01*
X110670172Y-111618628D02*
X110746363Y-111313866D01*
X110746363Y-111313866D02*
X110746363Y-110932914D01*
X110746363Y-110932914D02*
X110670172Y-110628152D01*
X110670172Y-110628152D02*
X110593982Y-110475771D01*
X110593982Y-110475771D02*
X110517791Y-110399580D01*
X110517791Y-110399580D02*
X110365410Y-110323390D01*
X109222553Y-110475771D02*
X109146362Y-110399580D01*
X109146362Y-110399580D02*
X108993981Y-110323390D01*
X108993981Y-110323390D02*
X108613029Y-110323390D01*
X108613029Y-110323390D02*
X108460648Y-110399580D01*
X108460648Y-110399580D02*
X108384457Y-110475771D01*
X108384457Y-110475771D02*
X108308267Y-110628152D01*
X108308267Y-110628152D02*
X108308267Y-110780533D01*
X108308267Y-110780533D02*
X108384457Y-111009104D01*
X108384457Y-111009104D02*
X109298743Y-111923390D01*
X109298743Y-111923390D02*
X108308267Y-111923390D01*
X106936838Y-110856723D02*
X106936838Y-111923390D01*
X107317790Y-110247200D02*
X107698743Y-111390057D01*
X107698743Y-111390057D02*
X106708266Y-111390057D01*
X103744438Y-87629347D02*
X101744438Y-87629347D01*
X101744438Y-87629347D02*
X103173009Y-88296014D01*
X103173009Y-88296014D02*
X101744438Y-88962680D01*
X101744438Y-88962680D02*
X103744438Y-88962680D01*
X103553961Y-89915061D02*
X103649200Y-90010299D01*
X103649200Y-90010299D02*
X103744438Y-89915061D01*
X103744438Y-89915061D02*
X103649200Y-89819823D01*
X103649200Y-89819823D02*
X103553961Y-89915061D01*
X103553961Y-89915061D02*
X103744438Y-89915061D01*
X103744438Y-93343633D02*
X103744438Y-92391252D01*
X103744438Y-92391252D02*
X101744438Y-92391252D01*
X103649200Y-94772205D02*
X103744438Y-94581729D01*
X103744438Y-94581729D02*
X103744438Y-94200776D01*
X103744438Y-94200776D02*
X103649200Y-94010300D01*
X103649200Y-94010300D02*
X103458723Y-93915062D01*
X103458723Y-93915062D02*
X102696819Y-93915062D01*
X102696819Y-93915062D02*
X102506342Y-94010300D01*
X102506342Y-94010300D02*
X102411104Y-94200776D01*
X102411104Y-94200776D02*
X102411104Y-94581729D01*
X102411104Y-94581729D02*
X102506342Y-94772205D01*
X102506342Y-94772205D02*
X102696819Y-94867443D01*
X102696819Y-94867443D02*
X102887295Y-94867443D01*
X102887295Y-94867443D02*
X103077771Y-93915062D01*
X102411104Y-95534110D02*
X103744438Y-95915062D01*
X103744438Y-95915062D02*
X102792057Y-96296015D01*
X102792057Y-96296015D02*
X103744438Y-96676967D01*
X103744438Y-96676967D02*
X102411104Y-97057919D01*
X103744438Y-98676967D02*
X102696819Y-98676967D01*
X102696819Y-98676967D02*
X102506342Y-98581729D01*
X102506342Y-98581729D02*
X102411104Y-98391253D01*
X102411104Y-98391253D02*
X102411104Y-98010300D01*
X102411104Y-98010300D02*
X102506342Y-97819824D01*
X103649200Y-98676967D02*
X103744438Y-98486491D01*
X103744438Y-98486491D02*
X103744438Y-98010300D01*
X103744438Y-98010300D02*
X103649200Y-97819824D01*
X103649200Y-97819824D02*
X103458723Y-97724586D01*
X103458723Y-97724586D02*
X103268247Y-97724586D01*
X103268247Y-97724586D02*
X103077771Y-97819824D01*
X103077771Y-97819824D02*
X102982533Y-98010300D01*
X102982533Y-98010300D02*
X102982533Y-98486491D01*
X102982533Y-98486491D02*
X102887295Y-98676967D01*
X102411104Y-99629348D02*
X103744438Y-99629348D01*
X102601580Y-99629348D02*
X102506342Y-99724586D01*
X102506342Y-99724586D02*
X102411104Y-99915062D01*
X102411104Y-99915062D02*
X102411104Y-100200777D01*
X102411104Y-100200777D02*
X102506342Y-100391253D01*
X102506342Y-100391253D02*
X102696819Y-100486491D01*
X102696819Y-100486491D02*
X103744438Y-100486491D01*
X103744438Y-102296015D02*
X101744438Y-102296015D01*
X103649200Y-102296015D02*
X103744438Y-102105539D01*
X103744438Y-102105539D02*
X103744438Y-101724586D01*
X103744438Y-101724586D02*
X103649200Y-101534110D01*
X103649200Y-101534110D02*
X103553961Y-101438872D01*
X103553961Y-101438872D02*
X103363485Y-101343634D01*
X103363485Y-101343634D02*
X102792057Y-101343634D01*
X102792057Y-101343634D02*
X102601580Y-101438872D01*
X102601580Y-101438872D02*
X102506342Y-101534110D01*
X102506342Y-101534110D02*
X102411104Y-101724586D01*
X102411104Y-101724586D02*
X102411104Y-102105539D01*
X102411104Y-102105539D02*
X102506342Y-102296015D01*
X103744438Y-103534110D02*
X103649200Y-103343634D01*
X103649200Y-103343634D02*
X103553961Y-103248396D01*
X103553961Y-103248396D02*
X103363485Y-103153158D01*
X103363485Y-103153158D02*
X102792057Y-103153158D01*
X102792057Y-103153158D02*
X102601580Y-103248396D01*
X102601580Y-103248396D02*
X102506342Y-103343634D01*
X102506342Y-103343634D02*
X102411104Y-103534110D01*
X102411104Y-103534110D02*
X102411104Y-103819825D01*
X102411104Y-103819825D02*
X102506342Y-104010301D01*
X102506342Y-104010301D02*
X102601580Y-104105539D01*
X102601580Y-104105539D02*
X102792057Y-104200777D01*
X102792057Y-104200777D02*
X103363485Y-104200777D01*
X103363485Y-104200777D02*
X103553961Y-104105539D01*
X103553961Y-104105539D02*
X103649200Y-104010301D01*
X103649200Y-104010301D02*
X103744438Y-103819825D01*
X103744438Y-103819825D02*
X103744438Y-103534110D01*
X102411104Y-104867444D02*
X103744438Y-105248396D01*
X103744438Y-105248396D02*
X102792057Y-105629349D01*
X102792057Y-105629349D02*
X103744438Y-106010301D01*
X103744438Y-106010301D02*
X102411104Y-106391253D01*
X103649200Y-107057920D02*
X103744438Y-107248396D01*
X103744438Y-107248396D02*
X103744438Y-107629348D01*
X103744438Y-107629348D02*
X103649200Y-107819825D01*
X103649200Y-107819825D02*
X103458723Y-107915063D01*
X103458723Y-107915063D02*
X103363485Y-107915063D01*
X103363485Y-107915063D02*
X103173009Y-107819825D01*
X103173009Y-107819825D02*
X103077771Y-107629348D01*
X103077771Y-107629348D02*
X103077771Y-107343634D01*
X103077771Y-107343634D02*
X102982533Y-107153158D01*
X102982533Y-107153158D02*
X102792057Y-107057920D01*
X102792057Y-107057920D02*
X102696819Y-107057920D01*
X102696819Y-107057920D02*
X102506342Y-107153158D01*
X102506342Y-107153158D02*
X102411104Y-107343634D01*
X102411104Y-107343634D02*
X102411104Y-107629348D01*
X102411104Y-107629348D02*
X102506342Y-107819825D01*
X103744438Y-108772206D02*
X101744438Y-108772206D01*
X102982533Y-108962682D02*
X103744438Y-109534111D01*
X102411104Y-109534111D02*
X103173009Y-108772206D01*
X103744438Y-110391254D02*
X102411104Y-110391254D01*
X101744438Y-110391254D02*
X101839676Y-110296016D01*
X101839676Y-110296016D02*
X101934914Y-110391254D01*
X101934914Y-110391254D02*
X101839676Y-110486492D01*
X101839676Y-110486492D02*
X101744438Y-110391254D01*
X101744438Y-110391254D02*
X101934914Y-110391254D01*
D12*
X138088342Y-102990978D02*
X141088342Y-102990978D01*
X141088342Y-102990978D02*
X138945485Y-101990978D01*
X138945485Y-101990978D02*
X141088342Y-100990978D01*
X141088342Y-100990978D02*
X138088342Y-100990978D01*
X138374057Y-99562407D02*
X138231200Y-99419550D01*
X138231200Y-99419550D02*
X138088342Y-99562407D01*
X138088342Y-99562407D02*
X138231200Y-99705264D01*
X138231200Y-99705264D02*
X138374057Y-99562407D01*
X138374057Y-99562407D02*
X138088342Y-99562407D01*
X141088342Y-96276693D02*
X138088342Y-95276693D01*
X138088342Y-95276693D02*
X141088342Y-94276693D01*
X140088342Y-91990979D02*
X138088342Y-91990979D01*
X140088342Y-93276693D02*
X138516914Y-93276693D01*
X138516914Y-93276693D02*
X138231200Y-93133836D01*
X138231200Y-93133836D02*
X138088342Y-92848121D01*
X138088342Y-92848121D02*
X138088342Y-92419550D01*
X138088342Y-92419550D02*
X138231200Y-92133836D01*
X138231200Y-92133836D02*
X138374057Y-91990979D01*
D13*
X117573390Y-102352380D02*
X117525771Y-102447618D01*
X117525771Y-102447618D02*
X117478152Y-102495237D01*
X117478152Y-102495237D02*
X117382914Y-102542856D01*
X117382914Y-102542856D02*
X117335295Y-102542856D01*
X117335295Y-102542856D02*
X117240057Y-102495237D01*
X117240057Y-102495237D02*
X117192438Y-102447618D01*
X117192438Y-102447618D02*
X117144819Y-102352380D01*
X117144819Y-102352380D02*
X117144819Y-102161904D01*
X117144819Y-102161904D02*
X117192438Y-102066666D01*
X117192438Y-102066666D02*
X117240057Y-102019047D01*
X117240057Y-102019047D02*
X117335295Y-101971428D01*
X117335295Y-101971428D02*
X117382914Y-101971428D01*
X117382914Y-101971428D02*
X117478152Y-102019047D01*
X117478152Y-102019047D02*
X117525771Y-102066666D01*
X117525771Y-102066666D02*
X117573390Y-102161904D01*
X117573390Y-102161904D02*
X117573390Y-102352380D01*
X117573390Y-102352380D02*
X117621009Y-102447618D01*
X117621009Y-102447618D02*
X117668628Y-102495237D01*
X117668628Y-102495237D02*
X117763866Y-102542856D01*
X117763866Y-102542856D02*
X117954342Y-102542856D01*
X117954342Y-102542856D02*
X118049580Y-102495237D01*
X118049580Y-102495237D02*
X118097200Y-102447618D01*
X118097200Y-102447618D02*
X118144819Y-102352380D01*
X118144819Y-102352380D02*
X118144819Y-102161904D01*
X118144819Y-102161904D02*
X118097200Y-102066666D01*
X118097200Y-102066666D02*
X118049580Y-102019047D01*
X118049580Y-102019047D02*
X117954342Y-101971428D01*
X117954342Y-101971428D02*
X117763866Y-101971428D01*
X117763866Y-101971428D02*
X117668628Y-102019047D01*
X117668628Y-102019047D02*
X117621009Y-102066666D01*
X117621009Y-102066666D02*
X117573390Y-102161904D01*
X118049580Y-101542856D02*
X118097200Y-101495237D01*
X118097200Y-101495237D02*
X118144819Y-101542856D01*
X118144819Y-101542856D02*
X118097200Y-101590475D01*
X118097200Y-101590475D02*
X118049580Y-101542856D01*
X118049580Y-101542856D02*
X118144819Y-101542856D01*
X118144819Y-100542857D02*
X118144819Y-101114285D01*
X118144819Y-100828571D02*
X117144819Y-100828571D01*
X117144819Y-100828571D02*
X117287676Y-100923809D01*
X117287676Y-100923809D02*
X117382914Y-101019047D01*
X117382914Y-101019047D02*
X117430533Y-101114285D01*
X117478152Y-99685714D02*
X118144819Y-99685714D01*
X117097200Y-99923809D02*
X117811485Y-100161904D01*
X117811485Y-100161904D02*
X117811485Y-99542857D01*
X117144819Y-98971428D02*
X117144819Y-98876190D01*
X117144819Y-98876190D02*
X117192438Y-98780952D01*
X117192438Y-98780952D02*
X117240057Y-98733333D01*
X117240057Y-98733333D02*
X117335295Y-98685714D01*
X117335295Y-98685714D02*
X117525771Y-98638095D01*
X117525771Y-98638095D02*
X117763866Y-98638095D01*
X117763866Y-98638095D02*
X117954342Y-98685714D01*
X117954342Y-98685714D02*
X118049580Y-98733333D01*
X118049580Y-98733333D02*
X118097200Y-98780952D01*
X118097200Y-98780952D02*
X118144819Y-98876190D01*
X118144819Y-98876190D02*
X118144819Y-98971428D01*
X118144819Y-98971428D02*
X118097200Y-99066666D01*
X118097200Y-99066666D02*
X118049580Y-99114285D01*
X118049580Y-99114285D02*
X117954342Y-99161904D01*
X117954342Y-99161904D02*
X117763866Y-99209523D01*
X117763866Y-99209523D02*
X117525771Y-99209523D01*
X117525771Y-99209523D02*
X117335295Y-99161904D01*
X117335295Y-99161904D02*
X117240057Y-99114285D01*
X117240057Y-99114285D02*
X117192438Y-99066666D01*
X117192438Y-99066666D02*
X117144819Y-98971428D01*
X117144819Y-98019047D02*
X117144819Y-97923809D01*
X117144819Y-97923809D02*
X117192438Y-97828571D01*
X117192438Y-97828571D02*
X117240057Y-97780952D01*
X117240057Y-97780952D02*
X117335295Y-97733333D01*
X117335295Y-97733333D02*
X117525771Y-97685714D01*
X117525771Y-97685714D02*
X117763866Y-97685714D01*
X117763866Y-97685714D02*
X117954342Y-97733333D01*
X117954342Y-97733333D02*
X118049580Y-97780952D01*
X118049580Y-97780952D02*
X118097200Y-97828571D01*
X118097200Y-97828571D02*
X118144819Y-97923809D01*
X118144819Y-97923809D02*
X118144819Y-98019047D01*
X118144819Y-98019047D02*
X118097200Y-98114285D01*
X118097200Y-98114285D02*
X118049580Y-98161904D01*
X118049580Y-98161904D02*
X117954342Y-98209523D01*
X117954342Y-98209523D02*
X117763866Y-98257142D01*
X117763866Y-98257142D02*
X117525771Y-98257142D01*
X117525771Y-98257142D02*
X117335295Y-98209523D01*
X117335295Y-98209523D02*
X117240057Y-98161904D01*
X117240057Y-98161904D02*
X117192438Y-98114285D01*
X117192438Y-98114285D02*
X117144819Y-98019047D01*
X118144819Y-96495237D02*
X117478152Y-96495237D01*
X117573390Y-96495237D02*
X117525771Y-96447618D01*
X117525771Y-96447618D02*
X117478152Y-96352380D01*
X117478152Y-96352380D02*
X117478152Y-96209523D01*
X117478152Y-96209523D02*
X117525771Y-96114285D01*
X117525771Y-96114285D02*
X117621009Y-96066666D01*
X117621009Y-96066666D02*
X118144819Y-96066666D01*
X117621009Y-96066666D02*
X117525771Y-96019047D01*
X117525771Y-96019047D02*
X117478152Y-95923809D01*
X117478152Y-95923809D02*
X117478152Y-95780952D01*
X117478152Y-95780952D02*
X117525771Y-95685713D01*
X117525771Y-95685713D02*
X117621009Y-95638094D01*
X117621009Y-95638094D02*
X118144819Y-95638094D01*
X118144819Y-95161904D02*
X117478152Y-95161904D01*
X117573390Y-95161904D02*
X117525771Y-95114285D01*
X117525771Y-95114285D02*
X117478152Y-95019047D01*
X117478152Y-95019047D02*
X117478152Y-94876190D01*
X117478152Y-94876190D02*
X117525771Y-94780952D01*
X117525771Y-94780952D02*
X117621009Y-94733333D01*
X117621009Y-94733333D02*
X118144819Y-94733333D01*
X117621009Y-94733333D02*
X117525771Y-94685714D01*
X117525771Y-94685714D02*
X117478152Y-94590476D01*
X117478152Y-94590476D02*
X117478152Y-94447619D01*
X117478152Y-94447619D02*
X117525771Y-94352380D01*
X117525771Y-94352380D02*
X117621009Y-94304761D01*
X117621009Y-94304761D02*
X118144819Y-94304761D01*
X120870000Y-102470000D02*
X118253580Y-102470000D01*
X120870000Y-94330000D02*
X118253580Y-94330000D01*
X118840000Y-102470000D02*
X118840000Y-94330000D01*
X118840000Y-102470000D02*
X118840000Y-94330000D01*
X118840000Y-102470000D02*
X118253579Y-101343496D01*
X118840000Y-102470000D02*
X119426421Y-101343496D01*
X118840000Y-94330000D02*
X119426421Y-95456504D01*
X118840000Y-94330000D02*
X118253579Y-95456504D01*
X123527381Y-91894819D02*
X122955953Y-91894819D01*
X123241667Y-91894819D02*
X123241667Y-90894819D01*
X123241667Y-90894819D02*
X123146429Y-91037676D01*
X123146429Y-91037676D02*
X123051191Y-91132914D01*
X123051191Y-91132914D02*
X122955953Y-91180533D01*
X123908334Y-90990057D02*
X123955953Y-90942438D01*
X123955953Y-90942438D02*
X124051191Y-90894819D01*
X124051191Y-90894819D02*
X124289286Y-90894819D01*
X124289286Y-90894819D02*
X124384524Y-90942438D01*
X124384524Y-90942438D02*
X124432143Y-90990057D01*
X124432143Y-90990057D02*
X124479762Y-91085295D01*
X124479762Y-91085295D02*
X124479762Y-91180533D01*
X124479762Y-91180533D02*
X124432143Y-91323390D01*
X124432143Y-91323390D02*
X123860715Y-91894819D01*
X123860715Y-91894819D02*
X124479762Y-91894819D01*
X124908334Y-91799580D02*
X124955953Y-91847200D01*
X124955953Y-91847200D02*
X124908334Y-91894819D01*
X124908334Y-91894819D02*
X124860715Y-91847200D01*
X124860715Y-91847200D02*
X124908334Y-91799580D01*
X124908334Y-91799580D02*
X124908334Y-91894819D01*
X125813095Y-91228152D02*
X125813095Y-91894819D01*
X125575000Y-90847200D02*
X125336905Y-91561485D01*
X125336905Y-91561485D02*
X125955952Y-91561485D01*
X126860714Y-91894819D02*
X126289286Y-91894819D01*
X126575000Y-91894819D02*
X126575000Y-90894819D01*
X126575000Y-90894819D02*
X126479762Y-91037676D01*
X126479762Y-91037676D02*
X126384524Y-91132914D01*
X126384524Y-91132914D02*
X126289286Y-91180533D01*
X127479762Y-90894819D02*
X127575000Y-90894819D01*
X127575000Y-90894819D02*
X127670238Y-90942438D01*
X127670238Y-90942438D02*
X127717857Y-90990057D01*
X127717857Y-90990057D02*
X127765476Y-91085295D01*
X127765476Y-91085295D02*
X127813095Y-91275771D01*
X127813095Y-91275771D02*
X127813095Y-91513866D01*
X127813095Y-91513866D02*
X127765476Y-91704342D01*
X127765476Y-91704342D02*
X127717857Y-91799580D01*
X127717857Y-91799580D02*
X127670238Y-91847200D01*
X127670238Y-91847200D02*
X127575000Y-91894819D01*
X127575000Y-91894819D02*
X127479762Y-91894819D01*
X127479762Y-91894819D02*
X127384524Y-91847200D01*
X127384524Y-91847200D02*
X127336905Y-91799580D01*
X127336905Y-91799580D02*
X127289286Y-91704342D01*
X127289286Y-91704342D02*
X127241667Y-91513866D01*
X127241667Y-91513866D02*
X127241667Y-91275771D01*
X127241667Y-91275771D02*
X127289286Y-91085295D01*
X127289286Y-91085295D02*
X127336905Y-90990057D01*
X127336905Y-90990057D02*
X127384524Y-90942438D01*
X127384524Y-90942438D02*
X127479762Y-90894819D01*
X128432143Y-90894819D02*
X128527381Y-90894819D01*
X128527381Y-90894819D02*
X128622619Y-90942438D01*
X128622619Y-90942438D02*
X128670238Y-90990057D01*
X128670238Y-90990057D02*
X128717857Y-91085295D01*
X128717857Y-91085295D02*
X128765476Y-91275771D01*
X128765476Y-91275771D02*
X128765476Y-91513866D01*
X128765476Y-91513866D02*
X128717857Y-91704342D01*
X128717857Y-91704342D02*
X128670238Y-91799580D01*
X128670238Y-91799580D02*
X128622619Y-91847200D01*
X128622619Y-91847200D02*
X128527381Y-91894819D01*
X128527381Y-91894819D02*
X128432143Y-91894819D01*
X128432143Y-91894819D02*
X128336905Y-91847200D01*
X128336905Y-91847200D02*
X128289286Y-91799580D01*
X128289286Y-91799580D02*
X128241667Y-91704342D01*
X128241667Y-91704342D02*
X128194048Y-91513866D01*
X128194048Y-91513866D02*
X128194048Y-91275771D01*
X128194048Y-91275771D02*
X128241667Y-91085295D01*
X128241667Y-91085295D02*
X128289286Y-90990057D01*
X128289286Y-90990057D02*
X128336905Y-90942438D01*
X128336905Y-90942438D02*
X128432143Y-90894819D01*
X129955953Y-91894819D02*
X129955953Y-91228152D01*
X129955953Y-91323390D02*
X130003572Y-91275771D01*
X130003572Y-91275771D02*
X130098810Y-91228152D01*
X130098810Y-91228152D02*
X130241667Y-91228152D01*
X130241667Y-91228152D02*
X130336905Y-91275771D01*
X130336905Y-91275771D02*
X130384524Y-91371009D01*
X130384524Y-91371009D02*
X130384524Y-91894819D01*
X130384524Y-91371009D02*
X130432143Y-91275771D01*
X130432143Y-91275771D02*
X130527381Y-91228152D01*
X130527381Y-91228152D02*
X130670238Y-91228152D01*
X130670238Y-91228152D02*
X130765477Y-91275771D01*
X130765477Y-91275771D02*
X130813096Y-91371009D01*
X130813096Y-91371009D02*
X130813096Y-91894819D01*
X131289286Y-91894819D02*
X131289286Y-91228152D01*
X131289286Y-91323390D02*
X131336905Y-91275771D01*
X131336905Y-91275771D02*
X131432143Y-91228152D01*
X131432143Y-91228152D02*
X131575000Y-91228152D01*
X131575000Y-91228152D02*
X131670238Y-91275771D01*
X131670238Y-91275771D02*
X131717857Y-91371009D01*
X131717857Y-91371009D02*
X131717857Y-91894819D01*
X131717857Y-91371009D02*
X131765476Y-91275771D01*
X131765476Y-91275771D02*
X131860714Y-91228152D01*
X131860714Y-91228152D02*
X132003571Y-91228152D01*
X132003571Y-91228152D02*
X132098810Y-91275771D01*
X132098810Y-91275771D02*
X132146429Y-91371009D01*
X132146429Y-91371009D02*
X132146429Y-91894819D01*
X133780000Y-93830000D02*
X133780000Y-92003580D01*
X121370000Y-93830000D02*
X121370000Y-92003580D01*
X133780000Y-92590000D02*
X121370000Y-92590000D01*
X133780000Y-92590000D02*
X121370000Y-92590000D01*
X133780000Y-92590000D02*
X132653496Y-93176421D01*
X133780000Y-92590000D02*
X132653496Y-92003579D01*
X121370000Y-92590000D02*
X122496504Y-92003579D01*
X121370000Y-92590000D02*
X122496504Y-93176421D01*
D14*
X128645228Y-99594285D02*
X128673800Y-99565713D01*
X128673800Y-99565713D02*
X128702371Y-99479999D01*
X128702371Y-99479999D02*
X128702371Y-99422856D01*
X128702371Y-99422856D02*
X128673800Y-99337142D01*
X128673800Y-99337142D02*
X128616657Y-99279999D01*
X128616657Y-99279999D02*
X128559514Y-99251428D01*
X128559514Y-99251428D02*
X128445228Y-99222856D01*
X128445228Y-99222856D02*
X128359514Y-99222856D01*
X128359514Y-99222856D02*
X128245228Y-99251428D01*
X128245228Y-99251428D02*
X128188085Y-99279999D01*
X128188085Y-99279999D02*
X128130942Y-99337142D01*
X128130942Y-99337142D02*
X128102371Y-99422856D01*
X128102371Y-99422856D02*
X128102371Y-99479999D01*
X128102371Y-99479999D02*
X128130942Y-99565713D01*
X128130942Y-99565713D02*
X128159514Y-99594285D01*
X128102371Y-99794285D02*
X128102371Y-100165713D01*
X128102371Y-100165713D02*
X128330942Y-99965713D01*
X128330942Y-99965713D02*
X128330942Y-100051428D01*
X128330942Y-100051428D02*
X128359514Y-100108571D01*
X128359514Y-100108571D02*
X128388085Y-100137142D01*
X128388085Y-100137142D02*
X128445228Y-100165713D01*
X128445228Y-100165713D02*
X128588085Y-100165713D01*
X128588085Y-100165713D02*
X128645228Y-100137142D01*
X128645228Y-100137142D02*
X128673800Y-100108571D01*
X128673800Y-100108571D02*
X128702371Y-100051428D01*
X128702371Y-100051428D02*
X128702371Y-99879999D01*
X128702371Y-99879999D02*
X128673800Y-99822856D01*
X128673800Y-99822856D02*
X128645228Y-99794285D01*
X128102371Y-100365714D02*
X128102371Y-100737142D01*
X128102371Y-100737142D02*
X128330942Y-100537142D01*
X128330942Y-100537142D02*
X128330942Y-100622857D01*
X128330942Y-100622857D02*
X128359514Y-100680000D01*
X128359514Y-100680000D02*
X128388085Y-100708571D01*
X128388085Y-100708571D02*
X128445228Y-100737142D01*
X128445228Y-100737142D02*
X128588085Y-100737142D01*
X128588085Y-100737142D02*
X128645228Y-100708571D01*
X128645228Y-100708571D02*
X128673800Y-100680000D01*
X128673800Y-100680000D02*
X128702371Y-100622857D01*
X128702371Y-100622857D02*
X128702371Y-100451428D01*
X128702371Y-100451428D02*
X128673800Y-100394285D01*
X128673800Y-100394285D02*
X128645228Y-100365714D01*
D13*
X117271427Y-116754819D02*
X117271427Y-117564342D01*
X117271427Y-117564342D02*
X117223808Y-117659580D01*
X117223808Y-117659580D02*
X117176189Y-117707200D01*
X117176189Y-117707200D02*
X117080951Y-117754819D01*
X117080951Y-117754819D02*
X116890475Y-117754819D01*
X116890475Y-117754819D02*
X116795237Y-117707200D01*
X116795237Y-117707200D02*
X116747618Y-117659580D01*
X116747618Y-117659580D02*
X116699999Y-117564342D01*
X116699999Y-117564342D02*
X116699999Y-116754819D01*
X115699999Y-117754819D02*
X116271427Y-117754819D01*
X115985713Y-117754819D02*
X115985713Y-116754819D01*
X115985713Y-116754819D02*
X116080951Y-116897676D01*
X116080951Y-116897676D02*
X116176189Y-116992914D01*
X116176189Y-116992914D02*
X116271427Y-117040533D01*
X115319046Y-116850057D02*
X115271427Y-116802438D01*
X115271427Y-116802438D02*
X115176189Y-116754819D01*
X115176189Y-116754819D02*
X114938094Y-116754819D01*
X114938094Y-116754819D02*
X114842856Y-116802438D01*
X114842856Y-116802438D02*
X114795237Y-116850057D01*
X114795237Y-116850057D02*
X114747618Y-116945295D01*
X114747618Y-116945295D02*
X114747618Y-117040533D01*
X114747618Y-117040533D02*
X114795237Y-117183390D01*
X114795237Y-117183390D02*
X115366665Y-117754819D01*
X115366665Y-117754819D02*
X114747618Y-117754819D01*
D14*
X127785228Y-101414285D02*
X127813800Y-101385713D01*
X127813800Y-101385713D02*
X127842371Y-101299999D01*
X127842371Y-101299999D02*
X127842371Y-101242856D01*
X127842371Y-101242856D02*
X127813800Y-101157142D01*
X127813800Y-101157142D02*
X127756657Y-101099999D01*
X127756657Y-101099999D02*
X127699514Y-101071428D01*
X127699514Y-101071428D02*
X127585228Y-101042856D01*
X127585228Y-101042856D02*
X127499514Y-101042856D01*
X127499514Y-101042856D02*
X127385228Y-101071428D01*
X127385228Y-101071428D02*
X127328085Y-101099999D01*
X127328085Y-101099999D02*
X127270942Y-101157142D01*
X127270942Y-101157142D02*
X127242371Y-101242856D01*
X127242371Y-101242856D02*
X127242371Y-101299999D01*
X127242371Y-101299999D02*
X127270942Y-101385713D01*
X127270942Y-101385713D02*
X127299514Y-101414285D01*
X127299514Y-101642856D02*
X127270942Y-101671428D01*
X127270942Y-101671428D02*
X127242371Y-101728571D01*
X127242371Y-101728571D02*
X127242371Y-101871428D01*
X127242371Y-101871428D02*
X127270942Y-101928571D01*
X127270942Y-101928571D02*
X127299514Y-101957142D01*
X127299514Y-101957142D02*
X127356657Y-101985713D01*
X127356657Y-101985713D02*
X127413800Y-101985713D01*
X127413800Y-101985713D02*
X127499514Y-101957142D01*
X127499514Y-101957142D02*
X127842371Y-101614285D01*
X127842371Y-101614285D02*
X127842371Y-101985713D01*
X127299514Y-102214285D02*
X127270942Y-102242857D01*
X127270942Y-102242857D02*
X127242371Y-102300000D01*
X127242371Y-102300000D02*
X127242371Y-102442857D01*
X127242371Y-102442857D02*
X127270942Y-102500000D01*
X127270942Y-102500000D02*
X127299514Y-102528571D01*
X127299514Y-102528571D02*
X127356657Y-102557142D01*
X127356657Y-102557142D02*
X127413800Y-102557142D01*
X127413800Y-102557142D02*
X127499514Y-102528571D01*
X127499514Y-102528571D02*
X127842371Y-102185714D01*
X127842371Y-102185714D02*
X127842371Y-102557142D01*
X127355228Y-95084285D02*
X127383800Y-95055713D01*
X127383800Y-95055713D02*
X127412371Y-94969999D01*
X127412371Y-94969999D02*
X127412371Y-94912856D01*
X127412371Y-94912856D02*
X127383800Y-94827142D01*
X127383800Y-94827142D02*
X127326657Y-94769999D01*
X127326657Y-94769999D02*
X127269514Y-94741428D01*
X127269514Y-94741428D02*
X127155228Y-94712856D01*
X127155228Y-94712856D02*
X127069514Y-94712856D01*
X127069514Y-94712856D02*
X126955228Y-94741428D01*
X126955228Y-94741428D02*
X126898085Y-94769999D01*
X126898085Y-94769999D02*
X126840942Y-94827142D01*
X126840942Y-94827142D02*
X126812371Y-94912856D01*
X126812371Y-94912856D02*
X126812371Y-94969999D01*
X126812371Y-94969999D02*
X126840942Y-95055713D01*
X126840942Y-95055713D02*
X126869514Y-95084285D01*
X126869514Y-95312856D02*
X126840942Y-95341428D01*
X126840942Y-95341428D02*
X126812371Y-95398571D01*
X126812371Y-95398571D02*
X126812371Y-95541428D01*
X126812371Y-95541428D02*
X126840942Y-95598571D01*
X126840942Y-95598571D02*
X126869514Y-95627142D01*
X126869514Y-95627142D02*
X126926657Y-95655713D01*
X126926657Y-95655713D02*
X126983800Y-95655713D01*
X126983800Y-95655713D02*
X127069514Y-95627142D01*
X127069514Y-95627142D02*
X127412371Y-95284285D01*
X127412371Y-95284285D02*
X127412371Y-95655713D01*
X127412371Y-96227142D02*
X127412371Y-95884285D01*
X127412371Y-96055714D02*
X126812371Y-96055714D01*
X126812371Y-96055714D02*
X126898085Y-95998571D01*
X126898085Y-95998571D02*
X126955228Y-95941428D01*
X126955228Y-95941428D02*
X126983800Y-95884285D01*
X123735714Y-102615228D02*
X123764286Y-102643800D01*
X123764286Y-102643800D02*
X123850000Y-102672371D01*
X123850000Y-102672371D02*
X123907143Y-102672371D01*
X123907143Y-102672371D02*
X123992857Y-102643800D01*
X123992857Y-102643800D02*
X124050000Y-102586657D01*
X124050000Y-102586657D02*
X124078571Y-102529514D01*
X124078571Y-102529514D02*
X124107143Y-102415228D01*
X124107143Y-102415228D02*
X124107143Y-102329514D01*
X124107143Y-102329514D02*
X124078571Y-102215228D01*
X124078571Y-102215228D02*
X124050000Y-102158085D01*
X124050000Y-102158085D02*
X123992857Y-102100942D01*
X123992857Y-102100942D02*
X123907143Y-102072371D01*
X123907143Y-102072371D02*
X123850000Y-102072371D01*
X123850000Y-102072371D02*
X123764286Y-102100942D01*
X123764286Y-102100942D02*
X123735714Y-102129514D01*
X123535714Y-102072371D02*
X123164286Y-102072371D01*
X123164286Y-102072371D02*
X123364286Y-102300942D01*
X123364286Y-102300942D02*
X123278571Y-102300942D01*
X123278571Y-102300942D02*
X123221429Y-102329514D01*
X123221429Y-102329514D02*
X123192857Y-102358085D01*
X123192857Y-102358085D02*
X123164286Y-102415228D01*
X123164286Y-102415228D02*
X123164286Y-102558085D01*
X123164286Y-102558085D02*
X123192857Y-102615228D01*
X123192857Y-102615228D02*
X123221429Y-102643800D01*
X123221429Y-102643800D02*
X123278571Y-102672371D01*
X123278571Y-102672371D02*
X123450000Y-102672371D01*
X123450000Y-102672371D02*
X123507143Y-102643800D01*
X123507143Y-102643800D02*
X123535714Y-102615228D01*
X122592857Y-102672371D02*
X122935714Y-102672371D01*
X122764285Y-102672371D02*
X122764285Y-102072371D01*
X122764285Y-102072371D02*
X122821428Y-102158085D01*
X122821428Y-102158085D02*
X122878571Y-102215228D01*
X122878571Y-102215228D02*
X122935714Y-102243800D01*
D13*
X119861904Y-75454819D02*
X119861904Y-76264342D01*
X119861904Y-76264342D02*
X119814285Y-76359580D01*
X119814285Y-76359580D02*
X119766666Y-76407200D01*
X119766666Y-76407200D02*
X119671428Y-76454819D01*
X119671428Y-76454819D02*
X119480952Y-76454819D01*
X119480952Y-76454819D02*
X119385714Y-76407200D01*
X119385714Y-76407200D02*
X119338095Y-76359580D01*
X119338095Y-76359580D02*
X119290476Y-76264342D01*
X119290476Y-76264342D02*
X119290476Y-75454819D01*
X118671428Y-75883390D02*
X118766666Y-75835771D01*
X118766666Y-75835771D02*
X118814285Y-75788152D01*
X118814285Y-75788152D02*
X118861904Y-75692914D01*
X118861904Y-75692914D02*
X118861904Y-75645295D01*
X118861904Y-75645295D02*
X118814285Y-75550057D01*
X118814285Y-75550057D02*
X118766666Y-75502438D01*
X118766666Y-75502438D02*
X118671428Y-75454819D01*
X118671428Y-75454819D02*
X118480952Y-75454819D01*
X118480952Y-75454819D02*
X118385714Y-75502438D01*
X118385714Y-75502438D02*
X118338095Y-75550057D01*
X118338095Y-75550057D02*
X118290476Y-75645295D01*
X118290476Y-75645295D02*
X118290476Y-75692914D01*
X118290476Y-75692914D02*
X118338095Y-75788152D01*
X118338095Y-75788152D02*
X118385714Y-75835771D01*
X118385714Y-75835771D02*
X118480952Y-75883390D01*
X118480952Y-75883390D02*
X118671428Y-75883390D01*
X118671428Y-75883390D02*
X118766666Y-75931009D01*
X118766666Y-75931009D02*
X118814285Y-75978628D01*
X118814285Y-75978628D02*
X118861904Y-76073866D01*
X118861904Y-76073866D02*
X118861904Y-76264342D01*
X118861904Y-76264342D02*
X118814285Y-76359580D01*
X118814285Y-76359580D02*
X118766666Y-76407200D01*
X118766666Y-76407200D02*
X118671428Y-76454819D01*
X118671428Y-76454819D02*
X118480952Y-76454819D01*
X118480952Y-76454819D02*
X118385714Y-76407200D01*
X118385714Y-76407200D02*
X118338095Y-76359580D01*
X118338095Y-76359580D02*
X118290476Y-76264342D01*
X118290476Y-76264342D02*
X118290476Y-76073866D01*
X118290476Y-76073866D02*
X118338095Y-75978628D01*
X118338095Y-75978628D02*
X118385714Y-75931009D01*
X118385714Y-75931009D02*
X118480952Y-75883390D01*
D14*
X127230228Y-99414285D02*
X127258800Y-99385713D01*
X127258800Y-99385713D02*
X127287371Y-99299999D01*
X127287371Y-99299999D02*
X127287371Y-99242856D01*
X127287371Y-99242856D02*
X127258800Y-99157142D01*
X127258800Y-99157142D02*
X127201657Y-99099999D01*
X127201657Y-99099999D02*
X127144514Y-99071428D01*
X127144514Y-99071428D02*
X127030228Y-99042856D01*
X127030228Y-99042856D02*
X126944514Y-99042856D01*
X126944514Y-99042856D02*
X126830228Y-99071428D01*
X126830228Y-99071428D02*
X126773085Y-99099999D01*
X126773085Y-99099999D02*
X126715942Y-99157142D01*
X126715942Y-99157142D02*
X126687371Y-99242856D01*
X126687371Y-99242856D02*
X126687371Y-99299999D01*
X126687371Y-99299999D02*
X126715942Y-99385713D01*
X126715942Y-99385713D02*
X126744514Y-99414285D01*
X126687371Y-99614285D02*
X126687371Y-99985713D01*
X126687371Y-99985713D02*
X126915942Y-99785713D01*
X126915942Y-99785713D02*
X126915942Y-99871428D01*
X126915942Y-99871428D02*
X126944514Y-99928571D01*
X126944514Y-99928571D02*
X126973085Y-99957142D01*
X126973085Y-99957142D02*
X127030228Y-99985713D01*
X127030228Y-99985713D02*
X127173085Y-99985713D01*
X127173085Y-99985713D02*
X127230228Y-99957142D01*
X127230228Y-99957142D02*
X127258800Y-99928571D01*
X127258800Y-99928571D02*
X127287371Y-99871428D01*
X127287371Y-99871428D02*
X127287371Y-99699999D01*
X127287371Y-99699999D02*
X127258800Y-99642856D01*
X127258800Y-99642856D02*
X127230228Y-99614285D01*
X126687371Y-100528571D02*
X126687371Y-100242857D01*
X126687371Y-100242857D02*
X126973085Y-100214285D01*
X126973085Y-100214285D02*
X126944514Y-100242857D01*
X126944514Y-100242857D02*
X126915942Y-100300000D01*
X126915942Y-100300000D02*
X126915942Y-100442857D01*
X126915942Y-100442857D02*
X126944514Y-100500000D01*
X126944514Y-100500000D02*
X126973085Y-100528571D01*
X126973085Y-100528571D02*
X127030228Y-100557142D01*
X127030228Y-100557142D02*
X127173085Y-100557142D01*
X127173085Y-100557142D02*
X127230228Y-100528571D01*
X127230228Y-100528571D02*
X127258800Y-100500000D01*
X127258800Y-100500000D02*
X127287371Y-100442857D01*
X127287371Y-100442857D02*
X127287371Y-100300000D01*
X127287371Y-100300000D02*
X127258800Y-100242857D01*
X127258800Y-100242857D02*
X127230228Y-100214285D01*
D13*
X104671427Y-116554819D02*
X104671427Y-117364342D01*
X104671427Y-117364342D02*
X104623808Y-117459580D01*
X104623808Y-117459580D02*
X104576189Y-117507200D01*
X104576189Y-117507200D02*
X104480951Y-117554819D01*
X104480951Y-117554819D02*
X104290475Y-117554819D01*
X104290475Y-117554819D02*
X104195237Y-117507200D01*
X104195237Y-117507200D02*
X104147618Y-117459580D01*
X104147618Y-117459580D02*
X104099999Y-117364342D01*
X104099999Y-117364342D02*
X104099999Y-116554819D01*
X103099999Y-117554819D02*
X103671427Y-117554819D01*
X103385713Y-117554819D02*
X103385713Y-116554819D01*
X103385713Y-116554819D02*
X103480951Y-116697676D01*
X103480951Y-116697676D02*
X103576189Y-116792914D01*
X103576189Y-116792914D02*
X103671427Y-116840533D01*
X102766665Y-116554819D02*
X102147618Y-116554819D01*
X102147618Y-116554819D02*
X102480951Y-116935771D01*
X102480951Y-116935771D02*
X102338094Y-116935771D01*
X102338094Y-116935771D02*
X102242856Y-116983390D01*
X102242856Y-116983390D02*
X102195237Y-117031009D01*
X102195237Y-117031009D02*
X102147618Y-117126247D01*
X102147618Y-117126247D02*
X102147618Y-117364342D01*
X102147618Y-117364342D02*
X102195237Y-117459580D01*
X102195237Y-117459580D02*
X102242856Y-117507200D01*
X102242856Y-117507200D02*
X102338094Y-117554819D01*
X102338094Y-117554819D02*
X102623808Y-117554819D01*
X102623808Y-117554819D02*
X102719046Y-117507200D01*
X102719046Y-117507200D02*
X102766665Y-117459580D01*
X132071427Y-117054819D02*
X132071427Y-117864342D01*
X132071427Y-117864342D02*
X132023808Y-117959580D01*
X132023808Y-117959580D02*
X131976189Y-118007200D01*
X131976189Y-118007200D02*
X131880951Y-118054819D01*
X131880951Y-118054819D02*
X131690475Y-118054819D01*
X131690475Y-118054819D02*
X131595237Y-118007200D01*
X131595237Y-118007200D02*
X131547618Y-117959580D01*
X131547618Y-117959580D02*
X131499999Y-117864342D01*
X131499999Y-117864342D02*
X131499999Y-117054819D01*
X130499999Y-118054819D02*
X131071427Y-118054819D01*
X130785713Y-118054819D02*
X130785713Y-117054819D01*
X130785713Y-117054819D02*
X130880951Y-117197676D01*
X130880951Y-117197676D02*
X130976189Y-117292914D01*
X130976189Y-117292914D02*
X131071427Y-117340533D01*
X129547618Y-118054819D02*
X130119046Y-118054819D01*
X129833332Y-118054819D02*
X129833332Y-117054819D01*
X129833332Y-117054819D02*
X129928570Y-117197676D01*
X129928570Y-117197676D02*
X130023808Y-117292914D01*
X130023808Y-117292914D02*
X130119046Y-117340533D01*
D14*
X124124999Y-96562371D02*
X124410713Y-96562371D01*
X124410713Y-96562371D02*
X124410713Y-95962371D01*
X123982142Y-95962371D02*
X123610714Y-95962371D01*
X123610714Y-95962371D02*
X123810714Y-96190942D01*
X123810714Y-96190942D02*
X123724999Y-96190942D01*
X123724999Y-96190942D02*
X123667857Y-96219514D01*
X123667857Y-96219514D02*
X123639285Y-96248085D01*
X123639285Y-96248085D02*
X123610714Y-96305228D01*
X123610714Y-96305228D02*
X123610714Y-96448085D01*
X123610714Y-96448085D02*
X123639285Y-96505228D01*
X123639285Y-96505228D02*
X123667857Y-96533800D01*
X123667857Y-96533800D02*
X123724999Y-96562371D01*
X123724999Y-96562371D02*
X123896428Y-96562371D01*
X123896428Y-96562371D02*
X123953571Y-96533800D01*
X123953571Y-96533800D02*
X123982142Y-96505228D01*
X125685714Y-94715228D02*
X125714286Y-94743800D01*
X125714286Y-94743800D02*
X125800000Y-94772371D01*
X125800000Y-94772371D02*
X125857143Y-94772371D01*
X125857143Y-94772371D02*
X125942857Y-94743800D01*
X125942857Y-94743800D02*
X126000000Y-94686657D01*
X126000000Y-94686657D02*
X126028571Y-94629514D01*
X126028571Y-94629514D02*
X126057143Y-94515228D01*
X126057143Y-94515228D02*
X126057143Y-94429514D01*
X126057143Y-94429514D02*
X126028571Y-94315228D01*
X126028571Y-94315228D02*
X126000000Y-94258085D01*
X126000000Y-94258085D02*
X125942857Y-94200942D01*
X125942857Y-94200942D02*
X125857143Y-94172371D01*
X125857143Y-94172371D02*
X125800000Y-94172371D01*
X125800000Y-94172371D02*
X125714286Y-94200942D01*
X125714286Y-94200942D02*
X125685714Y-94229514D01*
X125457143Y-94229514D02*
X125428571Y-94200942D01*
X125428571Y-94200942D02*
X125371429Y-94172371D01*
X125371429Y-94172371D02*
X125228571Y-94172371D01*
X125228571Y-94172371D02*
X125171429Y-94200942D01*
X125171429Y-94200942D02*
X125142857Y-94229514D01*
X125142857Y-94229514D02*
X125114286Y-94286657D01*
X125114286Y-94286657D02*
X125114286Y-94343800D01*
X125114286Y-94343800D02*
X125142857Y-94429514D01*
X125142857Y-94429514D02*
X125485714Y-94772371D01*
X125485714Y-94772371D02*
X125114286Y-94772371D01*
X124914285Y-94172371D02*
X124542857Y-94172371D01*
X124542857Y-94172371D02*
X124742857Y-94400942D01*
X124742857Y-94400942D02*
X124657142Y-94400942D01*
X124657142Y-94400942D02*
X124600000Y-94429514D01*
X124600000Y-94429514D02*
X124571428Y-94458085D01*
X124571428Y-94458085D02*
X124542857Y-94515228D01*
X124542857Y-94515228D02*
X124542857Y-94658085D01*
X124542857Y-94658085D02*
X124571428Y-94715228D01*
X124571428Y-94715228D02*
X124600000Y-94743800D01*
X124600000Y-94743800D02*
X124657142Y-94772371D01*
X124657142Y-94772371D02*
X124828571Y-94772371D01*
X124828571Y-94772371D02*
X124885714Y-94743800D01*
X124885714Y-94743800D02*
X124914285Y-94715228D01*
X125385714Y-100715228D02*
X125414286Y-100743800D01*
X125414286Y-100743800D02*
X125500000Y-100772371D01*
X125500000Y-100772371D02*
X125557143Y-100772371D01*
X125557143Y-100772371D02*
X125642857Y-100743800D01*
X125642857Y-100743800D02*
X125700000Y-100686657D01*
X125700000Y-100686657D02*
X125728571Y-100629514D01*
X125728571Y-100629514D02*
X125757143Y-100515228D01*
X125757143Y-100515228D02*
X125757143Y-100429514D01*
X125757143Y-100429514D02*
X125728571Y-100315228D01*
X125728571Y-100315228D02*
X125700000Y-100258085D01*
X125700000Y-100258085D02*
X125642857Y-100200942D01*
X125642857Y-100200942D02*
X125557143Y-100172371D01*
X125557143Y-100172371D02*
X125500000Y-100172371D01*
X125500000Y-100172371D02*
X125414286Y-100200942D01*
X125414286Y-100200942D02*
X125385714Y-100229514D01*
X125185714Y-100172371D02*
X124814286Y-100172371D01*
X124814286Y-100172371D02*
X125014286Y-100400942D01*
X125014286Y-100400942D02*
X124928571Y-100400942D01*
X124928571Y-100400942D02*
X124871429Y-100429514D01*
X124871429Y-100429514D02*
X124842857Y-100458085D01*
X124842857Y-100458085D02*
X124814286Y-100515228D01*
X124814286Y-100515228D02*
X124814286Y-100658085D01*
X124814286Y-100658085D02*
X124842857Y-100715228D01*
X124842857Y-100715228D02*
X124871429Y-100743800D01*
X124871429Y-100743800D02*
X124928571Y-100772371D01*
X124928571Y-100772371D02*
X125100000Y-100772371D01*
X125100000Y-100772371D02*
X125157143Y-100743800D01*
X125157143Y-100743800D02*
X125185714Y-100715228D01*
X124300000Y-100172371D02*
X124414285Y-100172371D01*
X124414285Y-100172371D02*
X124471428Y-100200942D01*
X124471428Y-100200942D02*
X124500000Y-100229514D01*
X124500000Y-100229514D02*
X124557142Y-100315228D01*
X124557142Y-100315228D02*
X124585714Y-100429514D01*
X124585714Y-100429514D02*
X124585714Y-100658085D01*
X124585714Y-100658085D02*
X124557142Y-100715228D01*
X124557142Y-100715228D02*
X124528571Y-100743800D01*
X124528571Y-100743800D02*
X124471428Y-100772371D01*
X124471428Y-100772371D02*
X124357142Y-100772371D01*
X124357142Y-100772371D02*
X124300000Y-100743800D01*
X124300000Y-100743800D02*
X124271428Y-100715228D01*
X124271428Y-100715228D02*
X124242857Y-100658085D01*
X124242857Y-100658085D02*
X124242857Y-100515228D01*
X124242857Y-100515228D02*
X124271428Y-100458085D01*
X124271428Y-100458085D02*
X124300000Y-100429514D01*
X124300000Y-100429514D02*
X124357142Y-100400942D01*
X124357142Y-100400942D02*
X124471428Y-100400942D01*
X124471428Y-100400942D02*
X124528571Y-100429514D01*
X124528571Y-100429514D02*
X124557142Y-100458085D01*
X124557142Y-100458085D02*
X124585714Y-100515228D01*
X128797142Y-98531752D02*
X128816190Y-98550800D01*
X128816190Y-98550800D02*
X128873332Y-98569847D01*
X128873332Y-98569847D02*
X128911428Y-98569847D01*
X128911428Y-98569847D02*
X128968571Y-98550800D01*
X128968571Y-98550800D02*
X129006666Y-98512704D01*
X129006666Y-98512704D02*
X129025713Y-98474609D01*
X129025713Y-98474609D02*
X129044761Y-98398419D01*
X129044761Y-98398419D02*
X129044761Y-98341276D01*
X129044761Y-98341276D02*
X129025713Y-98265085D01*
X129025713Y-98265085D02*
X129006666Y-98226990D01*
X129006666Y-98226990D02*
X128968571Y-98188895D01*
X128968571Y-98188895D02*
X128911428Y-98169847D01*
X128911428Y-98169847D02*
X128873332Y-98169847D01*
X128873332Y-98169847D02*
X128816190Y-98188895D01*
X128816190Y-98188895D02*
X128797142Y-98207942D01*
X128663809Y-98169847D02*
X128416190Y-98169847D01*
X128416190Y-98169847D02*
X128549523Y-98322228D01*
X128549523Y-98322228D02*
X128492380Y-98322228D01*
X128492380Y-98322228D02*
X128454285Y-98341276D01*
X128454285Y-98341276D02*
X128435237Y-98360323D01*
X128435237Y-98360323D02*
X128416190Y-98398419D01*
X128416190Y-98398419D02*
X128416190Y-98493657D01*
X128416190Y-98493657D02*
X128435237Y-98531752D01*
X128435237Y-98531752D02*
X128454285Y-98550800D01*
X128454285Y-98550800D02*
X128492380Y-98569847D01*
X128492380Y-98569847D02*
X128606666Y-98569847D01*
X128606666Y-98569847D02*
X128644761Y-98550800D01*
X128644761Y-98550800D02*
X128663809Y-98531752D01*
X128282857Y-98169847D02*
X128016190Y-98169847D01*
X128016190Y-98169847D02*
X128187619Y-98569847D01*
D13*
X145961904Y-75454819D02*
X145961904Y-76264342D01*
X145961904Y-76264342D02*
X145914285Y-76359580D01*
X145914285Y-76359580D02*
X145866666Y-76407200D01*
X145866666Y-76407200D02*
X145771428Y-76454819D01*
X145771428Y-76454819D02*
X145580952Y-76454819D01*
X145580952Y-76454819D02*
X145485714Y-76407200D01*
X145485714Y-76407200D02*
X145438095Y-76359580D01*
X145438095Y-76359580D02*
X145390476Y-76264342D01*
X145390476Y-76264342D02*
X145390476Y-75454819D01*
X144438095Y-75454819D02*
X144914285Y-75454819D01*
X144914285Y-75454819D02*
X144961904Y-75931009D01*
X144961904Y-75931009D02*
X144914285Y-75883390D01*
X144914285Y-75883390D02*
X144819047Y-75835771D01*
X144819047Y-75835771D02*
X144580952Y-75835771D01*
X144580952Y-75835771D02*
X144485714Y-75883390D01*
X144485714Y-75883390D02*
X144438095Y-75931009D01*
X144438095Y-75931009D02*
X144390476Y-76026247D01*
X144390476Y-76026247D02*
X144390476Y-76264342D01*
X144390476Y-76264342D02*
X144438095Y-76359580D01*
X144438095Y-76359580D02*
X144485714Y-76407200D01*
X144485714Y-76407200D02*
X144580952Y-76454819D01*
X144580952Y-76454819D02*
X144819047Y-76454819D01*
X144819047Y-76454819D02*
X144914285Y-76407200D01*
X144914285Y-76407200D02*
X144961904Y-76359580D01*
D14*
X124255714Y-99615228D02*
X124284286Y-99643800D01*
X124284286Y-99643800D02*
X124370000Y-99672371D01*
X124370000Y-99672371D02*
X124427143Y-99672371D01*
X124427143Y-99672371D02*
X124512857Y-99643800D01*
X124512857Y-99643800D02*
X124570000Y-99586657D01*
X124570000Y-99586657D02*
X124598571Y-99529514D01*
X124598571Y-99529514D02*
X124627143Y-99415228D01*
X124627143Y-99415228D02*
X124627143Y-99329514D01*
X124627143Y-99329514D02*
X124598571Y-99215228D01*
X124598571Y-99215228D02*
X124570000Y-99158085D01*
X124570000Y-99158085D02*
X124512857Y-99100942D01*
X124512857Y-99100942D02*
X124427143Y-99072371D01*
X124427143Y-99072371D02*
X124370000Y-99072371D01*
X124370000Y-99072371D02*
X124284286Y-99100942D01*
X124284286Y-99100942D02*
X124255714Y-99129514D01*
X124055714Y-99072371D02*
X123684286Y-99072371D01*
X123684286Y-99072371D02*
X123884286Y-99300942D01*
X123884286Y-99300942D02*
X123798571Y-99300942D01*
X123798571Y-99300942D02*
X123741429Y-99329514D01*
X123741429Y-99329514D02*
X123712857Y-99358085D01*
X123712857Y-99358085D02*
X123684286Y-99415228D01*
X123684286Y-99415228D02*
X123684286Y-99558085D01*
X123684286Y-99558085D02*
X123712857Y-99615228D01*
X123712857Y-99615228D02*
X123741429Y-99643800D01*
X123741429Y-99643800D02*
X123798571Y-99672371D01*
X123798571Y-99672371D02*
X123970000Y-99672371D01*
X123970000Y-99672371D02*
X124027143Y-99643800D01*
X124027143Y-99643800D02*
X124055714Y-99615228D01*
X123455714Y-99129514D02*
X123427142Y-99100942D01*
X123427142Y-99100942D02*
X123370000Y-99072371D01*
X123370000Y-99072371D02*
X123227142Y-99072371D01*
X123227142Y-99072371D02*
X123170000Y-99100942D01*
X123170000Y-99100942D02*
X123141428Y-99129514D01*
X123141428Y-99129514D02*
X123112857Y-99186657D01*
X123112857Y-99186657D02*
X123112857Y-99243800D01*
X123112857Y-99243800D02*
X123141428Y-99329514D01*
X123141428Y-99329514D02*
X123484285Y-99672371D01*
X123484285Y-99672371D02*
X123112857Y-99672371D01*
X122575228Y-97344285D02*
X122603800Y-97315713D01*
X122603800Y-97315713D02*
X122632371Y-97229999D01*
X122632371Y-97229999D02*
X122632371Y-97172856D01*
X122632371Y-97172856D02*
X122603800Y-97087142D01*
X122603800Y-97087142D02*
X122546657Y-97029999D01*
X122546657Y-97029999D02*
X122489514Y-97001428D01*
X122489514Y-97001428D02*
X122375228Y-96972856D01*
X122375228Y-96972856D02*
X122289514Y-96972856D01*
X122289514Y-96972856D02*
X122175228Y-97001428D01*
X122175228Y-97001428D02*
X122118085Y-97029999D01*
X122118085Y-97029999D02*
X122060942Y-97087142D01*
X122060942Y-97087142D02*
X122032371Y-97172856D01*
X122032371Y-97172856D02*
X122032371Y-97229999D01*
X122032371Y-97229999D02*
X122060942Y-97315713D01*
X122060942Y-97315713D02*
X122089514Y-97344285D01*
X122032371Y-97544285D02*
X122032371Y-97915713D01*
X122032371Y-97915713D02*
X122260942Y-97715713D01*
X122260942Y-97715713D02*
X122260942Y-97801428D01*
X122260942Y-97801428D02*
X122289514Y-97858571D01*
X122289514Y-97858571D02*
X122318085Y-97887142D01*
X122318085Y-97887142D02*
X122375228Y-97915713D01*
X122375228Y-97915713D02*
X122518085Y-97915713D01*
X122518085Y-97915713D02*
X122575228Y-97887142D01*
X122575228Y-97887142D02*
X122603800Y-97858571D01*
X122603800Y-97858571D02*
X122632371Y-97801428D01*
X122632371Y-97801428D02*
X122632371Y-97629999D01*
X122632371Y-97629999D02*
X122603800Y-97572856D01*
X122603800Y-97572856D02*
X122575228Y-97544285D01*
X122232371Y-98430000D02*
X122632371Y-98430000D01*
X122003800Y-98287142D02*
X122432371Y-98144285D01*
X122432371Y-98144285D02*
X122432371Y-98515714D01*
X131485714Y-96235228D02*
X131514286Y-96263800D01*
X131514286Y-96263800D02*
X131600000Y-96292371D01*
X131600000Y-96292371D02*
X131657143Y-96292371D01*
X131657143Y-96292371D02*
X131742857Y-96263800D01*
X131742857Y-96263800D02*
X131800000Y-96206657D01*
X131800000Y-96206657D02*
X131828571Y-96149514D01*
X131828571Y-96149514D02*
X131857143Y-96035228D01*
X131857143Y-96035228D02*
X131857143Y-95949514D01*
X131857143Y-95949514D02*
X131828571Y-95835228D01*
X131828571Y-95835228D02*
X131800000Y-95778085D01*
X131800000Y-95778085D02*
X131742857Y-95720942D01*
X131742857Y-95720942D02*
X131657143Y-95692371D01*
X131657143Y-95692371D02*
X131600000Y-95692371D01*
X131600000Y-95692371D02*
X131514286Y-95720942D01*
X131514286Y-95720942D02*
X131485714Y-95749514D01*
X130971429Y-95892371D02*
X130971429Y-96292371D01*
X131114286Y-95663800D02*
X131257143Y-96092371D01*
X131257143Y-96092371D02*
X130885714Y-96092371D01*
X130571428Y-95949514D02*
X130628571Y-95920942D01*
X130628571Y-95920942D02*
X130657142Y-95892371D01*
X130657142Y-95892371D02*
X130685714Y-95835228D01*
X130685714Y-95835228D02*
X130685714Y-95806657D01*
X130685714Y-95806657D02*
X130657142Y-95749514D01*
X130657142Y-95749514D02*
X130628571Y-95720942D01*
X130628571Y-95720942D02*
X130571428Y-95692371D01*
X130571428Y-95692371D02*
X130457142Y-95692371D01*
X130457142Y-95692371D02*
X130400000Y-95720942D01*
X130400000Y-95720942D02*
X130371428Y-95749514D01*
X130371428Y-95749514D02*
X130342857Y-95806657D01*
X130342857Y-95806657D02*
X130342857Y-95835228D01*
X130342857Y-95835228D02*
X130371428Y-95892371D01*
X130371428Y-95892371D02*
X130400000Y-95920942D01*
X130400000Y-95920942D02*
X130457142Y-95949514D01*
X130457142Y-95949514D02*
X130571428Y-95949514D01*
X130571428Y-95949514D02*
X130628571Y-95978085D01*
X130628571Y-95978085D02*
X130657142Y-96006657D01*
X130657142Y-96006657D02*
X130685714Y-96063800D01*
X130685714Y-96063800D02*
X130685714Y-96178085D01*
X130685714Y-96178085D02*
X130657142Y-96235228D01*
X130657142Y-96235228D02*
X130628571Y-96263800D01*
X130628571Y-96263800D02*
X130571428Y-96292371D01*
X130571428Y-96292371D02*
X130457142Y-96292371D01*
X130457142Y-96292371D02*
X130400000Y-96263800D01*
X130400000Y-96263800D02*
X130371428Y-96235228D01*
X130371428Y-96235228D02*
X130342857Y-96178085D01*
X130342857Y-96178085D02*
X130342857Y-96063800D01*
X130342857Y-96063800D02*
X130371428Y-96006657D01*
X130371428Y-96006657D02*
X130400000Y-95978085D01*
X130400000Y-95978085D02*
X130457142Y-95949514D01*
D13*
X132561904Y-75554819D02*
X132561904Y-76364342D01*
X132561904Y-76364342D02*
X132514285Y-76459580D01*
X132514285Y-76459580D02*
X132466666Y-76507200D01*
X132466666Y-76507200D02*
X132371428Y-76554819D01*
X132371428Y-76554819D02*
X132180952Y-76554819D01*
X132180952Y-76554819D02*
X132085714Y-76507200D01*
X132085714Y-76507200D02*
X132038095Y-76459580D01*
X132038095Y-76459580D02*
X131990476Y-76364342D01*
X131990476Y-76364342D02*
X131990476Y-75554819D01*
X131085714Y-75554819D02*
X131276190Y-75554819D01*
X131276190Y-75554819D02*
X131371428Y-75602438D01*
X131371428Y-75602438D02*
X131419047Y-75650057D01*
X131419047Y-75650057D02*
X131514285Y-75792914D01*
X131514285Y-75792914D02*
X131561904Y-75983390D01*
X131561904Y-75983390D02*
X131561904Y-76364342D01*
X131561904Y-76364342D02*
X131514285Y-76459580D01*
X131514285Y-76459580D02*
X131466666Y-76507200D01*
X131466666Y-76507200D02*
X131371428Y-76554819D01*
X131371428Y-76554819D02*
X131180952Y-76554819D01*
X131180952Y-76554819D02*
X131085714Y-76507200D01*
X131085714Y-76507200D02*
X131038095Y-76459580D01*
X131038095Y-76459580D02*
X130990476Y-76364342D01*
X130990476Y-76364342D02*
X130990476Y-76126247D01*
X130990476Y-76126247D02*
X131038095Y-76031009D01*
X131038095Y-76031009D02*
X131085714Y-75983390D01*
X131085714Y-75983390D02*
X131180952Y-75935771D01*
X131180952Y-75935771D02*
X131371428Y-75935771D01*
X131371428Y-75935771D02*
X131466666Y-75983390D01*
X131466666Y-75983390D02*
X131514285Y-76031009D01*
X131514285Y-76031009D02*
X131561904Y-76126247D01*
X144971427Y-116354819D02*
X144971427Y-117164342D01*
X144971427Y-117164342D02*
X144923808Y-117259580D01*
X144923808Y-117259580D02*
X144876189Y-117307200D01*
X144876189Y-117307200D02*
X144780951Y-117354819D01*
X144780951Y-117354819D02*
X144590475Y-117354819D01*
X144590475Y-117354819D02*
X144495237Y-117307200D01*
X144495237Y-117307200D02*
X144447618Y-117259580D01*
X144447618Y-117259580D02*
X144399999Y-117164342D01*
X144399999Y-117164342D02*
X144399999Y-116354819D01*
X143399999Y-117354819D02*
X143971427Y-117354819D01*
X143685713Y-117354819D02*
X143685713Y-116354819D01*
X143685713Y-116354819D02*
X143780951Y-116497676D01*
X143780951Y-116497676D02*
X143876189Y-116592914D01*
X143876189Y-116592914D02*
X143971427Y-116640533D01*
X142780951Y-116354819D02*
X142685713Y-116354819D01*
X142685713Y-116354819D02*
X142590475Y-116402438D01*
X142590475Y-116402438D02*
X142542856Y-116450057D01*
X142542856Y-116450057D02*
X142495237Y-116545295D01*
X142495237Y-116545295D02*
X142447618Y-116735771D01*
X142447618Y-116735771D02*
X142447618Y-116973866D01*
X142447618Y-116973866D02*
X142495237Y-117164342D01*
X142495237Y-117164342D02*
X142542856Y-117259580D01*
X142542856Y-117259580D02*
X142590475Y-117307200D01*
X142590475Y-117307200D02*
X142685713Y-117354819D01*
X142685713Y-117354819D02*
X142780951Y-117354819D01*
X142780951Y-117354819D02*
X142876189Y-117307200D01*
X142876189Y-117307200D02*
X142923808Y-117259580D01*
X142923808Y-117259580D02*
X142971427Y-117164342D01*
X142971427Y-117164342D02*
X143019046Y-116973866D01*
X143019046Y-116973866D02*
X143019046Y-116735771D01*
X143019046Y-116735771D02*
X142971427Y-116545295D01*
X142971427Y-116545295D02*
X142923808Y-116450057D01*
X142923808Y-116450057D02*
X142876189Y-116402438D01*
X142876189Y-116402438D02*
X142780951Y-116354819D01*
D14*
X125960714Y-95600228D02*
X125989286Y-95628800D01*
X125989286Y-95628800D02*
X126075000Y-95657371D01*
X126075000Y-95657371D02*
X126132143Y-95657371D01*
X126132143Y-95657371D02*
X126217857Y-95628800D01*
X126217857Y-95628800D02*
X126275000Y-95571657D01*
X126275000Y-95571657D02*
X126303571Y-95514514D01*
X126303571Y-95514514D02*
X126332143Y-95400228D01*
X126332143Y-95400228D02*
X126332143Y-95314514D01*
X126332143Y-95314514D02*
X126303571Y-95200228D01*
X126303571Y-95200228D02*
X126275000Y-95143085D01*
X126275000Y-95143085D02*
X126217857Y-95085942D01*
X126217857Y-95085942D02*
X126132143Y-95057371D01*
X126132143Y-95057371D02*
X126075000Y-95057371D01*
X126075000Y-95057371D02*
X125989286Y-95085942D01*
X125989286Y-95085942D02*
X125960714Y-95114514D01*
X125760714Y-95057371D02*
X125389286Y-95057371D01*
X125389286Y-95057371D02*
X125589286Y-95285942D01*
X125589286Y-95285942D02*
X125503571Y-95285942D01*
X125503571Y-95285942D02*
X125446429Y-95314514D01*
X125446429Y-95314514D02*
X125417857Y-95343085D01*
X125417857Y-95343085D02*
X125389286Y-95400228D01*
X125389286Y-95400228D02*
X125389286Y-95543085D01*
X125389286Y-95543085D02*
X125417857Y-95600228D01*
X125417857Y-95600228D02*
X125446429Y-95628800D01*
X125446429Y-95628800D02*
X125503571Y-95657371D01*
X125503571Y-95657371D02*
X125675000Y-95657371D01*
X125675000Y-95657371D02*
X125732143Y-95628800D01*
X125732143Y-95628800D02*
X125760714Y-95600228D01*
X125046428Y-95314514D02*
X125103571Y-95285942D01*
X125103571Y-95285942D02*
X125132142Y-95257371D01*
X125132142Y-95257371D02*
X125160714Y-95200228D01*
X125160714Y-95200228D02*
X125160714Y-95171657D01*
X125160714Y-95171657D02*
X125132142Y-95114514D01*
X125132142Y-95114514D02*
X125103571Y-95085942D01*
X125103571Y-95085942D02*
X125046428Y-95057371D01*
X125046428Y-95057371D02*
X124932142Y-95057371D01*
X124932142Y-95057371D02*
X124875000Y-95085942D01*
X124875000Y-95085942D02*
X124846428Y-95114514D01*
X124846428Y-95114514D02*
X124817857Y-95171657D01*
X124817857Y-95171657D02*
X124817857Y-95200228D01*
X124817857Y-95200228D02*
X124846428Y-95257371D01*
X124846428Y-95257371D02*
X124875000Y-95285942D01*
X124875000Y-95285942D02*
X124932142Y-95314514D01*
X124932142Y-95314514D02*
X125046428Y-95314514D01*
X125046428Y-95314514D02*
X125103571Y-95343085D01*
X125103571Y-95343085D02*
X125132142Y-95371657D01*
X125132142Y-95371657D02*
X125160714Y-95428800D01*
X125160714Y-95428800D02*
X125160714Y-95543085D01*
X125160714Y-95543085D02*
X125132142Y-95600228D01*
X125132142Y-95600228D02*
X125103571Y-95628800D01*
X125103571Y-95628800D02*
X125046428Y-95657371D01*
X125046428Y-95657371D02*
X124932142Y-95657371D01*
X124932142Y-95657371D02*
X124875000Y-95628800D01*
X124875000Y-95628800D02*
X124846428Y-95600228D01*
X124846428Y-95600228D02*
X124817857Y-95543085D01*
X124817857Y-95543085D02*
X124817857Y-95428800D01*
X124817857Y-95428800D02*
X124846428Y-95371657D01*
X124846428Y-95371657D02*
X124875000Y-95343085D01*
X124875000Y-95343085D02*
X124932142Y-95314514D01*
D13*
X107361904Y-75554819D02*
X107361904Y-76364342D01*
X107361904Y-76364342D02*
X107314285Y-76459580D01*
X107314285Y-76459580D02*
X107266666Y-76507200D01*
X107266666Y-76507200D02*
X107171428Y-76554819D01*
X107171428Y-76554819D02*
X106980952Y-76554819D01*
X106980952Y-76554819D02*
X106885714Y-76507200D01*
X106885714Y-76507200D02*
X106838095Y-76459580D01*
X106838095Y-76459580D02*
X106790476Y-76364342D01*
X106790476Y-76364342D02*
X106790476Y-75554819D01*
X106266666Y-76554819D02*
X106076190Y-76554819D01*
X106076190Y-76554819D02*
X105980952Y-76507200D01*
X105980952Y-76507200D02*
X105933333Y-76459580D01*
X105933333Y-76459580D02*
X105838095Y-76316723D01*
X105838095Y-76316723D02*
X105790476Y-76126247D01*
X105790476Y-76126247D02*
X105790476Y-75745295D01*
X105790476Y-75745295D02*
X105838095Y-75650057D01*
X105838095Y-75650057D02*
X105885714Y-75602438D01*
X105885714Y-75602438D02*
X105980952Y-75554819D01*
X105980952Y-75554819D02*
X106171428Y-75554819D01*
X106171428Y-75554819D02*
X106266666Y-75602438D01*
X106266666Y-75602438D02*
X106314285Y-75650057D01*
X106314285Y-75650057D02*
X106361904Y-75745295D01*
X106361904Y-75745295D02*
X106361904Y-75983390D01*
X106361904Y-75983390D02*
X106314285Y-76078628D01*
X106314285Y-76078628D02*
X106266666Y-76126247D01*
X106266666Y-76126247D02*
X106171428Y-76173866D01*
X106171428Y-76173866D02*
X105980952Y-76173866D01*
X105980952Y-76173866D02*
X105885714Y-76126247D01*
X105885714Y-76126247D02*
X105838095Y-76078628D01*
X105838095Y-76078628D02*
X105790476Y-75983390D01*
D15*
%TO.C,C33*%
X128960000Y-99372164D02*
X128960000Y-99587836D01*
X129680000Y-99372164D02*
X129680000Y-99587836D01*
D10*
%TO.C,U12*%
X121283333Y-133400000D02*
X121279015Y-114800088D01*
X121279015Y-114800088D02*
X121271141Y-114781038D01*
X121275967Y-133418288D02*
X121283333Y-133400000D01*
X121271141Y-114781038D02*
X121264537Y-114764782D01*
X121268855Y-133435560D02*
X121275967Y-133418288D01*
X121264537Y-114764782D02*
X121264283Y-114764782D01*
X121264283Y-114764782D02*
X121245487Y-114756908D01*
X121251583Y-133442672D02*
X121268855Y-133435560D01*
X121245487Y-114756908D02*
X121228977Y-114750050D01*
X121233549Y-133450038D02*
X121251583Y-133442672D01*
X121228977Y-114750050D02*
X111228997Y-114750050D01*
X121183511Y-133350216D02*
X111283353Y-133350216D01*
X121179193Y-114850126D02*
X121183511Y-133350216D01*
X111283353Y-133350216D02*
X111279035Y-114850126D01*
X111279035Y-114850126D02*
X121179193Y-114850126D01*
X111233569Y-133450038D02*
X121233549Y-133450038D01*
X111228997Y-114750050D02*
X111210963Y-114757670D01*
X111215281Y-133442672D02*
X111233569Y-133450038D01*
X111210963Y-114757670D02*
X111193691Y-114764782D01*
X111198009Y-133435560D02*
X111215281Y-133442672D01*
X111193691Y-114764782D02*
X111186325Y-114782816D01*
X111190897Y-133418288D02*
X111198009Y-133435560D01*
X111186325Y-114782816D02*
X111178959Y-114800088D01*
X111183531Y-133400000D02*
X111190897Y-133418288D01*
X111178959Y-114800088D02*
X111183531Y-133400000D01*
D15*
%TO.C,C22*%
X127210000Y-99892164D02*
X127210000Y-100107836D01*
X127930000Y-99892164D02*
X127930000Y-100107836D01*
%TO.C,C21*%
X127832164Y-96360000D02*
X128047836Y-96360000D01*
X127832164Y-97080000D02*
X128047836Y-97080000D01*
%TO.C,C31*%
X123242164Y-101090000D02*
X123457836Y-101090000D01*
X123242164Y-101810000D02*
X123457836Y-101810000D01*
D10*
%TO.C,U8*%
X111183333Y-64600000D02*
X111187651Y-83199912D01*
X111187651Y-83199912D02*
X111195525Y-83218962D01*
X111190699Y-64581712D02*
X111183333Y-64600000D01*
X111195525Y-83218962D02*
X111202129Y-83235218D01*
X111197811Y-64564440D02*
X111190699Y-64581712D01*
X111202129Y-83235218D02*
X111202383Y-83235218D01*
X111202383Y-83235218D02*
X111221179Y-83243092D01*
X111215083Y-64557328D02*
X111197811Y-64564440D01*
X111221179Y-83243092D02*
X111237689Y-83249950D01*
X111233117Y-64549962D02*
X111215083Y-64557328D01*
X111237689Y-83249950D02*
X121237669Y-83249950D01*
X111283155Y-64649784D02*
X121183313Y-64649784D01*
X111287473Y-83149874D02*
X111283155Y-64649784D01*
X121183313Y-64649784D02*
X121187631Y-83149874D01*
X121187631Y-83149874D02*
X111287473Y-83149874D01*
X121233097Y-64549962D02*
X111233117Y-64549962D01*
X121237669Y-83249950D02*
X121255703Y-83242330D01*
X121251385Y-64557328D02*
X121233097Y-64549962D01*
X121255703Y-83242330D02*
X121272975Y-83235218D01*
X121268657Y-64564440D02*
X121251385Y-64557328D01*
X121272975Y-83235218D02*
X121280341Y-83217184D01*
X121275769Y-64581712D02*
X121268657Y-64564440D01*
X121280341Y-83217184D02*
X121287707Y-83199912D01*
X121283135Y-64600000D02*
X121275769Y-64581712D01*
X121287707Y-83199912D02*
X121283135Y-64600000D01*
D15*
%TO.C,C35*%
X126882164Y-98170000D02*
X127097836Y-98170000D01*
X126882164Y-98890000D02*
X127097836Y-98890000D01*
D10*
%TO.C,U13*%
X108750000Y-133400000D02*
X108745682Y-114800088D01*
X108745682Y-114800088D02*
X108737808Y-114781038D01*
X108742634Y-133418288D02*
X108750000Y-133400000D01*
X108737808Y-114781038D02*
X108731204Y-114764782D01*
X108735522Y-133435560D02*
X108742634Y-133418288D01*
X108731204Y-114764782D02*
X108730950Y-114764782D01*
X108730950Y-114764782D02*
X108712154Y-114756908D01*
X108718250Y-133442672D02*
X108735522Y-133435560D01*
X108712154Y-114756908D02*
X108695644Y-114750050D01*
X108700216Y-133450038D02*
X108718250Y-133442672D01*
X108695644Y-114750050D02*
X98695664Y-114750050D01*
X108650178Y-133350216D02*
X98750020Y-133350216D01*
X108645860Y-114850126D02*
X108650178Y-133350216D01*
X98750020Y-133350216D02*
X98745702Y-114850126D01*
X98745702Y-114850126D02*
X108645860Y-114850126D01*
X98700236Y-133450038D02*
X108700216Y-133450038D01*
X98695664Y-114750050D02*
X98677630Y-114757670D01*
X98681948Y-133442672D02*
X98700236Y-133450038D01*
X98677630Y-114757670D02*
X98660358Y-114764782D01*
X98664676Y-133435560D02*
X98681948Y-133442672D01*
X98660358Y-114764782D02*
X98652992Y-114782816D01*
X98657564Y-133418288D02*
X98664676Y-133435560D01*
X98652992Y-114782816D02*
X98645626Y-114800088D01*
X98650198Y-133400000D02*
X98657564Y-133418288D01*
X98645626Y-114800088D02*
X98650198Y-133400000D01*
%TO.C,U11*%
X133816666Y-133400000D02*
X133812348Y-114800088D01*
X133812348Y-114800088D02*
X133804474Y-114781038D01*
X133809300Y-133418288D02*
X133816666Y-133400000D01*
X133804474Y-114781038D02*
X133797870Y-114764782D01*
X133802188Y-133435560D02*
X133809300Y-133418288D01*
X133797870Y-114764782D02*
X133797616Y-114764782D01*
X133797616Y-114764782D02*
X133778820Y-114756908D01*
X133784916Y-133442672D02*
X133802188Y-133435560D01*
X133778820Y-114756908D02*
X133762310Y-114750050D01*
X133766882Y-133450038D02*
X133784916Y-133442672D01*
X133762310Y-114750050D02*
X123762330Y-114750050D01*
X133716844Y-133350216D02*
X123816686Y-133350216D01*
X133712526Y-114850126D02*
X133716844Y-133350216D01*
X123816686Y-133350216D02*
X123812368Y-114850126D01*
X123812368Y-114850126D02*
X133712526Y-114850126D01*
X123766902Y-133450038D02*
X133766882Y-133450038D01*
X123762330Y-114750050D02*
X123744296Y-114757670D01*
X123748614Y-133442672D02*
X123766902Y-133450038D01*
X123744296Y-114757670D02*
X123727024Y-114764782D01*
X123731342Y-133435560D02*
X123748614Y-133442672D01*
X123727024Y-114764782D02*
X123719658Y-114782816D01*
X123724230Y-133418288D02*
X123731342Y-133435560D01*
X123719658Y-114782816D02*
X123712292Y-114800088D01*
X123716864Y-133400000D02*
X123724230Y-133418288D01*
X123712292Y-114800088D02*
X123716864Y-133400000D01*
D15*
%TO.C,L3*%
X124437221Y-98000000D02*
X124762779Y-98000000D01*
X124437221Y-96980000D02*
X124762779Y-96980000D01*
%TO.C,C23*%
X124954200Y-95957836D02*
X124954200Y-95742164D01*
X125674200Y-95957836D02*
X125674200Y-95742164D01*
%TO.C,C36*%
X123242164Y-100090000D02*
X123457836Y-100090000D01*
X123242164Y-100810000D02*
X123457836Y-100810000D01*
%TO.C,C37*%
X127802164Y-97230000D02*
X128017836Y-97230000D01*
X127802164Y-97950000D02*
X128017836Y-97950000D01*
D10*
%TO.C,U5*%
X136250000Y-64600000D02*
X136254318Y-83199912D01*
X136254318Y-83199912D02*
X136262192Y-83218962D01*
X136257366Y-64581712D02*
X136250000Y-64600000D01*
X136262192Y-83218962D02*
X136268796Y-83235218D01*
X136264478Y-64564440D02*
X136257366Y-64581712D01*
X136268796Y-83235218D02*
X136269050Y-83235218D01*
X136269050Y-83235218D02*
X136287846Y-83243092D01*
X136281750Y-64557328D02*
X136264478Y-64564440D01*
X136287846Y-83243092D02*
X136304356Y-83249950D01*
X136299784Y-64549962D02*
X136281750Y-64557328D01*
X136304356Y-83249950D02*
X146304336Y-83249950D01*
X136349822Y-64649784D02*
X146249980Y-64649784D01*
X136354140Y-83149874D02*
X136349822Y-64649784D01*
X146249980Y-64649784D02*
X146254298Y-83149874D01*
X146254298Y-83149874D02*
X136354140Y-83149874D01*
X146299764Y-64549962D02*
X136299784Y-64549962D01*
X146304336Y-83249950D02*
X146322370Y-83242330D01*
X146318052Y-64557328D02*
X146299764Y-64549962D01*
X146322370Y-83242330D02*
X146339642Y-83235218D01*
X146335324Y-64564440D02*
X146318052Y-64557328D01*
X146339642Y-83235218D02*
X146347008Y-83217184D01*
X146342436Y-64581712D02*
X146335324Y-64564440D01*
X146347008Y-83217184D02*
X146354374Y-83199912D01*
X146349802Y-64600000D02*
X146342436Y-64581712D01*
X146354374Y-83199912D02*
X146349802Y-64600000D01*
D15*
%TO.C,C32*%
X125727836Y-99810000D02*
X125512164Y-99810000D01*
X125727836Y-99090000D02*
X125512164Y-99090000D01*
%TO.C,C34*%
X121940000Y-95937836D02*
X121940000Y-95722164D01*
X122660000Y-95937836D02*
X122660000Y-95722164D01*
%TO.C,C48*%
X131861252Y-98330000D02*
X130438748Y-98330000D01*
X131861252Y-96510000D02*
X130438748Y-96510000D01*
D10*
%TO.C,U6*%
X123716666Y-64600000D02*
X123720984Y-83199912D01*
X123720984Y-83199912D02*
X123728858Y-83218962D01*
X123724032Y-64581712D02*
X123716666Y-64600000D01*
X123728858Y-83218962D02*
X123735462Y-83235218D01*
X123731144Y-64564440D02*
X123724032Y-64581712D01*
X123735462Y-83235218D02*
X123735716Y-83235218D01*
X123735716Y-83235218D02*
X123754512Y-83243092D01*
X123748416Y-64557328D02*
X123731144Y-64564440D01*
X123754512Y-83243092D02*
X123771022Y-83249950D01*
X123766450Y-64549962D02*
X123748416Y-64557328D01*
X123771022Y-83249950D02*
X133771002Y-83249950D01*
X123816488Y-64649784D02*
X133716646Y-64649784D01*
X123820806Y-83149874D02*
X123816488Y-64649784D01*
X133716646Y-64649784D02*
X133720964Y-83149874D01*
X133720964Y-83149874D02*
X123820806Y-83149874D01*
X133766430Y-64549962D02*
X123766450Y-64549962D01*
X133771002Y-83249950D02*
X133789036Y-83242330D01*
X133784718Y-64557328D02*
X133766430Y-64549962D01*
X133789036Y-83242330D02*
X133806308Y-83235218D01*
X133801990Y-64564440D02*
X133784718Y-64557328D01*
X133806308Y-83235218D02*
X133813674Y-83217184D01*
X133809102Y-64581712D02*
X133801990Y-64564440D01*
X133813674Y-83217184D02*
X133821040Y-83199912D01*
X133816468Y-64600000D02*
X133809102Y-64581712D01*
X133821040Y-83199912D02*
X133816468Y-64600000D01*
%TO.C,U10*%
X146350000Y-133400000D02*
X146345682Y-114800088D01*
X146345682Y-114800088D02*
X146337808Y-114781038D01*
X146342634Y-133418288D02*
X146350000Y-133400000D01*
X146337808Y-114781038D02*
X146331204Y-114764782D01*
X146335522Y-133435560D02*
X146342634Y-133418288D01*
X146331204Y-114764782D02*
X146330950Y-114764782D01*
X146330950Y-114764782D02*
X146312154Y-114756908D01*
X146318250Y-133442672D02*
X146335522Y-133435560D01*
X146312154Y-114756908D02*
X146295644Y-114750050D01*
X146300216Y-133450038D02*
X146318250Y-133442672D01*
X146295644Y-114750050D02*
X136295664Y-114750050D01*
X146250178Y-133350216D02*
X136350020Y-133350216D01*
X146245860Y-114850126D02*
X146250178Y-133350216D01*
X136350020Y-133350216D02*
X136345702Y-114850126D01*
X136345702Y-114850126D02*
X146245860Y-114850126D01*
X136300236Y-133450038D02*
X146300216Y-133450038D01*
X136295664Y-114750050D02*
X136277630Y-114757670D01*
X136281948Y-133442672D02*
X136300236Y-133450038D01*
X136277630Y-114757670D02*
X136260358Y-114764782D01*
X136264676Y-133435560D02*
X136281948Y-133442672D01*
X136260358Y-114764782D02*
X136252992Y-114782816D01*
X136257564Y-133418288D02*
X136264676Y-133435560D01*
X136252992Y-114782816D02*
X136245626Y-114800088D01*
X136250198Y-133400000D02*
X136257564Y-133418288D01*
X136245626Y-114800088D02*
X136250198Y-133400000D01*
D15*
%TO.C,C38*%
X123592164Y-95050000D02*
X123807836Y-95050000D01*
X123592164Y-95770000D02*
X123807836Y-95770000D01*
D10*
%TO.C,U9*%
X98650000Y-64600000D02*
X98654318Y-83199912D01*
X98654318Y-83199912D02*
X98662192Y-83218962D01*
X98657366Y-64581712D02*
X98650000Y-64600000D01*
X98662192Y-83218962D02*
X98668796Y-83235218D01*
X98664478Y-64564440D02*
X98657366Y-64581712D01*
X98668796Y-83235218D02*
X98669050Y-83235218D01*
X98669050Y-83235218D02*
X98687846Y-83243092D01*
X98681750Y-64557328D02*
X98664478Y-64564440D01*
X98687846Y-83243092D02*
X98704356Y-83249950D01*
X98699784Y-64549962D02*
X98681750Y-64557328D01*
X98704356Y-83249950D02*
X108704336Y-83249950D01*
X98749822Y-64649784D02*
X108649980Y-64649784D01*
X98754140Y-83149874D02*
X98749822Y-64649784D01*
X108649980Y-64649784D02*
X108654298Y-83149874D01*
X108654298Y-83149874D02*
X98754140Y-83149874D01*
X108699764Y-64549962D02*
X98699784Y-64549962D01*
X108704336Y-83249950D02*
X108722370Y-83242330D01*
X108718052Y-64557328D02*
X108699764Y-64549962D01*
X108722370Y-83242330D02*
X108739642Y-83235218D01*
X108735324Y-64564440D02*
X108718052Y-64557328D01*
X108739642Y-83235218D02*
X108747008Y-83217184D01*
X108742436Y-64581712D02*
X108735324Y-64564440D01*
X108747008Y-83217184D02*
X108754374Y-83199912D01*
X108749802Y-64600000D02*
X108742436Y-64581712D01*
X108754374Y-83199912D02*
X108749802Y-64600000D01*
%TD*%
M02*
